<?xml version="1.0" standalone="no"?>
<!DOCTYPE svg PUBLIC "-//W3C//DTD SVG 1.1//EN" "http://www.w3.org/Graphics/SVG/1.1/DTD/svg11.dtd" >
<svg>
<metadata>
Created by FontForge 20090914 at Tue Jan 22 17:23:51 2013
 By www-data
eurofurence &#194;&#169; 1995..2000 tobias b k&#195;&#182;hler unci@tigerden.com
</metadata>
<defs>
<font id="Eurofurencelight" horiz-adv-x="1070" >
  <font-face 
    font-family="eurofurence light"
    font-weight="300"
    font-stretch="normal"
    units-per-em="2325"
    panose-1="2 15 3 2 2 2 3 2 2 4"
    ascent="1860"
    descent="-465"
    x-height="970"
    cap-height="1420"
    bbox="-400 -451 2891 1875"
    underline-thickness="70"
    underline-position="-190"
    unicode-range="U+0020-U+FB06"
  />
<missing-glyph horiz-adv-x="1163" 
d="M145 0v1875h872v-1875h-872zM291 145h581v1585h-581v-1585z" />
    <glyph glyph-name=".notdef" horiz-adv-x="1163" 
d="M145 0v1875h872v-1875h-872zM291 145h581v1585h-581v-1585z" />
    <glyph glyph-name="space" unicode=" " horiz-adv-x="456" 
 />
    <glyph glyph-name="exclam" unicode="!" horiz-adv-x="370" 
d="M220 410c0 -23.333 -11.667 -35 -35 -35s-35 11.667 -35 35v975c0 23.333 11.667 35 35 35s35 -11.667 35 -35v-975zM259 74c0 -20 -7.33301 -37.333 -22 -52s-32 -22 -52 -22s-37.333 7.33301 -52 22s-22 32 -22 52c0 47.333 24.667 71 74 71s74 -23.667 74 -71z" />
    <glyph glyph-name="quotedbl" unicode="&#x22;" horiz-adv-x="696" 
d="M646 1386c0 -6.66699 -23.332 -69.334 -69.999 -188.001s-74.334 -185.5 -83.001 -200.5s-19 -22.5 -31 -22.5c-24.667 0 -37 11.333 -37 34c0 6.66699 23.333 69.334 70 188.001s74.167 185.5 82.5 200.5s18.833 22.5 31.5 22.5c24.667 0 37 -11.333 37 -34z
M271.001 1386c0 -6.66699 -23.332 -69.334 -69.999 -188.001s-74.334 -185.5 -83.001 -200.5s-19 -22.5 -31 -22.5c-24.667 0 -37 11.333 -37 34c0 6.66699 23.333 69.334 70 188.001s74.167 185.5 82.5 200.5s18.833 22.5 31.5 22.5c24.667 0 37 -11.333 37 -34z" />
    <glyph glyph-name="numbersign" unicode="#" horiz-adv-x="1520" 
d="M1470 485c0 -23.333 -11.667 -35 -35 -35h-415v-415c0 -23.333 -11.667 -35 -35 -35s-35 11.667 -35 35v415h-380v-415c0 -23.333 -11.667 -35 -35 -35s-35 11.667 -35 35v415h-415c-23.333 0 -35 11.667 -35 35s11.667 35 35 35h415v380h-415
c-23.333 0 -35 11.667 -35 35s11.667 35 35 35h415v415c0 23.333 11.667 35 35 35s35 -11.667 35 -35v-415h380v415c0 23.333 11.667 35 35 35s35 -11.667 35 -35v-415h415c23.333 0 35 -11.667 35 -35s-11.667 -35 -35 -35h-415v-380h415c23.333 0 35 -11.667 35 -35z
M950 520v380h-380v-380h380z" />
    <glyph glyph-name="dollar" unicode="$" horiz-adv-x="871" 
d="M821 410c0 -86.667 -25.333 -165.667 -76 -237s-117 -121.333 -199 -150v-288c0 -23.333 -11.667 -35 -35 -35s-35 11.667 -35 35v270c-21.333 -3.33301 -43 -5 -65 -5s-43.667 1.66699 -65 5v-270c0 -23.333 -11.667 -35 -35 -35s-35 11.667 -35 35v288
c-102 35.333 -175.667 96 -221 182c-3.33301 7.33301 -5 13.666 -5 18.999c0 22.667 12.333 34 37 34c10.667 0 20.334 -6 29.001 -18c52 -71.333 105.333 -118.666 160 -141.999v680c-60.667 26.667 -109.167 68 -145.5 124s-54.5 117 -54.5 183s18.167 127 54.5 183
s84.833 97.333 145.5 124v293c0 23.333 11.667 35 35 35s35 -11.667 35 -35v-271c21.333 4 43 6 65 6s43.667 -2 65 -6v271c0 23.333 11.667 35 35 35s35 -11.667 35 -35v-293c28.667 -13.333 60.667 -35.333 96 -66c42.667 -36.667 64 -67 64 -91
c0 -22.667 -12.333 -34 -37 -34c-10.667 0 -20.334 5.66699 -29.001 17c-34 46 -65.333 77.667 -94 95v-516c82 -28.667 148.333 -78.667 199 -150s76 -150.333 76 -237zM476 815v527c-21.333 5.33301 -43 8 -65 8s-43.667 -2.66699 -65 -8v-514
c28.667 -2 72 -6.33301 130 -13zM276 857v456c-86.667 -51.333 -130 -127.333 -130 -228s43.333 -176.667 130 -228zM751 410c0 67.333 -18.667 129.5 -56 186.5s-87 98.833 -149 125.5v-624c62 26.667 111.667 68.5 149 125.5s56 119.167 56 186.5zM476 76
l-0.000976562 668c-29.333 1.33301 -72.666 5.33301 -129.999 12v-680c21.333 -4 43 -6 65 -6s43.667 2 65 6z" />
    <glyph glyph-name="percent" unicode="%" horiz-adv-x="1521" 
d="M721 1085c0 -92 -32.833 -170.833 -98.5 -236.5s-144.5 -98.5 -236.5 -98.5c-92.667 0 -171.667 32.833 -237 98.5s-98 144.5 -98 236.5s32.667 170.833 98 236.5s144.333 98.5 237 98.5c92 0 170.833 -32.833 236.5 -98.5s98.5 -144.5 98.5 -236.5zM1471 335
c0 -92 -32.833 -170.833 -98.5 -236.5s-144.5 -98.5 -236.5 -98.5c-92.667 -0 -171.667 32.833 -237 98.5s-98 144.5 -98 236.5s32.667 170.833 98 236.5s144.333 98.5 237 98.5c92 0 170.833 -32.833 236.5 -98.5s98.5 -144.5 98.5 -236.5zM1471 1385
c0 -9.33301 -3.66699 -17.666 -11 -24.999l-1350 -1350c-7.33301 -7.33301 -15.333 -11 -24 -11c-24 0 -36 12 -36 36c0 9.33301 3.66699 17.666 11 24.999l1350 1350c7.33301 7.33301 15.333 11 24 11c24 0 36 -12 36 -36zM651 1085c0 72.667 -26 135 -78 187
s-114.333 78 -187 78c-73.333 0 -135.833 -26 -187.5 -78s-77.5 -114.333 -77.5 -187s25.833 -135 77.5 -187s114.167 -78 187.5 -78c72.667 0 135 26 187 78s78 114.333 78 187zM1401 335c0 72.667 -26 135 -78 187s-114.333 78 -187 78c-73.333 0 -135.833 -26 -187.5 -78
s-77.5 -114.333 -77.5 -187s25.833 -135 77.5 -187s114.167 -78 187.5 -78c72.667 0 135 26 187 78s78 114.333 78 187z" />
    <glyph glyph-name="ampersand" unicode="&#x26;" horiz-adv-x="1171" 
d="M1121 35c0 -24 -12.001 -36.001 -36.001 -36.001c-9.33301 0 -17.666 3.66699 -24.999 11l-228 228c-33.333 -72 -83.666 -129.667 -150.999 -173s-141 -65 -221 -65c-113.333 0 -210 40 -290 120s-120 176.667 -120 290c0 80 21.667 153.667 65 221s101.333 118 174 152
c-60 59.333 -99 103.333 -117 132c-31.333 49.333 -47 106 -47 170c0 92 32.833 170.833 98.5 236.5s144.5 98.5 236.5 98.5s170.833 -32.833 236.5 -98.5s98.5 -144.5 98.5 -236.5s-32.833 -170.833 -98.5 -236.5s-144.5 -98.5 -236.5 -98.5
c-12.667 0 -25.334 -0.666992 -38.001 -2l688 -688c7.33301 -7.33301 11 -15.666 11 -24.999zM724.999 1085c0 72.667 -26 134.999 -78 186.999s-114.333 78 -187 78s-135 -26 -187 -78s-78 -114.333 -78 -187c0 -56.667 17.333 -108.667 52 -156
c12.667 -17.333 51 -57.666 115 -120.999c32 8 64.667 12 98 12c72.667 0 135 26 187 78s78 114.333 78 187zM778.999 291.998l-437.001 437.001c-66.667 -24.667 -120.334 -66.334 -161.001 -125.001s-61 -123.334 -61 -194.001c0 -93.333 33.333 -173.333 100 -240
s146.667 -100 240 -100c70.667 0 135.334 20.333 194.001 61s100.334 94.334 125.001 161.001z" />
    <glyph glyph-name="quotesingle" unicode="'" horiz-adv-x="321" 
d="M271 1386c0 -6.66699 -23.332 -69.334 -69.999 -188.001s-74.334 -185.5 -83.001 -200.5s-19 -22.5 -31 -22.5c-24.667 0 -37 11.333 -37 34c0 6.66699 23.333 69.334 70 188.001s74.167 185.5 82.5 200.5s18.833 22.5 31.5 22.5c24.667 0 37 -11.333 37 -34z" />
    <glyph glyph-name="parenleft" unicode="(" horiz-adv-x="411" 
d="M361 1385c0 -6 -1.66699 -11.999 -5 -17.999c-157.333 -297.333 -236 -591.333 -236 -882s78.333 -584.334 235 -881.001c4 -6.66699 6 -13 6 -19c0 -22.667 -12.333 -34 -37 -34c-18.667 0 -51.667 50.333 -99 151c-116.667 249.333 -175 510.333 -175 783
s58.333 533.667 175 783c47.333 100.667 80.333 151 99 151c24.667 0 37 -11.333 37 -34z" />
    <glyph glyph-name="parenright" unicode=")" horiz-adv-x="411" 
d="M361 485c0 -272.667 -58.333 -533.668 -175 -783.001c-47.333 -100.667 -80.333 -151 -99 -151c-24.667 0 -37 11.333 -37 34c0 6 1.66699 12.333 5 19c157.333 296.667 236 590.334 236 881.001s-78.667 584.667 -236 882c-3.33301 6 -5 12 -5 18
c0 22.667 12.333 34 37 34c18.667 0 51.667 -50.333 99 -151c116.667 -249.333 175 -510.333 175 -783z" />
    <glyph glyph-name="asterisk" unicode="*" 
d="M1020 935c0 -24 -11.667 -35.667 -35 -35l-387 9l280 -267c7.33301 -7.33301 11 -15.666 11 -24.999c0 -24 -12 -36 -36 -36c-9.33301 0 -17.666 3.66699 -24.999 11l-267 280l9 -387c0.666992 -23.333 -11 -35 -35 -35s-35.667 11.667 -35 35l9 387l-267 -280
c-7.33301 -7.33301 -15.666 -11 -24.999 -11c-24 0 -36 12 -36 36c0 9.33301 3.66699 17.666 11 24.999l280 267l-387 -9c-23.333 -0.666992 -35 11 -35 35s11.667 35.667 35 35l387 -9l-280 267c-7.33301 7.33301 -11 15.666 -11 24.999c0 24 12 36 36 36
c9.33301 0 17.666 -3.66699 24.999 -11l267 -280l-9 387c-0.666992 23.333 11 35 35 35s35.667 -11.667 35 -35l-9 -387l267 280c7.33301 7.33301 15.666 11 24.999 11c24 0 36 -12 36 -36c0 -9.33301 -3.66699 -17.666 -11 -24.999l-280 -267l387 9
c23.333 0.666992 35 -11 35 -35z" />
    <glyph glyph-name="plus" unicode="+" 
d="M1020 597c0 -23.333 -11.667 -35 -35 -35l-415 1v-416c0 -22.667 -11.667 -34 -35 -34s-35 11.333 -35 34v416l-415 -1c-23.333 0 -35 11.667 -35 35s11.667 35 35 35h415v415c0 23.333 11.667 35 35 35s35 -11.667 35 -35v-415h415c23.333 0 35 -11.667 35 -35z" />
    <glyph glyph-name="comma" unicode="," horiz-adv-x="303" 
d="M253 35c0 -62 -12.333 -124.333 -37 -187c-26.667 -66.667 -62 -119 -106 -157c-8 -7.33301 -16 -11 -24 -11c-24 0 -36 12 -36 36c0 8 3.66699 16.333 11 25c81.333 98.667 122 196.667 122 294c0 23.333 11.667 35 35 35s35 -11.667 35 -35z" />
    <glyph glyph-name="hyphen" unicode="-" horiz-adv-x="620" 
d="M570 485c0 -23.333 -11.667 -35 -35 -35h-450c-23.333 0 -35 11.667 -35 35s11.667 35 35 35h450c23.333 0 35 -11.667 35 -35z" />
    <glyph glyph-name="hyphen" unicode="&#x2010;" horiz-adv-x="620" 
d="M570 485c0 -23.333 -11.667 -35 -35 -35h-450c-23.333 0 -35 11.667 -35 35s11.667 35 35 35h450c23.333 0 35 -11.667 35 -35z" />
    <glyph glyph-name="period" unicode="." horiz-adv-x="248" 
d="M198 74c0 -20 -7.33301 -37.333 -22 -52s-32 -22 -52 -22s-37.333 7.33301 -52 22s-22 32 -22 52c0 47.333 24.667 71 74 71s74 -23.667 74 -71z" />
    <glyph glyph-name="slash" unicode="/" horiz-adv-x="1071" 
d="M1021 1386c0 -13.333 -253 -522.666 -759 -1528l-105 -210l-40 -80c-8 -12.667 -18 -19 -30 -19c-24.667 0 -37 11.333 -37 34c0 13.333 253 522.666 759 1528l105 210l40 80c8 12.667 18 19 30 19c24.667 0 37 -11.333 37 -34z" />
    <glyph glyph-name="zero" unicode="0" 
d="M1020 597c0 -150.667 -42.333 -284.667 -127 -402c-93.333 -130 -212.666 -195 -357.999 -195s-264.666 65 -357.999 195c-84.667 117.333 -127 251.333 -127 402c0 151.333 42.333 285.666 127 402.999c93.333 130 212.666 195 357.999 195s264.666 -65 357.999 -195
c84.667 -117.333 127 -251.666 127 -402.999zM950 597c0 131.333 -35.667 249 -107 353c-80 116.667 -182.667 175 -308 175s-228 -58.333 -308 -175c-71.333 -104 -107 -221.667 -107 -353c0 -130.667 35.667 -248 107 -352c80 -116.667 182.667 -175 308 -175
s228 58.333 308 175c71.333 104 107 221.333 107 352zM572 597c0 -24.667 -12.333 -37 -37 -37s-37 12.333 -37 37c0 23.333 12.333 35 37 35s37 -11.667 37 -35z" />
    <glyph glyph-name="one" unicode="1" 
d="M895 35c0 -23.333 -11.667 -34.999 -35 -34.999h-550c-23.333 0 -35 11.667 -35 35s11.667 35 35 35h240v1006l-315 -316c-7.33301 -7.33301 -15.333 -11 -24 -11c-24 0 -36 12 -36 36c0 9.33301 3.66699 17.666 11 24.999l370 370c10 10.667 19.667 16 29 16
c23.333 0 35 -14.333 35 -43v-1083h240c23.333 0 35 -11.667 35 -35z" />
    <glyph glyph-name="two" unicode="2" 
d="M948 35c0 -23.333 -11.667 -35 -35 -35h-750c-27.333 -0 -41 10.333 -41 31c0 11.333 6.33301 22 19 32l642 486c63.333 48 95 126.667 95 236c0 93.333 -33.333 173.333 -100 240s-146.667 100 -240 100c-94 0 -174.167 -33.333 -240.5 -100s-99.5 -146.667 -99.5 -240
c0 -23.333 -11.667 -35 -35 -35s-35 11.667 -35 35c0 113.333 40 210 120 290s176.667 120 290 120c112.667 0 209.167 -40 289.5 -120s120.5 -176.667 120.5 -290c0 -132.667 -41 -230 -123 -292l-558 -423h646c23.333 0 35 -11.667 35 -35z" />
    <glyph glyph-name="three" unicode="3" 
d="M957 1165c0 -10.667 -5.33496 -21.001 -16.002 -31.001l-512 -470c24 4 49.333 6 76 6c123.333 0 228.833 -43.667 316.5 -131s131.5 -193 131.5 -317c0 -123.333 -43.833 -228.666 -131.5 -315.999s-193.167 -131 -316.5 -131c-78.667 0 -153 20 -223 60
c-72 40.667 -126.667 95 -164 163c-3.33301 6.66699 -5 13 -5 19c0 22.667 12 34 36 34c10.667 0 20.334 -5.66699 29.001 -17c8.66699 -14 22.667 -33.667 42 -59c74.667 -86.667 169.667 -130 285 -130c104 0 193 37 267 111s111 162.667 111 266c0 104 -37 193 -111 267
s-163 111 -267 111c-65.333 0 -131.166 -20.167 -197.499 -60.5s-97.833 -60.5 -94.5 -60.5c-23.333 0 -35 11.667 -35 35c0 10 4.33301 19 13 27l637 584h-680c-23.333 0 -35 11.667 -35 35s11.667 35 35 35h770c26 0 39 -10 39 -30z" />
    <glyph glyph-name="four" unicode="4" 
d="M1021 260c0 -23.333 -11.667 -35 -35 -35h-265v-415c0 -23.333 -11.667 -35 -35 -35s-35 11.667 -35 35v415h-565c-24.667 0 -37 10 -37 30c0 8 2.66699 16 8 24l600 900c9.33301 14 20.333 21 33 21c20.667 0 31 -13.333 31 -40v-865h265c23.333 0 35 -11.667 35 -35z
M651 295v749l-499 -749h499z" />
    <glyph glyph-name="five" unicode="5" 
d="M990 1160c0 -23.333 -11.668 -35 -35.001 -35h-705l-80 -514c94 89.333 205.667 134 335 134c134 0 248.333 -47.333 343 -142s142 -209 142 -343s-47.333 -248.333 -142 -343s-209 -142 -343 -142c-85.333 0 -166.333 21.833 -243 65.5s-135.667 102.5 -177 176.5
c-3.33301 6.66699 -5 13 -5 19c0 22.667 12 34 36 34c11.333 0 21.333 -5.66699 30 -17c8 -13.333 21.667 -33 41 -59c81.333 -99.333 187.333 -149 318 -149c114.667 0 212.5 40.5 293.5 121.5s121.5 178.833 121.5 293.5s-40.5 212.5 -121.5 293.5
s-178.833 121.5 -293.5 121.5c-130.667 0 -236.667 -49.667 -318 -149l-41 -59c-11.333 -14.667 -22.666 -22 -33.999 -22c-23.333 0 -34 12.333 -32 37l1 8l105 675c2.66699 20 14 30 34 30h735c23.333 0 35 -11.667 35 -35z" />
    <glyph glyph-name="six" unicode="6" 
d="M1020 1385c0 -23.333 -11.666 -35.001 -34.999 -35.001c-172.667 0 -331.334 -47.667 -476.001 -143s-251 -222.666 -319 -381.999c94.667 96.667 209.667 145 345 145c134 0 248.333 -47.333 343 -142s142 -209 142 -343s-47.333 -248.333 -142 -343
s-209 -142 -343 -142s-248.333 47.333 -343 142s-142 209 -142 343c0 258 91.333 478.333 274 661s403 274 661 274c23.333 0 35 -11.667 35 -35zM950.001 484.999c0 114.667 -40.5 212.5 -121.5 293.5s-178.833 121.5 -293.5 121.5s-212.5 -40.5 -293.5 -121.5
s-121.5 -178.833 -121.5 -293.5s40.5 -212.5 121.5 -293.5s178.833 -121.5 293.5 -121.5s212.5 40.5 293.5 121.5s121.5 178.833 121.5 293.5z" />
    <glyph glyph-name="seven" unicode="7" 
d="M1021 1165c0 -6.66699 -2 -14 -6 -22l-725 -1350c-6.66699 -12 -16.667 -18 -30 -18c-24 0 -36 11.333 -36 34c0 6 1.33301 12 4 18l698 1298h-842c-23.333 0 -35 11.667 -35 35s11.667 35 35 35h900c24.667 0 37 -10 37 -30z" />
    <glyph glyph-name="eight" unicode="8" 
d="M945 410c0 -113.333 -40 -210 -120 -290s-176.667 -120 -290 -120s-210 40 -290 120s-120 176.667 -120 290c0 82.667 23.167 158.5 69.5 227.5s107.5 119.5 183.5 151.5c-118.667 63.333 -178 162 -178 296c0 92 32.833 170.833 98.5 236.5s144.5 98.5 236.5 98.5
s170.833 -32.833 236.5 -98.5s98.5 -144.5 98.5 -236.5c0 -134 -59.333 -232.667 -178 -296c76 -32 137.167 -82.5 183.5 -151.5s69.5 -144.833 69.5 -227.5zM800 1085c0 72.667 -26 135 -78 187s-114.333 78 -187 78s-135 -26 -187 -78s-78 -114.333 -78 -187
s26 -135 78 -187s114.333 -78 187 -78s135 26 187 78s78 114.333 78 187zM875 410c0 93.333 -33.333 173.333 -100 240s-146.667 100 -240 100s-173.333 -33.333 -240 -100s-100 -146.667 -100 -240s33.333 -173.333 100 -240s146.667 -100 240 -100s173.333 33.333 240 100
s100 146.667 100 240z" />
    <glyph glyph-name="nine" unicode="9" 
d="M1020 710c0 -258 -91.334 -478.332 -274.001 -660.999s-403 -274 -661 -274c-23.333 0 -35 11.667 -35 35s11.667 35 35 35c172.667 0 331.334 47.667 476.001 143s251 222.666 319 381.999c-94.667 -96.667 -209.667 -145 -345 -145c-134 0 -248.333 47.333 -343 142
s-142 209 -142 343s47.333 248.333 142 343s209 142 343 142s248.333 -47.333 343 -142s142 -209 142 -343zM949.999 710.001c0 114.667 -40.5 212.5 -121.5 293.5s-178.833 121.5 -293.5 121.5s-212.5 -40.5 -293.5 -121.5s-121.5 -178.833 -121.5 -293.5
s40.5 -212.5 121.5 -293.5s178.833 -121.5 293.5 -121.5s212.5 40.5 293.5 121.5s121.5 178.833 121.5 293.5z" />
    <glyph glyph-name="colon" unicode=":" horiz-adv-x="248" 
d="M198 899c0 -20 -7.33301 -37.333 -22 -52s-32 -22 -52 -22s-37.333 7.33301 -52 22s-22 32 -22 52c0 47.333 24.667 71 74 71s74 -23.667 74 -71zM198 74c0 -20 -7.33301 -37.333 -22 -52s-32 -22 -52 -22s-37.333 7.33301 -52 22s-22 32 -22 52
c0 47.333 24.667 71 74 71s74 -23.667 74 -71z" />
    <glyph glyph-name="semicolon" unicode=";" horiz-adv-x="362" 
d="M292 899c0 -20 -7.33301 -37.333 -22 -52s-32 -22 -52 -22s-37.333 7.33301 -52 22s-22 32 -22 52c0 47.333 24.667 71 74 71s74 -23.667 74 -71zM253 35c0 -62 -12.333 -124.333 -37 -187c-26.667 -66.667 -62 -119 -106 -157c-8 -7.33301 -16 -11 -24 -11
c-24 0 -36 12 -36 36c0 8 3.66699 16.333 11 25c81.333 98.667 122 196.667 122 294c0 23.333 11.667 35 35 35s35 -11.667 35 -35z" />
    <glyph glyph-name="less" unicode="&#x3c;" 
d="M1020 149c0 -24.667 -11.332 -37 -33.999 -37c-8.66699 0 -152.334 69.333 -431.001 208c-275.333 136.667 -435.333 217.667 -480 243c-16.667 10 -25 21.333 -25 34c0 13.333 8.33301 25 25 35c48 26.667 208.333 107.667 481 243c278 138.667 421.333 208 430 208
c22.667 0 34 -12.333 34 -37c0 -13.333 -6.33301 -23.333 -19 -30l-838 -418l838 -419c12.667 -6.66699 19 -16.667 19 -30z" />
    <glyph glyph-name="equal" unicode="=" 
d="M1020 747c0 -23.333 -11.667 -35 -35 -35h-900c-23.333 0 -35 11.667 -35 35s11.667 35 35 35h900c23.333 0 35 -11.667 35 -35zM1020 447c0 -23.333 -11.667 -35 -35 -35h-900c-23.333 0 -35 11.667 -35 35s11.667 35 35 35h900c23.333 0 35 -11.667 35 -35z" />
    <glyph glyph-name="greater" unicode="&#x3e;" 
d="M1020 597c0 -12.667 -8.33301 -24 -25 -34c-47.333 -26 -207.666 -107 -480.999 -243c-278 -138.667 -421.333 -208 -430 -208c-22.667 0 -34 12.333 -34 37c0 13.333 6.33301 23.333 19 30l838 419l-838 418c-12.667 6.66699 -19 16.667 -19 30
c0 24.667 11.333 37 34 37c8.66699 0 152 -69.333 430 -208c273.333 -136 433.666 -217 480.999 -243c16.667 -10 25 -21.667 25 -35z" />
    <glyph glyph-name="question" unicode="?" horiz-adv-x="770" 
d="M720 1085c0 -92 -32.832 -170.834 -98.499 -236.501s-144.5 -98.5 -236.5 -98.5c-42 0 -78 -15 -108 -45s-45 -66 -45 -108c0 -41.333 15 -77 45 -107s66 -45 108 -45c15.333 0 33.5 4.33301 54.5 13s34.5 13 40.5 13c22.667 0 34 -12.333 34 -37
c0 -18.667 -17.333 -34 -52 -46c-26.667 -8.66699 -52.334 -13 -77.001 -13c-61.333 0 -113.833 21.833 -157.5 65.5s-65.5 95.834 -65.5 156.501c0 61.333 21.833 113.833 65.5 157.5s96.167 65.5 157.5 65.5c72.667 0 135 26 187 78s78 114.333 78 187s-26 135 -78 187
s-114.333 78 -187 78s-135 -26 -187 -78s-78 -114.333 -78 -187c0 -23.333 -11.667 -35 -35 -35s-35 11.667 -35 35c0 92 32.833 170.833 98.5 236.5s144.5 98.5 236.5 98.5s170.833 -32.833 236.5 -98.5s98.5 -144.5 98.5 -236.5zM459.001 73.999
c0 -20 -7.33301 -37.333 -22 -52s-32 -22 -52 -22s-37.333 7.33301 -52 22s-22 32 -22 52c0 47.333 24.667 71 74 71s74 -23.667 74 -71z" />
    <glyph glyph-name="at" unicode="@" horiz-adv-x="1345" 
d="M1295 885c0 -148 -52.166 -274.166 -156.499 -378.499s-230.5 -156.5 -378.5 -156.5c-99.333 0 -184.166 35.167 -254.499 105.5s-105.5 155.166 -105.5 254.499s35.167 184.166 105.5 254.499s155.166 105.5 254.499 105.5s184.166 -35.167 254.499 -105.5
s105.5 -155.166 105.5 -254.499c0 -56.667 -12.333 -110 -37 -160c94.667 91.333 142 203 142 335c0 128 -45.5 237.5 -136.5 328.5s-200.5 136.5 -328.5 136.5c-176.667 0 -327.5 -62.5 -452.5 -187.5s-187.5 -275.833 -187.5 -452.5s62.5 -327.5 187.5 -452.5
s275.833 -187.5 452.5 -187.5c156 0 307 62.667 453 188c8.66699 7.33301 17 11 25 11c24 0 36 -12 36 -36c0 -8.66699 -3.66699 -16.667 -11 -24c-137.333 -139.333 -305 -209 -503 -209c-196 -0 -363.333 69.333 -502 208s-208 306 -208 502s69.333 363.333 208 502
s306 208 502 208c147.333 0 273.333 -52.333 378 -157s157 -230.667 157 -378zM1050 710.001c0 80 -28.334 148.333 -85.001 205s-125 85 -205 85s-148.333 -28.333 -205 -85s-85 -125 -85 -205s28.333 -148.333 85 -205s125.334 -85 206.001 -85
c79.333 0 147.333 28.5 204 85.5s85 125.167 85 204.5z" />
    <glyph glyph-name="A" unicode="A" horiz-adv-x="1521" 
d="M1471 34c0 -22.667 -12.3301 -34 -36.9971 -34c-13.333 -0 -23.333 6.33301 -30 19l-215 431h-3h-854l-215 -431c-6.66699 -12.667 -16.667 -19 -30 -19c-24.667 -0 -37 11.333 -37 34c0 8 104 221.333 312 640c207.333 416 328.666 656.333 363.999 721
c9.33301 16.667 20.666 25 33.999 25c14 0 25.667 -8.33301 35 -25c35.333 -64.667 156.666 -305 363.999 -721c208 -418.667 312 -632 312 -640zM1154 520l-393 787l-394 -787h787z" />
    <glyph glyph-name="B" unicode="B" horiz-adv-x="1020" 
d="M970 409c0 -113.333 -40 -209.999 -120 -289.999s-177 -120 -291 -120l-374 1c-23.333 0 -35 11.667 -35 35v1350c0 23.333 11.667 35 35 35h375c92 0 170.833 -32.833 236.5 -98.5s98.5 -144.5 98.5 -236.5c0 -134.667 -59.333 -233.334 -178 -296.001
c76 -32 137.167 -82.5 183.5 -151.5s69.5 -145.167 69.5 -228.5zM825 1085c0 72.667 -26 135 -78 187s-114.333 78 -187 78h-340v-530h340c72.667 0 135 26 187 78s78 114.333 78 187zM900 409.001c0 94 -33.333 174.333 -100 241s-146.667 100 -240 100h-340v-680l340 -1
c94 0 174.167 33.333 240.5 100s99.5 146.667 99.5 240z" />
    <glyph glyph-name="C" unicode="C" horiz-adv-x="1323" 
d="M1273 232c0 -8.66699 -3.66699 -16.667 -11 -24c-132.667 -138.667 -300 -208 -502 -208c-196 -0 -363.333 69.333 -502 208s-208 306 -208 502s69.333 363.333 208 502s306 208 502 208c202 0 369.333 -69.333 502 -208c7.33301 -7.33301 11 -15.333 11 -24
c0 -24 -12 -36 -36 -36c-8 0 -16.333 3.66699 -25 11c-145.333 124.667 -296 187 -452 187c-176.667 0 -327.5 -62.5 -452.5 -187.5s-187.5 -275.833 -187.5 -452.5s62.5 -327.5 187.5 -452.5s275.833 -187.5 452.5 -187.5c156 0 306.667 62.333 452 187
c8.66699 7.33301 17 11 25 11c24 0 36 -12 36 -36z" />
    <glyph glyph-name="D" unicode="D" horiz-adv-x="1395" 
d="M1345 710c0 -196 -69.333 -363.333 -208 -502s-306 -208 -502 -208h-450c-23.333 0 -35 11.667 -35 35v1350c0 23.333 11.667 35 35 35h450c196 0 363.333 -69.333 502 -208s208 -306 208 -502zM1275 710c0 176.667 -62.5 327.5 -187.5 452.5
s-275.833 187.5 -452.5 187.5h-415v-1280h415c176.667 0 327.5 62.5 452.5 187.5s187.5 275.833 187.5 452.5z" />
    <glyph glyph-name="E" unicode="E" horiz-adv-x="1020" 
d="M970 35c0 -23.333 -11.667 -35 -35 -35h-750c-23.333 0 -35 11.667 -35 35v1350c0 23.333 11.667 35 35 35h750c23.333 0 35 -11.667 35 -35s-11.667 -35 -35 -35h-715v-605h565c23.333 0 35 -11.667 35 -35s-11.667 -35 -35 -35h-565v-605h715
c23.333 0 35 -11.667 35 -35z" />
    <glyph glyph-name="F" unicode="F" horiz-adv-x="970" 
d="M970 1385c0 -23.333 -11.667 -35 -35 -35h-715v-605h565c23.333 0 35 -11.667 35 -35s-11.667 -35 -35 -35h-565v-640c0 -23.333 -11.667 -35 -35 -35s-35 11.667 -35 35v1350c0 23.333 11.667 35 35 35h750c23.333 0 35 -11.667 35 -35z" />
    <glyph glyph-name="G" unicode="G" horiz-adv-x="1373" 
d="M1273 1188c0 -24 -11.999 -36 -35.999 -36c-8 0 -16.333 3.66699 -25 11c-145.333 124.667 -296 187 -452 187c-176.667 0 -327.5 -62.5 -452.5 -187.5s-187.5 -275.833 -187.5 -452.5s62.5 -327.5 187.5 -452.5s275.833 -187.5 452.5 -187.5
c171.333 0 318.666 59 441.999 177v463c0 23.333 11.667 35 35 35s35 -11.667 35 -35v-478c0 -8.66699 -3.33301 -16.667 -10 -24c-56 -64 -132.667 -115.333 -230 -154c-91.333 -36 -182 -54 -272 -54c-196 -0 -363.333 69.333 -502 208s-208 306 -208 502
s69.333 363.333 208 502s306 208 502 208c202 0 369.333 -69.333 502 -208c7.33301 -7.33301 11 -15.333 11 -24z" />
    <glyph glyph-name="H" unicode="H" horiz-adv-x="1270" 
d="M1120 35c0 -23.333 -11.667 -35 -35 -35s-35 11.667 -35 35v640h-830v-640c0 -23.333 -11.667 -35 -35 -35s-35 11.667 -35 35v1350c0 23.333 11.667 35 35 35s35 -11.667 35 -35v-640h830v640c0 23.333 11.667 35 35 35s35 -11.667 35 -35v-1350z" />
    <glyph glyph-name="I" unicode="I" horiz-adv-x="370" 
d="M220 35c0 -23.333 -11.667 -35 -35 -35s-35 11.667 -35 35v1350c0 23.333 11.667 35 35 35s35 -11.667 35 -35v-1350z" />
    <glyph glyph-name="J" unicode="J" horiz-adv-x="495" 
d="M345 1385l-0.00195312 -1500c0 -92 -32.833 -170.833 -98.5 -236.5s-144.5 -98.5 -236.5 -98.5c-59.333 0 -115.666 15.333 -168.999 46s-93.666 71.667 -120.999 123c-4 6 -6 12 -6 18c0 22.667 12.333 34 37 34c8.66699 0 24 -13 46 -39
c27.333 -33.333 52.333 -57.666 75 -72.999c39.333 -26 85.333 -39 138 -39c72.667 0 135 26 187 78s78 114.333 78 187v1500c0 23.333 11.667 35 35 35s35 -11.667 35 -35z" />
    <glyph glyph-name="K" unicode="K" horiz-adv-x="1016" 
d="M966 1385c0 -9.33301 -3.66699 -17.666 -11 -24.999l-650 -650l650 -650c7.33301 -7.33301 11 -15.666 11 -24.999c0 -24 -12 -36 -36 -36c-8.66699 0 -16.667 3.66699 -24 11l-675 675c-7.33301 7.33301 -11 15.666 -11 24.999v-675c0 -23.333 -11.667 -35 -35 -35
s-35 11.667 -35 35v1350c0 23.333 11.667 35 35 35s35 -11.667 35 -35v-675c0 9.33301 3.66699 17.666 11 24.999l675 675c7.33301 7.33301 15.333 11 24 11c24 0 36 -12 36 -36z" />
    <glyph glyph-name="L" unicode="L" horiz-adv-x="1020" 
d="M970 35c0 -23.333 -11.667 -35 -35 -35h-750c-23.333 0 -35 11.667 -35 35v1350c0 23.333 11.667 35 35 35s35 -11.667 35 -35v-1315h715c23.333 0 35 -11.667 35 -35z" />
    <glyph glyph-name="M" unicode="M" horiz-adv-x="1670" 
d="M1620 34c0 -22.667 -11.999 -34 -35.999 -34c-18 0 -29 9 -33 27l-276 1244l-405 -944c-8 -18 -19.667 -27 -35 -27s-27 9 -35 27l-404 944l-277 -1244c-4 -18 -15 -27 -33 -27c-24 -0 -36 11.333 -36 34c0 3.33301 0.333008 6.33301 1 9l299 1344
c4.66699 22 16.667 33 36 33c14.667 0 26 -9 34 -27l415 -969l416 969c7.33301 18 18.666 27 33.999 27c18.667 0 30.667 -11 36 -33l298 -1344c0.666992 -3.33301 1 -6.33301 1 -9z" />
    <glyph glyph-name="N" unicode="N" horiz-adv-x="1421" 
d="M1271 35c0 -23.333 -12 -35 -36 -35c-10.667 0 -21 6 -31 18l-983 1265v-1248c0 -23.333 -11.667 -35 -35 -35s-35 11.667 -35 35l-1 1350c0 23.333 12 35 36 35c10.667 0 21 -6 31 -18l984 -1265v1248c0 23.333 11.667 35 35 35s35 -11.667 35 -35v-1350z" />
    <glyph glyph-name="O" unicode="O" horiz-adv-x="1520" 
d="M1470 710c0 -196 -69.333 -363.333 -208 -502s-306 -208 -502 -208s-363.333 69.333 -502 208s-208 306 -208 502s69.333 363.333 208 502s306 208 502 208s363.333 -69.333 502 -208s208 -306 208 -502zM1400 710c0 176.667 -62.5 327.5 -187.5 452.5
s-275.833 187.5 -452.5 187.5s-327.5 -62.5 -452.5 -187.5s-187.5 -275.833 -187.5 -452.5s62.5 -327.5 187.5 -452.5s275.833 -187.5 452.5 -187.5s327.5 62.5 452.5 187.5s187.5 275.833 187.5 452.5z" />
    <glyph glyph-name="P" unicode="P" horiz-adv-x="1020" 
d="M970 1010c0 -113.333 -40 -210 -120 -290s-176.667 -120 -290 -120h-305c-23.333 0 -35 11.667 -35 35s11.667 35 35 35h305c94 0 174.167 33.167 240.5 99.5s99.5 146.5 99.5 240.5s-33.167 174.167 -99.5 240.5s-146.5 99.5 -240.5 99.5h-340v-1315
c0 -23.333 -11.667 -35 -35 -35s-35 11.667 -35 35v1350c0 23.333 11.667 35 35 35h375c113.333 0 210 -40 290 -120s120 -176.667 120 -290z" />
    <glyph glyph-name="Q" unicode="Q" horiz-adv-x="1520" 
d="M1470 -415c0 -23.333 -11.668 -34.998 -35.001 -34.998c-146 0 -279.333 41.167 -400 123.5s-207.667 191.166 -261 326.499h-14c-198 -2 -365.833 66.167 -503.5 204.5s-206.5 306.833 -206.5 505.5c0 196 69.333 363.333 208 502s306 208 502 208
s363.333 -69.333 502 -208s208 -306 208 -502c0 -178.667 -59.333 -335.334 -178 -470.001s-266.667 -213 -444 -235c50.667 -116.667 129.334 -210 236.001 -280s223.667 -105 351 -105c23.333 0 35 -11.667 35 -35zM1400 710.002c0 176.667 -62.5 327.502 -187.5 452.502
s-275.833 187.5 -452.5 187.5s-327.5 -62.5 -452.5 -187.5s-187.5 -275.833 -187.5 -452.5c0 -174.667 61.5 -324.334 184.5 -449.001s271.833 -188.334 446.5 -191.001c-17.333 62 -26 125.333 -26 190c0 23.333 11.667 35 35 35s35 -11.667 35 -35
c0 -64 9.33301 -126.333 28 -187c163.333 16 300.333 85.167 411 207.5s166 265.5 166 429.5z" />
    <glyph glyph-name="R" unicode="R" horiz-adv-x="1021" 
d="M971 35c0 -24 -12.001 -36.001 -36.001 -36.001c-9.33301 0 -17.666 3.66699 -24.999 11l-595 596c-10.667 10 -16 19.667 -16 29c0 23.333 14.333 35 43 35h218c93.333 0 173.333 33.333 240 100s100 146.667 100 240s-33.333 173.333 -100 240s-146.667 100 -240 100
h-340v-1315c0 -23.333 -11.667 -35 -35 -35s-35 11.667 -35 35v1352c0 22 11.667 33 35 33h375c113.333 0 210 -40 290 -120s120 -176.667 120 -290s-40 -210 -120 -290s-176.667 -120 -290 -120h-141l541 -540c7.33301 -7.33301 11 -15.666 11 -24.999z" />
    <glyph glyph-name="S" unicode="S" horiz-adv-x="871" 
d="M821 410c0 -113.333 -40.167 -210 -120.5 -290s-176.833 -120 -289.5 -120c-73.333 0 -141.833 18.5 -205.5 55.5s-113.834 86.833 -150.501 149.5c-3.33301 6.66699 -5 13 -5 19c0 22.667 12.333 34 37 34c10.667 0 20.334 -6 29.001 -18
c6.66699 -10.667 17.667 -26.667 33 -48c67.333 -81.333 154.666 -122 261.999 -122c93.333 0 173.333 33.333 240 100s100 146.667 100 240s-33.333 173.333 -100 240s-146.5 100 -239.5 100s-172.167 32.833 -237.5 98.5s-98 144.5 -98 236.5s32.667 170.833 98 236.5
s144.333 98.5 237 98.5c127.333 0 223.666 -55.333 288.999 -166c4 -6 6 -12.333 6 -19c0 -22.667 -12.333 -34 -37 -34c-8.66699 0 -24 12.667 -46 38c-27.333 32.667 -52.666 56.667 -75.999 72c-39.333 26 -84.666 39 -135.999 39c-73.333 0 -135.833 -26 -187.5 -78
s-77.5 -114.333 -77.5 -187s25.833 -135 77.5 -187s114.167 -78 187.5 -78c112.667 0 209.167 -40 289.5 -120s120.5 -176.667 120.5 -290z" />
    <glyph glyph-name="T" unicode="T" horiz-adv-x="1020" 
d="M1020 1385c0 -23.333 -11.667 -35 -35 -35h-415v-1315c0 -23.333 -11.667 -35 -35 -35s-35 11.667 -35 35v1315h-415c-23.333 0 -35 11.667 -35 35s11.667 35 35 35h900c23.333 0 35 -11.667 35 -35z" />
    <glyph glyph-name="U" unicode="U" horiz-adv-x="1170" 
d="M1070 485c0 -134 -47.333 -248.333 -142 -343s-209 -142 -343 -142s-248.333 47.333 -343 142s-142 209 -142 343v900c0 23.333 11.667 35 35 35s35 -11.667 35 -35v-900c0 -114.667 40.5 -212.5 121.5 -293.5s178.833 -121.5 293.5 -121.5s212.5 40.5 293.5 121.5
s121.5 178.833 121.5 293.5v900c0 23.333 11.667 35 35 35s35 -11.667 35 -35v-900z" />
    <glyph glyph-name="V" unicode="V" horiz-adv-x="1471" 
d="M1471 1386c0 -8 -104.003 -221.333 -312.003 -640c-207.333 -416 -328.666 -656.333 -363.999 -721c-9.33301 -16.667 -20.666 -25 -33.999 -25c-14 -0 -25.667 8.33301 -35 25c-35.333 64.667 -156.666 305 -363.999 721c-208 418.667 -312 632 -312 640
c0 22.667 12.333 34 37 34c13.333 0 23.333 -6.33301 30 -19l644 -1288l643 1288c6.66699 12.667 16.667 19 30 19c24.667 0 37 -11.333 37 -34z" />
    <glyph glyph-name="W" unicode="W" horiz-adv-x="2146" 
d="M2146 1386c0 -8 -104.002 -221.333 -312.002 -640c-207.333 -416 -328.666 -656.333 -363.999 -721c-9.33301 -16.667 -21 -25 -35 -25s-25.333 8.33301 -34 25l-303 607l-303 -607c-8.66699 -16.667 -20 -25 -34 -25s-25.667 8.33301 -35 25
c-35.333 64.667 -156.666 305 -363.999 721c-208 418.667 -312 632 -312 640c0 22.667 12.333 34 37 34c13.333 0 23.333 -6.33301 30 -19l644 -1288l298 597c-222.667 444 -334 669.333 -334 676c0 22.667 12.333 34 37 34c13.333 0 23.333 -6.33301 30 -19l306 -613
l306 613c6.66699 12.667 16.667 19 30 19c24.667 0 37 -11.333 37 -34c0 -6.66699 -111.333 -232 -334 -676l299 -597l643 1288c6.66699 12.667 16.667 19 30 19c24.667 0 37 -11.333 37 -34z" />
    <glyph glyph-name="X" unicode="X" horiz-adv-x="1221" 
d="M1171 35c0 -24 -12 -36 -36 -36c-10.667 0 -19.667 5 -27 15l-497 639l-498 -639c-7.33301 -10 -16.333 -15 -27 -15c-24 0 -36 12 -36 36c0 7.33301 2.66699 14.333 8 21l508 654l-508 654c-5.33301 6.66699 -8 13.667 -8 21c0 24 12 36 36 36
c10.667 0 19.667 -5 27 -15l498 -639l497 639c7.33301 10 16.333 15 27 15c24 0 36 -12 36 -36c0 -7.33301 -2.66699 -14.333 -8 -21l-508 -654l508 -654c5.33301 -6.66699 8 -13.667 8 -21z" />
    <glyph glyph-name="Y" unicode="Y" horiz-adv-x="1171" 
d="M1171 1385c0 -7.33301 -2.66699 -14.333 -8 -21l-517 -666v-663c0 -23.333 -11.667 -35 -35 -35s-35 11.667 -35 35v663l-518 666c-5.33301 6.66699 -8 13.667 -8 21c0 24 12 36 36 36c10.667 0 19.667 -5 27 -15l498 -639l497 639c7.33301 10 16.333 15 27 15
c24 0 36 -12 36 -36z" />
    <glyph glyph-name="Z" unicode="Z" horiz-adv-x="1221" 
d="M1171 1385c0 -7.33301 -4 -16.333 -12 -27l-1002 -1288h979c23.333 0 35 -11.667 35 -35s-11.667 -35 -35 -35l-1050 -1c-24 0 -36 12 -36 36c0 7.33301 4 16.333 12 27l1002 1288h-978c-23.333 0 -35 11.667 -35 35s11.667 35 35 35l1049 1c24 0 36 -12 36 -36z" />
    <glyph glyph-name="bracketleft" unicode="[" horiz-adv-x="720" 
d="M670 -415c0 -23.333 -11.667 -35 -35 -35h-450c-23.333 0 -35 11.667 -35 35v1800c0 23.333 11.667 35 35 35h450c23.333 0 35 -11.667 35 -35s-11.667 -35 -35 -35h-415v-1730h415c23.333 0 35 -11.667 35 -35z" />
    <glyph glyph-name="backslash" unicode="\" horiz-adv-x="1071" 
d="M1021 -417c0 -22.667 -12.333 -34 -37 -34c-12 0 -22 6.33301 -30 19l-145 290c-506 1005.33 -759 1514.67 -759 1528c0 22.667 12.333 34 37 34c12 0 22 -6.33301 30 -19l145 -290c506 -1005.33 759 -1514.67 759 -1528z" />
    <glyph glyph-name="bracketright" unicode="]" horiz-adv-x="720" 
d="M570 1385v-1800c0 -23.333 -11.667 -35 -35 -35h-450c-23.333 0 -35 11.667 -35 35s11.667 35 35 35h415v1730h-415c-23.333 0 -35 11.667 -35 35s11.667 35 35 35h450c23.333 0 35 -11.667 35 -35z" />
    <glyph glyph-name="asciicircum" unicode="^" horiz-adv-x="771" 
d="M721 1085c0 -24 -12.001 -36 -36.001 -36c-8.66699 0 -16.667 3.66699 -24 11l-275 276l-276 -276c-7.33301 -7.33301 -15.333 -11 -24 -11c-24 0 -36 12 -36 36c0 9.33301 3.66699 17.666 11 24.999l300 300c7.33301 7.33301 15 11 23 11
c10.667 0 19.334 -3.66699 26.001 -11l300 -300c7.33301 -7.33301 11 -15.666 11 -24.999z" />
    <glyph glyph-name="underscore" unicode="_" 
d="M1020 35c0 -23.333 -11.667 -35 -35 -35h-900c-23.333 0 -35 11.667 -35 35s11.667 35 35 35h900c23.333 0 35 -11.667 35 -35z" />
    <glyph glyph-name="grave" unicode="`" horiz-adv-x="321" 
d="M271 1009c0 -22.667 -12.334 -34 -37.001 -34c-12.667 0 -23.167 7.5 -31.5 22.5s-35.833 81.833 -82.5 200.5s-70 181.334 -70 188.001c0 22.667 12.333 34 37 34c12 0 22.333 -7.5 31 -22.5s36.334 -81.833 83.001 -200.5s70 -181.334 70 -188.001z" />
    <glyph glyph-name="a" unicode="a" horiz-adv-x="820" 
d="M720 35c0 -23.333 -11.666 -35 -34.999 -35s-35 11.667 -35 35v95c-67.333 -86.667 -155.666 -130 -264.999 -130c-92 -0 -170.833 32.833 -236.5 98.5s-98.5 144.5 -98.5 236.5s32.833 170.833 98.5 236.5s144.5 98.5 236.5 98.5
c109.333 0 197.666 -43.333 264.999 -130v95c0 72.667 -26 135 -78 187s-114.333 78 -187 78c-47.333 0 -94.833 -14.833 -142.5 -44.5s-70.834 -44.5 -69.501 -44.5c-24 0 -36 12 -36 36c0 8.66699 3.66699 17 11 25c60 65.333 139 98 237 98
c92 0 170.833 -32.833 236.5 -98.5s98.5 -144.5 98.5 -236.5v-600zM650.001 335c0 72.667 -26 135 -78 187s-114.333 78 -187 78s-135 -26 -187 -78s-78 -114.333 -78 -187s26 -135 78 -187s114.333 -78 187 -78s135 26 187 78s78 114.333 78 187z" />
    <glyph glyph-name="b" unicode="b" horiz-adv-x="1120" 
d="M1070 485c0 -134 -47.333 -248.334 -142 -343.001s-209 -142 -343 -142s-248.333 47.333 -343 142s-142 209 -142 343v900c0 23.333 11.667 35 35 35s35 -11.667 35 -35v-649c44 72.667 103 129.834 177 171.501s153.333 62.5 238 62.5c134 0 248.333 -47.333 343 -142
s142 -209 142 -343zM1000 484.999c0 114.667 -40.5 212.5 -121.5 293.5s-178.833 121.5 -293.5 121.5s-212.5 -40.5 -293.5 -121.5s-121.5 -178.833 -121.5 -293.5s40.5 -212.5 121.5 -293.5s178.833 -121.5 293.5 -121.5s212.5 40.5 293.5 121.5s121.5 178.833 121.5 293.5
z" />
    <glyph glyph-name="c" unicode="c" horiz-adv-x="939" 
d="M889 804c0 -24 -12 -36 -36 -36c4 0 -29 22 -99 66s-143 66 -219 66c-114.667 0 -212.5 -40.5 -293.5 -121.5s-121.5 -178.833 -121.5 -293.5s40.5 -212.5 121.5 -293.5s178.833 -121.5 293.5 -121.5c76 0 149 22 219 66s102.667 66 98 66c24 0 36 -12 36 -36
c0 -8.66699 -3.66699 -17 -11 -25c-87.333 -94 -201.333 -141 -342 -141c-134 -0 -248.333 47.333 -343 142s-142 209 -142 343s47.333 248.333 142 343s209 142 343 142c140.667 0 255 -47.333 343 -142c7.33301 -8 11 -16 11 -24z" />
    <glyph glyph-name="d" unicode="d" horiz-adv-x="1170" 
d="M1020 35c0 -23.333 -11.667 -34.998 -35 -34.998s-35 11.667 -35 35v199c-44 -72.667 -103 -129.834 -177 -171.501s-153.333 -62.5 -238 -62.5c-134 0 -248.333 47.333 -343 142s-142 209 -142 343s47.333 248.333 142 343s209 142 343 142
c84.667 0 164 -20.833 238 -62.5s133 -98.834 177 -171.501v649c0 23.333 11.667 35 35 35s35 -11.667 35 -35v-1350zM950 485.002c0 114.667 -40.5 212.5 -121.5 293.5s-178.833 121.5 -293.5 121.5s-212.5 -40.5 -293.5 -121.5s-121.5 -178.833 -121.5 -293.5
s40.5 -212.5 121.5 -293.5s178.833 -121.5 293.5 -121.5s212.5 40.5 293.5 121.5s121.5 178.833 121.5 293.5z" />
    <glyph glyph-name="e" unicode="e" horiz-adv-x="1010" 
d="M960 261c0 -6 -1.66602 -12.333 -4.99902 -19c-42.667 -74 -101.834 -132.833 -177.501 -176.5s-156.5 -65.5 -242.5 -65.5c-134 -0 -248.333 47.333 -343 142s-142 209 -142 343s47.333 248.333 142 343s209 142 343 142c52.667 0 106.667 -9.66699 162 -29
c51.333 -18.667 104.666 -49 159.999 -91c68 -52 102 -99 102 -141c0 -13.333 -5.66699 -23 -17 -29l-748 -432c82.667 -118.667 196.334 -178 341.001 -178c125.333 0 228.333 46 309 138l50 70c8.66699 11.333 18.667 17 30 17c24 0 36 -11.333 36 -34zM876.001 722
c-82.667 118.667 -196.333 178 -341 178c-114.667 0 -212.5 -40.5 -293.5 -121.5s-121.5 -178.833 -121.5 -293.5c0 -62 13 -121 39 -177z" />
    <glyph glyph-name="f" unicode="f" horiz-adv-x="730" 
d="M730 1319c0 -23.333 -12 -35 -36 -35c-1.33301 0 -19.833 11 -55.5 33s-70.167 33 -103.5 33c-52 0 -96.667 -18.667 -134 -56s-56 -82 -56 -134v-190h190c23.333 0 35 -11.667 35 -35s-11.667 -35 -35 -35h-190v-865c0 -23.333 -11.667 -35 -35 -35s-35 11.667 -35 35
v865h-190c-23.333 0 -35 11.667 -35 35s11.667 35 35 35h190v190c0 71.333 25.5 132.5 76.5 183.5s112.167 76.5 183.5 76.5c80 0 141.333 -25.333 184 -76c7.33301 -8.66699 11 -17 11 -25z" />
    <glyph glyph-name="g" unicode="g" horiz-adv-x="920" 
d="M870 935c0 -23.333 -11.665 -35.001 -34.998 -35.001h-170c86.667 -67.333 130 -155.666 130 -264.999c0 -134 -59.333 -232.667 -178 -296c76 -32 137.167 -82.5 183.5 -151.5s69.5 -144.833 69.5 -227.5c0 -113.333 -40 -210 -120 -290s-176.667 -120 -290 -120
s-210 40 -290 120s-120 176.667 -120 290c0 23.333 11.667 35 35 35s35 -11.667 35 -35c0 -93.333 33.333 -173.333 100 -240s146.667 -100 240 -100s173.333 33.333 240 100s100 146.667 100 240s-33.333 173.333 -100 240s-146.334 100 -239.001 100
s-171.834 32.833 -237.501 98.5s-98.5 144.5 -98.5 236.5s32.833 170.833 98.5 236.5s144.5 98.5 236.5 98.5h375c23.333 0 35 -11.667 35 -35zM725.002 634.999c0 72.667 -26 135 -78 187s-114.333 78 -187 78s-135 -26 -187 -78s-78 -114.333 -78 -187s26 -135 78 -187
s114.333 -78 187 -78s135 26 187 78s78 114.333 78 187z" />
    <glyph glyph-name="h" unicode="h" horiz-adv-x="920" 
d="M820 35c0 -23.333 -11.666 -35 -34.999 -35s-35 11.667 -35 35v600c0 72.667 -26 135 -78 187s-114.333 78 -187 78s-135 -26 -187 -78s-78 -114.333 -78 -187v-600c0 -23.333 -11.667 -35 -35 -35s-35 11.667 -35 35v1350c0 23.333 11.667 35 35 35s35 -11.667 35 -35
v-545c67.333 86.667 155.666 130 264.999 130c92 0 170.833 -32.833 236.5 -98.5s98.5 -144.5 98.5 -236.5v-600z" />
    <glyph glyph-name="i" unicode="i" horiz-adv-x="370" 
d="M259 1346c0 -47.333 -24.667 -71 -74 -71s-74 23.667 -74 71c0 20 7.33301 37.333 22 52s32 22 52 22s37.333 -7.33301 52 -22s22 -32 22 -52zM220 935v-900c0 -23.333 -11.667 -35 -35 -35s-35 11.667 -35 35v900c0 23.333 11.667 35 35 35s35 -11.667 35 -35z" />
    <glyph glyph-name="j" unicode="j" horiz-adv-x="370" 
d="M259 1346c0 -47.333 -24.667 -71 -74 -71s-74 23.667 -74 71c0 20 7.33301 37.333 22 52s32 22 52 22s37.333 -7.33301 52 -22s22 -32 22 -52zM220 -190c0 -71.333 -25.499 -132.5 -76.499 -183.5s-112.167 -76.5 -183.5 -76.5c-78.667 0 -140 25.333 -184 76
c-7.33301 8.66699 -11 16.667 -11 24c0 24 12 36 36 36c1.33301 0 19.666 -11 54.999 -33s70 -33 104 -33c52 0 96.667 18.667 134 56s56 82 56 134v1125c0 23.333 11.667 35 35 35s35 -11.667 35 -35v-1125z" />
    <glyph glyph-name="k" unicode="k" horiz-adv-x="791" 
d="M741 35c0 -24 -12 -36.002 -36 -36.002c-9.33301 0 -17.666 3.66699 -24.999 11l-450 450c-7.33301 7.33301 -11 15 -11 23c0 10.667 3.66699 19.667 11 27l450 450c7.33301 7.33301 15.666 11 24.999 11c24 0 36 -12 36 -36c0 -9.33301 -3.66699 -17.666 -11 -24.999
l-426 -425l426 -425c7.33301 -7.33301 11 -15.666 11 -24.999zM220 1385v-1350c0 -23.333 -11.667 -35 -35 -35s-35 11.667 -35 35v1350c0 23.333 11.667 35 35 35s35 -11.667 35 -35z" />
    <glyph glyph-name="l" unicode="l" horiz-adv-x="445" 
d="M395 35c0 -23.333 -11.667 -35 -35 -35c-71.333 0 -132.5 25.5 -183.5 76.5s-76.5 112.167 -76.5 183.5v1125c0 23.333 11.667 35 35 35s35 -11.667 35 -35v-1125c0 -52 18.667 -96.667 56 -134s82 -56 134 -56c23.333 0 35 -11.667 35 -35z" />
    <glyph glyph-name="m" unicode="m" horiz-adv-x="1520" 
d="M1420 35c0 -23.333 -11.666 -35 -34.999 -35s-35 11.667 -35 35v600c0 72.667 -26 135 -78 187s-114.333 78 -187 78s-135 -26 -187 -78s-78 -114.333 -78 -187v-600c0 -23.333 -11.667 -35 -35 -35s-35 11.667 -35 35v600c0 72.667 -26 135 -78 187s-114.333 78 -187 78
s-135 -26 -187 -78s-78 -114.333 -78 -187v-600c0 -23.333 -11.667 -35 -35 -35s-35 11.667 -35 35v900c0 23.333 11.667 35 35 35s35 -11.667 35 -35v-95c67.333 86.667 155.666 130 264.999 130c138 0 238 -62 300 -186c62 124 162 186 300 186
c92 0 170.833 -32.833 236.5 -98.5s98.5 -144.5 98.5 -236.5v-600z" />
    <glyph glyph-name="n" unicode="n" horiz-adv-x="920" 
d="M820 35c0 -23.333 -11.666 -35 -34.999 -35s-35 11.667 -35 35v600c0 72.667 -26 135 -78 187s-114.333 78 -187 78s-135 -26 -187 -78s-78 -114.333 -78 -187v-600c0 -23.333 -11.667 -35 -35 -35s-35 11.667 -35 35v900c0 23.333 11.667 35 35 35s35 -11.667 35 -35
v-95c67.333 86.667 155.666 130 264.999 130c92 0 170.833 -32.833 236.5 -98.5s98.5 -144.5 98.5 -236.5v-600z" />
    <glyph glyph-name="o" unicode="o" 
d="M1020 485c0 -134 -47.333 -248.333 -142 -343s-209 -142 -343 -142s-248.333 47.333 -343 142s-142 209 -142 343s47.333 248.333 142 343s209 142 343 142s248.333 -47.333 343 -142s142 -209 142 -343zM950 485c0 114.667 -40.5 212.5 -121.5 293.5
s-178.833 121.5 -293.5 121.5s-212.5 -40.5 -293.5 -121.5s-121.5 -178.833 -121.5 -293.5s40.5 -212.5 121.5 -293.5s178.833 -121.5 293.5 -121.5s212.5 40.5 293.5 121.5s121.5 178.833 121.5 293.5z" />
    <glyph glyph-name="p" unicode="p" horiz-adv-x="1115" 
d="M1065 485c0 -134 -47.333 -248.335 -142 -343.002s-209 -142 -343 -142c-84.667 0 -164 20.833 -238 62.5s-133 98.834 -177 171.501v-649c0 -23.333 -11.667 -35 -35 -35s-35 11.667 -35 35v1350c0 23.333 11.667 35 35 35s35 -11.667 35 -35v-199
c44 72.667 103 129.834 177 171.501s153.333 62.5 238 62.5c134 0 248.333 -47.333 343 -142s142 -209 142 -343zM995 484.998c0 114.667 -40.5 212.5 -121.5 293.5s-178.833 121.5 -293.5 121.5s-212.5 -40.5 -293.5 -121.5s-121.5 -178.833 -121.5 -293.5
s40.5 -212.5 121.5 -293.5s178.833 -121.5 293.5 -121.5s212.5 40.5 293.5 121.5s121.5 178.833 121.5 293.5z" />
    <glyph glyph-name="q" unicode="q" horiz-adv-x="1170" 
d="M1020 -415c0 -23.333 -11.667 -34.998 -35 -34.998s-35 11.667 -35 35v649c-44 -72.667 -103 -129.834 -177 -171.501s-153.333 -62.5 -238 -62.5c-134 0 -248.333 47.333 -343 142s-142 209 -142 343s47.333 248.333 142 343s209 142 343 142
c84.667 0 164 -20.833 238 -62.5s133 -98.834 177 -171.501v199c0 23.333 11.667 35 35 35s35 -11.667 35 -35v-1350zM950 485.002c0 114.667 -40.5 212.5 -121.5 293.5s-178.833 121.5 -293.5 121.5s-212.5 -40.5 -293.5 -121.5s-121.5 -178.833 -121.5 -293.5
s40.5 -212.5 121.5 -293.5s178.833 -121.5 293.5 -121.5s212.5 40.5 293.5 121.5s121.5 178.833 121.5 293.5z" />
    <glyph glyph-name="r" unicode="r" horiz-adv-x="691" 
d="M641 821c0 -22.667 -12.332 -34 -36.999 -34c-4.66699 0 -25.5 18.833 -62.5 56.5s-80.833 56.5 -131.5 56.5c-52 0 -96.667 -18.667 -134 -56s-56 -82 -56 -134v-675c0 -23.333 -11.667 -35 -35 -35s-35 11.667 -35 35v900c0 23.333 11.667 35 35 35
c24 0 35.667 -27.667 35 -83c51.333 55.333 114.666 83 189.999 83c104 0 179 -43.333 225 -130c4 -6.66699 6 -13 6 -19z" />
    <glyph glyph-name="s" unicode="s" horiz-adv-x="678" 
d="M628 297c0 -81.333 -29.001 -151.166 -87.001 -209.499s-128 -87.5 -210 -87.5c-62 0 -118.333 17.5 -169 52.5s-87 81.5 -109 139.5c-2 4 -3 8.33301 -3 13c0 22.667 12.333 34 37 34c12.667 0 23 -7.66699 31 -23l23 -44c43.333 -68 106.666 -102 189.999 -102
c62.667 0 116.167 22.333 160.5 67s66.5 98 66.5 160c0 65.333 -23.333 119.666 -70 162.999s-102.667 65 -168 65c-60 0 -111.167 22 -153.5 66s-63.5 96 -63.5 156c0 61.333 21.833 113.833 65.5 157.5s96.167 65.5 157.5 65.5c85.333 0 149.333 -36.667 192 -110
c3.33301 -6.66699 5 -13 5 -19c0 -22.667 -12 -34 -36 -34c-5.33301 0 -23.166 15.5 -53.499 46.5s-66.166 46.5 -107.499 46.5c-42 0 -78 -15 -108 -45s-45 -66 -45 -108c0 -45.333 16 -82 48 -110s71.333 -42 118 -42c80 0 148.167 -29.5 204.5 -88.5
s84.5 -128.833 84.5 -209.5z" />
    <glyph glyph-name="t" unicode="t" horiz-adv-x="780" 
d="M730 100c0 -7.33301 -3.66699 -15.333 -11 -24c-42.667 -50.667 -104 -76 -184 -76c-71.333 0 -132.5 25.5 -183.5 76.5s-76.5 112.167 -76.5 183.5v640h-190c-23.333 0 -35 11.667 -35 35s11.667 35 35 35h190v415c0 23.333 11.667 35 35 35s35 -11.667 35 -35v-415h190
c23.333 0 35 -11.667 35 -35s-11.667 -35 -35 -35h-190v-640c0 -52 18.667 -96.667 56 -134s82 -56 134 -56c33.333 0 67.833 11 103.5 33s54.167 33 55.5 33c24 0 36 -12 36 -36z" />
    <glyph glyph-name="u" unicode="u" horiz-adv-x="870" 
d="M770 335c0 -92 -32.833 -170.833 -98.5 -236.5s-144.5 -98.5 -236.5 -98.5s-170.833 32.833 -236.5 98.5s-98.5 144.5 -98.5 236.5v600c0 23.333 11.667 35 35 35s35 -11.667 35 -35v-600c0 -72.667 26 -135 78 -187s114.333 -78 187 -78s135 26 187 78
s78 114.333 78 187v600c0 23.333 11.667 35 35 35s35 -11.667 35 -35v-600z" />
    <glyph glyph-name="v" unicode="v" horiz-adv-x="1071" 
d="M1021 936c0 -8.66699 -69.333 -152 -208 -430c-136 -273.333 -217 -433.666 -243 -480.999c-10 -16.667 -21.667 -25 -35 -25c-12.667 0 -24 8.33301 -34 25c-26 47.333 -107 207.666 -243 480.999c-138.667 278 -208 421.333 -208 430c0 22.667 12.333 34 37 34
c13.333 0 23.333 -6.33301 30 -19l419 -838l418 838c6.66699 12.667 16.667 19 30 19c24.667 0 37 -11.333 37 -34z" />
    <glyph glyph-name="w" unicode="w" horiz-adv-x="1671" 
d="M1621 936c0 -5.33301 -150.331 -309 -450.998 -911c-8.66699 -16.667 -20.334 -25 -35.001 -25c-14 -0 -25.333 8.33301 -34 25l-265 531l-266 -531c-8.66699 -16.667 -20.334 -25 -35.001 -25c-14 -0 -25.333 8.33301 -34 25c-300.667 602 -451 905.667 -451 911
c0 22.667 12.333 34 37 34c13.333 0 23.333 -6.33301 30 -19l419 -838l261 521c-98 195.333 -147 296 -147 302c0 22.667 12.333 34 37 34c13.333 0 23.333 -6.33301 30 -19l419 -838l418 838c6.66699 12.667 16.667 19 30 19c24.667 0 37 -11.333 37 -34z" />
    <glyph glyph-name="x" unicode="x" horiz-adv-x="921" 
d="M871 35c0 -24 -12 -36 -36 -36c-10 0 -18.667 4.66699 -26 14l-348 417l-347 -417c-7.33301 -9.33301 -16.333 -14 -27 -14c-24 0 -36 12 -36 36c0 8 3 15.333 9 22l355 428l-356 428c-6 6.66699 -9 14 -9 22c0 24 12 36 36 36c10.667 0 19.667 -4.66699 27 -14l348 -417
l347 417c7.33301 9.33301 16 14 26 14c24 0 36 -12 36 -36c0 -8 -2.66699 -15.333 -8 -22l-356 -428l357 -428c5.33301 -6.66699 8 -14 8 -22z" />
    <glyph glyph-name="y" unicode="y" horiz-adv-x="920" 
d="M770 -115c0 -92 -32.833 -170.833 -98.5 -236.5s-144.5 -98.5 -236.5 -98.5c-130.667 0 -227.334 55.333 -290.001 166c-3.33301 6.66699 -5 13 -5 19c0 22.667 12.333 34 37 34c8.66699 0 23.667 -12.667 45 -38c28 -32.667 53.333 -56.667 76 -72
c39.333 -26 85 -39 137 -39c72.667 0 135 26 187 78s78 114.333 78 187v245c-67.333 -86.667 -155.666 -130 -264.999 -130c-92 -0 -170.833 32.833 -236.5 98.5s-98.5 144.5 -98.5 236.5v600c0 23.333 11.667 35 35 35s35 -11.667 35 -35v-600c0 -72.667 26 -135 78 -187
s114.333 -78 187 -78s135 26 187 78s78 114.333 78 187v600c0 23.333 11.667 35 35 35s35 -11.667 35 -35v-1050z" />
    <glyph glyph-name="z" unicode="z" horiz-adv-x="921" 
d="M871 935c0 -8 -4.33301 -17.333 -13 -28l-698 -837h676c23.333 0 35 -11.667 35 -35s-11.667 -35 -35 -35l-750 -1c-24 0 -36 12 -36 36c0 8 4.33301 17.333 13 28l698 837h-675c-23.333 0 -35 11.667 -35 35s11.667 35 35 35l749 1c24 0 36 -12 36 -36z" />
    <glyph glyph-name="braceleft" unicode="{" horiz-adv-x="620" 
d="M570 -415c0 -23.333 -11.667 -35 -35 -35c-71.333 0 -132.5 25.5 -183.5 76.5s-76.5 112.167 -76.5 183.5v450c0 52 -18.667 96.667 -56 134s-82 56 -134 56c-23.333 0 -35 11.667 -35 35s11.667 35 35 35c52 0 96.667 18.667 134 56s56 82 56 134v450
c0 71.333 25.5 132.5 76.5 183.5s112.167 76.5 183.5 76.5c23.333 0 35 -11.667 35 -35s-11.667 -35 -35 -35c-52 0 -96.667 -18.667 -134 -56s-56 -82 -56 -134v-450c0 -100 -43.333 -175 -130 -225c86.667 -50 130 -125 130 -225v-450c0 -52 18.667 -96.667 56 -134
s82 -56 134 -56c23.333 0 35 -11.667 35 -35z" />
    <glyph glyph-name="bar" unicode="|" horiz-adv-x="335" 
d="M220 -415c0 -23.333 -11.667 -35 -35 -35s-35 11.667 -35 35v1800c0 23.333 11.667 35 35 35s35 -11.667 35 -35v-1800z" />
    <glyph glyph-name="braceright" unicode="}" horiz-adv-x="620" 
d="M570 485c0 -23.333 -11.667 -35 -35 -35c-52 0 -96.667 -18.667 -134 -56s-56 -82 -56 -134v-450c0 -71.333 -25.5 -132.5 -76.5 -183.5s-112.167 -76.5 -183.5 -76.5c-23.333 0 -35 11.667 -35 35s11.667 35 35 35c52 0 96.667 18.667 134 56s56 82 56 134v450
c0 100 43.333 175 130 225c-86.667 50 -130 125 -130 225v450c0 52 -18.667 96.667 -56 134s-82 56 -134 56c-23.333 0 -35 11.667 -35 35s11.667 35 35 35c71.333 0 132.5 -25.5 183.5 -76.5s76.5 -112.167 76.5 -183.5v-450c0 -52 18.667 -96.667 56 -134s82 -56 134 -56
c23.333 0 35 -11.667 35 -35z" />
    <glyph glyph-name="asciitilde" unicode="~" horiz-adv-x="771" 
d="M721 486c0 -8 -3.99805 -18.333 -11.998 -31c-32 -53.333 -90 -80 -174 -80c-48.667 0 -102.667 25 -162 75s-105.333 75 -138 75c-46.667 0 -81.667 -12.5 -105 -37.5s-38 -37.5 -44 -37.5c-24 0 -36 11.333 -36 34c0 8 3.66699 18.333 11 31c32 53.333 90 80 174 80
c49.333 0 103.5 -25 162.5 -75s104.833 -75 137.5 -75c47.333 0 82.666 12.5 105.999 37.5s37.666 37.5 42.999 37.5c24.667 0 37 -11.333 37 -34z" />
    <glyph glyph-name="exclamdown" unicode="&#xa1;" horiz-adv-x="370" 
d="M259 896c0 -47.333 -24.667 -71 -74 -71s-74 23.667 -74 71c0 20 7.33301 37.333 22 52s32 22 52 22s37.333 -7.33301 52 -22s22 -32 22 -52zM220 -415c0 -23.333 -11.667 -35 -35 -35s-35 11.667 -35 35v975c0 23.333 11.667 35 35 35s35 -11.667 35 -35v-975z" />
    <glyph glyph-name="cent" unicode="&#xa2;" horiz-adv-x="939" 
d="M889 804c0 -24 -12 -36.001 -36 -36.001c-7.33301 0 -15.666 3.66699 -24.999 11c-32.667 26.667 -57.334 45.334 -74.001 56.001c-27.333 18.667 -55.333 33 -84 43v-786c42 14.667 94.667 47.667 158 99c8.66699 7.33301 16.667 11 24 11c24 0 36 -12 36 -36
s-30.333 -53.667 -91 -89c-49.333 -28.667 -91.666 -48 -126.999 -58v-234c0 -23.333 -11.667 -35 -35 -35s-35 11.667 -35 35v219c-21.333 -2.66699 -43 -4 -65 -4s-43.667 1.33301 -65 4v-219c0 -23.333 -11.667 -35 -35 -35s-35 11.667 -35 35v234
c-103.333 30 -187.5 88.333 -252.5 175s-97.5 183.667 -97.5 291s32.5 204.333 97.5 291s149.167 145 252.5 175v234c0 23.333 11.667 35 35 35s35 -11.667 35 -35v-219c21.333 2.66699 43 4 65 4s43.667 -1.33301 65 -4v219c0 23.333 11.667 35 35 35s35 -11.667 35 -35
v-234c35.333 -10.667 77.666 -30 126.999 -58c61.333 -35.333 92 -65 92 -89zM600 74.999v820c-21.333 3.33301 -43 5 -65 5s-43.667 -1.66699 -65 -5v-820c21.333 -3.33301 43 -5 65 -5s43.667 1.66699 65 5zM400 91.999v785.998
c-83.333 -29.333 -150.833 -80.166 -202.5 -152.499s-77.5 -152.5 -77.5 -240.5s25.833 -168.167 77.5 -240.5s119.167 -123.166 202.5 -152.499z" />
    <glyph glyph-name="sterling" unicode="&#xa3;" horiz-adv-x="1071" 
d="M1021 35c0 -23.333 -11.667 -35.001 -35 -35.001h-900c-24 0 -36 11.667 -36 35s12 35 36 35c52.667 0 97.5 18.667 134.5 56s55.5 82 55.5 134v340h-190c-23.333 0 -35 11.667 -35 35s11.667 35 35 35h190v230h-190c-23.333 0 -35 11.667 -35 35s11.667 35 35 35h190
v190c0 71.333 25.5 132.5 76.5 183.5s112.167 76.5 183.5 76.5c79.333 0 140.666 -25.333 183.999 -76c7.33301 -8.66699 11 -17 11 -25c0 -23.333 -12 -35 -36 -35c-1.33301 0 -19.666 11 -54.999 33s-70 33 -104 33c-52 0 -96.667 -18.667 -134 -56s-56 -82 -56 -134v-190
h190c23.333 0 35 -11.667 35 -35s-11.667 -35 -35 -35h-190v-230h190c23.333 0 35 -11.667 35 -35s-11.667 -35 -35 -35h-190v-340c0 -75.333 -27.333 -138.666 -82 -189.999h722c23.333 0 35 -11.667 35 -35z" />
    <glyph glyph-name="currency" unicode="&#xa4;" horiz-adv-x="1071" 
d="M1021 935c0 -10.667 -39.667 -55 -119 -133c79.333 -90.667 119 -196.334 119 -317.001s-39.667 -226.334 -119 -317.001c79.333 -78 119 -122.333 119 -133c0 -24 -12 -36 -36 -36c-10 0 -54 39.667 -132 119c-91.333 -78.667 -197 -118 -317 -118
c-120.667 0 -226.667 39.333 -318 118c-77.333 -79.333 -121.333 -119 -132 -119c-24 0 -36 12 -36 36c0 10.667 39.667 55 119 133c-78.667 90.667 -118 196.334 -118 317.001s39.333 226.334 118 317.001c-79.333 78 -119 122.333 -119 133c0 24 12 36 36 36
c10.667 0 54.667 -39.667 132 -119c91.333 78.667 197.333 118 318 118c120 0 225.667 -39.333 317 -118c78 79.333 122 119 132 119c24 0 36 -12 36 -36zM951 485c0 114.667 -40.667 212.5 -122 293.5s-179 121.5 -293 121.5c-114.667 0 -212.5 -40.5 -293.5 -121.5
s-121.5 -178.833 -121.5 -293.5s40.5 -212.5 121.5 -293.5s178.833 -121.5 293.5 -121.5c114 0 211.667 40.5 293 121.5s122 178.833 122 293.5z" />
    <glyph glyph-name="yen" unicode="&#xa5;" horiz-adv-x="1171" 
d="M1171 1385c0 -7.33301 -2.66699 -14.333 -8 -21l-481 -619h229c23.333 0 35 -11.667 35 -35s-11.667 -35 -35 -35h-265v-230h265c23.333 0 35 -11.667 35 -35s-11.667 -35 -35 -35h-265v-340c0 -23.333 -11.667 -35 -35 -35s-35 11.667 -35 35v340h-265
c-23.333 0 -35 11.667 -35 35s11.667 35 35 35h265v230h-265c-23.333 0 -35 11.667 -35 35s11.667 35 35 35h228l-481 619c-5.33301 6.66699 -8 13.667 -8 21c0 24 12 36 36 36c10.667 0 19.667 -5 27 -15l498 -639l497 639c7.33301 10 16.333 15 27 15c24 0 36 -12 36 -36z
" />
    <glyph glyph-name="brokenbar" unicode="&#xa6;" horiz-adv-x="370" 
d="M220 635c0 -23.333 -11.667 -35 -35 -35s-35 11.667 -35 35v750c0 23.333 11.667 35 35 35s35 -11.667 35 -35v-750zM220 -415c0 -23.333 -11.667 -35 -35 -35s-35 11.667 -35 35v750c0 23.333 11.667 35 35 35s35 -11.667 35 -35v-750z" />
    <glyph glyph-name="section" unicode="&#xa7;" horiz-adv-x="770" 
d="M720 -115c0 -92 -32.834 -170.833 -98.501 -236.5s-144.5 -98.5 -236.5 -98.5c-128.667 0 -225.667 56.333 -291 169c-3.33301 6 -5 12 -5 18c0 22.667 12.333 34 37 34c8.66699 0 23.667 -13 45 -39c28 -33.333 53.333 -57.666 76 -72.999
c39.333 -26 85.333 -39 138 -39c72.667 0 135 26 187 78s78 114.333 78 187s-26 135 -78 187s-114.333 78 -187 78c-92 0 -170.833 32.833 -236.5 98.5s-98.5 144.5 -98.5 236.5c0 138 62 238 186 300c-124 62 -186 162 -186 300c0 92 32.833 170.833 98.5 236.5
s144.5 98.5 236.5 98.5c128.667 0 225.667 -56.333 291 -169c3.33301 -6 5 -12 5 -18c0 -22.667 -12.333 -34 -37 -34c-8.66699 0 -23.667 13 -45 39c-27.333 33.333 -52.666 57.666 -75.999 72.999c-39.333 26 -85.333 39 -138 39c-72.667 0 -135 -26 -187 -78
s-78 -114.333 -78 -187s26 -135 78 -187s114.333 -78 187 -78c92 0 170.833 -32.833 236.5 -98.5s98.5 -144.5 98.5 -236.5c0 -138 -62 -238 -186 -300c124 -62 186 -162 186 -300zM649.999 485c0 72.667 -26 135 -78 187s-114.333 78 -187 78s-135 -26 -187 -78
s-78 -114.333 -78 -187s26 -135 78 -187s114.333 -78 187 -78s135 26 187 78s78 114.333 78 187z" />
    <glyph glyph-name="dieresis" unicode="&#xa8;" horiz-adv-x="695" 
d="M645 1273c0 -48.667 -24.333 -73 -73 -73c-48 0 -72 24.333 -72 73c0 48 24 72 72 72c48.667 0 73 -24 73 -72zM195 1273c0 -48.667 -24.333 -73 -73 -73c-48 0 -72 24.333 -72 73c0 48 24 72 72 72c48.667 0 73 -24 73 -72z" />
    <glyph glyph-name="copyright" unicode="&#xa9;" horiz-adv-x="1520" 
d="M1470 710c0 -196 -69.333 -363.333 -208 -502s-306 -208 -502 -208s-363.333 69.333 -502 208s-208 306 -208 502s69.333 363.333 208 502s306 208 502 208s363.333 -69.333 502 -208s208 -306 208 -502zM1400 710c0 176.667 -62.5 327.5 -187.5 452.5
s-275.833 187.5 -452.5 187.5s-327.5 -62.5 -452.5 -187.5s-187.5 -275.833 -187.5 -452.5s62.5 -327.5 187.5 -452.5s275.833 -187.5 452.5 -187.5s327.5 62.5 452.5 187.5s187.5 275.833 187.5 452.5zM1034 471c0 -8 -3.66699 -16.335 -11 -25.002
c-65.333 -72.667 -153 -109 -263 -109c-102.667 0 -190.5 36.5 -263.5 109.5s-109.5 160.833 -109.5 263.5s36.5 190.334 109.5 263.001s160.833 109 263.5 109c110 0 197.667 -36 263 -108c7.33301 -8.66699 11 -17 11 -25c0 -24 -12 -36 -36 -36
c0.666992 0 -24.666 16.5 -75.999 49.5s-105.333 49.5 -162 49.5c-83.333 0 -154.666 -29.5 -213.999 -88.5s-89 -130.167 -89 -213.5s29.667 -154.666 89 -213.999s130.666 -89 213.999 -89c56.667 0 110.667 16.667 162 50s76.666 50 75.999 50c24 0 36 -12 36 -36z" />
    <glyph glyph-name="ordfeminine" unicode="&#xaa;" horiz-adv-x="620" 
d="M570 755c0 -23.333 -11.667 -34.998 -35 -34.998c-24 0 -35.667 26 -35 78c-51.333 -52 -114.666 -78 -189.999 -78c-70 0 -130.333 23.333 -181 70c-52.667 47.333 -79 105.666 -79 174.999s26.333 127.666 79 174.999c50.667 46.667 111 70 181 70
c75.333 0 138.666 -26 189.999 -78v43c0 50 -19 91.667 -57 125s-82.333 50 -133 50c-34.667 0 -69.5 -10.333 -104.5 -31s-53.167 -31 -54.5 -31c-24 0 -36 12 -36 36c0 8 4 16.333 12 25c44.667 47.333 105.667 71 183 71c70 0 130.833 -23.5 182.5 -70.5
s77.5 -105.167 77.5 -174.5v-420zM570 485.002c0 -23.333 -11.667 -35 -35 -35h-450c-23.333 0 -35 11.667 -35 35s11.667 35 35 35h450c23.333 0 35 -11.667 35 -35zM500 965.002c0 50 -19 91.667 -57 125s-82.333 50 -133 50s-95 -16.667 -133 -50s-57 -75 -57 -125
s19 -91.667 57 -125s82.333 -50 133 -50s95 16.667 133 50s57 75 57 125z" />
    <glyph glyph-name="guillemotleft" unicode="&#xab;" horiz-adv-x="771" 
d="M721 34c0 -22.667 -12.333 -34 -37 -34c-13.333 -0 -23.333 6.33301 -30 19c-152.667 306 -229 461.333 -229 466s76.333 160 229 466c6.66699 12.667 16.667 19 30 19c24.667 0 37 -11.333 37 -34c0 -6.66699 -73.667 -157 -221 -451
c147.333 -294 221 -444.333 221 -451zM346 34c0 -22.667 -12.333 -34 -37 -34c-13.333 -0 -23.333 6.33301 -30 19c-152.667 306 -229 461.333 -229 466s76.333 160 229 466c6.66699 12.667 16.667 19 30 19c24.667 0 37 -11.333 37 -34c0 -6.66699 -73.667 -157 -221 -451
c147.333 -294.667 221 -445 221 -451z" />
    <glyph glyph-name="logicalnot" unicode="&#xac;" 
d="M920 35c0 -23.333 -11.667 -35 -35 -35s-35 11.667 -35 35v415h-765c-23.333 0 -35 11.667 -35 35s11.667 35 35 35h800c23.333 0 35 -11.667 35 -35v-450z" />
    <glyph glyph-name="minus" unicode="&#xad;" 
d="M1020 597c0 -23.333 -11.667 -35 -35 -35h-900c-23.333 0 -35 11.667 -35 35s11.667 35 35 35h900c23.333 0 35 -11.667 35 -35z" />
    <glyph glyph-name="minus" unicode="&#x2212;" 
d="M1020 597c0 -23.333 -11.667 -35 -35 -35h-900c-23.333 0 -35 11.667 -35 35s11.667 35 35 35h900c23.333 0 35 -11.667 35 -35z" />
    <glyph glyph-name="registered" unicode="&#xae;" horiz-adv-x="1520" 
d="M1470 710c0 -196 -69.333 -363.333 -208 -502s-306 -208 -502 -208s-363.333 69.333 -502 208s-208 306 -208 502s69.333 363.333 208 502s306 208 502 208s363.333 -69.333 502 -208s208 -306 208 -502zM1400 710c0 176.667 -62.5 327.5 -187.5 452.5
s-275.833 187.5 -452.5 187.5s-327.5 -62.5 -452.5 -187.5s-187.5 -275.833 -187.5 -452.5s62.5 -327.5 187.5 -452.5s275.833 -187.5 452.5 -187.5s327.5 62.5 452.5 187.5s187.5 275.833 187.5 452.5zM1021 373c0 -24 -12.001 -36.001 -36.001 -36.001
c-9.33301 0 -17.666 3.66699 -24.999 11l-300 300c-9.33301 9.33301 -14 19.333 -14 30c0 19.333 13 29 39 29h112c42 0 78 15 108 45s45 66 45 108s-15 77.833 -45 107.5s-66 44.5 -108 44.5h-152v-640c0 -23.333 -11.667 -35 -35 -35s-35 11.667 -35 35v675
c0 23.333 11.667 35 35 35h187c61.333 0 113.833 -21.667 157.5 -65s65.5 -95.666 65.5 -156.999s-21.833 -113.833 -65.5 -157.5s-96.167 -65.5 -157.5 -65.5h-28l241 -240c7.33301 -7.33301 11 -15.333 11 -24z" />
    <glyph glyph-name="macron" unicode="&#xaf;" 
d="M1020 1760c0 -23.333 -11.667 -35 -35 -35h-900c-23.333 0 -35 11.667 -35 35s11.667 35 35 35h900c23.333 0 35 -11.667 35 -35z" />
    <glyph glyph-name="macron" unicode="&#x2c9;" 
d="M1020 1760c0 -23.333 -11.667 -35 -35 -35h-900c-23.333 0 -35 11.667 -35 35s11.667 35 35 35h900c23.333 0 35 -11.667 35 -35z" />
    <glyph glyph-name="degree" unicode="&#xb0;" horiz-adv-x="770" 
d="M720 1085c0 -92 -32.833 -170.833 -98.5 -236.5s-144.5 -98.5 -236.5 -98.5s-170.833 32.833 -236.5 98.5s-98.5 144.5 -98.5 236.5s32.833 170.833 98.5 236.5s144.5 98.5 236.5 98.5s170.833 -32.833 236.5 -98.5s98.5 -144.5 98.5 -236.5zM650 1085
c0 72.667 -26 135 -78 187s-114.333 78 -187 78s-135 -26 -187 -78s-78 -114.333 -78 -187s26 -135 78 -187s114.333 -78 187 -78s135 26 187 78s78 114.333 78 187z" />
    <glyph glyph-name="plusminus" unicode="&#xb1;" 
d="M1020 785c0 -23.333 -11.667 -35 -35 -35h-415v-415c0 -23.333 -11.667 -35 -35 -35s-35 11.667 -35 35v415h-415c-23.333 0 -35 11.667 -35 35s11.667 35 35 35h415v415c0 23.333 11.667 35 35 35s35 -11.667 35 -35v-415h415c23.333 0 35 -11.667 35 -35zM1020 35
c0 -23.333 -11.667 -35 -35 -35h-900c-23.333 0 -35 11.667 -35 35s11.667 35 35 35h900c23.333 0 35 -11.667 35 -35z" />
    <glyph glyph-name="twosuperior" unicode="&#xb2;" horiz-adv-x="738" 
d="M688 597c0 -23.333 -11.667 -35 -35 -35h-563c-26.667 0 -40 10.333 -40 31c0 12.667 6.66699 23.667 20 33l481 340c44.667 32 67 84 67 156c0 65.333 -25.333 120 -76 164c-48 42.667 -104.667 64 -170 64c-66 0 -123 -21.333 -171 -64
c-50.667 -44 -76 -98.667 -76 -164c0 -23.333 -11.667 -35 -35 -35s-35 11.667 -35 35c0 84.667 32 156 96 214c62 56 135.667 84 221 84c84.667 0 158 -28 220 -84c64 -58 96 -129.333 96 -214c0 -96.667 -32 -167.667 -96 -213l-392 -277h453c23.333 0 35 -11.667 35 -35z
" />
    <glyph glyph-name="threesuperior" unicode="&#xb3;" horiz-adv-x="753" 
d="M703 1390c0 -11.333 -5.66504 -22.001 -16.998 -32.001l-359 -306h26c92.667 0 172.667 -30.333 240 -91c70 -63.333 105 -140.666 105 -231.999c0 -92 -35 -169.333 -105 -232c-67.333 -61.333 -147.333 -92 -240 -92c-58.667 0 -115.334 14 -170.001 42
c-56.667 29.333 -99 69 -127 119c-4 6.66699 -6 13 -6 19c0 23.333 12.333 35 37 35c8 0 23 -12.667 45 -38c28 -31.333 54.333 -54.333 79 -69c41.333 -25.333 88.666 -38 141.999 -38c73.333 0 137.5 24.167 192.5 72.5s82.5 108.833 82.5 181.5c0 72 -28 132.667 -84 182
c-54 47.333 -117.667 71 -191 71c-47.333 0 -95.833 -14.167 -145.5 -42.5l-74.5 -42.5c-22.667 0 -34 11.667 -34 35c0 10.667 4.66699 20 14 28l455 390h-483c-23.333 0 -35 11.667 -35 35s11.667 35 35 35h578c26.667 0 40 -10 40 -30z" />
    <glyph glyph-name="acute" unicode="&#xb4;" horiz-adv-x="471" 
d="M421 1384c0 -12 -6.66797 -22 -20.001 -30c-21.333 -13.333 -76 -41.666 -164 -84.999c-93.333 -46.667 -144.333 -70 -153 -70c-22.667 0 -34 12.333 -34 37c0 12 6.66699 22 20 30c21.333 13.333 76 41.666 164 84.999c92.667 46.667 143.334 70 152.001 70
c23.333 0 35 -12.333 35 -37z" />
    <glyph glyph-name="mu1" unicode="&#xb5;" horiz-adv-x="970" 
d="M820 35c0 -23.333 -11.6689 -35 -35.002 -35s-35 11.667 -35 35v95c-67.333 -86.667 -155.666 -130 -264.999 -130s-197.666 43.333 -264.999 130v-545c0 -23.333 -11.667 -35 -35 -35s-35 11.667 -35 35v1350c0 23.333 11.667 35 35 35s35 -11.667 35 -35v-600
c0 -72.667 26 -135 78 -187s114.333 -78 187 -78s135 26 187 78s78 114.333 78 187v600c0 23.333 11.667 35 35 35s35 -11.667 35 -35v-900z" />
    <glyph glyph-name="paragraph" unicode="&#xb6;" horiz-adv-x="1020" 
d="M870 35c0 -23.333 -11.666 -35 -34.999 -35s-35 11.667 -35 35v1315h-380v-1315c0 -23.333 -11.667 -35 -35 -35s-35 11.667 -35 35v717c-84.667 8.66699 -155.834 45 -213.501 109s-86.5 138.667 -86.5 224c0 92 32.833 170.833 98.5 236.5s144.5 98.5 236.5 98.5h450
c23.333 0 35 -11.667 35 -35v-1350zM350.001 822v526c-65.333 -8.66699 -120 -38.167 -164 -88.5s-66 -108.5 -66 -174.5s22 -124.167 66 -174.5s98.667 -79.833 164 -88.5z" />
    <glyph glyph-name="middot" unicode="&#xb7;" 
d="M609 597c0 -20 -7.33301 -37.333 -22 -52s-32 -22 -52 -22s-37.333 7.33301 -52 22s-22 32 -22 52c0 47.333 24.667 71 74 71s74 -23.667 74 -71z" />
    <glyph glyph-name="cedilla" unicode="&#xb8;" horiz-adv-x="591" 
d="M541 -190c0 -71.333 -25.5 -132.5 -76.5 -183.5s-112.167 -76.5 -183.5 -76.5c-102.667 0 -178 43.667 -226 131c-3.33301 6 -5 12 -5 18c0 22.667 12.333 34 37 34c4 0 24.833 -18.833 62.5 -56.5s81.5 -56.5 131.5 -56.5c52 0 96.667 18.667 134 56s56 82 56 134
s-18.667 96.667 -56 134s-82 56 -134 56c-23.333 0 -35 11.667 -35 35s11.667 35 35 35c71.333 0 132.5 -25.5 183.5 -76.5s76.5 -112.167 76.5 -183.5z" />
    <glyph glyph-name="onesuperior" unicode="&#xb9;" horiz-adv-x="546" 
d="M496 597c0 -23.333 -11.666 -35 -34.999 -35h-300c-23.333 0 -35 11.667 -35 35s11.667 35 35 35h115v672l-167 -155c-6.66699 -6.66699 -14.334 -10 -23.001 -10c-24 0 -36 12 -36 36c0 10 4 18.667 12 26l220 205c10 10 19.667 15 29 15c23.333 0 35 -14.333 35 -43
v-746h115c23.333 0 35 -11.667 35 -35z" />
    <glyph glyph-name="ordmasculine" unicode="&#xba;" horiz-adv-x="845" 
d="M795 1070c0 -99.333 -37.667 -183 -113 -251c-72.667 -66 -159.334 -99 -260.001 -99c-100 0 -186.333 33 -259 99c-75.333 68 -113 151.667 -113 251s37.667 183 113 251c72.667 66 159 99 259 99c100.667 0 187.334 -33 260.001 -99c75.333 -68 113 -151.667 113 -251z
M795 485c0 -23.333 -11.667 -35 -35 -35h-675c-23.333 0 -35 11.667 -35 35s11.667 35 35 35h675c23.333 0 35 -11.667 35 -35zM725 1070c0 79.333 -30.667 146.333 -92 201c-59.333 52.667 -129.666 79 -210.999 79c-80.667 0 -150.667 -26.333 -210 -79
c-61.333 -54.667 -92 -121.667 -92 -201s30.667 -146.333 92 -201c59.333 -52.667 129.333 -79 210 -79c81.333 0 152.166 26.833 212.499 80.5s90.5 120.167 90.5 199.5z" />
    <glyph glyph-name="guillemotright" unicode="&#xbb;" horiz-adv-x="771" 
d="M721 485c0 -4.66699 -76.333 -160 -229 -466c-6.66699 -12.667 -16.667 -19 -30 -19c-24.667 -0 -37 11.333 -37 34c0 6.66699 73.667 157 221 451c-147.333 294 -221 444.333 -221 451c0 22.667 12.333 34 37 34c13.333 0 23.333 -6.33301 30 -19
c152.667 -306 229 -461.333 229 -466zM346 485c0 -4.66699 -76.333 -160 -229 -466c-6.66699 -12.667 -16.667 -19 -30 -19c-24.667 -0 -37 11.333 -37 34c0 6.66699 73.667 157 221 451c-147.333 294 -221 444.333 -221 451c0 22.667 12.333 34 37 34
c13.333 0 23.333 -6.33301 30 -19c152.667 -306 229 -461.333 229 -466z" />
    <glyph glyph-name="onequarter" unicode="&#xbc;" horiz-adv-x="1584" 
d="M1534 1385c0 -9.33301 -3.66699 -17.666 -11 -24.999l-1350 -1350c-7.33301 -7.33301 -15.666 -11 -24.999 -11c-24 0 -36 12 -36 36c0 9.33301 3.66699 17.666 11 24.999l1350 1350c7.33301 7.33301 15.666 11 24.999 11c24 0 36 -12 36 -36zM1533 192
c0 -23.333 -11.667 -35.001 -35 -35.001h-190v-279c0 -24 -11.667 -36 -35 -36s-35 12 -35 36v279h-415c-25.333 0 -38 10 -38 30c0 8.66699 3.33301 17.334 10 26.001l450 630c9.33301 13.333 20 20 32 20c20.667 0 31 -13.667 31 -41v-595h190c23.333 0 35 -11.667 35 -35
zM496 596.999c0 -23.333 -11.666 -35 -34.999 -35h-300c-23.333 0 -35 11.667 -35 35s11.667 35 35 35h115v672l-167 -155c-6.66699 -6.66699 -14.334 -10 -23.001 -10c-24 0 -36 12 -36 36c0 10 4 18.667 12 26l220 205c10 10 19.667 15 29 15c23.333 0 35 -14.333 35 -43
v-746h115c23.333 0 35 -11.667 35 -35zM1238 226.999v486l-347 -486h347z" />
    <glyph glyph-name="onehalf" unicode="&#xbd;" horiz-adv-x="1584" 
d="M1533 35c0 -23.333 -11.667 -35 -35 -35h-562c-27.333 -0 -41 10.333 -41 31c0 12 6.66699 23 20 33l482 340c44 31.333 66 83.333 66 156c0 64.667 -25 119.334 -75 164.001c-48.667 42 -105.667 63 -171 63c-66 0 -123 -21 -171 -63
c-50 -44.667 -75 -99.334 -75 -164.001c0 -23.333 -11.667 -35 -35 -35s-35 11.667 -35 35c0 84 31.667 155 95 213c62 56 135.667 84 221 84c84.667 0 158 -28 220 -84c64 -58 96 -129 96 -213c0 -96.667 -32 -167.667 -96 -213l-391 -277h452c23.333 0 35 -11.667 35 -35z
M1534 1385c0 -9.33301 -3.66699 -17.666 -11 -24.999l-1350 -1350c-7.33301 -7.33301 -15.666 -11 -24.999 -11c-24 0 -36 12 -36 36c0 9.33301 3.66699 17.666 11 24.999l1350 1350c7.33301 7.33301 15.666 11 24.999 11c24 0 36 -12 36 -36zM496 597
c0 -23.333 -11.666 -35 -34.999 -35h-300c-23.333 0 -35 11.667 -35 35s11.667 35 35 35h115v672l-167 -155c-6.66699 -6.66699 -14.334 -10 -23.001 -10c-24 0 -36 12 -36 36c0 10 4 18.667 12 26l220 205c10 10 19.667 15 29 15c23.333 0 35 -14.333 35 -43v-746h115
c23.333 0 35 -11.667 35 -35z" />
    <glyph glyph-name="threequarters" unicode="&#xbe;" horiz-adv-x="1786" 
d="M1736 1385c0 -9.33301 -3.66699 -17.666 -11 -24.999l-1350 -1350c-7.33301 -7.33301 -15.333 -11 -24 -11c-24 0 -36 12 -36 36c0 9.33301 3.66699 17.666 11 24.999l1350 1350c6.66699 7.33301 14.667 11 24 11c24 0 36 -12 36 -36zM1735 192
c0 -23.333 -11.667 -35.001 -35 -35.001h-190v-279c0 -24 -11.667 -36 -35 -36s-35 12 -35 36v279h-415c-25.333 0 -38 10 -38 30c0 8.66699 3.33301 17.334 10 26.001l450 630c9.33301 13.333 20.333 20 33 20c20 0 30 -13.667 30 -41v-595h190c23.333 0 35 -11.667 35 -35
zM703 1390c0 -11.333 -5.66602 -22.001 -16.999 -32.001l-359 -306c8.66699 0.666992 17.334 1 26.001 1c92.667 0 172.667 -30.667 240 -92c70 -63.333 105 -140.666 105 -231.999c0 -92 -35 -169.333 -105 -232c-67.333 -61.333 -147.333 -92 -240 -92
c-58.667 0 -115.334 14 -170.001 42c-56.667 29.333 -99 69 -127 119c-4 6.66699 -6 13 -6 19c0 23.333 12.333 35 37 35c8 0 23 -12.667 45 -38c28 -31.333 54.333 -54.333 79 -69c41.333 -25.333 88.666 -38 141.999 -38c73.333 0 137.5 24.167 192.5 72.5
s82.5 108.833 82.5 181.5c0 72 -27.5 132.333 -82.5 181s-119.167 73 -192.5 73c-47.333 0 -95.833 -14.333 -145.5 -43l-74.5 -43c-22.667 0 -34 11.667 -34 35c0 10.667 4.66699 20 14 28l455 390h-483c-23.333 0 -35 11.667 -35 35s11.667 35 35 35h578
c26.667 0 40 -10 40 -30zM1440 226.998v486l-347 -486h347z" />
    <glyph glyph-name="questiondown" unicode="&#xbf;" horiz-adv-x="770" 
d="M459 896c0 -47.333 -24.667 -71 -74 -71s-74 23.667 -74 71c0 20 7.33301 37.333 22 52s32 22 52 22s37.333 -7.33301 52 -22s22 -32 22 -52zM720 -115c0 -92 -32.834 -170.832 -98.501 -236.499s-144.5 -98.5 -236.5 -98.5s-170.833 32.833 -236.5 98.5
s-98.5 144.5 -98.5 236.5s32.833 170.833 98.5 236.5s144.5 98.5 236.5 98.5c42 0 77.833 15 107.5 45s44.5 65.667 44.5 107c0 42 -14.833 78 -44.5 108s-65.5 45 -107.5 45c-15.333 0 -33.5 -4.33301 -54.5 -13s-34.5 -13 -40.5 -13c-22.667 0 -34 12.333 -34 37
c0 18.667 17.333 34 52 46c26.667 8.66699 52.334 13 77.001 13c61.333 0 113.666 -21.833 156.999 -65.5s65 -96.167 65 -157.5c0 -60.667 -21.667 -112.834 -65 -156.501s-95.666 -65.5 -156.999 -65.5c-72.667 0 -135 -26 -187 -78s-78 -114.333 -78 -187
s26 -135 78 -187s114.333 -78 187 -78s135 26 187 78s78 114.333 78 187c0 23.333 11.667 35 35 35s35 -11.667 35 -35z" />
    <glyph glyph-name="Agrave" unicode="&#xc0;" horiz-adv-x="1521" 
d="M961 1686c0 -24.667 -11.333 -37 -34 -37c-9.33301 0 -60.333 23.333 -153 70c-88 43.333 -142.667 71.666 -164 84.999c-13.333 8 -20 18 -20 30c0 24.667 11.333 37 34 37c9.33301 0 60.333 -23.333 153 -70c88 -43.333 142.667 -71.666 164 -84.999
c13.333 -8 20 -18 20 -30zM1471 34c0 -22.667 -12.3301 -34 -36.9971 -34c-13.333 -0 -23.333 6.33301 -30 19l-215 431h-3h-854l-215 -431c-6.66699 -12.667 -16.667 -19 -30 -19c-24.667 -0 -37 11.333 -37 34c0 8 104 221.333 312 640
c207.333 416 328.666 656.333 363.999 721c9.33301 16.667 20.666 25 33.999 25c14 0 25.667 -8.33301 35 -25c35.333 -64.667 156.666 -305 363.999 -721c208 -418.667 312 -632 312 -640zM1154 520l-393 787l-394 -787h787z" />
    <glyph glyph-name="Aacute" unicode="&#xc1;" horiz-adv-x="1521" 
d="M961 1834c0 -12 -6.66699 -22 -20 -30c-21.333 -13.333 -76 -41.666 -164 -84.999c-92.667 -46.667 -143.667 -70 -153 -70c-22.667 0 -34 12.333 -34 37c0 12 6.66699 22 20 30c21.333 13.333 76 41.666 164 84.999c92.667 46.667 143.667 70 153 70
c22.667 0 34 -12.333 34 -37zM1471 34c0 -22.667 -12.3301 -34 -36.9971 -34c-13.333 -0 -23.333 6.33301 -30 19l-215 431h-3h-854l-215 -431c-6.66699 -12.667 -16.667 -19 -30 -19c-24.667 -0 -37 11.333 -37 34c0 8 104 221.333 312 640
c207.333 416 328.666 656.333 363.999 721c9.33301 16.667 20.666 25 33.999 25c14 0 25.667 -8.33301 35 -25c35.333 -64.667 156.666 -305 363.999 -721c208 -418.667 312 -632 312 -640zM1154 520l-393 787l-394 -787h787z" />
    <glyph glyph-name="Acircumflex" unicode="&#xc2;" horiz-adv-x="1521" 
d="M1021 1686c0 -24.667 -11.666 -37 -34.999 -37c-6.66699 0 -13.334 2.33301 -20.001 7l-205 137l-206 -137c-6.66699 -4.66699 -13.334 -7 -20.001 -7c-23.333 0 -35 12.333 -35 37c0 11.333 5.33301 20.666 16 27.999l222 148c8.66699 6 16.334 9 23.001 9
c6 0 13.333 -3 22 -9l222 -148c10.667 -7.33301 16 -16.666 16 -27.999zM1471 34c0 -22.667 -12.3301 -34 -36.9971 -34c-13.333 -0 -23.333 6.33301 -30 19l-215 431h-3h-854l-215 -431c-6.66699 -12.667 -16.667 -19 -30 -19c-24.667 -0 -37 11.333 -37 34
c0 8 104 221.333 312 640c207.333 416 328.666 656.333 363.999 721c9.33301 16.667 20.666 25 33.999 25c14 0 25.667 -8.33301 35 -25c35.333 -64.667 156.666 -305 363.999 -721c208 -418.667 312 -632 312 -640zM1154 520l-393 787l-394 -787h787z" />
    <glyph glyph-name="Atilde" unicode="&#xc3;" horiz-adv-x="1521" 
d="M1111 1761c0 -8 -3.66699 -18.333 -11 -31c-32 -53.333 -90.333 -80 -175 -80c-48.667 0 -102.5 25 -161.5 75s-104.833 75 -137.5 75c-47.333 0 -82.666 -12.5 -105.999 -37.5s-37.666 -37.5 -42.999 -37.5c-24.667 0 -37 11.333 -37 34c0 8 4 18.333 12 31
c31.333 53.333 89.333 80 174 80c48.667 0 102.5 -25 161.5 -75s104.833 -75 137.5 -75c47.333 0 82.666 12.5 105.999 37.5s37.666 37.5 42.999 37.5c24.667 0 37 -11.333 37 -34zM1471 34c0 -22.667 -12.3301 -34 -36.9971 -34c-13.333 -0 -23.333 6.33301 -30 19
l-215 431h-3h-854l-215 -431c-6.66699 -12.667 -16.667 -19 -30 -19c-24.667 -0 -37 11.333 -37 34c0 8 104 221.333 312 640c207.333 416 328.666 656.333 363.999 721c9.33301 16.667 20.666 25 33.999 25c14 0 25.667 -8.33301 35 -25
c35.333 -64.667 156.666 -305 363.999 -721c208 -418.667 312 -632 312 -640zM1154 520l-393 787l-394 -787h787z" />
    <glyph glyph-name="Adieresis" unicode="&#xc4;" horiz-adv-x="1521" 
d="M1059 1723c0 -48.667 -24.333 -73 -73 -73c-48 0 -72 24.333 -72 73c0 48 24 72 72 72c48.667 0 73 -24 73 -72zM609 1723c0 -48.667 -24.333 -73 -73 -73c-48 0 -72 24.333 -72 73c0 48 24 72 72 72c48.667 0 73 -24 73 -72zM1471 34
c0 -22.667 -12.3301 -34 -36.9971 -34c-13.333 -0 -23.333 6.33301 -30 19l-215 431h-3h-854l-215 -431c-6.66699 -12.667 -16.667 -19 -30 -19c-24.667 -0 -37 11.333 -37 34c0 8 104 221.333 312 640c207.333 416 328.666 656.333 363.999 721
c9.33301 16.667 20.666 25 33.999 25c14 0 25.667 -8.33301 35 -25c35.333 -64.667 156.666 -305 363.999 -721c208 -418.667 312 -632 312 -640zM1154 520l-393 787l-394 -787h787z" />
    <glyph glyph-name="Aring" unicode="&#xc5;" horiz-adv-x="1521" 
d="M938 1696c0 -48.667 -17.333 -89.834 -52 -123.501s-76.334 -50.5 -125.001 -50.5c-49.333 0 -91.333 16.833 -126 50.5s-52 74.834 -52 123.501s17.333 90.334 52 125.001s76.667 52 126 52c48.667 0 90.334 -17.333 125.001 -52s52 -76.334 52 -125.001zM1471 34
c0 -22.667 -12.3301 -34 -36.9971 -34c-13.333 -0 -23.333 6.33301 -30 19l-215 431h-3h-854l-215 -431c-6.66699 -12.667 -16.667 -19 -30 -19c-24.667 -0 -37 11.333 -37 34c0 8 104 221.333 312 640c207.333 416 328.666 656.333 363.999 721
c9.33301 16.667 20.666 25 33.999 25c14 0 25.667 -8.33301 35 -25c35.333 -64.667 156.666 -305 363.999 -721c208 -418.667 312 -632 312 -640zM868.003 1696c0 29.333 -10.668 54.5 -32.001 75.5s-46.333 31.5 -75 31.5c-29.333 0 -54.666 -10.5 -75.999 -31.5
s-32 -46.167 -32 -75.5c0 -30 10.5 -54.833 31.5 -74.5s46.5 -29.5 76.5 -29.5c29.333 0 54.5 9.83301 75.5 29.5s31.5 44.5 31.5 74.5zM1154 520l-393 787l-394 -787h787z" />
    <glyph glyph-name="AE" unicode="&#xc6;" horiz-adv-x="1821" 
d="M1771 1385c0 -23.333 -11.668 -34.999 -35.001 -34.999h-715v-605h565c23.333 0 35 -11.667 35 -35s-11.667 -35 -35 -35h-565v-605h715c23.333 0 35 -11.667 35 -35s-11.667 -35 -35 -35h-750c-23.333 0 -35 11.667 -35 35v415h-547l-289 -434
c-7.33301 -10.667 -16.666 -16 -27.999 -16c-24.667 0 -37 11.333 -37 34c0 7.33301 2 14 6 20l900 1350c7.33301 11.333 17 16.666 29 15.999h751c23.333 0 35 -11.667 35 -35zM950.999 520.001v749l-500 -749h500z" />
    <glyph glyph-name="Ccedilla" unicode="&#xc7;" horiz-adv-x="1323" 
d="M1273 232c0 -8.66699 -3.66797 -16.667 -11.001 -24c-88 -94.667 -203 -158.334 -345 -191.001c68.667 -52 103 -121 103 -207c0 -71.333 -25.5 -132.5 -76.5 -183.5s-112.167 -76.5 -183.5 -76.5c-96.667 0 -172 43.667 -226 131c-3.33301 5.33301 -5 11.333 -5 18
c0 22.667 12.333 34 37 34c4.66699 0 25 -18.833 61 -56.5s80.333 -56.5 133 -56.5c52 0 96.667 18.667 134 56s56 82 56 134s-18.667 96.667 -56 134s-82 56 -134 56c-196 0 -363.333 69.333 -502 208s-208 306 -208 502s69.333 363.333 208 502s306 208 502 208
c92 0 182.667 -18 272 -54c92.667 -37.333 169.334 -88.666 230.001 -153.999c7.33301 -7.33301 11 -15.333 11 -24c0 -24 -12 -36 -36 -36c-8 0 -16.333 3.66699 -25 11c-146 124.667 -296.667 187 -452 187c-176.667 0 -327.5 -62.5 -452.5 -187.5
s-187.5 -275.833 -187.5 -452.5s62.5 -327.5 187.5 -452.5s275.833 -187.5 452.5 -187.5c155.333 0 306 62.333 452 187c8.66699 7.33301 17 11 25 11c24 0 36 -12 36 -36z" />
    <glyph glyph-name="Egrave" unicode="&#xc8;" horiz-adv-x="1020" 
d="M745 1686c0 -24.667 -11.333 -37 -34 -37c-8.66699 0 -59.667 23.333 -153 70c-87.333 43.333 -142 71.666 -164 84.999c-12.667 8 -19 18 -19 30c0 24.667 11.333 37 34 37c8.66699 0 59.667 -23.333 153 -70c87.333 -43.333 142 -71.666 164 -84.999
c12.667 -8 19 -18 19 -30zM970 35c0 -23.333 -11.667 -35 -35 -35h-750c-23.333 0 -35 11.667 -35 35v1350c0 23.333 11.667 35 35 35h750c23.333 0 35 -11.667 35 -35s-11.667 -35 -35 -35h-715v-605h565c23.333 0 35 -11.667 35 -35s-11.667 -35 -35 -35h-565v-605h715
c23.333 0 35 -11.667 35 -35z" />
    <glyph glyph-name="Eacute" unicode="&#xc9;" horiz-adv-x="1020" 
d="M745 1834c0 -12 -6.33301 -22 -19 -30c-22 -13.333 -76.667 -41.666 -164 -84.999c-93.333 -46.667 -144.333 -70 -153 -70c-22.667 0 -34 12.333 -34 37c0 12 6.33301 22 19 30c22 13.333 76.667 41.666 164 84.999c93.333 46.667 144.333 70 153 70
c22.667 0 34 -12.333 34 -37zM970 35c0 -23.333 -11.667 -35 -35 -35h-750c-23.333 0 -35 11.667 -35 35v1350c0 23.333 11.667 35 35 35h750c23.333 0 35 -11.667 35 -35s-11.667 -35 -35 -35h-715v-605h565c23.333 0 35 -11.667 35 -35s-11.667 -35 -35 -35h-565v-605h715
c23.333 0 35 -11.667 35 -35z" />
    <glyph glyph-name="Ecircumflex" unicode="&#xca;" horiz-adv-x="1020" 
d="M820 1686c0 -24.667 -11.333 -37 -34 -37c-7.33301 0 -14 2.33301 -20 7l-206 137l-206 -137c-6 -4.66699 -12.667 -7 -20 -7c-22.667 0 -34 12.333 -34 37c0 11.333 5.33301 20.666 16 27.999l222 148c8 6 15.333 9 22 9s14 -3 22 -9l222 -148
c10.667 -7.33301 16 -16.666 16 -27.999zM970 35c0 -23.333 -11.667 -35 -35 -35h-750c-23.333 0 -35 11.667 -35 35v1350c0 23.333 11.667 35 35 35h750c23.333 0 35 -11.667 35 -35s-11.667 -35 -35 -35h-715v-605h565c23.333 0 35 -11.667 35 -35s-11.667 -35 -35 -35
h-565v-605h715c23.333 0 35 -11.667 35 -35z" />
    <glyph glyph-name="Edieresis" unicode="&#xcb;" horiz-adv-x="1020" 
d="M858 1723c0 -48.667 -24.333 -73 -73 -73c-48 0 -72 24.333 -72 73c0 48 24 72 72 72c48.667 0 73 -24 73 -72zM408 1723c0 -48.667 -24.333 -73 -73 -73c-48 0 -72 24.333 -72 73c0 48 24 72 72 72c48.667 0 73 -24 73 -72zM970 35c0 -23.333 -11.667 -35 -35 -35h-750
c-23.333 0 -35 11.667 -35 35v1350c0 23.333 11.667 35 35 35h750c23.333 0 35 -11.667 35 -35s-11.667 -35 -35 -35h-715v-605h565c23.333 0 35 -11.667 35 -35s-11.667 -35 -35 -35h-565v-605h715c23.333 0 35 -11.667 35 -35z" />
    <glyph glyph-name="Igrave" unicode="&#xcc;" horiz-adv-x="370" 
d="M370 1686c0 -24.667 -11.333 -37 -34 -37c-8.66699 0 -59.667 23.333 -153 70c-87.333 43.333 -142 71.666 -164 84.999c-12.667 8 -19 18 -19 30c-0 24.667 11.333 37 34 37c8.66699 0 59.667 -23.333 153 -70c87.333 -43.333 142 -71.666 164 -84.999
c12.667 -8 19 -18 19 -30zM217 35c0 -23.333 -11.667 -35 -35 -35s-35 11.667 -35 35v1350c0 23.333 11.667 35 35 35s35 -11.667 35 -35v-1350z" />
    <glyph glyph-name="Iacute" unicode="&#xcd;" horiz-adv-x="370" 
d="M370 1834c0 -12 -6.33301 -22 -19 -30c-22 -13.333 -76.667 -41.666 -164 -84.999c-93.333 -46.667 -144.333 -70 -153 -70c-22.667 0 -34 12.333 -34 37c-0 12 6.33301 22 19 30c22 13.333 76.667 41.666 164 84.999c93.333 46.667 144.333 70 153 70
c22.667 0 34 -12.333 34 -37zM217 35c0 -23.333 -11.667 -35 -35 -35s-35 11.667 -35 35v1350c0 23.333 11.667 35 35 35s35 -11.667 35 -35v-1350z" />
    <glyph glyph-name="Icircumflex" unicode="&#xce;" horiz-adv-x="370" 
d="M445 1686c0 -24.667 -11.333 -37 -34 -37c-7.33301 0 -14 2.33301 -20 7l-206 137l-206 -137c-6 -4.66699 -12.667 -7 -20 -7c-22.667 0 -34 12.333 -34 37c0 11.333 5.33301 20.666 16 27.999l222 148c8 6 15.333 9 22 9s14 -3 22 -9l222 -148
c10.667 -7.33301 16 -16.666 16 -27.999zM220 35c0 -23.333 -11.667 -35 -35 -35s-35 11.667 -35 35v1350c0 23.333 11.667 35 35 35s35 -11.667 35 -35v-1350z" />
    <glyph glyph-name="Idieresis" unicode="&#xcf;" horiz-adv-x="370" 
d="M482 1723c0 -48.667 -24.333 -73 -73 -73c-48 0 -72 24.333 -72 73c0 48 24 72 72 72c48.667 0 73 -24 73 -72zM32 1723c0 -48.667 -24 -73 -72 -73s-72 24.333 -72 73c0 48 24 72 72 72s72 -24 72 -72zM219 35c0 -23.333 -11.667 -35 -35 -35s-35 11.667 -35 35v1350
c0 23.333 11.667 35 35 35s35 -11.667 35 -35v-1350z" />
    <glyph glyph-name="Eth" unicode="&#xd0;" horiz-adv-x="1470" 
d="M1420 710c0 -196 -69.333 -363.333 -208 -502s-306 -208 -502 -208h-450c-23.333 0 -35 11.667 -35 35v640h-190c-23.333 0 -35 11.667 -35 35s11.667 35 35 35h190v640c0 23.333 11.667 35 35 35h450c196 0 363.333 -69.333 502 -208s208 -306 208 -502zM1350 710
c0 176.667 -62.5 327.5 -187.5 452.5s-275.833 187.5 -452.5 187.5h-415v-605h190c23.333 0 35 -11.667 35 -35s-11.667 -35 -35 -35h-190v-605h415c176.667 0 327.5 62.5 452.5 187.5s187.5 275.833 187.5 452.5z" />
    <glyph glyph-name="Ntilde" unicode="&#xd1;" horiz-adv-x="1421" 
d="M1046 1761c0 -8 -3.66895 -18.333 -11.002 -31c-32 -53.333 -90 -80 -174 -80c-49.333 0 -103.5 25 -162.5 75s-104.833 75 -137.5 75c-47.333 0 -82.666 -12.5 -105.999 -37.5s-37.666 -37.5 -42.999 -37.5c-24.667 0 -37 11.333 -37 34c0 8 4 18.333 12 31
c32 53.333 90 80 174 80c48.667 0 102.5 -25 161.5 -75s105.167 -75 138.5 -75c46.667 0 81.667 12.5 105 37.5s38 37.5 44 37.5c24 0 36 -11.333 36 -34zM1271 35c0 -23.333 -12 -35 -36 -35c-10.667 0 -21 6 -31 18l-983 1265v-1248c0 -23.333 -11.667 -35 -35 -35
s-35 11.667 -35 35l-1 1350c0 23.333 12 35 36 35c10.667 0 21 -6 31 -18l984 -1265v1248c0 23.333 11.667 35 35 35s35 -11.667 35 -35v-1350z" />
    <glyph glyph-name="Ograve" unicode="&#xd2;" horiz-adv-x="1520" 
d="M960 1686c0 -24.667 -11.333 -37 -34 -37c-8.66699 0 -59.667 23.333 -153 70c-87.333 43.333 -142 71.666 -164 84.999c-12.667 8 -19 18 -19 30c0 24.667 11.333 37 34 37c8.66699 0 59.667 -23.333 153 -70c87.333 -43.333 142 -71.666 164 -84.999
c12.667 -8 19 -18 19 -30zM1470 710c0 -196 -69.333 -363.333 -208 -502s-306 -208 -502 -208s-363.333 69.333 -502 208s-208 306 -208 502s69.333 363.333 208 502s306 208 502 208s363.333 -69.333 502 -208s208 -306 208 -502zM1400 710
c0 176.667 -62.5 327.5 -187.5 452.5s-275.833 187.5 -452.5 187.5s-327.5 -62.5 -452.5 -187.5s-187.5 -275.833 -187.5 -452.5s62.5 -327.5 187.5 -452.5s275.833 -187.5 452.5 -187.5s327.5 62.5 452.5 187.5s187.5 275.833 187.5 452.5z" />
    <glyph glyph-name="Oacute" unicode="&#xd3;" horiz-adv-x="1520" 
d="M960 1834c0 -12 -6.33301 -22 -19 -30c-22 -13.333 -76.667 -41.666 -164 -84.999c-93.333 -46.667 -144.333 -70 -153 -70c-22.667 0 -34 12.333 -34 37c0 12 6.33301 22 19 30c22 13.333 76.667 41.666 164 84.999c93.333 46.667 144.333 70 153 70
c22.667 0 34 -12.333 34 -37zM1470 710c0 -196 -69.333 -363.333 -208 -502s-306 -208 -502 -208s-363.333 69.333 -502 208s-208 306 -208 502s69.333 363.333 208 502s306 208 502 208s363.333 -69.333 502 -208s208 -306 208 -502zM1400 710
c0 176.667 -62.5 327.5 -187.5 452.5s-275.833 187.5 -452.5 187.5s-327.5 -62.5 -452.5 -187.5s-187.5 -275.833 -187.5 -452.5s62.5 -327.5 187.5 -452.5s275.833 -187.5 452.5 -187.5s327.5 62.5 452.5 187.5s187.5 275.833 187.5 452.5z" />
    <glyph glyph-name="Ocircumflex" unicode="&#xd4;" horiz-adv-x="1520" 
d="M1020 1686c0 -24.667 -11.333 -37 -34 -37c-7.33301 0 -14 2.33301 -20 7l-206 137l-206 -137c-6 -4.66699 -12.667 -7 -20 -7c-22.667 0 -34 12.333 -34 37c0 11.333 5.33301 20.666 16 27.999l222 148c8 6 15.333 9 22 9s14 -3 22 -9l222 -148
c10.667 -7.33301 16 -16.666 16 -27.999zM1470 710c0 -196 -69.333 -363.333 -208 -502s-306 -208 -502 -208s-363.333 69.333 -502 208s-208 306 -208 502s69.333 363.333 208 502s306 208 502 208s363.333 -69.333 502 -208s208 -306 208 -502zM1400 710
c0 176.667 -62.5 327.5 -187.5 452.5s-275.833 187.5 -452.5 187.5s-327.5 -62.5 -452.5 -187.5s-187.5 -275.833 -187.5 -452.5s62.5 -327.5 187.5 -452.5s275.833 -187.5 452.5 -187.5s327.5 62.5 452.5 187.5s187.5 275.833 187.5 452.5z" />
    <glyph glyph-name="Otilde" unicode="&#xd5;" horiz-adv-x="1520" 
d="M1110 1761c0 -8 -3.66699 -18.333 -11 -31c-32 -53.333 -90 -80 -174 -80c-48.667 0 -102.667 25 -162 75s-105.333 75 -138 75c-47.333 0 -82.5 -12.5 -105.5 -37.5s-37.5 -37.5 -43.5 -37.5c-24 0 -36 11.333 -36 34c0 8 3.66699 18.333 11 31c32 53.333 90 80 174 80
c48.667 0 102.667 -25 162 -75s105.333 -75 138 -75c47.333 0 82.5 12.5 105.5 37.5s37.5 37.5 43.5 37.5c24 0 36 -11.333 36 -34zM1470 710c0 -196 -69.333 -363.333 -208 -502s-306 -208 -502 -208s-363.333 69.333 -502 208s-208 306 -208 502s69.333 363.333 208 502
s306 208 502 208s363.333 -69.333 502 -208s208 -306 208 -502zM1400 710c0 176.667 -62.5 327.5 -187.5 452.5s-275.833 187.5 -452.5 187.5s-327.5 -62.5 -452.5 -187.5s-187.5 -275.833 -187.5 -452.5s62.5 -327.5 187.5 -452.5s275.833 -187.5 452.5 -187.5
s327.5 62.5 452.5 187.5s187.5 275.833 187.5 452.5z" />
    <glyph glyph-name="Odieresis" unicode="&#xd6;" horiz-adv-x="1520" 
d="M1058 1723c0 -48.667 -24.333 -73 -73 -73c-48 0 -72 24.333 -72 73c0 48 24 72 72 72c48.667 0 73 -24 73 -72zM608 1723c0 -48.667 -24.333 -73 -73 -73c-48 0 -72 24.333 -72 73c0 48 24 72 72 72c48.667 0 73 -24 73 -72zM1470 710
c0 -196 -69.333 -363.333 -208 -502s-306 -208 -502 -208s-363.333 69.333 -502 208s-208 306 -208 502s69.333 363.333 208 502s306 208 502 208s363.333 -69.333 502 -208s208 -306 208 -502zM1400 710c0 176.667 -62.5 327.5 -187.5 452.5s-275.833 187.5 -452.5 187.5
s-327.5 -62.5 -452.5 -187.5s-187.5 -275.833 -187.5 -452.5s62.5 -327.5 187.5 -452.5s275.833 -187.5 452.5 -187.5s327.5 62.5 452.5 187.5s187.5 275.833 187.5 452.5z" />
    <glyph glyph-name="multiply" unicode="&#xd7;" 
d="M889 803c0 -9.33301 -3.66699 -17.666 -11 -24.999l-294 -293l294 -293c7.33301 -7.33301 11 -15.666 11 -24.999c0 -24 -12 -36 -36 -36c-9.33301 0 -17.666 3.66699 -24.999 11l-293 294l-293 -294c-7.33301 -7.33301 -15.666 -11 -24.999 -11c-24 0 -36 12 -36 36
c0 9.33301 3.66699 17.666 11 24.999l294 293l-294 293c-7.33301 7.33301 -11 15.666 -11 24.999c0 24 12 36 36 36c9.33301 0 17.666 -3.66699 24.999 -11l293 -294l293 294c7.33301 7.33301 15.666 11 24.999 11c24 0 36 -12 36 -36z" />
    <glyph glyph-name="Oslash" unicode="&#xd8;" horiz-adv-x="1521" 
d="M1471 1385c0 -9.33301 -3.66699 -17.666 -11 -24.999l-173 -173c122.667 -135.333 184 -294.333 184 -477c0 -196 -69.5 -363.333 -208.5 -502s-306.167 -208 -501.5 -208c-182.667 0 -341.667 61.333 -477 184l-174 -174c-7.33301 -7.33301 -15.333 -11 -24 -11
c-24 0 -36 12 -36 36c0 9.33301 3.66699 17.666 11 24.999l173 173c-122 135.333 -183 294.333 -183 477c0 196 69.333 363.333 208 502s306 208 502 208c182 0 340.667 -61.333 476 -184l174 174c7.33301 7.33301 15.333 11 24 11c24 0 36 -12 36 -36zM1188 1187
c-121.333 108.667 -263.667 162.999 -427 162.999c-176.667 0 -327.5 -62.5 -452.5 -187.5s-187.5 -275.833 -187.5 -452.5c0 -163.333 54.333 -305.666 163 -426.999zM1401 709.999c0 163.333 -54.666 305.667 -163.999 427l-903 -904
c121.333 -108.667 263.666 -163 426.999 -163c176 0 326.667 62.5 452 187.5s188 275.833 188 452.5z" />
    <glyph glyph-name="Ugrave" unicode="&#xd9;" horiz-adv-x="1170" 
d="M770 1686c0 -24.667 -11.333 -37 -34 -37c-8.66699 0 -59.667 23.333 -153 70c-87.333 43.333 -142 71.666 -164 84.999c-12.667 8 -19 18 -19 30c0 24.667 11.333 37 34 37c8.66699 0 59.667 -23.333 153 -70c87.333 -43.333 142 -71.666 164 -84.999
c12.667 -8 19 -18 19 -30zM1070 485c0 -134 -47.333 -248.333 -142 -343s-209 -142 -343 -142s-248.333 47.333 -343 142s-142 209 -142 343v900c0 23.333 11.667 35 35 35s35 -11.667 35 -35v-900c0 -114.667 40.5 -212.5 121.5 -293.5s178.833 -121.5 293.5 -121.5
s212.5 40.5 293.5 121.5s121.5 178.833 121.5 293.5v900c0 23.333 11.667 35 35 35s35 -11.667 35 -35v-900z" />
    <glyph glyph-name="Uacute" unicode="&#xda;" horiz-adv-x="1170" 
d="M770 1834c0 -12 -6.33301 -22 -19 -30c-22 -13.333 -76.667 -41.666 -164 -84.999c-93.333 -46.667 -144.333 -70 -153 -70c-22.667 0 -34 12.333 -34 37c0 12 6.33301 22 19 30c22 13.333 76.667 41.666 164 84.999c93.333 46.667 144.333 70 153 70
c22.667 0 34 -12.333 34 -37zM1070 485c0 -134 -47.333 -248.333 -142 -343s-209 -142 -343 -142s-248.333 47.333 -343 142s-142 209 -142 343v900c0 23.333 11.667 35 35 35s35 -11.667 35 -35v-900c0 -114.667 40.5 -212.5 121.5 -293.5s178.833 -121.5 293.5 -121.5
s212.5 40.5 293.5 121.5s121.5 178.833 121.5 293.5v900c0 23.333 11.667 35 35 35s35 -11.667 35 -35v-900z" />
    <glyph glyph-name="Ucircumflex" unicode="&#xdb;" horiz-adv-x="1170" 
d="M845 1686c0 -24.667 -11.333 -37 -34 -37c-7.33301 0 -14 2.33301 -20 7l-206 137l-206 -137c-6 -4.66699 -12.667 -7 -20 -7c-22.667 0 -34 12.333 -34 37c0 11.333 5.33301 20.666 16 27.999l222 148c8 6 15.333 9 22 9s14 -3 22 -9l222 -148
c10.667 -7.33301 16 -16.666 16 -27.999zM1070 485c0 -134 -47.333 -248.333 -142 -343s-209 -142 -343 -142s-248.333 47.333 -343 142s-142 209 -142 343v900c0 23.333 11.667 35 35 35s35 -11.667 35 -35v-900c0 -114.667 40.5 -212.5 121.5 -293.5
s178.833 -121.5 293.5 -121.5s212.5 40.5 293.5 121.5s121.5 178.833 121.5 293.5v900c0 23.333 11.667 35 35 35s35 -11.667 35 -35v-900z" />
    <glyph glyph-name="Udieresis" unicode="&#xdc;" horiz-adv-x="1170" 
d="M883 1723c0 -48.667 -24.333 -73 -73 -73c-48 0 -72 24.333 -72 73c0 48 24 72 72 72c48.667 0 73 -24 73 -72zM433 1723c0 -48.667 -24.333 -73 -73 -73c-48 0 -72 24.333 -72 73c0 48 24 72 72 72c48.667 0 73 -24 73 -72zM1070 485c0 -134 -47.333 -248.333 -142 -343
s-209 -142 -343 -142s-248.333 47.333 -343 142s-142 209 -142 343v900c0 23.333 11.667 35 35 35s35 -11.667 35 -35v-900c0 -114.667 40.5 -212.5 121.5 -293.5s178.833 -121.5 293.5 -121.5s212.5 40.5 293.5 121.5s121.5 178.833 121.5 293.5v900
c0 23.333 11.667 35 35 35s35 -11.667 35 -35v-900z" />
    <glyph glyph-name="Yacute" unicode="&#xdd;" horiz-adv-x="1171" 
d="M796 1834c0 -12 -6.66602 -22 -19.999 -30c-21.333 -13.333 -76 -41.666 -164 -84.999c-92.667 -46.667 -143.334 -70 -152.001 -70c-23.333 0 -35 12.333 -35 37c0 12 6.66699 22 20 30c21.333 13.333 76 41.666 164 84.999c93.333 46.667 144.333 70 153 70
c22.667 0 34 -12.333 34 -37zM1171 1385c0 -7.33301 -2.66699 -14.333 -8 -21l-517 -666v-663c0 -23.333 -11.667 -35 -35 -35s-35 11.667 -35 35v663l-518 666c-5.33301 6.66699 -8 13.667 -8 21c0 24 12 36 36 36c10.667 0 19.667 -5 27 -15l498 -639l497 639
c7.33301 10 16.333 15 27 15c24 0 36 -12 36 -36z" />
    <glyph glyph-name="Thorn" unicode="&#xde;" horiz-adv-x="1170" 
d="M1120 710c0 -134 -47.333 -248.333 -142 -343s-209 -142 -343 -142h-415v-190c0 -23.333 -11.667 -35 -35 -35s-35 11.667 -35 35v1350c0 23.333 11.667 35 35 35s35 -11.667 35 -35v-190h415c134 0 248.333 -47.333 343 -142s142 -209 142 -343zM1050 710
c0 114.667 -40.5 212.5 -121.5 293.5s-178.833 121.5 -293.5 121.5h-415v-830h415c114.667 0 212.5 40.5 293.5 121.5s121.5 178.833 121.5 293.5z" />
    <glyph glyph-name="germandbls" unicode="&#xdf;" horiz-adv-x="1078" 
d="M1028 297c0 -81.333 -29.1699 -151.166 -87.5029 -209.499s-128.5 -87.5 -210.5 -87.5c-134 0 -226.667 64 -278 192c-1.33301 4 -2 8.33301 -2 13c0 22.667 12 34 36 34c12.667 0 23.334 -7.66699 32.001 -23c4 -8.66699 10.667 -22 20 -40
c44.667 -70.667 108.667 -106 192 -106c62.667 0 116.334 22.333 161.001 67s67 98 67 160c0 65.333 -23.333 119.666 -70 162.999s-102.667 65 -168 65c-60 0 -111.167 22 -153.5 66s-63.5 96 -63.5 156c0 64 32 124.833 96 182.5s96 123.5 96 197.5
c0 61.333 -21.667 113.833 -65 157.5s-96 65.5 -158 65.5c-69.333 0 -128.666 -24.667 -177.999 -74s-74 -109 -74 -179v-1062c0 -23.333 -11.667 -35 -35 -35s-35 11.667 -35 35v1062c0 89.333 31.5 165.5 94.5 228.5s138.833 94.5 227.5 94.5
c81.333 0 150.5 -28.667 207.5 -86s85.5 -126.333 85.5 -207c0 -70 -16.333 -128 -49 -174c-2.66699 -4 -33.667 -36 -93 -96c-33.333 -34 -50 -70.667 -50 -110c0 -45.333 16 -82 48 -110s71 -42 117 -42c80.667 0 149.167 -29.5 205.5 -88.5s84.5 -128.833 84.5 -209.5z
" />
    <glyph glyph-name="agrave" unicode="&#xe0;" horiz-adv-x="820" 
d="M570 1236c0 -24.667 -11.333 -37 -34 -37c-8.66699 0 -59.667 23.333 -153 70c-87.333 43.333 -142 71.666 -164 84.999c-12.667 8 -19 18 -19 30c0 24.667 11.333 37 34 37c8.66699 0 59.667 -23.333 153 -70c87.333 -43.333 142 -71.666 164 -84.999
c12.667 -8 19 -18 19 -30zM720 35c0 -23.333 -11.666 -35 -34.999 -35s-35 11.667 -35 35v95c-67.333 -86.667 -155.666 -130 -264.999 -130c-92 -0 -170.833 32.833 -236.5 98.5s-98.5 144.5 -98.5 236.5s32.833 170.833 98.5 236.5s144.5 98.5 236.5 98.5
c109.333 0 197.666 -43.333 264.999 -130v95c0 72.667 -26 135 -78 187s-114.333 78 -187 78c-47.333 0 -94.833 -14.833 -142.5 -44.5s-70.834 -44.5 -69.501 -44.5c-24 0 -36 12 -36 36c0 8.66699 3.66699 17 11 25c60 65.333 139 98 237 98
c92 0 170.833 -32.833 236.5 -98.5s98.5 -144.5 98.5 -236.5v-600zM650.001 335c0 72.667 -26 135 -78 187s-114.333 78 -187 78s-135 -26 -187 -78s-78 -114.333 -78 -187s26 -135 78 -187s114.333 -78 187 -78s135 26 187 78s78 114.333 78 187z" />
    <glyph glyph-name="aacute" unicode="&#xe1;" horiz-adv-x="820" 
d="M570 1384c0 -12 -6.33301 -22 -19 -30c-22 -13.333 -76.667 -41.666 -164 -84.999c-93.333 -46.667 -144.333 -70 -153 -70c-22.667 0 -34 12.333 -34 37c0 12 6.33301 22 19 30c22 13.333 76.667 41.666 164 84.999c93.333 46.667 144.333 70 153 70
c22.667 0 34 -12.333 34 -37zM720 35c0 -23.333 -11.666 -35 -34.999 -35s-35 11.667 -35 35v95c-67.333 -86.667 -155.666 -130 -264.999 -130c-92 -0 -170.833 32.833 -236.5 98.5s-98.5 144.5 -98.5 236.5s32.833 170.833 98.5 236.5s144.5 98.5 236.5 98.5
c109.333 0 197.666 -43.333 264.999 -130v95c0 72.667 -26 135 -78 187s-114.333 78 -187 78c-47.333 0 -94.833 -14.833 -142.5 -44.5s-70.834 -44.5 -69.501 -44.5c-24 0 -36 12 -36 36c0 8.66699 3.66699 17 11 25c60 65.333 139 98 237 98
c92 0 170.833 -32.833 236.5 -98.5s98.5 -144.5 98.5 -236.5v-600zM650.001 335c0 72.667 -26 135 -78 187s-114.333 78 -187 78s-135 -26 -187 -78s-78 -114.333 -78 -187s26 -135 78 -187s114.333 -78 187 -78s135 26 187 78s78 114.333 78 187z" />
    <glyph glyph-name="acircumflex" unicode="&#xe2;" horiz-adv-x="820" 
d="M645 1236c0 -24.667 -11.333 -37 -34 -37c-7.33301 0 -14 2.33301 -20 7l-206 137l-206 -137c-6 -4.66699 -12.667 -7 -20 -7c-22.667 0 -34 12.333 -34 37c0 11.333 5.33301 20.666 16 27.999l222 148c8 6 15.333 9 22 9s14 -3 22 -9l222 -148
c10.667 -7.33301 16 -16.666 16 -27.999zM720 35c0 -23.333 -11.666 -35 -34.999 -35s-35 11.667 -35 35v95c-67.333 -86.667 -155.666 -130 -264.999 -130c-92 -0 -170.833 32.833 -236.5 98.5s-98.5 144.5 -98.5 236.5s32.833 170.833 98.5 236.5s144.5 98.5 236.5 98.5
c109.333 0 197.666 -43.333 264.999 -130v95c0 72.667 -26 135 -78 187s-114.333 78 -187 78c-47.333 0 -94.833 -14.833 -142.5 -44.5s-70.834 -44.5 -69.501 -44.5c-24 0 -36 12 -36 36c0 8.66699 3.66699 17 11 25c60 65.333 139 98 237 98
c92 0 170.833 -32.833 236.5 -98.5s98.5 -144.5 98.5 -236.5v-600zM650.001 335c0 72.667 -26 135 -78 187s-114.333 78 -187 78s-135 -26 -187 -78s-78 -114.333 -78 -187s26 -135 78 -187s114.333 -78 187 -78s135 26 187 78s78 114.333 78 187z" />
    <glyph glyph-name="atilde" unicode="&#xe3;" horiz-adv-x="821" 
d="M721 1311c0 -8 -3.99805 -18.333 -11.998 -31c-32 -53.333 -90 -80 -174 -80c-48.667 0 -102.667 25 -162 75s-105.333 75 -138 75c-46.667 0 -81.667 -12.5 -105 -37.5s-38 -37.5 -44 -37.5c-24 0 -36 11.333 -36 34c0 8 3.66699 18.333 11 31c32 53.333 90 80 174 80
c49.333 0 103.5 -25 162.5 -75s104.833 -75 137.5 -75c47.333 0 82.666 12.5 105.999 37.5s37.666 37.5 42.999 37.5c24.667 0 37 -11.333 37 -34zM720.002 35c0 -23.333 -11.666 -35 -34.999 -35s-35 11.667 -35 35v95c-66.667 -86.667 -155 -130 -265 -130
c-92 -0 -170.833 32.833 -236.5 98.5s-98.5 144.5 -98.5 236.5s32.833 170.833 98.5 236.5s144.5 98.5 236.5 98.5c110 0 198.333 -43.333 265 -130v95c0 72.667 -25.833 135 -77.5 187s-114.167 78 -187.5 78c-46.667 0 -93.834 -14.833 -141.501 -44.5
s-71.167 -44.5 -70.5 -44.5c-24 0 -36 12 -36 36c0 8.66699 3.66699 17 11 25c60 65.333 139 98 237 98c92.667 0 171.667 -32.833 237 -98.5s98 -144.5 98 -236.5v-600zM650.003 335c0 72.667 -25.833 135 -77.5 187s-114.167 78 -187.5 78c-72.667 0 -135 -26 -187 -78
s-78 -114.333 -78 -187s26 -135 78 -187s114.333 -78 187 -78c73.333 0 135.833 26 187.5 78s77.5 114.333 77.5 187z" />
    <glyph glyph-name="adieresis" unicode="&#xe4;" horiz-adv-x="820" 
d="M683 1273c0 -48.667 -24.333 -73 -73 -73c-48 0 -72 24.333 -72 73c0 48 24 72 72 72c48.667 0 73 -24 73 -72zM233 1273c0 -48.667 -24.333 -73 -73 -73c-48 0 -72 24.333 -72 73c0 48 24 72 72 72c48.667 0 73 -24 73 -72zM720 35c0 -23.333 -11.666 -35 -34.999 -35
s-35 11.667 -35 35v95c-67.333 -86.667 -155.666 -130 -264.999 -130c-92 -0 -170.833 32.833 -236.5 98.5s-98.5 144.5 -98.5 236.5s32.833 170.833 98.5 236.5s144.5 98.5 236.5 98.5c109.333 0 197.666 -43.333 264.999 -130v95c0 72.667 -26 135 -78 187
s-114.333 78 -187 78c-47.333 0 -94.833 -14.833 -142.5 -44.5s-70.834 -44.5 -69.501 -44.5c-24 0 -36 12 -36 36c0 8.66699 3.66699 17 11 25c60 65.333 139 98 237 98c92 0 170.833 -32.833 236.5 -98.5s98.5 -144.5 98.5 -236.5v-600zM650.001 335
c0 72.667 -26 135 -78 187s-114.333 78 -187 78s-135 -26 -187 -78s-78 -114.333 -78 -187s26 -135 78 -187s114.333 -78 187 -78s135 26 187 78s78 114.333 78 187z" />
    <glyph glyph-name="aring" unicode="&#xe5;" horiz-adv-x="820" 
d="M562 1271c0 -48.667 -17.333 -89.834 -52 -123.501s-76.334 -50.5 -125.001 -50.5s-90.5 16.833 -125.5 50.5s-52.5 74.834 -52.5 123.501s17.5 90.334 52.5 125.001s76.833 52 125.5 52s90.334 -17.333 125.001 -52s52 -76.334 52 -125.001zM720 35
c0 -23.333 -11.666 -35 -34.999 -35s-35 11.667 -35 35v95c-67.333 -86.667 -155.666 -130 -264.999 -130c-92 -0 -170.833 32.833 -236.5 98.5s-98.5 144.5 -98.5 236.5s32.833 170.833 98.5 236.5s144.5 98.5 236.5 98.5c109.333 0 197.666 -43.333 264.999 -130v95
c0 72.667 -26 135 -78 187s-114.333 78 -187 78c-47.333 0 -94.833 -14.833 -142.5 -44.5s-70.834 -44.5 -69.501 -44.5c-24 0 -36 12 -36 36c0 8.66699 3.66699 17 11 25c60 65.333 139 98 237 98c92 0 170.833 -32.833 236.5 -98.5s98.5 -144.5 98.5 -236.5v-600z
M492.001 1271c0 29.333 -10.5 54.5 -31.5 75.5s-46.167 31.5 -75.5 31.5s-54.666 -10.5 -75.999 -31.5s-32 -46.167 -32 -75.5c0 -30 10.667 -54.833 32 -74.5s46.666 -29.5 75.999 -29.5s54.5 9.83301 75.5 29.5s31.5 44.5 31.5 74.5zM650.001 335
c0 72.667 -26 135 -78 187s-114.333 78 -187 78s-135 -26 -187 -78s-78 -114.333 -78 -187s26 -135 78 -187s114.333 -78 187 -78s135 26 187 78s78 114.333 78 187z" />
    <glyph glyph-name="ae" unicode="&#xe6;" horiz-adv-x="1610" 
d="M1560 261c0 -6 -1.66895 -12.3311 -5.00195 -18.998c-42 -74 -101 -132.833 -177 -176.5s-157 -65.5 -243 -65.5c-88 0 -170.333 22.667 -247 68s-136 106.666 -178 183.999c-19.333 -74 -59.333 -134.5 -120 -181.5s-129 -70.5 -205 -70.5
c-92 0 -170.833 32.833 -236.5 98.5s-98.5 144.5 -98.5 236.5s32.833 170.833 98.5 236.5s144.5 98.5 236.5 98.5c109.333 0 197.666 -43.333 264.999 -130v95c0 72.667 -26 135 -78 187s-114.333 78 -187 78c-47.333 0 -94.666 -14.833 -141.999 -44.5
s-70.666 -44.5 -69.999 -44.5c-24 0 -36 12 -36 36c0 8.66699 3.66699 17 11 25c61.333 65.333 140.333 98 237 98c76 0 144.333 -23.5 205 -70.5s100.667 -107.5 120 -181.5c42 77.333 101.333 138.666 178 183.999s159 68 247 68c53.333 0 107.333 -9.66699 162 -29
c52 -19.333 105.333 -50 160 -92c68 -51.333 102 -98 102 -140c0 -13.333 -5.66699 -23 -17 -29l-748 -432c82.667 -118.667 196.334 -178 341.001 -178c129.333 0 235 49 317 147l42 61c9.33301 11.333 19.333 17 30 17c24 0 36 -11.333 36 -34zM1476 722.002
c-82.667 118.667 -196.333 178 -341 178c-114.667 0 -212.5 -40.5 -293.5 -121.5s-121.5 -178.833 -121.5 -293.5c0 -62 13 -121 39 -177zM649.999 335.002c0 72.667 -26 135 -78 187s-114.333 78 -187 78s-135 -26 -187 -78s-78 -114.333 -78 -187s26 -135 78 -187
s114.333 -78 187 -78s135 26 187 78s78 114.333 78 187z" />
    <glyph glyph-name="ccedilla" unicode="&#xe7;" horiz-adv-x="939" 
d="M889 804c0 -24 -12.001 -36.001 -36.001 -36.001c4 0 -29 22 -99 66s-143 66 -219 66c-114.667 0 -212.5 -40.5 -293.5 -121.5s-121.5 -178.833 -121.5 -293.5s40.5 -212.5 121.5 -293.5s178.833 -121.5 293.5 -121.5c76 0 149 22 219 66s102.667 66 98 66
c24 0 36 -12 36 -36c0 -22 -28.667 -50.333 -86 -85c-44.667 -27.333 -84 -46.666 -118 -57.999c74 -52 111 -123 111 -213c0 -71.333 -25.5 -132.5 -76.5 -183.5s-112.167 -76.5 -183.5 -76.5c-99.333 0 -174.666 43.667 -225.999 131c-3.33301 5.33301 -5 11.333 -5 18
c0 22.667 12.333 34 37 34c4.66699 0 25 -18.833 61 -56.5s80.333 -56.5 133 -56.5c52 0 96.667 18.667 134 56s56 82 56 134s-18.667 96.667 -56 134s-82 56 -134 56c-134 -0 -248.333 47.333 -343 142s-142 209 -142 343s47.333 248.333 142 343s209 142 343 142
c142.667 0 257 -47.333 343 -142c7.33301 -8 11 -16 11 -24z" />
    <glyph glyph-name="egrave" unicode="&#xe8;" horiz-adv-x="1010" 
d="M720 1236c0 -24.667 -11.333 -37 -34 -37c-8.66699 0 -59.667 23.333 -153 70c-87.333 43.333 -142 71.666 -164 84.999c-12.667 8 -19 18 -19 30c0 24.667 11.333 37 34 37c8.66699 0 59.667 -23.333 153 -70c87.333 -43.333 142 -71.666 164 -84.999
c12.667 -8 19 -18 19 -30zM960 261c0 -6 -1.66602 -12.333 -4.99902 -19c-42.667 -74 -101.834 -132.833 -177.501 -176.5s-156.5 -65.5 -242.5 -65.5c-134 -0 -248.333 47.333 -343 142s-142 209 -142 343s47.333 248.333 142 343s209 142 343 142
c52.667 0 106.667 -9.66699 162 -29c51.333 -18.667 104.666 -49 159.999 -91c68 -52 102 -99 102 -141c0 -13.333 -5.66699 -23 -17 -29l-748 -432c82.667 -118.667 196.334 -178 341.001 -178c125.333 0 228.333 46 309 138l50 70c8.66699 11.333 18.667 17 30 17
c24 0 36 -11.333 36 -34zM876.001 722c-82.667 118.667 -196.333 178 -341 178c-114.667 0 -212.5 -40.5 -293.5 -121.5s-121.5 -178.833 -121.5 -293.5c0 -62 13 -121 39 -177z" />
    <glyph glyph-name="eacute" unicode="&#xe9;" horiz-adv-x="1010" 
d="M720 1384c0 -12 -6.33301 -22 -19 -30c-22 -13.333 -76.667 -41.666 -164 -84.999c-93.333 -46.667 -144.333 -70 -153 -70c-22.667 0 -34 12.333 -34 37c0 12 6.33301 22 19 30c22 13.333 76.667 41.666 164 84.999c93.333 46.667 144.333 70 153 70
c22.667 0 34 -12.333 34 -37zM960 261c0 -6 -1.66602 -12.333 -4.99902 -19c-42.667 -74 -101.834 -132.833 -177.501 -176.5s-156.5 -65.5 -242.5 -65.5c-134 -0 -248.333 47.333 -343 142s-142 209 -142 343s47.333 248.333 142 343s209 142 343 142
c52.667 0 106.667 -9.66699 162 -29c51.333 -18.667 104.666 -49 159.999 -91c68 -52 102 -99 102 -141c0 -13.333 -5.66699 -23 -17 -29l-748 -432c82.667 -118.667 196.334 -178 341.001 -178c125.333 0 228.333 46 309 138l50 70c8.66699 11.333 18.667 17 30 17
c24 0 36 -11.333 36 -34zM876.001 722c-82.667 118.667 -196.333 178 -341 178c-114.667 0 -212.5 -40.5 -293.5 -121.5s-121.5 -178.833 -121.5 -293.5c0 -62 13 -121 39 -177z" />
    <glyph glyph-name="ecircumflex" unicode="&#xea;" horiz-adv-x="1010" 
d="M795 1236c0 -24.667 -11.333 -37 -34 -37c-7.33301 0 -14 2.33301 -20 7l-206 137l-206 -137c-6 -4.66699 -12.667 -7 -20 -7c-22.667 0 -34 12.333 -34 37c0 11.333 5.33301 20.666 16 27.999l222 148c8 6 15.333 9 22 9s14 -3 22 -9l222 -148
c10.667 -7.33301 16 -16.666 16 -27.999zM960 261c0 -6 -1.66602 -12.333 -4.99902 -19c-42.667 -74 -101.834 -132.833 -177.501 -176.5s-156.5 -65.5 -242.5 -65.5c-134 -0 -248.333 47.333 -343 142s-142 209 -142 343s47.333 248.333 142 343s209 142 343 142
c52.667 0 106.667 -9.66699 162 -29c51.333 -18.667 104.666 -49 159.999 -91c68 -52 102 -99 102 -141c0 -13.333 -5.66699 -23 -17 -29l-748 -432c82.667 -118.667 196.334 -178 341.001 -178c125.333 0 228.333 46 309 138l50 70c8.66699 11.333 18.667 17 30 17
c24 0 36 -11.333 36 -34zM876.001 722c-82.667 118.667 -196.333 178 -341 178c-114.667 0 -212.5 -40.5 -293.5 -121.5s-121.5 -178.833 -121.5 -293.5c0 -62 13 -121 39 -177z" />
    <glyph glyph-name="edieresis" unicode="&#xeb;" horiz-adv-x="1010" 
d="M833 1273c0 -48.667 -24.333 -73 -73 -73c-48 0 -72 24.333 -72 73c0 48 24 72 72 72c48.667 0 73 -24 73 -72zM383 1273c0 -48.667 -24.333 -73 -73 -73c-48 0 -72 24.333 -72 73c0 48 24 72 72 72c48.667 0 73 -24 73 -72zM960 261c0 -6 -1.66602 -12.333 -4.99902 -19
c-42.667 -74 -101.834 -132.833 -177.501 -176.5s-156.5 -65.5 -242.5 -65.5c-134 -0 -248.333 47.333 -343 142s-142 209 -142 343s47.333 248.333 142 343s209 142 343 142c52.667 0 106.667 -9.66699 162 -29c51.333 -18.667 104.666 -49 159.999 -91
c68 -52 102 -99 102 -141c0 -13.333 -5.66699 -23 -17 -29l-748 -432c82.667 -118.667 196.334 -178 341.001 -178c125.333 0 228.333 46 309 138l50 70c8.66699 11.333 18.667 17 30 17c24 0 36 -11.333 36 -34zM876.001 722c-82.667 118.667 -196.333 178 -341 178
c-114.667 0 -212.5 -40.5 -293.5 -121.5s-121.5 -178.833 -121.5 -293.5c0 -62 13 -121 39 -177z" />
    <glyph glyph-name="igrave" unicode="&#xec;" horiz-adv-x="370" 
d="M370 1236c0 -24.667 -11.333 -37 -34 -37c-8.66699 0 -59.667 23.333 -153 70c-87.333 43.333 -142 71.666 -164 84.999c-12.667 8 -19 18 -19 30c-0 24.667 11.333 37 34 37c8.66699 0 59.667 -23.333 153 -70c87.333 -43.333 142 -71.666 164 -84.999
c12.667 -8 19 -18 19 -30zM220 935v-900c0 -23.333 -11.667 -35 -35 -35s-35 11.667 -35 35v900c0 23.333 11.667 35 35 35s35 -11.667 35 -35z" />
    <glyph glyph-name="iacute" unicode="&#xed;" horiz-adv-x="370" 
d="M370 1384c0 -12 -6.33301 -22 -19 -30c-22 -13.333 -76.667 -41.666 -164 -84.999c-93.333 -46.667 -144.333 -70 -153 -70c-22.667 0 -34 12.333 -34 37c-0 12 6.33301 22 19 30c22 13.333 76.667 41.666 164 84.999c93.333 46.667 144.333 70 153 70
c22.667 0 34 -12.333 34 -37zM220 935v-900c0 -23.333 -11.667 -35 -35 -35s-35 11.667 -35 35v900c0 23.333 11.667 35 35 35s35 -11.667 35 -35z" />
    <glyph glyph-name="icircumflex" unicode="&#xee;" horiz-adv-x="370" 
d="M445 1236c0 -24.667 -11.333 -37 -34 -37c-7.33301 0 -14 2.33301 -20 7l-206 137l-206 -137c-6 -4.66699 -12.667 -7 -20 -7c-22.667 0 -34 12.333 -34 37c0 11.333 5.33301 20.666 16 27.999l222 148c8 6 15.333 9 22 9s14 -3 22 -9l222 -148
c10.667 -7.33301 16 -16.666 16 -27.999zM220 935v-900c0 -23.333 -11.667 -35 -35 -35s-35 11.667 -35 35v900c0 23.333 11.667 35 35 35s35 -11.667 35 -35z" />
    <glyph glyph-name="idieresis" unicode="&#xef;" horiz-adv-x="370" 
d="M482 1273c0 -48.667 -24.333 -73 -73 -73c-48 0 -72 24.333 -72 73c0 48 24 72 72 72c48.667 0 73 -24 73 -72zM33 1273c0 -48.667 -24.333 -73 -73 -73c-48 0 -72 24.333 -72 73c0 48 24 72 72 72c48.667 0 73 -24 73 -72zM220 935l-1 -900
c0 -23.333 -11.333 -35 -34 -35c-23.333 0 -35 11.667 -35 35v900c0 23.333 11.667 35 35 35s35 -11.667 35 -35z" />
    <glyph glyph-name="eth" unicode="&#xf0;" 
d="M1020 485c0 -134 -47.333 -248.332 -142 -342.999s-209 -142 -343 -142s-248.333 47.333 -343 142s-142 209 -142 343s47.333 248.333 142 343s209 142 343 142c40 0 79.333 -4.66699 118 -14l-245 244h-248c-23.333 0 -35 11.667 -35 35s11.667 35 35 35h178
c-68 65.333 -102 103.666 -102 114.999c0 24 12 36 36 36c10.667 0 65.667 -50.333 165 -151h473c23.333 0 35 -11.667 35 -35s-11.667 -35 -35 -35h-403l378 -377c90 -90 135 -202.667 135 -338zM950 485.001c0 114.667 -40.5 212.5 -121.5 293.5
s-178.833 121.5 -293.5 121.5s-212.5 -40.5 -293.5 -121.5s-121.5 -178.833 -121.5 -293.5s40.5 -212.5 121.5 -293.5s178.833 -121.5 293.5 -121.5s212.5 40.5 293.5 121.5s121.5 178.833 121.5 293.5z" />
    <glyph glyph-name="ntilde" unicode="&#xf1;" horiz-adv-x="921" 
d="M821 1311c0 -8 -3.99805 -18.333 -11.998 -31c-32 -53.333 -90 -80 -174 -80c-48.667 0 -102.667 25 -162 75s-105.333 75 -138 75c-46.667 0 -81.667 -12.5 -105 -37.5s-38 -37.5 -44 -37.5c-24 0 -36 11.333 -36 34c0 8 3.66699 18.333 11 31c32 53.333 90 80 174 80
c49.333 0 103.5 -25 162.5 -75s104.833 -75 137.5 -75c47.333 0 82.666 12.5 105.999 37.5s37.666 37.5 42.999 37.5c24.667 0 37 -11.333 37 -34zM820.002 35c0 -23.333 -11.666 -35 -34.999 -35s-35 11.667 -35 35v600c0 72.667 -25.833 135 -77.5 187
s-114.167 78 -187.5 78c-72.667 0 -135 -26 -187 -78s-78 -114.333 -78 -187v-600c0 -23.333 -11.667 -35 -35 -35s-35 11.667 -35 35v900c0 23.333 11.667 35 35 35s35 -11.667 35 -35v-95c67.333 86.667 155.666 130 264.999 130c92.667 0 171.667 -32.833 237 -98.5
s98 -144.5 98 -236.5v-600z" />
    <glyph glyph-name="ograve" unicode="&#xf2;" 
d="M720 1236c0 -24.667 -11.333 -37 -34 -37c-8.66699 0 -59.667 23.333 -153 70c-87.333 43.333 -142 71.666 -164 84.999c-12.667 8 -19 18 -19 30c0 24.667 11.333 37 34 37c8.66699 0 59.667 -23.333 153 -70c87.333 -43.333 142 -71.666 164 -84.999
c12.667 -8 19 -18 19 -30zM1020 485c0 -134 -47.333 -248.333 -142 -343s-209 -142 -343 -142s-248.333 47.333 -343 142s-142 209 -142 343s47.333 248.333 142 343s209 142 343 142s248.333 -47.333 343 -142s142 -209 142 -343zM950 485
c0 114.667 -40.5 212.5 -121.5 293.5s-178.833 121.5 -293.5 121.5s-212.5 -40.5 -293.5 -121.5s-121.5 -178.833 -121.5 -293.5s40.5 -212.5 121.5 -293.5s178.833 -121.5 293.5 -121.5s212.5 40.5 293.5 121.5s121.5 178.833 121.5 293.5z" />
    <glyph glyph-name="oacute" unicode="&#xf3;" 
d="M720 1384c0 -12 -6.33301 -22 -19 -30c-22 -13.333 -76.667 -41.666 -164 -84.999c-93.333 -46.667 -144.333 -70 -153 -70c-22.667 0 -34 12.333 -34 37c0 12 6.33301 22 19 30c22 13.333 76.667 41.666 164 84.999c93.333 46.667 144.333 70 153 70
c22.667 0 34 -12.333 34 -37zM1020 485c0 -134 -47.333 -248.333 -142 -343s-209 -142 -343 -142s-248.333 47.333 -343 142s-142 209 -142 343s47.333 248.333 142 343s209 142 343 142s248.333 -47.333 343 -142s142 -209 142 -343zM950 485
c0 114.667 -40.5 212.5 -121.5 293.5s-178.833 121.5 -293.5 121.5s-212.5 -40.5 -293.5 -121.5s-121.5 -178.833 -121.5 -293.5s40.5 -212.5 121.5 -293.5s178.833 -121.5 293.5 -121.5s212.5 40.5 293.5 121.5s121.5 178.833 121.5 293.5z" />
    <glyph glyph-name="ocircumflex" unicode="&#xf4;" 
d="M795 1236c0 -24.667 -11.333 -37 -34 -37c-7.33301 0 -14 2.33301 -20 7l-206 137l-206 -137c-6 -4.66699 -12.667 -7 -20 -7c-22.667 0 -34 12.333 -34 37c0 11.333 5.33301 20.666 16 27.999l222 148c8 6 15.333 9 22 9s14 -3 22 -9l222 -148
c10.667 -7.33301 16 -16.666 16 -27.999zM1020 485c0 -134 -47.333 -248.333 -142 -343s-209 -142 -343 -142s-248.333 47.333 -343 142s-142 209 -142 343s47.333 248.333 142 343s209 142 343 142s248.333 -47.333 343 -142s142 -209 142 -343zM950 485
c0 114.667 -40.5 212.5 -121.5 293.5s-178.833 121.5 -293.5 121.5s-212.5 -40.5 -293.5 -121.5s-121.5 -178.833 -121.5 -293.5s40.5 -212.5 121.5 -293.5s178.833 -121.5 293.5 -121.5s212.5 40.5 293.5 121.5s121.5 178.833 121.5 293.5z" />
    <glyph glyph-name="otilde" unicode="&#xf5;" 
d="M870 1311c0 -8 -3.66699 -18.333 -11 -31c-32 -53.333 -90 -80 -174 -80c-48.667 0 -102.667 25 -162 75s-105.333 75 -138 75c-47.333 0 -82.5 -12.5 -105.5 -37.5s-37.5 -37.5 -43.5 -37.5c-24 0 -36 11.333 -36 34c0 8 3.66699 18.333 11 31c32 53.333 90 80 174 80
c48.667 0 102.667 -25 162 -75s105.333 -75 138 -75c47.333 0 82.5 12.5 105.5 37.5s37.5 37.5 43.5 37.5c24 0 36 -11.333 36 -34zM1020 485c0 -134 -47.333 -248.333 -142 -343s-209 -142 -343 -142s-248.333 47.333 -343 142s-142 209 -142 343s47.333 248.333 142 343
s209 142 343 142s248.333 -47.333 343 -142s142 -209 142 -343zM950 485c0 114.667 -40.5 212.5 -121.5 293.5s-178.833 121.5 -293.5 121.5s-212.5 -40.5 -293.5 -121.5s-121.5 -178.833 -121.5 -293.5s40.5 -212.5 121.5 -293.5s178.833 -121.5 293.5 -121.5
s212.5 40.5 293.5 121.5s121.5 178.833 121.5 293.5z" />
    <glyph glyph-name="odieresis" unicode="&#xf6;" 
d="M833 1273c0 -48.667 -24.333 -73 -73 -73c-48 0 -72 24.333 -72 73c0 48 24 72 72 72c48.667 0 73 -24 73 -72zM383 1273c0 -48.667 -24.333 -73 -73 -73c-48 0 -72 24.333 -72 73c0 48 24 72 72 72c48.667 0 73 -24 73 -72zM1020 485c0 -134 -47.333 -248.333 -142 -343
s-209 -142 -343 -142s-248.333 47.333 -343 142s-142 209 -142 343s47.333 248.333 142 343s209 142 343 142s248.333 -47.333 343 -142s142 -209 142 -343zM950 485c0 114.667 -40.5 212.5 -121.5 293.5s-178.833 121.5 -293.5 121.5s-212.5 -40.5 -293.5 -121.5
s-121.5 -178.833 -121.5 -293.5s40.5 -212.5 121.5 -293.5s178.833 -121.5 293.5 -121.5s212.5 40.5 293.5 121.5s121.5 178.833 121.5 293.5z" />
    <glyph glyph-name="divide" unicode="&#xf7;" 
d="M609 1011c0 -20 -7.33301 -37.333 -22 -52s-32 -22 -52 -22s-37.333 7.33301 -52 22s-22 32 -22 52c0 47.333 24.667 71 74 71s74 -23.667 74 -71zM870 597c0 -23.333 -11.667 -35 -35 -35h-600c-23.333 0 -35 11.667 -35 35s11.667 35 35 35h600
c23.333 0 35 -11.667 35 -35zM609 186c0 -20 -7.33301 -37.333 -22 -52s-32 -22 -52 -22s-37.333 7.33301 -52 22s-22 32 -22 52c0 47.333 24.667 71 74 71s74 -23.667 74 -71z" />
    <glyph glyph-name="oslash" unicode="&#xf8;" horiz-adv-x="1071" 
d="M1021 935c0 -11.333 -39.667 -55.666 -119 -132.999c79.333 -90.667 119 -196.334 119 -317.001c0 -134 -47.5 -248.333 -142.5 -343s-209.167 -142 -342.5 -142c-120.667 -0 -226.667 39.333 -318 118c-76.667 -79.333 -120.667 -119 -132 -119c-24 0 -36 12 -36 36
c0 11.333 39.667 55.666 119 132.999c-78.667 90.667 -118 196.334 -118 317.001c0 134 47.333 248.333 142 343s209 142 343 142c120 0 225.667 -39.333 317 -118c77.333 79.333 121.333 119 132 119c24 0 36 -12 36 -36zM803 802
c-77.333 65.333 -166.333 97.999 -267 97.999c-114.667 0 -212.5 -40.5 -293.5 -121.5s-121.5 -178.833 -121.5 -293.5c0 -101.333 32.333 -190.666 97 -267.999zM951 484.999c0 101.333 -32.666 190.667 -97.999 268l-585 -585c77.333 -65.333 166.666 -98 267.999 -98
c114 0 211.667 40.5 293 121.5s122 178.833 122 293.5z" />
    <glyph glyph-name="ugrave" unicode="&#xf9;" horiz-adv-x="870" 
d="M620 1236c0 -24.667 -11.333 -37 -34 -37c-8.66699 0 -59.667 23.333 -153 70c-87.333 43.333 -142 71.666 -164 84.999c-12.667 8 -19 18 -19 30c0 24.667 11.333 37 34 37c8.66699 0 59.667 -23.333 153 -70c87.333 -43.333 142 -71.666 164 -84.999
c12.667 -8 19 -18 19 -30zM770 335c0 -92 -32.833 -170.833 -98.5 -236.5s-144.5 -98.5 -236.5 -98.5s-170.833 32.833 -236.5 98.5s-98.5 144.5 -98.5 236.5v600c0 23.333 11.667 35 35 35s35 -11.667 35 -35v-600c0 -72.667 26 -135 78 -187s114.333 -78 187 -78
s135 26 187 78s78 114.333 78 187v600c0 23.333 11.667 35 35 35s35 -11.667 35 -35v-600z" />
    <glyph glyph-name="uacute" unicode="&#xfa;" horiz-adv-x="870" 
d="M620 1384c0 -12 -6.33301 -22 -19 -30c-22 -13.333 -76.667 -41.666 -164 -84.999c-93.333 -46.667 -144.333 -70 -153 -70c-22.667 0 -34 12.333 -34 37c0 12 6.33301 22 19 30c22 13.333 76.667 41.666 164 84.999c93.333 46.667 144.333 70 153 70
c22.667 0 34 -12.333 34 -37zM770 335c0 -92 -32.833 -170.833 -98.5 -236.5s-144.5 -98.5 -236.5 -98.5s-170.833 32.833 -236.5 98.5s-98.5 144.5 -98.5 236.5v600c0 23.333 11.667 35 35 35s35 -11.667 35 -35v-600c0 -72.667 26 -135 78 -187s114.333 -78 187 -78
s135 26 187 78s78 114.333 78 187v600c0 23.333 11.667 35 35 35s35 -11.667 35 -35v-600z" />
    <glyph glyph-name="ucircumflex" unicode="&#xfb;" horiz-adv-x="870" 
d="M695 1236c0 -24.667 -11.333 -37 -34 -37c-7.33301 0 -14 2.33301 -20 7l-206 137l-206 -137c-6 -4.66699 -12.667 -7 -20 -7c-22.667 0 -34 12.333 -34 37c0 11.333 5.33301 20.666 16 27.999l222 148c8 6 15.333 9 22 9s14 -3 22 -9l222 -148
c10.667 -7.33301 16 -16.666 16 -27.999zM770 335c0 -92 -32.833 -170.833 -98.5 -236.5s-144.5 -98.5 -236.5 -98.5s-170.833 32.833 -236.5 98.5s-98.5 144.5 -98.5 236.5v600c0 23.333 11.667 35 35 35s35 -11.667 35 -35v-600c0 -72.667 26 -135 78 -187
s114.333 -78 187 -78s135 26 187 78s78 114.333 78 187v600c0 23.333 11.667 35 35 35s35 -11.667 35 -35v-600z" />
    <glyph glyph-name="udieresis" unicode="&#xfc;" horiz-adv-x="870" 
d="M733 1273c0 -48.667 -24.333 -73 -73 -73c-48 0 -72 24.333 -72 73c0 48 24 72 72 72c48.667 0 73 -24 73 -72zM283 1273c0 -48.667 -24.333 -73 -73 -73c-48 0 -72 24.333 -72 73c0 48 24 72 72 72c48.667 0 73 -24 73 -72zM770 335
c0 -92 -32.833 -170.833 -98.5 -236.5s-144.5 -98.5 -236.5 -98.5s-170.833 32.833 -236.5 98.5s-98.5 144.5 -98.5 236.5v600c0 23.333 11.667 35 35 35s35 -11.667 35 -35v-600c0 -72.667 26 -135 78 -187s114.333 -78 187 -78s135 26 187 78s78 114.333 78 187v600
c0 23.333 11.667 35 35 35s35 -11.667 35 -35v-600z" />
    <glyph glyph-name="yacute" unicode="&#xfd;" horiz-adv-x="920" 
d="M620 1384c0 -12 -6.33301 -22 -19 -30c-22 -13.333 -76.667 -41.666 -164 -84.999c-93.333 -46.667 -144.333 -70 -153 -70c-22.667 0 -34 12.333 -34 37c0 12 6.33301 22 19 30c22 13.333 76.667 41.666 164 84.999c93.333 46.667 144.333 70 153 70
c22.667 0 34 -12.333 34 -37zM770 -115c0 -92 -32.833 -170.833 -98.5 -236.5s-144.5 -98.5 -236.5 -98.5c-130.667 0 -227.334 55.333 -290.001 166c-3.33301 6.66699 -5 13 -5 19c0 22.667 12.333 34 37 34c8.66699 0 23.667 -12.667 45 -38
c28 -32.667 53.333 -56.667 76 -72c39.333 -26 85 -39 137 -39c72.667 0 135 26 187 78s78 114.333 78 187v245c-67.333 -86.667 -155.666 -130 -264.999 -130c-92 -0 -170.833 32.833 -236.5 98.5s-98.5 144.5 -98.5 236.5v600c0 23.333 11.667 35 35 35s35 -11.667 35 -35
v-600c0 -72.667 26 -135 78 -187s114.333 -78 187 -78s135 26 187 78s78 114.333 78 187v600c0 23.333 11.667 35 35 35s35 -11.667 35 -35v-1050z" />
    <glyph glyph-name="thorn" unicode="&#xfe;" horiz-adv-x="1170" 
d="M1120 485c0 -134 -47.333 -248.335 -142 -343.002s-209 -142 -343 -142c-84.667 0 -164 20.833 -238 62.5s-133 98.834 -177 171.501v-649c0 -23.333 -11.667 -35 -35 -35s-35 11.667 -35 35v1800c0 23.333 11.667 35 35 35s35 -11.667 35 -35v-649
c44 72.667 103 129.834 177 171.501s153.333 62.5 238 62.5c134 0 248.333 -47.333 343 -142s142 -209 142 -343zM1050 484.998c0 114.667 -40.5 212.5 -121.5 293.5s-178.833 121.5 -293.5 121.5s-212.5 -40.5 -293.5 -121.5s-121.5 -178.833 -121.5 -293.5
s40.5 -212.5 121.5 -293.5s178.833 -121.5 293.5 -121.5s212.5 40.5 293.5 121.5s121.5 178.833 121.5 293.5z" />
    <glyph glyph-name="ydieresis" unicode="&#xff;" horiz-adv-x="920" 
d="M733 1260c0 -48.667 -24.333 -73 -73 -73c-48 0 -72 24.333 -72 73c0 48 24 72 72 72c48.667 0 73 -24 73 -72zM283 1260c0 -48.667 -24.333 -73 -73 -73c-48 0 -72 24.333 -72 73c0 48 24 72 72 72c48.667 0 73 -24 73 -72zM770 -115
c0 -92 -32.833 -170.833 -98.5 -236.5s-144.5 -98.5 -236.5 -98.5c-130.667 0 -227.334 55.333 -290.001 166c-3.33301 6.66699 -5 13 -5 19c0 22.667 12.333 34 37 34c8.66699 0 23.667 -12.667 45 -38c28 -32.667 53.333 -56.667 76 -72c39.333 -26 85 -39 137 -39
c72.667 0 135 26 187 78s78 114.333 78 187v245c-67.333 -86.667 -155.666 -130 -264.999 -130c-92 -0 -170.833 32.833 -236.5 98.5s-98.5 144.5 -98.5 236.5v600c0 23.333 11.667 35 35 35s35 -11.667 35 -35v-600c0 -72.667 26 -135 78 -187s114.333 -78 187 -78
s135 26 187 78s78 114.333 78 187v600c0 23.333 11.667 35 35 35s35 -11.667 35 -35v-1050z" />
    <glyph glyph-name="Amacron" unicode="&#x100;" horiz-adv-x="1521" 
d="M1471 1760c0 -23.333 -11.667 -35 -35 -35h-1350c-23.333 0 -35 11.667 -35 35s11.667 35 35 35h1350c23.333 0 35 -11.667 35 -35zM1471 34c0 -22.667 -12.3301 -34 -36.9971 -34c-13.333 -0 -23.333 6.33301 -30 19l-215 431h-3h-854l-215 -431
c-6.66699 -12.667 -16.667 -19 -30 -19c-24.667 -0 -37 11.333 -37 34c0 8 104 221.333 312 640c207.333 416 328.666 656.333 363.999 721c9.33301 16.667 20.666 25 33.999 25c14 0 25.667 -8.33301 35 -25c35.333 -64.667 156.666 -305 363.999 -721
c208 -418.667 312 -632 312 -640zM1154 520l-393 787l-394 -787h787z" />
    <glyph glyph-name="amacron" unicode="&#x101;" horiz-adv-x="770" 
d="M720 1310c0 -23.333 -11.667 -35 -35 -35h-600c-23.333 0 -35 11.667 -35 35s11.667 35 35 35h600c23.333 0 35 -11.667 35 -35zM720 35c0 -23.333 -11.666 -35 -34.999 -35s-35 11.667 -35 35v95c-67.333 -86.667 -155.666 -130 -264.999 -130
c-92 -0 -170.833 32.833 -236.5 98.5s-98.5 144.5 -98.5 236.5s32.833 170.833 98.5 236.5s144.5 98.5 236.5 98.5c109.333 0 197.666 -43.333 264.999 -130v95c0 72.667 -26 135 -78 187s-114.333 78 -187 78c-47.333 0 -94.833 -14.833 -142.5 -44.5
s-70.834 -44.5 -69.501 -44.5c-24 0 -36 12 -36 36c0 8.66699 3.66699 17 11 25c60 65.333 139 98 237 98c92 0 170.833 -32.833 236.5 -98.5s98.5 -144.5 98.5 -236.5v-600zM650.001 335c0 72.667 -26 135 -78 187s-114.333 78 -187 78s-135 -26 -187 -78
s-78 -114.333 -78 -187s26 -135 78 -187s114.333 -78 187 -78s135 26 187 78s78 114.333 78 187z" />
    <glyph glyph-name="Abreve" unicode="&#x102;" horiz-adv-x="1521" 
d="M1022 1835c0 -9.33301 -10.334 -25 -31.001 -47c-84.667 -91.333 -161.667 -137 -231 -137s-146 45.667 -230 137c-20.667 22 -31 37.667 -31 47c0 23.333 12.333 35 37 35c6.66699 0 35.834 -25 87.501 -75s97.167 -75 136.5 -75s85 25 137 75s81.333 75 88 75
c24.667 0 37 -11.667 37 -35zM1471 34c0 -22.667 -12.3301 -34 -36.9971 -34c-13.333 -0 -23.333 6.33301 -30 19l-215 431h-3h-854l-215 -431c-6.66699 -12.667 -16.667 -19 -30 -19c-24.667 -0 -37 11.333 -37 34c0 8 104 221.333 312 640
c207.333 416 328.666 656.333 363.999 721c9.33301 16.667 20.666 25 33.999 25c14 0 25.667 -8.33301 35 -25c35.333 -64.667 156.666 -305 363.999 -721c208 -418.667 312 -632 312 -640zM1154 520l-393 787l-394 -787h787z" />
    <glyph glyph-name="abreve" unicode="&#x103;" horiz-adv-x="770" 
d="M646 1385c0 -9.33301 -10.333 -25 -31 -47c-84.667 -91.333 -161.667 -137 -231 -137s-146 45.667 -230 137c-20 22 -30 37.667 -30 47c0 23.333 12.333 35 37 35c6.66699 0 35.667 -25 87 -75s97 -75 137 -75c38.667 0 84 25 136 75s81.333 75 88 75
c24.667 0 37 -11.667 37 -35zM720 35c0 -23.333 -11.666 -35 -34.999 -35s-35 11.667 -35 35v95c-67.333 -86.667 -155.666 -130 -264.999 -130c-92 -0 -170.833 32.833 -236.5 98.5s-98.5 144.5 -98.5 236.5s32.833 170.833 98.5 236.5s144.5 98.5 236.5 98.5
c109.333 0 197.666 -43.333 264.999 -130v95c0 72.667 -26 135 -78 187s-114.333 78 -187 78c-47.333 0 -94.833 -14.833 -142.5 -44.5s-70.834 -44.5 -69.501 -44.5c-24 0 -36 12 -36 36c0 8.66699 3.66699 17 11 25c60 65.333 139 98 237 98
c92 0 170.833 -32.833 236.5 -98.5s98.5 -144.5 98.5 -236.5v-600zM650.001 335c0 72.667 -26 135 -78 187s-114.333 78 -187 78s-135 -26 -187 -78s-78 -114.333 -78 -187s26 -135 78 -187s114.333 -78 187 -78s135 26 187 78s78 114.333 78 187z" />
    <glyph glyph-name="Aogonek" unicode="&#x104;" horiz-adv-x="1716" 
d="M1666 -301c0 -6 -1.66699 -12.001 -5 -18.001c-48 -87.333 -123 -131 -225 -131c-72 0 -133.333 25.5 -184 76.5s-76 112.167 -76 183.5c0 61.333 19.333 115.833 58 163.5s88 77.834 148 90.501l-193 386h-3h-854l-215 -431c-6.66699 -12.667 -16.667 -19 -30 -19
c-24.667 -0 -37 11.333 -37 34c0 7.33301 104 220 312 638s329.333 659 364 723c9.33301 16.667 20.666 25 33.999 25c14.667 0 26.334 -8.33301 35.001 -25l672 -1344c3.33301 -7.33301 5 -14.333 5 -21c0 -20 -12 -30 -36 -30c-52.667 -0 -97.5 -18.667 -134.5 -56
s-55.5 -82 -55.5 -134s18.5 -96.667 55.5 -134s81.833 -56 134.5 -56c50.667 0 94.5 18.833 131.5 56.5s57.833 56.5 62.5 56.5c24 0 36 -11.333 36 -34zM1154 519.999l-393 787l-394 -787h787z" />
    <glyph glyph-name="aogonek" unicode="&#x105;" horiz-adv-x="966" 
d="M916 -301c0 -6 -1.66602 -12 -4.99902 -18c-50 -87.333 -125.333 -131 -226 -131c-71.333 0 -132.5 25.5 -183.5 76.5s-76.5 112.167 -76.5 183.5c0 64.667 21.5 121.667 64.5 171s96.5 78.333 160.5 87v62c-67.333 -86.667 -155.666 -130 -264.999 -130
c-92 -0 -170.833 32.833 -236.5 98.5s-98.5 144.5 -98.5 236.5s32.833 170.833 98.5 236.5s144.5 98.5 236.5 98.5c109.333 0 197.666 -43.333 264.999 -130v95c0 72.667 -26 135 -78 187s-114.333 78 -187 78c-47.333 0 -94.833 -14.833 -142.5 -44.5
s-70.834 -44.5 -69.501 -44.5c-24 0 -36 12 -36 36c0 8.66699 3.66699 17 11 25c60 65.333 139 98 237 98c92 0 170.833 -32.833 236.5 -98.5s98.5 -144.5 98.5 -236.5v-600c0 -23.333 -11.667 -35 -35 -35c-52 -0 -96.667 -18.667 -134 -56s-56 -82 -56 -134
s18.667 -96.667 56 -134s82 -56 134 -56c50 0 93.667 18.833 131 56.5s58.333 56.5 63 56.5c24.667 0 37 -11.333 37 -34zM650.001 335c0 73.333 -25.833 135.833 -77.5 187.5s-114.167 77.5 -187.5 77.5c-72.667 0 -135 -26 -187 -78s-78 -114.333 -78 -187
s26 -135 78 -187s114.333 -78 187 -78s135 26 187 78s78 114.333 78 187z" />
    <glyph glyph-name="Cacute" unicode="&#x106;" horiz-adv-x="1323" 
d="M945 1834c0 -12 -6.33301 -22 -19 -30c-22 -13.333 -76.667 -41.666 -164 -84.999c-93.333 -46.667 -144.333 -70 -153 -70c-22.667 0 -34 12.333 -34 37c0 12 6.33301 22 19 30c22 13.333 76.667 41.666 164 84.999c93.333 46.667 144.333 70 153 70
c22.667 0 34 -12.333 34 -37zM1273 232c0 -8.66699 -3.66699 -16.667 -11 -24c-132.667 -138.667 -300 -208 -502 -208c-196 -0 -363.333 69.333 -502 208s-208 306 -208 502s69.333 363.333 208 502s306 208 502 208c202 0 369.333 -69.333 502 -208
c7.33301 -7.33301 11 -15.333 11 -24c0 -24 -12 -36 -36 -36c-8 0 -16.333 3.66699 -25 11c-145.333 124.667 -296 187 -452 187c-176.667 0 -327.5 -62.5 -452.5 -187.5s-187.5 -275.833 -187.5 -452.5s62.5 -327.5 187.5 -452.5s275.833 -187.5 452.5 -187.5
c156 0 306.667 62.333 452 187c8.66699 7.33301 17 11 25 11c24 0 36 -12 36 -36z" />
    <glyph glyph-name="cacute" unicode="&#x107;" horiz-adv-x="939" 
d="M720 1384c0 -12 -6.33301 -22 -19 -30c-22 -13.333 -76.667 -41.666 -164 -84.999c-93.333 -46.667 -144.333 -70 -153 -70c-22.667 0 -34 12.333 -34 37c0 12 6.33301 22 19 30c22 13.333 76.667 41.666 164 84.999c93.333 46.667 144.333 70 153 70
c22.667 0 34 -12.333 34 -37zM889 804c0 -24 -12 -36 -36 -36c4 0 -29 22 -99 66s-143 66 -219 66c-114.667 0 -212.5 -40.5 -293.5 -121.5s-121.5 -178.833 -121.5 -293.5s40.5 -212.5 121.5 -293.5s178.833 -121.5 293.5 -121.5c76 0 149 22 219 66s102.667 66 98 66
c24 0 36 -12 36 -36c0 -8.66699 -3.66699 -17 -11 -25c-87.333 -94 -201.333 -141 -342 -141c-134 -0 -248.333 47.333 -343 142s-142 209 -142 343s47.333 248.333 142 343s209 142 343 142c140.667 0 255 -47.333 343 -142c7.33301 -8 11 -16 11 -24z" />
    <glyph glyph-name="Ccircumflex" unicode="&#x108;" horiz-adv-x="1323" 
d="M1020 1686c0 -24.667 -11.333 -37 -34 -37c-7.33301 0 -14 2.33301 -20 7l-206 137l-206 -137c-6 -4.66699 -12.667 -7 -20 -7c-22.667 0 -34 12.333 -34 37c0 11.333 5.33301 20.666 16 27.999l222 148c8 6 15.333 9 22 9s14 -3 22 -9l222 -148
c10.667 -7.33301 16 -16.666 16 -27.999zM1273 232c0 -8.66699 -3.66699 -16.667 -11 -24c-132.667 -138.667 -300 -208 -502 -208c-196 -0 -363.333 69.333 -502 208s-208 306 -208 502s69.333 363.333 208 502s306 208 502 208c202 0 369.333 -69.333 502 -208
c7.33301 -7.33301 11 -15.333 11 -24c0 -24 -12 -36 -36 -36c-8 0 -16.333 3.66699 -25 11c-145.333 124.667 -296 187 -452 187c-176.667 0 -327.5 -62.5 -452.5 -187.5s-187.5 -275.833 -187.5 -452.5s62.5 -327.5 187.5 -452.5s275.833 -187.5 452.5 -187.5
c156 0 306.667 62.333 452 187c8.66699 7.33301 17 11 25 11c24 0 36 -12 36 -36z" />
    <glyph glyph-name="ccircumflex" unicode="&#x109;" horiz-adv-x="939" 
d="M795 1236c0 -24.667 -11.333 -37 -34 -37c-7.33301 0 -14 2.33301 -20 7l-206 137l-206 -137c-6 -4.66699 -12.667 -7 -20 -7c-22.667 0 -34 12.333 -34 37c0 11.333 5.33301 20.666 16 27.999l222 148c8 6 15.333 9 22 9s14 -3 22 -9l222 -148
c10.667 -7.33301 16 -16.666 16 -27.999zM889 804c0 -24 -12 -36 -36 -36c4 0 -29 22 -99 66s-143 66 -219 66c-114.667 0 -212.5 -40.5 -293.5 -121.5s-121.5 -178.833 -121.5 -293.5s40.5 -212.5 121.5 -293.5s178.833 -121.5 293.5 -121.5c76 0 149 22 219 66
s102.667 66 98 66c24 0 36 -12 36 -36c0 -8.66699 -3.66699 -17 -11 -25c-87.333 -94 -201.333 -141 -342 -141c-134 -0 -248.333 47.333 -343 142s-142 209 -142 343s47.333 248.333 142 343s209 142 343 142c140.667 0 255 -47.333 343 -142c7.33301 -8 11 -16 11 -24z
" />
    <glyph glyph-name="Cdot" unicode="&#x10a;" horiz-adv-x="1323" 
d="M833 1723c0 -48.667 -24.333 -73 -73 -73c-48 0 -72 24.333 -72 73c0 48 24 72 72 72c48.667 0 73 -24 73 -72zM1273 232c0 -8.66699 -3.66699 -16.667 -11 -24c-132.667 -138.667 -300 -208 -502 -208c-196 -0 -363.333 69.333 -502 208s-208 306 -208 502
s69.333 363.333 208 502s306 208 502 208c202 0 369.333 -69.333 502 -208c7.33301 -7.33301 11 -15.333 11 -24c0 -24 -12 -36 -36 -36c-8 0 -16.333 3.66699 -25 11c-145.333 124.667 -296 187 -452 187c-176.667 0 -327.5 -62.5 -452.5 -187.5
s-187.5 -275.833 -187.5 -452.5s62.5 -327.5 187.5 -452.5s275.833 -187.5 452.5 -187.5c156 0 306.667 62.333 452 187c8.66699 7.33301 17 11 25 11c24 0 36 -12 36 -36z" />
    <glyph glyph-name="cdot" unicode="&#x10b;" horiz-adv-x="939" 
d="M609 1346c0 -47.333 -24.667 -71 -74 -71s-74 23.667 -74 71c0 20 7.33301 37.333 22 52s32 22 52 22s37.333 -7.33301 52 -22s22 -32 22 -52zM889 804c0 -24 -12 -36 -36 -36c4 0 -29 22 -99 66s-143 66 -219 66c-114.667 0 -212.5 -40.5 -293.5 -121.5
s-121.5 -178.833 -121.5 -293.5s40.5 -212.5 121.5 -293.5s178.833 -121.5 293.5 -121.5c76 0 149 22 219 66s102.667 66 98 66c24 0 36 -12 36 -36c0 -8.66699 -3.66699 -17 -11 -25c-87.333 -94 -201.333 -141 -342 -141c-134 -0 -248.333 47.333 -343 142
s-142 209 -142 343s47.333 248.333 142 343s209 142 343 142c140.667 0 255 -47.333 343 -142c7.33301 -8 11 -16 11 -24z" />
    <glyph glyph-name="Ccaron" unicode="&#x10c;" horiz-adv-x="1323" 
d="M1020 1834c0 -11.333 -5.33301 -20.666 -16 -27.999l-222 -148c-8 -6 -15.333 -9 -22 -9s-14 3 -22 9l-222 148c-10.667 7.33301 -16 16.666 -16 27.999c0 24.667 11.333 37 34 37c7.33301 0 14 -2.33301 20 -7l206 -137l206 137c6 4.66699 12.667 7 20 7
c22.667 0 34 -12.333 34 -37zM1273 232c0 -8.66699 -3.66699 -16.667 -11 -24c-132.667 -138.667 -300 -208 -502 -208c-196 -0 -363.333 69.333 -502 208s-208 306 -208 502s69.333 363.333 208 502s306 208 502 208c202 0 369.333 -69.333 502 -208
c7.33301 -7.33301 11 -15.333 11 -24c0 -24 -12 -36 -36 -36c-8 0 -16.333 3.66699 -25 11c-145.333 124.667 -296 187 -452 187c-176.667 0 -327.5 -62.5 -452.5 -187.5s-187.5 -275.833 -187.5 -452.5s62.5 -327.5 187.5 -452.5s275.833 -187.5 452.5 -187.5
c156 0 306.667 62.333 452 187c8.66699 7.33301 17 11 25 11c24 0 36 -12 36 -36z" />
    <glyph glyph-name="ccaron" unicode="&#x10d;" horiz-adv-x="939" 
d="M795 1384c0 -11.333 -5.33301 -20.666 -16 -27.999l-225 -150c-4 -2.66699 -10.333 -4 -19 -4s-15 1.33301 -19 4l-225 150c-10.667 7.33301 -16 16.666 -16 27.999c0 24.667 11.333 37 34 37c7.33301 0 14 -2.33301 20 -7l206 -137l206 137c6 4.66699 12.667 7 20 7
c22.667 0 34 -12.333 34 -37zM889 804c0 -24 -12 -36 -36 -36c4 0 -29 22 -99 66s-143 66 -219 66c-114.667 0 -212.5 -40.5 -293.5 -121.5s-121.5 -178.833 -121.5 -293.5s40.5 -212.5 121.5 -293.5s178.833 -121.5 293.5 -121.5c76 0 149 22 219 66s102.667 66 98 66
c24 0 36 -12 36 -36c0 -8.66699 -3.66699 -17 -11 -25c-87.333 -94 -201.333 -141 -342 -141c-134 -0 -248.333 47.333 -343 142s-142 209 -142 343s47.333 248.333 142 343s209 142 343 142c140.667 0 255 -47.333 343 -142c7.33301 -8 11 -16 11 -24z" />
    <glyph glyph-name="Dcaron" unicode="&#x10e;" horiz-adv-x="1395" 
d="M895 1834c0 -11.333 -5.33301 -20.666 -16 -27.999l-222 -148c-8 -6 -15.333 -9 -22 -9s-14 3 -22 9l-222 148c-10.667 7.33301 -16 16.666 -16 27.999c0 24.667 11.333 37 34 37c7.33301 0 14 -2.33301 20 -7l206 -137l206 137c6 4.66699 12.667 7 20 7
c22.667 0 34 -12.333 34 -37zM1345 710c0 -196 -69.333 -363.333 -208 -502s-306 -208 -502 -208h-450c-23.333 0 -35 11.667 -35 35v1350c0 23.333 11.667 35 35 35h450c196 0 363.333 -69.333 502 -208s208 -306 208 -502zM1275 710c0 176.667 -62.5 327.5 -187.5 452.5
s-275.833 187.5 -452.5 187.5h-415v-1280h415c176.667 0 327.5 62.5 452.5 187.5s187.5 275.833 187.5 452.5z" />
    <glyph glyph-name="dcaron" unicode="&#x10f;" horiz-adv-x="1170" 
d="M795 1834c0 -11.333 -5.33301 -20.666 -16 -27.999l-222 -148c-8 -6 -15.333 -9 -22 -9s-14 3 -22 9l-222 148c-10.667 7.33301 -16 16.666 -16 27.999c0 24.667 11.333 37 34 37c7.33301 0 14 -2.33301 20 -7l206 -137l206 137c6 4.66699 12.667 7 20 7
c22.667 0 34 -12.333 34 -37zM1020 35c0 -23.333 -11.667 -34.998 -35 -34.998s-35 11.667 -35 35v199c-44 -72.667 -103 -129.834 -177 -171.501s-153.333 -62.5 -238 -62.5c-134 0 -248.333 47.333 -343 142s-142 209 -142 343s47.333 248.333 142 343s209 142 343 142
c84.667 0 164 -20.833 238 -62.5s133 -98.834 177 -171.501v649c0 23.333 11.667 35 35 35s35 -11.667 35 -35v-1350zM950 485.002c0 114.667 -40.5 212.5 -121.5 293.5s-178.833 121.5 -293.5 121.5s-212.5 -40.5 -293.5 -121.5s-121.5 -178.833 -121.5 -293.5
s40.5 -212.5 121.5 -293.5s178.833 -121.5 293.5 -121.5s212.5 40.5 293.5 121.5s121.5 178.833 121.5 293.5z" />
    <glyph glyph-name="Dslash" unicode="&#x110;" horiz-adv-x="1470" 
d="M1420 710c0 -196 -69.332 -363.333 -207.999 -502s-306 -208 -502 -208h-450c-23.333 0 -35 11.667 -35 35v626c-120.667 -40.667 -184.334 -61 -191.001 -61c-22.667 0 -34 12 -34 36c0 16 8 26.667 24 32l201 67v650c0 23.333 11.667 35 35 35h450
c196 0 363.333 -69.333 502 -208s208 -306 208 -502zM1350 710c0 176.667 -62.5 327.5 -187.5 452.5s-275.833 187.5 -452.5 187.5h-415v-591c120.667 40.667 184.667 61 192 61c22 0 33 -12 33 -36c0 -16 -8 -26.667 -24 -32l-201 -67v-615h415
c176.667 0 327.5 62.5 452.5 187.5s187.5 275.833 187.5 452.5z" />
    <glyph glyph-name="dcroat" unicode="&#x111;" horiz-adv-x="1245" 
d="M1245 1160c0 -23.333 -11.667 -34.998 -35 -34.998h-190v-1090c0 -23.333 -11.667 -35 -35 -35s-35 11.667 -35 35v199c-44 -72.667 -103 -129.834 -177 -171.501s-153.333 -62.5 -238 -62.5c-134 0 -248.333 47.333 -343 142s-142 209 -142 343s47.333 248.333 142 343
s209 142 343 142c84.667 0 164 -20.833 238 -62.5s133 -98.834 177 -171.501v389h-415c-23.333 0 -35 11.667 -35 35s11.667 35 35 35h415v190c0 23.333 11.667 35 35 35s35 -11.667 35 -35v-190h190c23.333 0 35 -11.667 35 -35zM950 485.002
c0 114.667 -40.5 212.5 -121.5 293.5s-178.833 121.5 -293.5 121.5s-212.5 -40.5 -293.5 -121.5s-121.5 -178.833 -121.5 -293.5s40.5 -212.5 121.5 -293.5s178.833 -121.5 293.5 -121.5s212.5 40.5 293.5 121.5s121.5 178.833 121.5 293.5z" />
    <glyph glyph-name="Emacron" unicode="&#x112;" horiz-adv-x="1020" 
d="M970 1760c0 -23.333 -11.667 -35 -35 -35h-750c-23.333 0 -35 11.667 -35 35s11.667 35 35 35h750c23.333 0 35 -11.667 35 -35zM970 35c0 -23.333 -11.667 -35 -35 -35h-750c-23.333 0 -35 11.667 -35 35v1350c0 23.333 11.667 35 35 35h750c23.333 0 35 -11.667 35 -35
s-11.667 -35 -35 -35h-715v-605h565c23.333 0 35 -11.667 35 -35s-11.667 -35 -35 -35h-565v-605h715c23.333 0 35 -11.667 35 -35z" />
    <glyph glyph-name="emacron" unicode="&#x113;" horiz-adv-x="1010" 
d="M960 1310c0 -23.333 -11.667 -35 -35 -35h-840c-23.333 0 -35 11.667 -35 35s11.667 35 35 35h840c23.333 0 35 -11.667 35 -35zM960 261c0 -6 -1.66602 -12.333 -4.99902 -19c-42.667 -74 -101.834 -132.833 -177.501 -176.5s-156.5 -65.5 -242.5 -65.5
c-134 -0 -248.333 47.333 -343 142s-142 209 -142 343s47.333 248.333 142 343s209 142 343 142c52.667 0 106.667 -9.66699 162 -29c51.333 -18.667 104.666 -49 159.999 -91c68 -52 102 -99 102 -141c0 -13.333 -5.66699 -23 -17 -29l-748 -432
c82.667 -118.667 196.334 -178 341.001 -178c125.333 0 228.333 46 309 138l50 70c8.66699 11.333 18.667 17 30 17c24 0 36 -11.333 36 -34zM876.001 722c-82.667 118.667 -196.333 178 -341 178c-114.667 0 -212.5 -40.5 -293.5 -121.5s-121.5 -178.833 -121.5 -293.5
c0 -62 13 -121 39 -177z" />
    <glyph glyph-name="Ebreve" unicode="&#x114;" horiz-adv-x="1020" 
d="M821 1835c0 -9.33301 -10.334 -25 -31.001 -47c-84.667 -92 -161.334 -138 -230.001 -138c-40 0 -87 18.667 -141 56c-48 33.333 -85 69 -111 107c-6 8 -9 15.333 -9 22c0 24 12.333 36 37 36c6.66699 0 35.834 -25.167 87.501 -75.5s97.167 -75.5 136.5 -75.5
s84.833 25 136.5 75s80.834 75 87.501 75c24.667 0 37 -11.667 37 -35zM969.999 35c0 -23.333 -11.667 -35 -35 -35h-750c-23.333 0 -35 11.667 -35 35v1350c0 23.333 11.667 35 35 35h750c23.333 0 35 -11.667 35 -35s-11.667 -35 -35 -35h-715v-605h565
c23.333 0 35 -11.667 35 -35s-11.667 -35 -35 -35h-565v-605h715c23.333 0 35 -11.667 35 -35z" />
    <glyph glyph-name="ebreve" unicode="&#x115;" horiz-adv-x="1010" 
d="M782 1385c0 -9.33301 -10.334 -25 -31.001 -47c-84.667 -91.333 -161.667 -137 -231 -137s-146 45.667 -230 137c-20.667 22 -31 37.667 -31 47c0 23.333 12.333 35 37 35c6.66699 0 35.834 -25 87.501 -75s97.167 -75 136.5 -75s85 25 137 75s81 75 87 75
c25.333 0 38 -11.667 38 -35zM959.999 261c0 -6 -1.66602 -12.333 -4.99902 -19c-42.667 -74 -101.834 -132.833 -177.501 -176.5s-156.5 -65.5 -242.5 -65.5c-134 -0 -248.333 47.333 -343 142s-142 209 -142 343s47.333 248.333 142 343s209 142 343 142
c52.667 0 106.667 -9.66699 162 -29c51.333 -18.667 104.666 -49 159.999 -91c68 -52 102 -99 102 -141c0 -13.333 -5.66699 -23 -17 -29l-748 -432c82.667 -118.667 196.334 -178 341.001 -178c125.333 0 228.333 46 309 138l50 70c8.66699 11.333 18.667 17 30 17
c24 0 36 -11.333 36 -34zM876 722c-82.667 118.667 -196.333 178 -341 178c-114.667 0 -212.5 -40.5 -293.5 -121.5s-121.5 -178.833 -121.5 -293.5c0 -62 13 -121 39 -177z" />
    <glyph glyph-name="Edot" unicode="&#x116;" horiz-adv-x="1020" 
d="M633 1723c0 -48.667 -24.333 -73 -73 -73c-48 0 -72 24.333 -72 73c0 48 24 72 72 72c48.667 0 73 -24 73 -72zM970 35c0 -23.333 -11.667 -35 -35 -35h-750c-23.333 0 -35 11.667 -35 35v1350c0 23.333 11.667 35 35 35h750c23.333 0 35 -11.667 35 -35
s-11.667 -35 -35 -35h-715v-605h565c23.333 0 35 -11.667 35 -35s-11.667 -35 -35 -35h-565v-605h715c23.333 0 35 -11.667 35 -35z" />
    <glyph glyph-name="edot" unicode="&#x117;" horiz-adv-x="1010" 
d="M609 1346c0 -47.333 -24.667 -71 -74 -71s-74 23.667 -74 71c0 20 7.33301 37.333 22 52s32 22 52 22s37.333 -7.33301 52 -22s22 -32 22 -52zM960 261c0 -6 -1.66602 -12.333 -4.99902 -19c-42.667 -74 -101.834 -132.833 -177.501 -176.5s-156.5 -65.5 -242.5 -65.5
c-134 -0 -248.333 47.333 -343 142s-142 209 -142 343s47.333 248.333 142 343s209 142 343 142c52.667 0 106.667 -9.66699 162 -29c51.333 -18.667 104.666 -49 159.999 -91c68 -52 102 -99 102 -141c0 -13.333 -5.66699 -23 -17 -29l-748 -432
c82.667 -118.667 196.334 -178 341.001 -178c125.333 0 228.333 46 309 138l50 70c8.66699 11.333 18.667 17 30 17c24 0 36 -11.333 36 -34zM876.001 722c-82.667 118.667 -196.333 178 -341 178c-114.667 0 -212.5 -40.5 -293.5 -121.5s-121.5 -178.833 -121.5 -293.5
c0 -62 13 -121 39 -177z" />
    <glyph glyph-name="Eogonek" unicode="&#x118;" horiz-adv-x="1216" 
d="M1166 -301c0 -5.33301 -1.66699 -11.332 -5 -17.999c-46 -87.333 -121.333 -131 -226 -131c-71.333 0 -132.5 25.5 -183.5 76.5s-76.5 112.167 -76.5 183.5c0 75.333 27.667 138.666 83 189.999h-573c-23.333 0 -35 11.667 -35 35v1350c0 23.333 11.667 35 35 35h750
c23.333 0 35 -11.667 35 -35s-11.667 -35 -35 -35h-715v-605h565c23.333 0 35 -11.667 35 -35s-11.667 -35 -35 -35h-565v-605h715c24 0 36 -11.667 36 -35s-12 -35 -36 -35c-52 -0 -96.667 -18.667 -134 -56s-56 -82 -56 -134s18.667 -96.667 56 -134s82 -56 134 -56
c51.333 0 95.5 18.833 132.5 56.5s57.5 56.5 61.5 56.5c24.667 0 37 -11.333 37 -34z" />
    <glyph glyph-name="eogonek" unicode="&#x119;" horiz-adv-x="1010" 
d="M960 261c0 -6 -1.66895 -12.335 -5.00195 -19.002c-41.333 -74 -100.333 -132.833 -177 -176.5s-157.667 -65.5 -243 -65.5c-52 0 -96.667 -18.667 -134 -56s-56 -82 -56 -134s18.667 -96.667 56 -134s82 -56 134 -56c52.667 0 97 18.833 133 56.5s56.333 56.5 61 56.5
c24.667 0 37 -11.333 37 -34c0 -6 -1.66699 -12 -5 -18c-50.667 -87.333 -126 -131 -226 -131c-71.333 0 -132.5 25.5 -183.5 76.5s-76.5 112.167 -76.5 183.5c0 90 37 161 111 213c-100 32.667 -181 91.5 -243 176.5s-93 180.167 -93 285.5c0 134 47.333 248.333 142 343
s209 142 343 142c54.667 0 110.334 -10.333 167.001 -31c50.667 -19.333 103 -49.666 157 -90.999c66.667 -51.333 100 -97.666 100 -138.999c0 -13.333 -5.66699 -23 -17 -29l-748 -432c82.667 -118.667 196.334 -178 341.001 -178c124.667 0 227.667 46 309 138l50 70
c9.33301 11.333 19.333 17 30 17c24 0 36 -11.333 36 -34zM875.998 721.998c-82.667 118.667 -196.333 178 -341 178c-114.667 0 -212.5 -40.5 -293.5 -121.5s-121.5 -178.833 -121.5 -293.5c0 -62 13 -121 39 -177z" />
    <glyph glyph-name="Ecaron" unicode="&#x11a;" horiz-adv-x="1020" 
d="M820 1834c0 -11.333 -5.33301 -20.666 -16 -27.999l-222 -148c-8 -6 -15.333 -9 -22 -9s-14 3 -22 9l-222 148c-10.667 7.33301 -16 16.666 -16 27.999c0 24.667 11.333 37 34 37c7.33301 0 14 -2.33301 20 -7l206 -137l206 137c6 4.66699 12.667 7 20 7
c22.667 0 34 -12.333 34 -37zM970 35c0 -23.333 -11.667 -35 -35 -35h-750c-23.333 0 -35 11.667 -35 35v1350c0 23.333 11.667 35 35 35h750c23.333 0 35 -11.667 35 -35s-11.667 -35 -35 -35h-715v-605h565c23.333 0 35 -11.667 35 -35s-11.667 -35 -35 -35h-565v-605h715
c23.333 0 35 -11.667 35 -35z" />
    <glyph glyph-name="ecaron" unicode="&#x11b;" horiz-adv-x="1010" 
d="M795 1384c0 -11.333 -5.33301 -20.666 -16 -27.999l-225 -150c-4 -2.66699 -10.333 -4 -19 -4s-15 1.33301 -19 4l-225 150c-10.667 7.33301 -16 16.666 -16 27.999c0 24.667 11.333 37 34 37c7.33301 0 14 -2.33301 20 -7l206 -137l206 137c6 4.66699 12.667 7 20 7
c22.667 0 34 -12.333 34 -37zM960 261c0 -6 -1.66602 -12.333 -4.99902 -19c-42.667 -74 -101.834 -132.833 -177.501 -176.5s-156.5 -65.5 -242.5 -65.5c-134 -0 -248.333 47.333 -343 142s-142 209 -142 343s47.333 248.333 142 343s209 142 343 142
c52.667 0 106.667 -9.66699 162 -29c51.333 -18.667 104.666 -49 159.999 -91c68 -52 102 -99 102 -141c0 -13.333 -5.66699 -23 -17 -29l-748 -432c82.667 -118.667 196.334 -178 341.001 -178c125.333 0 228.333 46 309 138l50 70c8.66699 11.333 18.667 17 30 17
c24 0 36 -11.333 36 -34zM876.001 722c-82.667 118.667 -196.333 178 -341 178c-114.667 0 -212.5 -40.5 -293.5 -121.5s-121.5 -178.833 -121.5 -293.5c0 -62 13 -121 39 -177z" />
    <glyph glyph-name="Gcircumflex" unicode="&#x11c;" horiz-adv-x="1373" 
d="M1020 1686c0 -24.667 -11.333 -37 -34 -37c-7.33301 0 -14 2.33301 -20 7l-206 137l-206 -137c-6 -4.66699 -12.667 -7 -20 -7c-22.667 0 -34 12.333 -34 37c0 11.333 5.33301 20.666 16 27.999l222 148c8 6 15.333 9 22 9s14 -3 22 -9l222 -148
c10.667 -7.33301 16 -16.666 16 -27.999zM1273 1188c0 -24 -11.999 -36 -35.999 -36c-8 0 -16.333 3.66699 -25 11c-145.333 124.667 -296 187 -452 187c-176.667 0 -327.5 -62.5 -452.5 -187.5s-187.5 -275.833 -187.5 -452.5s62.5 -327.5 187.5 -452.5
s275.833 -187.5 452.5 -187.5c171.333 0 318.666 59 441.999 177v463c0 23.333 11.667 35 35 35s35 -11.667 35 -35v-478c0 -8.66699 -3.33301 -16.667 -10 -24c-56 -64 -132.667 -115.333 -230 -154c-91.333 -36 -182 -54 -272 -54c-196 -0 -363.333 69.333 -502 208
s-208 306 -208 502s69.333 363.333 208 502s306 208 502 208c202 0 369.333 -69.333 502 -208c7.33301 -7.33301 11 -15.333 11 -24z" />
    <glyph glyph-name="gcircumflex" unicode="&#x11d;" horiz-adv-x="920" 
d="M720 1236c0 -24.667 -11.333 -37 -34 -37c-7.33301 0 -14 2.33301 -20 7l-206 137l-206 -137c-6 -4.66699 -12.667 -7 -20 -7c-22.667 0 -34 12.333 -34 37c0 11.333 5.33301 20.666 16 27.999l222 148c8 6 15.333 9 22 9s14 -3 22 -9l222 -148
c10.667 -7.33301 16 -16.666 16 -27.999zM870 935c0 -23.333 -11.665 -35.001 -34.998 -35.001h-170c86.667 -67.333 130 -155.666 130 -264.999c0 -134 -59.333 -232.667 -178 -296c76 -32 137.167 -82.5 183.5 -151.5s69.5 -144.833 69.5 -227.5
c0 -113.333 -40 -210 -120 -290s-176.667 -120 -290 -120s-210 40 -290 120s-120 176.667 -120 290c0 23.333 11.667 35 35 35s35 -11.667 35 -35c0 -93.333 33.333 -173.333 100 -240s146.667 -100 240 -100s173.333 33.333 240 100s100 146.667 100 240
s-33.333 173.333 -100 240s-146.334 100 -239.001 100s-171.834 32.833 -237.501 98.5s-98.5 144.5 -98.5 236.5s32.833 170.833 98.5 236.5s144.5 98.5 236.5 98.5h375c23.333 0 35 -11.667 35 -35zM725.002 634.999c0 72.667 -26 135 -78 187s-114.333 78 -187 78
s-135 -26 -187 -78s-78 -114.333 -78 -187s26 -135 78 -187s114.333 -78 187 -78s135 26 187 78s78 114.333 78 187z" />
    <glyph glyph-name="Gbreve" unicode="&#x11e;" horiz-adv-x="1373" 
d="M1021 1835c0 -9.33301 -10.333 -25 -31 -47c-84.667 -91.333 -161.334 -137 -230.001 -137c-69.333 0 -146.333 45.667 -231 137c-20 22 -30 37.667 -30 47c0 23.333 12.333 35 37 35c6.66699 0 35.834 -25 87.501 -75s97.167 -75 136.5 -75c38.667 0 84 25 136 75
s81.333 75 88 75c24.667 0 37 -11.667 37 -35zM1273 1188c0 -24 -11.999 -36 -35.999 -36c-8 0 -16.333 3.66699 -25 11c-145.333 124.667 -296 187 -452 187c-176.667 0 -327.5 -62.5 -452.5 -187.5s-187.5 -275.833 -187.5 -452.5s62.5 -327.5 187.5 -452.5
s275.833 -187.5 452.5 -187.5c171.333 0 318.666 59 441.999 177v463c0 23.333 11.667 35 35 35s35 -11.667 35 -35v-478c0 -8.66699 -3.33301 -16.667 -10 -24c-56 -64 -132.667 -115.333 -230 -154c-91.333 -36 -182 -54 -272 -54c-196 -0 -363.333 69.333 -502 208
s-208 306 -208 502s69.333 363.333 208 502s306 208 502 208c202 0 369.333 -69.333 502 -208c7.33301 -7.33301 11 -15.333 11 -24z" />
    <glyph glyph-name="gbreve" unicode="&#x11f;" horiz-adv-x="920" 
d="M721 1385c0 -9.33301 -10.333 -25 -31 -47c-84.667 -91.333 -161.667 -137 -231 -137s-146 45.667 -230 137c-20 22 -30 37.667 -30 47c0 23.333 12.333 35 37 35c6.66699 0 35.667 -25 87 -75s97 -75 137 -75c38.667 0 84 25 136 75s81.333 75 88 75
c24.667 0 37 -11.667 37 -35zM870 935c0 -23.333 -11.665 -35.001 -34.998 -35.001h-170c86.667 -67.333 130 -155.666 130 -264.999c0 -134 -59.333 -232.667 -178 -296c76 -32 137.167 -82.5 183.5 -151.5s69.5 -144.833 69.5 -227.5c0 -113.333 -40 -210 -120 -290
s-176.667 -120 -290 -120s-210 40 -290 120s-120 176.667 -120 290c0 23.333 11.667 35 35 35s35 -11.667 35 -35c0 -93.333 33.333 -173.333 100 -240s146.667 -100 240 -100s173.333 33.333 240 100s100 146.667 100 240s-33.333 173.333 -100 240
s-146.334 100 -239.001 100s-171.834 32.833 -237.501 98.5s-98.5 144.5 -98.5 236.5s32.833 170.833 98.5 236.5s144.5 98.5 236.5 98.5h375c23.333 0 35 -11.667 35 -35zM725.002 634.999c0 72.667 -26 135 -78 187s-114.333 78 -187 78s-135 -26 -187 -78
s-78 -114.333 -78 -187s26 -135 78 -187s114.333 -78 187 -78s135 26 187 78s78 114.333 78 187z" />
    <glyph glyph-name="Gdot" unicode="&#x120;" horiz-adv-x="1373" 
d="M833 1723c0 -48.667 -24.333 -73 -73 -73c-48 0 -72 24.333 -72 73c0 48 24 72 72 72c48.667 0 73 -24 73 -72zM1273 1188c0 -24 -11.999 -36 -35.999 -36c-8 0 -16.333 3.66699 -25 11c-145.333 124.667 -296 187 -452 187c-176.667 0 -327.5 -62.5 -452.5 -187.5
s-187.5 -275.833 -187.5 -452.5s62.5 -327.5 187.5 -452.5s275.833 -187.5 452.5 -187.5c171.333 0 318.666 59 441.999 177v463c0 23.333 11.667 35 35 35s35 -11.667 35 -35v-478c0 -8.66699 -3.33301 -16.667 -10 -24c-56 -64 -132.667 -115.333 -230 -154
c-91.333 -36 -182 -54 -272 -54c-196 -0 -363.333 69.333 -502 208s-208 306 -208 502s69.333 363.333 208 502s306 208 502 208c202 0 369.333 -69.333 502 -208c7.33301 -7.33301 11 -15.333 11 -24z" />
    <glyph glyph-name="gdot" unicode="&#x121;" horiz-adv-x="920" 
d="M534 1346c0 -47.333 -24.667 -71 -74 -71s-74 23.667 -74 71c0 20 7.33301 37.333 22 52s32 22 52 22s37.333 -7.33301 52 -22s22 -32 22 -52zM870 935c0 -23.333 -11.665 -35.001 -34.998 -35.001h-170c86.667 -67.333 130 -155.666 130 -264.999
c0 -134 -59.333 -232.667 -178 -296c76 -32 137.167 -82.5 183.5 -151.5s69.5 -144.833 69.5 -227.5c0 -113.333 -40 -210 -120 -290s-176.667 -120 -290 -120s-210 40 -290 120s-120 176.667 -120 290c0 23.333 11.667 35 35 35s35 -11.667 35 -35
c0 -93.333 33.333 -173.333 100 -240s146.667 -100 240 -100s173.333 33.333 240 100s100 146.667 100 240s-33.333 173.333 -100 240s-146.334 100 -239.001 100s-171.834 32.833 -237.501 98.5s-98.5 144.5 -98.5 236.5s32.833 170.833 98.5 236.5s144.5 98.5 236.5 98.5
h375c23.333 0 35 -11.667 35 -35zM725.002 634.999c0 72.667 -26 135 -78 187s-114.333 78 -187 78s-135 -26 -187 -78s-78 -114.333 -78 -187s26 -135 78 -187s114.333 -78 187 -78s135 26 187 78s78 114.333 78 187z" />
    <glyph glyph-name="Gcedilla" unicode="&#x122;" horiz-adv-x="1373" 
d="M1273 1188c0 -24 -12.001 -36 -36.001 -36c-8 0 -16.333 3.66699 -25 11c-146 124.667 -296.667 187 -452 187c-176.667 0 -327.5 -62.5 -452.5 -187.5s-187.5 -275.833 -187.5 -452.5s62.5 -327.5 187.5 -452.5s275.833 -187.5 452.5 -187.5c170.667 0 318 59 442 177
v463c0 23.333 11.667 35 35 35s35 -11.667 35 -35v-478c0 -8 -3.33301 -16 -10 -24c-76.667 -92.667 -191.667 -156.334 -345 -191.001c68.667 -52 103 -121 103 -207c0 -71.333 -25.5 -132.5 -76.5 -183.5s-112.167 -76.5 -183.5 -76.5c-96.667 0 -172 43.667 -226 131
c-3.33301 5.33301 -5 11.333 -5 18c0 22.667 12.333 34 37 34c4.66699 0 25 -18.833 61 -56.5s80.333 -56.5 133 -56.5c52 0 96.667 18.667 134 56s56 82 56 134s-18.667 96.667 -56 134s-82 56 -134 56c-196 0 -363.333 69.333 -502 208s-208 306 -208 502
s69.333 363.333 208 502s306 208 502 208c92 0 182.667 -18 272 -54c92.667 -37.333 169.334 -88.666 230.001 -153.999c7.33301 -7.33301 11 -15.333 11 -24z" />
    <glyph glyph-name="gcedilla" unicode="&#x123;" horiz-adv-x="920" 
d="M691 1446c0 -22.667 -12.333 -34 -37 -34c-4 0 -24.833 18.833 -62.5 56.5s-81.5 56.5 -131.5 56.5c-52 0 -96.667 -18.667 -134 -56s-56 -82 -56 -134s18.667 -96.667 56 -134s82 -56 134 -56c23.333 0 35 -11.667 35 -35s-11.667 -35 -35 -35
c-71.333 0 -132.5 25.5 -183.5 76.5s-76.5 112.167 -76.5 183.5s25.5 132.5 76.5 183.5s112.167 76.5 183.5 76.5c102.667 0 178 -43.667 226 -131c3.33301 -6 5 -12 5 -18zM870 935c0 -23.333 -11.665 -35.001 -34.998 -35.001h-170
c86.667 -67.333 130 -155.666 130 -264.999c0 -134 -59.333 -232.667 -178 -296c76 -32 137.167 -82.5 183.5 -151.5s69.5 -144.833 69.5 -227.5c0 -113.333 -40 -210 -120 -290s-176.667 -120 -290 -120s-210 40 -290 120s-120 176.667 -120 290c0 23.333 11.667 35 35 35
s35 -11.667 35 -35c0 -93.333 33.333 -173.333 100 -240s146.667 -100 240 -100s173.333 33.333 240 100s100 146.667 100 240s-33.333 173.333 -100 240s-146.334 100 -239.001 100s-171.834 32.833 -237.501 98.5s-98.5 144.5 -98.5 236.5s32.833 170.833 98.5 236.5
s144.5 98.5 236.5 98.5h375c23.333 0 35 -11.667 35 -35zM725.002 634.999c0 72.667 -26 135 -78 187s-114.333 78 -187 78s-135 -26 -187 -78s-78 -114.333 -78 -187s26 -135 78 -187s114.333 -78 187 -78s135 26 187 78s78 114.333 78 187z" />
    <glyph glyph-name="Hcircumflex" unicode="&#x124;" horiz-adv-x="1270" 
d="M895 1686c0 -24.667 -11.333 -37 -34 -37c-7.33301 0 -14 2.33301 -20 7l-206 137l-206 -137c-6 -4.66699 -12.667 -7 -20 -7c-22.667 0 -34 12.333 -34 37c0 11.333 5.33301 20.666 16 27.999l222 148c8 6 15.333 9 22 9s14 -3 22 -9l222 -148
c10.667 -7.33301 16 -16.666 16 -27.999zM1120 35c0 -23.333 -11.667 -35 -35 -35s-35 11.667 -35 35v640h-830v-640c0 -23.333 -11.667 -35 -35 -35s-35 11.667 -35 35v1350c0 23.333 11.667 35 35 35s35 -11.667 35 -35v-640h830v640c0 23.333 11.667 35 35 35
s35 -11.667 35 -35v-1350z" />
    <glyph glyph-name="hcircumflex" unicode="&#x125;" horiz-adv-x="920" 
d="M745 1686c0 -24.667 -11.333 -37 -34 -37c-7.33301 0 -14 2.33301 -20 7l-206 137l-206 -137c-6 -4.66699 -12.667 -7 -20 -7c-22.667 0 -34 12.333 -34 37c0 11.333 5.33301 20.666 16 27.999l222 148c8 6 15.333 9 22 9s14 -3 22 -9l222 -148
c10.667 -7.33301 16 -16.666 16 -27.999zM820 35c0 -23.333 -11.666 -35 -34.999 -35s-35 11.667 -35 35v600c0 72.667 -26 135 -78 187s-114.333 78 -187 78s-135 -26 -187 -78s-78 -114.333 -78 -187v-600c0 -23.333 -11.667 -35 -35 -35s-35 11.667 -35 35v1350
c0 23.333 11.667 35 35 35s35 -11.667 35 -35v-545c67.333 86.667 155.666 130 264.999 130c92 0 170.833 -32.833 236.5 -98.5s98.5 -144.5 98.5 -236.5v-600z" />
    <glyph glyph-name="Hbar" unicode="&#x126;" horiz-adv-x="1270" 
d="M1270 1160c0 -23.333 -11.667 -35 -35 -35h-115v-1090c0 -23.333 -11.667 -35 -35 -35s-35 11.667 -35 35v640h-830v-640c0 -23.333 -11.667 -35 -35 -35s-35 11.667 -35 35v1090h-115c-23.333 0 -35 11.667 -35 35s11.667 35 35 35h115v190c0 23.333 11.667 35 35 35
s35 -11.667 35 -35v-190h830v190c0 23.333 11.667 35 35 35s35 -11.667 35 -35v-190h115c23.333 0 35 -11.667 35 -35zM1050 745v380h-830v-380h830z" />
    <glyph glyph-name="hbar" unicode="&#x127;" horiz-adv-x="995" 
d="M895 35c0 -23.333 -11.666 -35 -34.999 -35s-35 11.667 -35 35v600c0 72.667 -26 135 -78 187s-114.333 78 -187 78s-135 -26 -187 -78s-78 -114.333 -78 -187v-600c0 -23.333 -11.667 -35 -35 -35s-35 11.667 -35 35v1090h-190c-23.333 0 -35 11.667 -35 35
s11.667 35 35 35h190v190c0 23.333 11.667 35 35 35s35 -11.667 35 -35v-190h190c23.333 0 35 -11.667 35 -35s-11.667 -35 -35 -35h-190v-285c67.333 86.667 155.666 130 264.999 130c92 0 170.833 -32.833 236.5 -98.5s98.5 -144.5 98.5 -236.5v-600z" />
    <glyph glyph-name="Itilde" unicode="&#x128;" horiz-adv-x="370" 
d="M520 1761c0 -8 -3.66699 -18.333 -11 -31c-32 -53.333 -90 -80 -174 -80c-48.667 0 -102.667 25 -162 75s-105.333 75 -138 75c-47.333 0 -82.5 -12.5 -105.5 -37.5s-37.5 -37.5 -43.5 -37.5c-24 0 -36 11.333 -36 34c0 8 3.66699 18.333 11 31c32 53.333 90 80 174 80
c48.667 0 102.667 -25 162 -75s105.333 -75 138 -75c47.333 0 82.5 12.5 105.5 37.5s37.5 37.5 43.5 37.5c24 0 36 -11.333 36 -34zM220 35c0 -23.333 -11.667 -35 -35 -35s-35 11.667 -35 35v1350c0 23.333 11.667 35 35 35s35 -11.667 35 -35v-1350z" />
    <glyph glyph-name="itilde" unicode="&#x129;" horiz-adv-x="370" 
d="M520 1311c0 -8 -3.66699 -18.333 -11 -31c-32 -53.333 -90 -80 -174 -80c-48.667 0 -102.667 25 -162 75s-105.333 75 -138 75c-47.333 0 -82.5 -12.5 -105.5 -37.5s-37.5 -37.5 -43.5 -37.5c-24 0 -36 11.333 -36 34c0 8 3.66699 18.333 11 31c32 53.333 90 80 174 80
c48.667 0 102.667 -25 162 -75s105.333 -75 138 -75c47.333 0 82.5 12.5 105.5 37.5s37.5 37.5 43.5 37.5c24 0 36 -11.333 36 -34zM220 935v-900c0 -23.333 -11.667 -35 -35 -35s-35 11.667 -35 35v900c0 23.333 11.667 35 35 35s35 -11.667 35 -35z" />
    <glyph glyph-name="Imacron" unicode="&#x12a;" horiz-adv-x="370" 
d="M445 1760c0 -23.333 -11.667 -35 -35 -35h-450c-23.333 0 -35 11.667 -35 35s11.667 35 35 35h450c23.333 0 35 -11.667 35 -35zM220 35c0 -23.333 -11.667 -35 -35 -35s-35 11.667 -35 35v1350c0 23.333 11.667 35 35 35s35 -11.667 35 -35v-1350z" />
    <glyph glyph-name="imacron" unicode="&#x12b;" horiz-adv-x="370" 
d="M395 1310c0 -23.333 -11.667 -35 -35 -35h-350c-23.333 0 -35 11.667 -35 35s11.667 35 35 35h350c23.333 0 35 -11.667 35 -35zM220 935v-900c0 -23.333 -11.667 -35 -35 -35s-35 11.667 -35 35v900c0 23.333 11.667 35 35 35s35 -11.667 35 -35z" />
    <glyph glyph-name="Ibreve" unicode="&#x12c;" horiz-adv-x="370" 
d="M446 1835c0 -9.33301 -10.333 -25 -31 -47c-84.667 -91.333 -161.667 -137 -231 -137s-146 45.667 -230 137c-20 22 -30 37.667 -30 47c0 23.333 12.333 35 37 35c6.66699 0 35.667 -25 87 -75s97 -75 137 -75c38.667 0 84 25 136 75s81.333 75 88 75
c24.667 0 37 -11.667 37 -35zM220 35c0 -23.333 -11.667 -35 -35 -35s-35 11.667 -35 35v1350c0 23.333 11.667 35 35 35s35 -11.667 35 -35v-1350z" />
    <glyph glyph-name="ibreve" unicode="&#x12d;" horiz-adv-x="370" 
d="M446 1385c0 -9.33301 -10.333 -25 -31 -47c-84.667 -91.333 -161.667 -137 -231 -137s-146 45.667 -230 137c-20 22 -30 37.667 -30 47c0 23.333 12.333 35 37 35c6.66699 0 35.667 -25 87 -75s97 -75 137 -75c38.667 0 84 25 136 75s81.333 75 88 75
c24.667 0 37 -11.667 37 -35zM220 935v-900c0 -23.333 -11.667 -35 -35 -35s-35 11.667 -35 35v900c0 23.333 11.667 35 35 35s35 -11.667 35 -35z" />
    <glyph glyph-name="Iogonek" unicode="&#x12e;" horiz-adv-x="370" 
d="M416 -301c0 -6 -1.66797 -12 -5.00098 -18c-47.333 -87.333 -122.666 -131 -225.999 -131c-71.333 0 -132.5 25.5 -183.5 76.5s-76.5 112.167 -76.5 183.5c0 64.667 21.5 121.667 64.5 171s96.5 78.333 160.5 87v1317c0 23.333 11.667 35 35 35s35 -11.667 35 -35v-1350
c0 -23.333 -11.667 -35 -35 -35c-52 -0 -96.667 -18.667 -134 -56s-56 -82 -56 -134s18.667 -96.667 56 -134s82 -56 134 -56c50.667 0 94.5 18.833 131.5 56.5s57.833 56.5 62.5 56.5c24.667 0 37 -11.333 37 -34z" />
    <glyph glyph-name="iogonek" unicode="&#x12f;" horiz-adv-x="370" 
d="M259 1346c0 -47.333 -24.667 -71 -74 -71s-74 23.667 -74 71c0 20 7.33301 37.333 22 52s32 22 52 22s37.333 -7.33301 52 -22s22 -32 22 -52zM416 -301c0 -6 -1.66797 -12 -5.00098 -18c-47.333 -87.333 -122.666 -131 -225.999 -131c-71.333 0 -132.5 25.5 -183.5 76.5
s-76.5 112.167 -76.5 183.5c0 64.667 21.5 121.667 64.5 171s96.5 78.333 160.5 87v867c0 23.333 11.667 35 35 35s35 -11.667 35 -35v-900c0 -23.333 -11.667 -35 -35 -35c-52 -0 -96.667 -18.667 -134 -56s-56 -82 -56 -134s18.667 -96.667 56 -134s82 -56 134 -56
c50.667 0 94.5 18.833 131.5 56.5s57.833 56.5 62.5 56.5c24.667 0 37 -11.333 37 -34z" />
    <glyph glyph-name="Idotaccent" unicode="&#x130;" horiz-adv-x="370" 
d="M257 1723c0 -48.667 -24.333 -73 -73 -73c-48 0 -72 24.333 -72 73c0 48 24 72 72 72c48.667 0 73 -24 73 -72zM219 35c0 -23.333 -11.333 -35 -34 -35c-23.333 0 -35 11.667 -35 35l-1 1350c0 23.333 11.667 35 35 35s35 -11.667 35 -35v-1350z" />
    <glyph glyph-name="dotlessi" unicode="&#x131;" horiz-adv-x="370" 
d="M220 935v-900c0 -23.333 -11.667 -35 -35 -35s-35 11.667 -35 35v900c0 23.333 11.667 35 35 35s35 -11.667 35 -35z" />
    <glyph glyph-name="IJ" unicode="&#x132;" horiz-adv-x="970" 
d="M820 1385l-0.00195312 -1500c0 -92 -32.833 -170.833 -98.5 -236.5s-144.5 -98.5 -236.5 -98.5c-59.333 0 -115.666 15.333 -168.999 46s-93.666 71.667 -120.999 123c-4 6 -6 12 -6 18c0 22.667 12.333 34 37 34c8.66699 0 24 -13 46 -39
c27.333 -33.333 52.333 -57.666 75 -72.999c39.333 -26 85.333 -39 138 -39c72.667 0 135 26 187 78s78 114.333 78 187v1500c0 23.333 11.667 35 35 35s35 -11.667 35 -35zM219.998 34.999c0 -23.333 -11.667 -35 -35 -35s-35 11.667 -35 35v1350c0 23.333 11.667 35 35 35
s35 -11.667 35 -35v-1350z" />
    <glyph glyph-name="ij" unicode="&#x133;" horiz-adv-x="820" 
d="M709 1346c0 -47.333 -24.667 -71 -74 -71s-74 23.667 -74 71c0 20 7.33301 37.333 22 52s32 22 52 22s37.333 -7.33301 52 -22s22 -32 22 -52zM259 1346c0 -47.333 -24.667 -71 -74 -71s-74 23.667 -74 71c0 20 7.33301 37.333 22 52s32 22 52 22s37.333 -7.33301 52 -22
s22 -32 22 -52zM670 -190c0 -71.333 -25.499 -132.5 -76.499 -183.5s-112.167 -76.5 -183.5 -76.5c-78.667 0 -140 25.333 -184 76c-7.33301 8.66699 -11 16.667 -11 24c0 24 12 36 36 36c1.33301 0 19.666 -11 54.999 -33s70 -33 104 -33c52 0 96.667 18.667 134 56
s56 82 56 134v1125c0 23.333 11.667 35 35 35s35 -11.667 35 -35v-1125zM220.001 935v-900c0 -23.333 -11.667 -35 -35 -35s-35 11.667 -35 35v900c0 23.333 11.667 35 35 35s35 -11.667 35 -35z" />
    <glyph glyph-name="Jcircumflex" unicode="&#x134;" horiz-adv-x="680" 
d="M530 1686c0 -24.667 -11.666 -37 -34.999 -37c-6.66699 0 -13.334 2.33301 -20.001 7l-206 137l-205 -137c-6.66699 -4.66699 -13.334 -7 -20.001 -7c-23.333 0 -35 12.333 -35 37c0 11.333 5.33301 20.666 16 27.999l222 148c8.66699 6 16 9 22 9
c6.66699 0 14.334 -3 23.001 -9l222 -148c10.667 -7.33301 16 -16.666 16 -27.999zM529.001 1385l0.000976562 -1500c0 -92 -32.667 -170.833 -98 -236.5s-144.333 -98.5 -237 -98.5c-58.667 0 -114.667 15.333 -168 46s-94 71.667 -122 123c-3.33301 6 -5 12 -5 18
c0 22.667 12.333 34 37 34c8.66699 0 23.667 -13 45 -39c27.333 -33.333 52.666 -57.666 75.999 -72.999c39.333 -26 85 -39 137 -39c73.333 0 135.833 26 187.5 78s77.5 114.333 77.5 187v1500c0 23.333 11.667 35 35 35s35 -11.667 35 -35z" />
    <glyph glyph-name="jcircumflex" unicode="&#x135;" horiz-adv-x="370" 
d="M445 1236c0 -24.667 -11.333 -37 -34 -37c-7.33301 0 -14 2.33301 -20 7l-206 137l-206 -137c-6 -4.66699 -12.667 -7 -20 -7c-23.333 0 -35 12.333 -35 37c0 11.333 5.66699 20.666 17 27.999l222 148c8 6 15.333 9 22 9s14 -3 22 -9l222 -148
c10.667 -7.33301 16 -16.666 16 -27.999zM220 -190c0 -71.333 -25.499 -132.5 -76.499 -183.5s-112.167 -76.5 -183.5 -76.5c-78.667 0 -140 25.333 -184 76c-7.33301 8.66699 -11 16.667 -11 24c0 24 12 36 36 36c1.33301 0 19.666 -11 54.999 -33s70 -33 104 -33
c52 0 96.667 18.667 134 56s56 82 56 134v1125c0 23.333 11.667 35 35 35s35 -11.667 35 -35v-1125z" />
    <glyph glyph-name="Kcedilla" unicode="&#x136;" horiz-adv-x="1016" 
d="M966 1385c0 -9.33301 -3.66699 -17.666 -11 -24.999l-650 -650l650 -650c7.33301 -7.33301 11 -15.666 11 -24.999c0 -24 -12 -36 -36 -36c-8.66699 0 -16.667 3.66699 -24 11l-675 675c-7.33301 7.33301 -11 15.666 -11 24.999v-675c0 -23.333 -11.667 -35 -35 -35
s-35 11.667 -35 35v1350c0 23.333 11.667 35 35 35s35 -11.667 35 -35v-675c0 9.33301 3.66699 17.666 11 24.999l675 675c7.33301 7.33301 15.333 11 24 11c24 0 36 -12 36 -36zM820 -190c0 -71.333 -25.333 -132.5 -76 -183.5s-112 -76.5 -184 -76.5
c-102.667 0 -177.667 43.667 -225 131c-3.33301 6 -5 12 -5 18c0 22.667 12 34 36 34c4 0 25 -18.833 63 -56.5s81.667 -56.5 131 -56.5c52.667 0 97.5 18.667 134.5 56s55.5 82 55.5 134s-18.5 96.667 -55.5 134s-81.833 56 -134.5 56c-23.333 0 -35 11.667 -35 35
s11.667 35 35 35c72 0 133.333 -25.5 184 -76.5s76 -112.167 76 -183.5z" />
    <glyph glyph-name="kcedilla" unicode="&#x137;" horiz-adv-x="791" 
d="M741 35c0 -24 -12 -36.002 -36 -36.002c-9.33301 0 -17.666 3.66699 -24.999 11l-450 450c-7.33301 7.33301 -11 15 -11 23c0 10.667 3.66699 19.667 11 27l450 450c7.33301 7.33301 15.666 11 24.999 11c24 0 36 -12 36 -36c0 -9.33301 -3.66699 -17.666 -11 -24.999
l-426 -425l426 -425c7.33301 -7.33301 11 -15.666 11 -24.999zM220 1385v-1350c0 -23.333 -11.667 -35 -35 -35s-35 11.667 -35 35v1350c0 23.333 11.667 35 35 35s35 -11.667 35 -35zM680 -190.002c0 -71.333 -25.5 -132.5 -76.5 -183.5s-112.167 -76.5 -183.5 -76.5
c-102.667 0 -177.667 43.667 -225 131c-4 6 -6 12 -6 18c0 22.667 12.333 34 37 34c4 0 25 -18.833 63 -56.5s81.667 -56.5 131 -56.5c52 0 96.667 18.667 134 56s56 82 56 134s-18.667 96.667 -56 134s-82 56 -134 56c-23.333 0 -35 11.667 -35 35s11.667 35 35 35
c71.333 0 132.5 -25.5 183.5 -76.5s76.5 -112.167 76.5 -183.5z" />
    <glyph glyph-name="kgreenlandic" unicode="&#x138;" horiz-adv-x="791" 
d="M741 35c0 -24 -12 -36.002 -36 -36.002c-9.33301 0 -17.666 3.66699 -24.999 11l-450 450c-6.66699 6.66699 -10 15 -10 25s3.33301 18.333 10 25l450 450c7.33301 7.33301 15.666 11 24.999 11c24 0 36 -12 36 -36c0 -9.33301 -3.66699 -17.666 -11 -24.999l-426 -425
l426 -425c7.33301 -7.33301 11 -15.666 11 -24.999zM220 34.998c0 -23.333 -11.667 -35 -35 -35s-35 11.667 -35 35v900c0 23.333 11.667 35 35 35s35 -11.667 35 -35v-900z" />
    <glyph glyph-name="Lacute" unicode="&#x139;" horiz-adv-x="1020" 
d="M745 1834c0 -12 -6.33301 -22 -19 -30c-22 -13.333 -76.667 -41.666 -164 -84.999c-93.333 -46.667 -144.333 -70 -153 -70c-22.667 0 -34 12.333 -34 37c0 12 6.33301 22 19 30c22 13.333 76.667 41.666 164 84.999c93.333 46.667 144.333 70 153 70
c22.667 0 34 -12.333 34 -37zM970 35c0 -23.333 -11.667 -35 -35 -35h-750c-23.333 0 -35 11.667 -35 35v1350c0 23.333 11.667 35 35 35s35 -11.667 35 -35v-1315h715c23.333 0 35 -11.667 35 -35z" />
    <glyph glyph-name="lacute" unicode="&#x13a;" horiz-adv-x="521" 
d="M471 1834c0 -12 -6.66797 -22 -20.001 -30c-21.333 -13.333 -76 -41.666 -164 -84.999c-93.333 -46.667 -144.333 -70 -153 -70c-22.667 0 -34 12.333 -34 37c0 12 6.66699 22 20 30c21.333 13.333 76 41.666 164 84.999c92.667 46.667 143.334 70 152.001 70
c23.333 0 35 -12.333 35 -37zM394.999 35c0 -23.333 -11.667 -35 -35 -35c-71.333 0 -132.5 25.5 -183.5 76.5s-76.5 112.167 -76.5 183.5v1125c0 23.333 11.667 35 35 35s35 -11.667 35 -35v-1125c0 -52 18.667 -96.667 56 -134s82 -56 134 -56c23.333 0 35 -11.667 35 -35
z" />
    <glyph glyph-name="Lcedilla" unicode="&#x13b;" horiz-adv-x="1020" 
d="M970 35c0 -23.333 -11.667 -35.001 -35 -35.001h-198c55.333 -51.333 83 -114.666 83 -189.999c0 -71.333 -25.5 -132.5 -76.5 -183.5s-112.167 -76.5 -183.5 -76.5c-104.667 0 -180 43.667 -226 131c-3.33301 6 -5 12 -5 18c0 22.667 12.333 34 37 34
c4 0 24.5 -18.833 61.5 -56.5s81.167 -56.5 132.5 -56.5c52 0 96.667 18.667 134 56s56 82 56 134s-18.667 96.667 -56 134s-82 56 -134 56h-375c-23.333 0 -35 11.667 -35 35v1350c0 23.333 11.667 35 35 35s35 -11.667 35 -35v-1315h715c23.333 0 35 -11.667 35 -35z" />
    <glyph glyph-name="lcedilla" unicode="&#x13c;" horiz-adv-x="670" 
d="M620 -190c0 -71.333 -25.5 -132.5 -76.5 -183.5s-112.167 -76.5 -183.5 -76.5c-102 0 -177.333 43.667 -226 131c-3.33301 6 -5 12 -5 18c0 22.667 12.333 34 37 34c4 0 25 -18.833 63 -56.5s81.667 -56.5 131 -56.5c52 0 96.667 18.667 134 56s56 82 56 134
s-18.667 96.667 -56 134s-82 56 -134 56c-71.333 0 -132.5 25.5 -183.5 76.5s-76.5 112.167 -76.5 183.5v1125c0 23.333 11.667 35 35 35s35 -11.667 35 -35v-1125c0 -52 18.667 -96.667 56 -134s82 -56 134 -56c71.333 0 132.5 -25.5 183.5 -76.5
s76.5 -112.167 76.5 -183.5z" />
    <glyph glyph-name="Lcaron" unicode="&#x13d;" horiz-adv-x="1020" 
d="M820 1834c0 -11.333 -5.33301 -20.666 -16 -27.999l-222 -148c-8 -6 -15.333 -9 -22 -9s-14 3 -22 9l-222 148c-10.667 7.33301 -16 16.666 -16 27.999c0 24.667 11.333 37 34 37c7.33301 0 14 -2.33301 20 -7l206 -137l206 137c6 4.66699 12.667 7 20 7
c22.667 0 34 -12.333 34 -37zM970 35c0 -23.333 -11.667 -35 -35 -35h-750c-23.333 0 -35 11.667 -35 35v1350c0 23.333 11.667 35 35 35s35 -11.667 35 -35v-1315h715c23.333 0 35 -11.667 35 -35z" />
    <glyph glyph-name="lcaron" unicode="&#x13e;" horiz-adv-x="445" 
d="M395 1834c0 -11.333 -5.33301 -20.666 -16 -27.999l-222 -148c-8 -6 -15.333 -9 -22 -9s-14 3 -22 9l-222 148c-10.667 7.33301 -16 16.666 -16 27.999c0 24.667 11.333 37 34 37c7.33301 0 14 -2.33301 20 -7l206 -137l206 137c6 4.66699 12.667 7 20 7
c22.667 0 34 -12.333 34 -37zM395 35c0 -23.333 -11.667 -35 -35 -35c-71.333 0 -132.5 25.5 -183.5 76.5s-76.5 112.167 -76.5 183.5v1125c0 23.333 11.667 35 35 35s35 -11.667 35 -35v-1125c0 -52 18.667 -96.667 56 -134s82 -56 134 -56c23.333 0 35 -11.667 35 -35z
" />
    <glyph glyph-name="Ldot" unicode="&#x13f;" horiz-adv-x="1020" 
d="M783 710c0 -48.667 -24.333 -73 -73 -73c-48 0 -72 24.333 -72 73c0 48 24 72 72 72c48.667 0 73 -24 73 -72zM970 35c0 -23.333 -11.667 -35 -35 -35h-750c-23.333 0 -35 11.667 -35 35v1350c0 23.333 11.667 35 35 35s35 -11.667 35 -35v-1315h715
c23.333 0 35 -11.667 35 -35z" />
    <glyph glyph-name="ldot" unicode="&#x140;" horiz-adv-x="520" 
d="M470 710c0 -48.667 -24.333 -73 -73 -73c-48 0 -72 24.333 -72 73c0 48 24 72 72 72c48.667 0 73 -24 73 -72zM395 35c0 -23.333 -11.667 -35 -35 -35c-71.333 0 -132.5 25.5 -183.5 76.5s-76.5 112.167 -76.5 183.5v1125c0 23.333 11.667 35 35 35s35 -11.667 35 -35
v-1125c0 -52 18.667 -96.667 56 -134s82 -56 134 -56c23.333 0 35 -11.667 35 -35z" />
    <glyph glyph-name="Lslash" unicode="&#x141;" horiz-adv-x="1095" 
d="M1045 35c0 -23.333 -11.666 -35 -34.999 -35h-750c-23.333 0 -35 11.667 -35 35v626c-122.667 -40.667 -186.334 -61 -191.001 -61c-22.667 0 -34 12 -34 36c0 16 8 26.667 24 32l201 67v650c0 23.333 11.667 35 35 35s35 -11.667 35 -35v-626
c123.333 40.667 187.333 61 192 61c22 0 33 -12 33 -36c0 -16 -8 -26.667 -24 -32l-201 -67v-615h715c23.333 0 35 -11.667 35 -35z" />
    <glyph glyph-name="lslash" unicode="&#x142;" horiz-adv-x="570" 
d="M520 784c0 -16 -7.99902 -26.667 -23.999 -32l-201 -67v-425c0 -52 18.667 -96.667 56 -134s82 -56 134 -56c23.333 0 35 -11.667 35 -35s-11.667 -35 -35 -35c-71.333 0 -132.5 25.5 -183.5 76.5s-76.5 112.167 -76.5 183.5v401
c-122.667 -40.667 -186.334 -61 -191.001 -61c-22.667 0 -34 12 -34 36c0 16 8 26.667 24 32l201 67v650c0 23.333 11.667 35 35 35s35 -11.667 35 -35v-626c123.333 40.667 187.333 61 192 61c22 0 33 -12 33 -36z" />
    <glyph glyph-name="Nacute" unicode="&#x143;" horiz-adv-x="1421" 
d="M896 1834c0 -12 -6.66602 -22 -19.999 -30c-21.333 -13.333 -76 -41.666 -164 -84.999c-92.667 -46.667 -143.334 -70 -152.001 -70c-23.333 0 -35 12.333 -35 37c0 12 6.66699 22 20 30c21.333 13.333 76 41.666 164 84.999c93.333 46.667 144.333 70 153 70
c22.667 0 34 -12.333 34 -37zM1271 35c0 -23.333 -12 -35 -36 -35c-10.667 0 -21 6 -31 18l-983 1265v-1248c0 -23.333 -11.667 -35 -35 -35s-35 11.667 -35 35l-1 1350c0 23.333 12 35 36 35c10.667 0 21 -6 31 -18l984 -1265v1248c0 23.333 11.667 35 35 35
s35 -11.667 35 -35v-1350z" />
    <glyph glyph-name="nacute" unicode="&#x144;" horiz-adv-x="920" 
d="M670 1384c0 -12 -6.33301 -22 -19 -30c-22 -13.333 -76.667 -41.666 -164 -84.999c-93.333 -46.667 -144.333 -70 -153 -70c-22.667 0 -34 12.333 -34 37c0 12 6.33301 22 19 30c22 13.333 76.667 41.666 164 84.999c93.333 46.667 144.333 70 153 70
c22.667 0 34 -12.333 34 -37zM820 35c0 -23.333 -11.666 -35 -34.999 -35s-35 11.667 -35 35v600c0 72.667 -26 135 -78 187s-114.333 78 -187 78s-135 -26 -187 -78s-78 -114.333 -78 -187v-600c0 -23.333 -11.667 -35 -35 -35s-35 11.667 -35 35v900
c0 23.333 11.667 35 35 35s35 -11.667 35 -35v-95c67.333 86.667 155.666 130 264.999 130c92 0 170.833 -32.833 236.5 -98.5s98.5 -144.5 98.5 -236.5v-600z" />
    <glyph glyph-name="Ncedilla" unicode="&#x145;" horiz-adv-x="1421" 
d="M1271 35c0 -23.333 -12 -35 -36 -35c-10.667 0 -21 6 -31 18l-983 1265v-1248c0 -23.333 -11.667 -35 -35 -35s-35 11.667 -35 35l-1 1350c0 23.333 12 35 36 35c10.667 0 21 -6 31 -18l984 -1265v1248c0 23.333 11.667 35 35 35s35 -11.667 35 -35v-1350zM971 -190
c0 -71.333 -25.5 -132.5 -76.5 -183.5s-112.167 -76.5 -183.5 -76.5c-102.667 0 -178 43.667 -226 131c-3.33301 6 -5 12 -5 18c0 22.667 12.333 34 37 34c4 0 24.833 -18.833 62.5 -56.5s81.5 -56.5 131.5 -56.5c52 0 96.667 18.667 134 56s56 82 56 134
s-18.667 96.667 -56 134s-82 56 -134 56c-23.333 0 -35 11.667 -35 35s11.667 35 35 35c71.333 0 132.5 -25.5 183.5 -76.5s76.5 -112.167 76.5 -183.5z" />
    <glyph glyph-name="ncedilla" unicode="&#x146;" horiz-adv-x="920" 
d="M820 35c0 -23.333 -11.666 -35 -34.999 -35s-35 11.667 -35 35v600c0 72.667 -26 135 -78 187s-114.333 78 -187 78s-135 -26 -187 -78s-78 -114.333 -78 -187v-600c0 -23.333 -11.667 -35 -35 -35s-35 11.667 -35 35v900c0 23.333 11.667 35 35 35s35 -11.667 35 -35
v-95c67.333 86.667 155.666 130 264.999 130c92 0 170.833 -32.833 236.5 -98.5s98.5 -144.5 98.5 -236.5v-600zM745.001 -190c0 -71.333 -25.5 -132.5 -76.5 -183.5s-112.167 -76.5 -183.5 -76.5c-102.667 0 -178 43.667 -226 131c-3.33301 6 -5 12 -5 18
c0 22.667 12.333 34 37 34c4 0 24.833 -18.833 62.5 -56.5s81.5 -56.5 131.5 -56.5c52 0 96.667 18.667 134 56s56 82 56 134s-18.667 96.667 -56 134s-82 56 -134 56c-23.333 0 -35 11.667 -35 35s11.667 35 35 35c71.333 0 132.5 -25.5 183.5 -76.5
s76.5 -112.167 76.5 -183.5z" />
    <glyph glyph-name="Ncaron" unicode="&#x147;" horiz-adv-x="1421" 
d="M971 1834c0 -11.333 -5.33398 -20.666 -16.001 -27.999l-222 -148c-8.66699 -6 -16 -9 -22 -9c-6.66699 0 -14.334 3 -23.001 9l-222 148c-10.667 7.33301 -16 16.666 -16 27.999c0 24.667 11.667 37 35 37c6.66699 0 13.334 -2.33301 20.001 -7l206 -137l205 137
c6.66699 4.66699 13.334 7 20.001 7c23.333 0 35 -12.333 35 -37zM1271 35c0 -23.333 -12 -35 -36 -35c-10.667 0 -21 6 -31 18l-983 1265v-1248c0 -23.333 -11.667 -35 -35 -35s-35 11.667 -35 35l-1 1350c0 23.333 12 35 36 35c10.667 0 21 -6 31 -18l984 -1265v1248
c0 23.333 11.667 35 35 35s35 -11.667 35 -35v-1350z" />
    <glyph glyph-name="ncaron" unicode="&#x148;" horiz-adv-x="920" 
d="M745 1384c0 -11.333 -5.33301 -20.666 -16 -27.999l-222 -148c-8 -6 -15.333 -9 -22 -9s-14 3 -22 9l-222 148c-10.667 7.33301 -16 16.666 -16 27.999c0 24.667 11.333 37 34 37c7.33301 0 14 -2.33301 20 -7l206 -137l206 137c6 4.66699 12.667 7 20 7
c22.667 0 34 -12.333 34 -37zM820 35c0 -23.333 -11.666 -35 -34.999 -35s-35 11.667 -35 35v600c0 72.667 -26 135 -78 187s-114.333 78 -187 78s-135 -26 -187 -78s-78 -114.333 -78 -187v-600c0 -23.333 -11.667 -35 -35 -35s-35 11.667 -35 35v900
c0 23.333 11.667 35 35 35s35 -11.667 35 -35v-95c67.333 86.667 155.666 130 264.999 130c92 0 170.833 -32.833 236.5 -98.5s98.5 -144.5 98.5 -236.5v-600z" />
    <glyph glyph-name="napostrophe" unicode="&#x149;" horiz-adv-x="1020" 
d="M271 1386c0 -6.66699 -23.332 -69.334 -69.999 -188.001s-74.334 -185.5 -83.001 -200.5s-19 -22.5 -31 -22.5c-24.667 0 -37 11.333 -37 34c0 6.66699 23.333 69.334 70 188.001s74.167 185.5 82.5 200.5s18.833 22.5 31.5 22.5c24.667 0 37 -11.333 37 -34zM920.001 35
c0 -23.333 -11.666 -35 -34.999 -35s-35 11.667 -35 35v600c0 72.667 -25.833 135 -77.5 187s-114.167 78 -187.5 78c-72.667 0 -135 -26 -187 -78s-78 -114.333 -78 -187v-600c0 -23.333 -11.667 -35 -35 -35s-35 11.667 -35 35v900c0 23.333 11.667 35 35 35
s35 -11.667 35 -35v-95c67.333 86.667 155.666 130 264.999 130c92.667 0 171.667 -32.833 237 -98.5s98 -144.5 98 -236.5v-600z" />
    <glyph glyph-name="Eng" unicode="&#x14a;" horiz-adv-x="1421" 
d="M1271 1385v-1500c0 -92 -33 -170.833 -99 -236.5s-144.667 -98.5 -236 -98.5c-59.333 0 -115.333 15 -168 45c-55.333 31.333 -96.333 72.666 -123 123.999c-3.33301 6 -5 12 -5 18c0 22.667 12.333 34 37 34c8 0 23.333 -13 46 -39
c28 -33.333 53.667 -57.666 77 -72.999c40 -26 85.333 -39 136 -39c72.667 0 135 26 187 78s78 114.333 78 187v138l-980 1260v-1248c0 -23.333 -11.667 -35 -35 -35s-35 11.667 -35 35l-1 1350c0 23.333 12 35 36 35c10.667 0 21 -6 31 -18l984 -1265v1248
c0 23.333 11.667 35 35 35s35 -11.667 35 -35z" />
    <glyph glyph-name="eng" unicode="&#x14b;" horiz-adv-x="920" 
d="M820 -190c0 -71.333 -25.5 -132.5 -76.5 -183.5s-112.167 -76.5 -183.5 -76.5c-76.667 0 -138 25.333 -184 76c-7.33301 8 -11 16 -11 24c0 24 12 36 36 36c2 0 20.333 -11 55 -33s69.334 -33 104.001 -33c52 0 96.667 18.667 134 56s56 82 56 134v825
c0 72.667 -26 135 -78 187s-114.333 78 -187 78s-135 -26 -187 -78s-78 -114.333 -78 -187v-600c0 -23.333 -11.667 -35 -35 -35s-35 11.667 -35 35v900c0 23.333 11.667 35 35 35s35 -11.667 35 -35v-95c67.333 86.667 155.666 130 264.999 130
c92 0 170.833 -32.833 236.5 -98.5s98.5 -144.5 98.5 -236.5v-825z" />
    <glyph glyph-name="Omacron" unicode="&#x14c;" horiz-adv-x="1520" 
d="M1470 1760c0 -23.333 -11.667 -35 -35 -35h-1350c-23.333 0 -35 11.667 -35 35s11.667 35 35 35h1350c23.333 0 35 -11.667 35 -35zM1470 710c0 -196 -69.333 -363.333 -208 -502s-306 -208 -502 -208s-363.333 69.333 -502 208s-208 306 -208 502
s69.333 363.333 208 502s306 208 502 208s363.333 -69.333 502 -208s208 -306 208 -502zM1400 710c0 176.667 -62.5 327.5 -187.5 452.5s-275.833 187.5 -452.5 187.5s-327.5 -62.5 -452.5 -187.5s-187.5 -275.833 -187.5 -452.5s62.5 -327.5 187.5 -452.5
s275.833 -187.5 452.5 -187.5s327.5 62.5 452.5 187.5s187.5 275.833 187.5 452.5z" />
    <glyph glyph-name="omacron" unicode="&#x14d;" 
d="M1020 1310c0 -23.333 -11.667 -35 -35 -35h-900c-23.333 0 -35 11.667 -35 35s11.667 35 35 35h900c23.333 0 35 -11.667 35 -35zM1020 485c0 -134 -47.333 -248.333 -142 -343s-209 -142 -343 -142s-248.333 47.333 -343 142s-142 209 -142 343s47.333 248.333 142 343
s209 142 343 142s248.333 -47.333 343 -142s142 -209 142 -343zM950 485c0 114.667 -40.5 212.5 -121.5 293.5s-178.833 121.5 -293.5 121.5s-212.5 -40.5 -293.5 -121.5s-121.5 -178.833 -121.5 -293.5s40.5 -212.5 121.5 -293.5s178.833 -121.5 293.5 -121.5
s212.5 40.5 293.5 121.5s121.5 178.833 121.5 293.5z" />
    <glyph glyph-name="Obreve" unicode="&#x14e;" horiz-adv-x="1520" 
d="M1021 1835c0 -9.33301 -10.333 -25 -31 -47c-84.667 -91.333 -161.334 -137 -230.001 -137c-69.333 0 -146.333 45.667 -231 137c-20 22 -30 37.667 -30 47c0 23.333 12.333 35 37 35c6.66699 0 35.834 -25 87.501 -75s97.167 -75 136.5 -75c38.667 0 84 25 136 75
s81.333 75 88 75c24.667 0 37 -11.667 37 -35zM1470 710c0 -196 -69.333 -363.333 -208 -502s-306 -208 -502 -208s-363.333 69.333 -502 208s-208 306 -208 502s69.333 363.333 208 502s306 208 502 208s363.333 -69.333 502 -208s208 -306 208 -502zM1400 710
c0 176.667 -62.5 327.5 -187.5 452.5s-275.833 187.5 -452.5 187.5s-327.5 -62.5 -452.5 -187.5s-187.5 -275.833 -187.5 -452.5s62.5 -327.5 187.5 -452.5s275.833 -187.5 452.5 -187.5s327.5 62.5 452.5 187.5s187.5 275.833 187.5 452.5z" />
    <glyph glyph-name="obreve" unicode="&#x14f;" 
d="M796 1385c0 -9.33301 -10.333 -25 -31 -47c-84.667 -91.333 -161.667 -137 -231 -137s-146 45.667 -230 137c-20 22 -30 37.667 -30 47c0 23.333 12.333 35 37 35c6.66699 0 35.667 -25 87 -75s97 -75 137 -75c38.667 0 84 25 136 75s81.333 75 88 75
c24.667 0 37 -11.667 37 -35zM1020 485c0 -134 -47.333 -248.333 -142 -343s-209 -142 -343 -142s-248.333 47.333 -343 142s-142 209 -142 343s47.333 248.333 142 343s209 142 343 142s248.333 -47.333 343 -142s142 -209 142 -343zM950 485
c0 114.667 -40.5 212.5 -121.5 293.5s-178.833 121.5 -293.5 121.5s-212.5 -40.5 -293.5 -121.5s-121.5 -178.833 -121.5 -293.5s40.5 -212.5 121.5 -293.5s178.833 -121.5 293.5 -121.5s212.5 40.5 293.5 121.5s121.5 178.833 121.5 293.5z" />
    <glyph glyph-name="Odblacute" unicode="&#x150;" horiz-adv-x="1520" 
d="M1170 1834c0 -12 -6.33301 -22 -19 -30c-22 -13.333 -76.667 -41.666 -164 -84.999c-93.333 -46.667 -144.333 -70 -153 -70c-22.667 0 -34 12.333 -34 37c0 12 6.33301 22 19 30c22 13.333 76.667 41.666 164 84.999c93.333 46.667 144.333 70 153 70
c22.667 0 34 -12.333 34 -37zM720 1834c0 -12 -6.33301 -22 -19 -30c-22 -13.333 -76.667 -41.666 -164 -84.999c-93.333 -46.667 -144.333 -70 -153 -70c-22.667 0 -34 12.333 -34 37c0 12 6.33301 22 19 30c22 13.333 76.667 41.666 164 84.999
c93.333 46.667 144.333 70 153 70c22.667 0 34 -12.333 34 -37zM1470 710c0 -196 -69.333 -363.333 -208 -502s-306 -208 -502 -208s-363.333 69.333 -502 208s-208 306 -208 502s69.333 363.333 208 502s306 208 502 208s363.333 -69.333 502 -208s208 -306 208 -502z
M1400 710c0 176.667 -62.5 327.5 -187.5 452.5s-275.833 187.5 -452.5 187.5s-327.5 -62.5 -452.5 -187.5s-187.5 -275.833 -187.5 -452.5s62.5 -327.5 187.5 -452.5s275.833 -187.5 452.5 -187.5s327.5 62.5 452.5 187.5s187.5 275.833 187.5 452.5z" />
    <glyph glyph-name="odblacute" unicode="&#x151;" 
d="M945 1384c0 -12 -6.33301 -22 -19 -30c-22 -13.333 -76.667 -41.666 -164 -84.999c-93.333 -46.667 -144.333 -70 -153 -70c-22.667 0 -34 12.333 -34 37c0 12 6.33301 22 19 30c22 13.333 76.667 41.666 164 84.999c93.333 46.667 144.333 70 153 70
c22.667 0 34 -12.333 34 -37zM495 1384c0 -12 -6.33301 -22 -19 -30c-22 -13.333 -76.667 -41.666 -164 -84.999c-93.333 -46.667 -144.333 -70 -153 -70c-22.667 0 -34 12.333 -34 37c0 12 6.33301 22 19 30c22 13.333 76.667 41.666 164 84.999
c93.333 46.667 144.333 70 153 70c22.667 0 34 -12.333 34 -37zM1020 485c0 -134 -47.333 -248.333 -142 -343s-209 -142 -343 -142s-248.333 47.333 -343 142s-142 209 -142 343s47.333 248.333 142 343s209 142 343 142s248.333 -47.333 343 -142s142 -209 142 -343z
M950 485c0 114.667 -40.5 212.5 -121.5 293.5s-178.833 121.5 -293.5 121.5s-212.5 -40.5 -293.5 -121.5s-121.5 -178.833 -121.5 -293.5s40.5 -212.5 121.5 -293.5s178.833 -121.5 293.5 -121.5s212.5 40.5 293.5 121.5s121.5 178.833 121.5 293.5z" />
    <glyph glyph-name="OE" unicode="&#x152;" horiz-adv-x="2270" 
d="M2220 35c0 -23.333 -11.667 -34.998 -35 -34.998h-750c-23.333 0 -35 11.667 -35 35v367c-59.333 -122.667 -146.833 -220.334 -262.5 -293.001s-241.5 -109 -377.5 -109c-196 0 -363.333 69.333 -502 208s-208 306 -208 502s69.333 363.333 208 502s306 208 502 208
c136 0 261.833 -36.333 377.5 -109s203.167 -170.334 262.5 -293.001v367c0 23.333 11.667 35 35 35h750c23.333 0 35 -11.667 35 -35s-11.667 -35 -35 -35h-715v-605h565c23.333 0 35 -11.667 35 -35s-11.667 -35 -35 -35h-565v-605h715c23.333 0 35 -11.667 35 -35z
M1400 710.002c0 176.667 -62.5 327.5 -187.5 452.5s-275.833 187.5 -452.5 187.5s-327.5 -62.5 -452.5 -187.5s-187.5 -275.833 -187.5 -452.5s62.5 -327.5 187.5 -452.5s275.833 -187.5 452.5 -187.5s327.5 62.5 452.5 187.5s187.5 275.833 187.5 452.5z" />
    <glyph glyph-name="oe" unicode="&#x153;" horiz-adv-x="1910" 
d="M1860 261c0 -6.66699 -1.66797 -13 -5.00098 -19c-94.667 -161.333 -234.667 -242 -420 -242c-98.667 0 -189.167 27.667 -271.5 83s-141.833 129 -178.5 221c-36.667 -92 -96.167 -165.667 -178.5 -221s-172.833 -83 -271.5 -83c-134 -0 -248.333 47.333 -343 142
s-142 209 -142 343s47.333 248.333 142 343s209 142 343 142c98.667 0 189.167 -27.667 271.5 -83s141.833 -129 178.5 -221c36.667 92 96.167 165.667 178.5 221s172.833 83 271.5 83c53.333 0 107.333 -9.66699 162 -29c52 -18.667 105.333 -49 160 -91
c68 -52 102 -99 102 -141c0 -13.333 -5.66699 -23 -17 -29l-748 -432c82.667 -118.667 196.334 -178 341.001 -178c128 0 232.333 47.333 313 142l46 66c8.66699 11.333 18.667 17 30 17c24 0 36 -11.333 36 -34zM1776 722c-82.667 118.667 -196.333 178 -341 178
c-114.667 0 -212.5 -40.5 -293.5 -121.5s-121.5 -178.833 -121.5 -293.5c0 -62 13 -121 39 -177zM950 485c0 114.667 -40.5 212.5 -121.5 293.5s-178.833 121.5 -293.5 121.5s-212.5 -40.5 -293.5 -121.5s-121.5 -178.833 -121.5 -293.5s40.5 -212.5 121.5 -293.5
s178.833 -121.5 293.5 -121.5s212.5 40.5 293.5 121.5s121.5 178.833 121.5 293.5z" />
    <glyph glyph-name="Racute" unicode="&#x154;" horiz-adv-x="1021" 
d="M745 1834c0 -12 -6.33301 -22 -19 -30c-22 -13.333 -76.667 -41.666 -164 -84.999c-93.333 -46.667 -144.333 -70 -153 -70c-22.667 0 -34 12.333 -34 37c0 12 6.33301 22 19 30c22 13.333 76.667 41.666 164 84.999c93.333 46.667 144.333 70 153 70
c22.667 0 34 -12.333 34 -37zM971 35c0 -24 -12.001 -36.001 -36.001 -36.001c-9.33301 0 -17.666 3.66699 -24.999 11l-595 596c-10.667 10 -16 19.667 -16 29c0 23.333 14.333 35 43 35h218c93.333 0 173.333 33.333 240 100s100 146.667 100 240
s-33.333 173.333 -100 240s-146.667 100 -240 100h-340v-1315c0 -23.333 -11.667 -35 -35 -35s-35 11.667 -35 35v1352c0 22 11.667 33 35 33h375c113.333 0 210 -40 290 -120s120 -176.667 120 -290s-40 -210 -120 -290s-176.667 -120 -290 -120h-141l541 -540
c7.33301 -7.33301 11 -15.666 11 -24.999z" />
    <glyph glyph-name="racute" unicode="&#x155;" horiz-adv-x="691" 
d="M595 1384c0 -12 -6.33301 -22 -19 -30c-22 -13.333 -76.667 -41.666 -164 -84.999c-93.333 -46.667 -144.333 -70 -153 -70c-22.667 0 -34 12.333 -34 37c0 12 6.33301 22 19 30c22 13.333 76.667 41.666 164 84.999c93.333 46.667 144.333 70 153 70
c22.667 0 34 -12.333 34 -37zM641 821c0 -22.667 -12.332 -34 -36.999 -34c-4.66699 0 -25.5 18.833 -62.5 56.5s-80.833 56.5 -131.5 56.5c-52 0 -96.667 -18.667 -134 -56s-56 -82 -56 -134v-675c0 -23.333 -11.667 -35 -35 -35s-35 11.667 -35 35v900
c0 23.333 11.667 35 35 35c24 0 35.667 -27.667 35 -83c51.333 55.333 114.666 83 189.999 83c104 0 179 -43.333 225 -130c4 -6.66699 6 -13 6 -19z" />
    <glyph glyph-name="Rcedilla" unicode="&#x156;" horiz-adv-x="1021" 
d="M971 35c0 -24 -12.001 -36.001 -36.001 -36.001c-9.33301 0 -17.666 3.66699 -24.999 11l-595 596c-10.667 10 -16 19.667 -16 29c0 23.333 14.333 35 43 35h218c93.333 0 173.333 33.333 240 100s100 146.667 100 240s-33.333 173.333 -100 240s-146.667 100 -240 100
h-340v-1315c0 -23.333 -11.667 -35 -35 -35s-35 11.667 -35 35v1352c0 22 11.667 33 35 33h375c113.333 0 210 -40 290 -120s120 -176.667 120 -290s-40 -210 -120 -290s-176.667 -120 -290 -120h-141l541 -540c7.33301 -7.33301 11 -15.666 11 -24.999zM819.999 -190.001
c0 -71.333 -25.5 -132.5 -76.5 -183.5s-112.167 -76.5 -183.5 -76.5c-102.667 0 -178 43.667 -226 131c-3.33301 6 -5 12 -5 18c0 22.667 12.333 34 37 34c4 0 24.833 -18.833 62.5 -56.5s81.5 -56.5 131.5 -56.5c52 0 96.667 18.667 134 56s56 82 56 134
s-18.667 96.667 -56 134s-82 56 -134 56c-23.333 0 -35 11.667 -35 35s11.667 35 35 35c71.333 0 132.5 -25.5 183.5 -76.5s76.5 -112.167 76.5 -183.5z" />
    <glyph glyph-name="rcedilla" unicode="&#x157;" horiz-adv-x="691" 
d="M641 821c0 -22.667 -12.3311 -34 -36.998 -34c-4.66699 0 -25.834 18.833 -63.501 56.5s-81.167 56.5 -130.5 56.5c-52.667 0 -97.5 -18.667 -134.5 -56s-55.5 -82 -55.5 -134v-642c64 -8.66699 117.5 -37.667 160.5 -87s64.5 -106.333 64.5 -171
c0 -71.333 -25.5 -132.5 -76.5 -183.5s-112.167 -76.5 -183.5 -76.5c-104 0 -179.333 43.667 -226 131c-3.33301 6 -5 12 -5 18c0 22.667 12.333 34 37 34c4 0 24.833 -18.833 62.5 -56.5s81.5 -56.5 131.5 -56.5c52 0 96.667 18.667 134 56s56 82 56 134
s-18.667 96.667 -56 134s-82 56 -134 56c-23.333 0 -35 11.667 -35 35v900c0 23.333 11.667 35 35 35c24 0 35.667 -27.667 35 -83c51.333 55.333 114.666 83 189.999 83c103.333 0 178.333 -43.333 225 -130c4 -6.66699 6 -13 6 -19z" />
    <glyph glyph-name="Rcaron" unicode="&#x158;" horiz-adv-x="1021" 
d="M820 1834c0 -11.333 -5.33301 -20.666 -16 -27.999l-222 -148c-8 -6 -15.333 -9 -22 -9s-14 3 -22 9l-222 148c-10.667 7.33301 -16 16.666 -16 27.999c0 24.667 11.333 37 34 37c7.33301 0 14 -2.33301 20 -7l206 -137l206 137c6 4.66699 12.667 7 20 7
c22.667 0 34 -12.333 34 -37zM971 35c0 -24 -12.001 -36.001 -36.001 -36.001c-9.33301 0 -17.666 3.66699 -24.999 11l-595 596c-10.667 10 -16 19.667 -16 29c0 23.333 14.333 35 43 35h218c93.333 0 173.333 33.333 240 100s100 146.667 100 240
s-33.333 173.333 -100 240s-146.667 100 -240 100h-340v-1315c0 -23.333 -11.667 -35 -35 -35s-35 11.667 -35 35v1352c0 22 11.667 33 35 33h375c113.333 0 210 -40 290 -120s120 -176.667 120 -290s-40 -210 -120 -290s-176.667 -120 -290 -120h-141l541 -540
c7.33301 -7.33301 11 -15.666 11 -24.999z" />
    <glyph glyph-name="rcaron" unicode="&#x159;" horiz-adv-x="721" 
d="M671 1384c0 -11.333 -5.33398 -20.666 -16.001 -27.999l-222 -148c-8.66699 -6 -16.334 -9 -23.001 -9c-6 0 -13.333 3 -22 9l-222 148c-10.667 7.33301 -16 16.666 -16 27.999c0 24.667 11.667 37 35 37c6.66699 0 13.334 -2.33301 20.001 -7l205 -137l206 137
c6.66699 4.66699 13.334 7 20.001 7c23.333 0 35 -12.333 35 -37zM640.999 821c0 -22.667 -12.333 -34 -37 -34c-4 0 -24.5 18.833 -61.5 56.5s-81.167 56.5 -132.5 56.5c-52 0 -96.667 -18.667 -134 -56s-56 -82 -56 -134v-675c0 -23.333 -11.667 -35 -35 -35
s-35 11.667 -35 35v900c0 23.333 11.667 35 35 35c24 0 35.667 -27.667 35 -83c52 55.333 115.333 83 190 83c104.667 0 180 -43.333 226 -130c3.33301 -6.66699 5 -13 5 -19z" />
    <glyph glyph-name="Sacute" unicode="&#x15a;" horiz-adv-x="871" 
d="M596 1834c0 -12 -6.66797 -22 -20.001 -30c-21.333 -13.333 -75.666 -41.666 -162.999 -84.999c-93.333 -46.667 -144.333 -70 -153 -70c-23.333 0 -35 12.333 -35 37c0 12 6.66699 22 20 30c21.333 13.333 76 41.666 164 84.999c93.333 46.667 144.333 70 153 70
c22.667 0 34 -12.333 34 -37zM820.999 410c0 -113.333 -40.167 -210 -120.5 -290s-176.833 -120 -289.5 -120c-73.333 0 -141.833 18.5 -205.5 55.5s-113.834 86.833 -150.501 149.5c-3.33301 6.66699 -5 13 -5 19c0 22.667 12.333 34 37 34c10.667 0 20.334 -6 29.001 -18
c6.66699 -10.667 17.667 -26.667 33 -48c67.333 -81.333 154.666 -122 261.999 -122c93.333 0 173.333 33.333 240 100s100 146.667 100 240s-33.333 173.333 -100 240s-146.5 100 -239.5 100s-172.167 32.833 -237.5 98.5s-98 144.5 -98 236.5s32.667 170.833 98 236.5
s144.333 98.5 237 98.5c127.333 0 223.666 -55.333 288.999 -166c4 -6 6 -12.333 6 -19c0 -22.667 -12.333 -34 -37 -34c-8.66699 0 -24 12.667 -46 38c-27.333 32.667 -52.666 56.667 -75.999 72c-39.333 26 -84.666 39 -135.999 39c-73.333 0 -135.833 -26 -187.5 -78
s-77.5 -114.333 -77.5 -187s25.833 -135 77.5 -187s114.167 -78 187.5 -78c112.667 0 209.167 -40 289.5 -120s120.5 -176.667 120.5 -290z" />
    <glyph glyph-name="sacute" unicode="&#x15b;" horiz-adv-x="678" 
d="M511 1384c0 -12 -6.66797 -22 -20.001 -30c-21.333 -13.333 -75.666 -41.666 -162.999 -84.999c-93.333 -46.667 -144.333 -70 -153 -70c-23.333 0 -35 12.333 -35 37c0 12 6.66699 22 20 30c21.333 13.333 76 41.666 164 84.999c93.333 46.667 144.333 70 153 70
c22.667 0 34 -12.333 34 -37zM627.999 297c0 -81.333 -29.001 -151.166 -87.001 -209.499s-128 -87.5 -210 -87.5c-62 0 -118.333 17.5 -169 52.5s-87 81.5 -109 139.5c-2 4 -3 8.33301 -3 13c0 22.667 12.333 34 37 34c12.667 0 23 -7.66699 31 -23l23 -44
c43.333 -68 106.666 -102 189.999 -102c62.667 0 116.167 22.333 160.5 67s66.5 98 66.5 160c0 65.333 -23.333 119.666 -70 162.999s-102.667 65 -168 65c-60 0 -111.167 22 -153.5 66s-63.5 96 -63.5 156c0 61.333 21.833 113.833 65.5 157.5s96.167 65.5 157.5 65.5
c85.333 0 149.333 -36.667 192 -110c3.33301 -6.66699 5 -13 5 -19c0 -22.667 -12 -34 -36 -34c-5.33301 0 -23.166 15.5 -53.499 46.5s-66.166 46.5 -107.499 46.5c-42 0 -78 -15 -108 -45s-45 -66 -45 -108c0 -45.333 16 -82 48 -110s71.333 -42 118 -42
c80 0 148.167 -29.5 204.5 -88.5s84.5 -128.833 84.5 -209.5z" />
    <glyph glyph-name="Scircumflex" unicode="&#x15c;" horiz-adv-x="871" 
d="M671 1686c0 -24.667 -11.666 -37 -34.999 -37c-6.66699 0 -13.334 2.33301 -20.001 7l-205 137l-206 -137c-6.66699 -4.66699 -13.334 -7 -20.001 -7c-23.333 0 -35 12.333 -35 37c0 11.333 5.33301 20.666 16 27.999l222 148c8.66699 6 16.334 9 23.001 9
c6 0 13.333 -3 22 -9l222 -148c10.667 -7.33301 16 -16.666 16 -27.999zM821.001 410c0 -113.333 -40.167 -210 -120.5 -290s-176.833 -120 -289.5 -120c-73.333 0 -141.833 18.5 -205.5 55.5s-113.834 86.833 -150.501 149.5c-3.33301 6.66699 -5 13 -5 19
c0 22.667 12.333 34 37 34c10.667 0 20.334 -6 29.001 -18c6.66699 -10.667 17.667 -26.667 33 -48c67.333 -81.333 154.666 -122 261.999 -122c93.333 0 173.333 33.333 240 100s100 146.667 100 240s-33.333 173.333 -100 240s-146.5 100 -239.5 100
s-172.167 32.833 -237.5 98.5s-98 144.5 -98 236.5s32.667 170.833 98 236.5s144.333 98.5 237 98.5c127.333 0 223.666 -55.333 288.999 -166c4 -6 6 -12.333 6 -19c0 -22.667 -12.333 -34 -37 -34c-8.66699 0 -24 12.667 -46 38c-27.333 32.667 -52.666 56.667 -75.999 72
c-39.333 26 -84.666 39 -135.999 39c-73.333 0 -135.833 -26 -187.5 -78s-77.5 -114.333 -77.5 -187s25.833 -135 77.5 -187s114.167 -78 187.5 -78c112.667 0 209.167 -40 289.5 -120s120.5 -176.667 120.5 -290z" />
    <glyph glyph-name="scircumflex" unicode="&#x15d;" horiz-adv-x="678" 
d="M586 1236c0 -24.667 -11.665 -37 -34.998 -37c-6.66699 0 -13.334 2.33301 -20.001 7l-205 137l-206 -137c-6.66699 -4.66699 -13.334 -7 -20.001 -7c-23.333 0 -35 12.333 -35 37c0 11.333 5.33301 20.666 16 27.999l223 148c8 6 15.333 9 22 9c6 0 13.333 -3 22 -9
l222 -148c10.667 -7.33301 16 -16.666 16 -27.999zM628.002 297c0 -81.333 -29.001 -151.166 -87.001 -209.499s-128 -87.5 -210 -87.5c-62 0 -118.333 17.5 -169 52.5s-87 81.5 -109 139.5c-2 4 -3 8.33301 -3 13c0 22.667 12.333 34 37 34c12.667 0 23 -7.66699 31 -23
l23 -44c43.333 -68 106.666 -102 189.999 -102c62.667 0 116.167 22.333 160.5 67s66.5 98 66.5 160c0 65.333 -23.333 119.666 -70 162.999s-102.667 65 -168 65c-60 0 -111.167 22 -153.5 66s-63.5 96 -63.5 156c0 61.333 21.833 113.833 65.5 157.5
s96.167 65.5 157.5 65.5c85.333 0 149.333 -36.667 192 -110c3.33301 -6.66699 5 -13 5 -19c0 -22.667 -12 -34 -36 -34c-5.33301 0 -23.166 15.5 -53.499 46.5s-66.166 46.5 -107.499 46.5c-42 0 -78 -15 -108 -45s-45 -66 -45 -108c0 -45.333 16 -82 48 -110
s71.333 -42 118 -42c80 0 148.167 -29.5 204.5 -88.5s84.5 -128.833 84.5 -209.5z" />
    <glyph glyph-name="Scedilla" unicode="&#x15e;" horiz-adv-x="871" 
d="M821 410c0 -85.333 -24.3369 -163.167 -73.0039 -233.5s-113 -120.5 -193 -150.5c77.333 -51.333 116 -123.333 116 -216c0 -71.333 -25.5 -132.5 -76.5 -183.5s-112.167 -76.5 -183.5 -76.5c-100 0 -175.333 43.667 -226 131c-3.33301 6 -5 12 -5 18
c0 22.667 12.333 34 37 34c4 0 24 -18.833 60 -56.5s80.667 -56.5 134 -56.5c52 0 96.667 18.667 134 56s56 82 56 134s-18.667 96.667 -56 134s-82 56 -134 56c-72.667 0 -141.334 18.5 -206.001 55.5s-114.667 86.833 -150 149.5c-3.33301 6.66699 -5 13 -5 19
c0 22.667 12.333 34 37 34c10.667 0 20.334 -6.16699 29.001 -18.5s22.334 -30.833 41.001 -55.5c66.667 -76 151.334 -114 254.001 -114c93.333 0 173.333 33.333 240 100s100 146.667 100 240s-33.333 173.333 -100 240s-146.5 100 -239.5 100
s-172.167 32.833 -237.5 98.5s-98 144.5 -98 236.5s32.667 170.833 98 236.5s144.333 98.5 237 98.5c128.667 0 225 -55.333 289 -166c4 -6.66699 6 -13 6 -19c0 -22.667 -12.333 -34 -37 -34c-8.66699 0 -24 12.667 -46 38c-27.333 32.667 -52.666 56.667 -75.999 72
c-39.333 26 -84.666 39 -135.999 39c-73.333 0 -135.833 -26 -187.5 -78s-77.5 -114.333 -77.5 -187s25.833 -135 77.5 -187s114.167 -78 187.5 -78c112.667 0 209.167 -40 289.5 -120s120.5 -176.667 120.5 -290z" />
    <glyph glyph-name="scedilla" unicode="&#x15f;" horiz-adv-x="678" 
d="M628 297c0 -121.333 -54.002 -209.666 -162.002 -264.999c83.333 -50.667 125 -124.667 125 -222c0 -71.333 -25.5 -132.5 -76.5 -183.5s-112.167 -76.5 -183.5 -76.5c-102 0 -177.333 43.667 -226 131c-3.33301 6 -5 12 -5 18c0 22.667 12.333 34 37 34
c4 0 24.833 -18.833 62.5 -56.5s81.5 -56.5 131.5 -56.5c52 0 96.667 18.667 134 56s56 82 56 134s-18.667 96.667 -56 134s-82 56 -134 56c-62 0 -118.333 17.5 -169 52.5s-87 81.5 -109 139.5c-2 4.66699 -3 9 -3 13c0 22.667 12.333 34 37 34
c12.667 0 23 -7.66699 31 -23l23 -44c42.667 -68 106 -102 190 -102c62.667 0 116.167 22.333 160.5 67s66.5 98 66.5 160c0 65.333 -23.333 119.666 -70 162.999s-102.667 65 -168 65c-60 0 -111.167 22 -153.5 66s-63.5 96 -63.5 156c0 61.333 21.833 113.833 65.5 157.5
s96.167 65.5 157.5 65.5c86 0 150 -36.667 192 -110c3.33301 -6.66699 5 -13 5 -19c0 -22.667 -12 -34 -36 -34c-5.33301 0 -23.166 15.5 -53.499 46.5s-66.166 46.5 -107.499 46.5c-42 0 -78 -15 -108 -45s-45 -66 -45 -108c0 -45.333 16 -82 48 -110s71.333 -42 118 -42
c80 0 148.167 -29.5 204.5 -88.5s84.5 -128.833 84.5 -209.5z" />
    <glyph glyph-name="Scaron" unicode="&#x160;" horiz-adv-x="871" 
d="M671 1834c0 -11.333 -5.33496 -20.666 -16.002 -27.999l-225 -150c-4 -2.66699 -10.333 -4 -19 -4c-9.33301 0 -16 1.33301 -20 4l-225 150c-10.667 7.33301 -16 16.666 -16 27.999c0 24.667 11.667 37 35 37c6.66699 0 13.334 -2.33301 20.001 -7l206 -137l205 137
c6.66699 4.66699 13.334 7 20.001 7c23.333 0 35 -12.333 35 -37zM820.998 410c0 -113.333 -40.167 -210 -120.5 -290s-176.833 -120 -289.5 -120c-73.333 0 -141.833 18.5 -205.5 55.5s-113.834 86.833 -150.501 149.5c-3.33301 6.66699 -5 13 -5 19
c0 22.667 12.333 34 37 34c10.667 0 20.334 -6 29.001 -18c6.66699 -10.667 17.667 -26.667 33 -48c67.333 -81.333 154.666 -122 261.999 -122c93.333 0 173.333 33.333 240 100s100 146.667 100 240s-33.333 173.333 -100 240s-146.5 100 -239.5 100
s-172.167 32.833 -237.5 98.5s-98 144.5 -98 236.5s32.667 170.833 98 236.5s144.333 98.5 237 98.5c127.333 0 223.666 -55.333 288.999 -166c4 -6 6 -12.333 6 -19c0 -22.667 -12.333 -34 -37 -34c-8.66699 0 -24 12.667 -46 38c-27.333 32.667 -52.666 56.667 -75.999 72
c-39.333 26 -84.666 39 -135.999 39c-73.333 0 -135.833 -26 -187.5 -78s-77.5 -114.333 -77.5 -187s25.833 -135 77.5 -187s114.167 -78 187.5 -78c112.667 0 209.167 -40 289.5 -120s120.5 -176.667 120.5 -290z" />
    <glyph glyph-name="scaron" unicode="&#x161;" horiz-adv-x="678" 
d="M589 1384c0 -11.333 -5.33496 -20.666 -16.002 -27.999l-225 -150c-4 -2.66699 -10.667 -4 -20 -4c-8.66699 0 -15 1.33301 -19 4l-225 150c-10.667 7.33301 -16 16.666 -16 27.999c0 24.667 11.667 37 35 37c6.66699 0 13.334 -2.33301 20.001 -7l205 -137l206 137
c6.66699 4.66699 13.334 7 20.001 7c23.333 0 35 -12.333 35 -37zM627.998 297c0 -81.333 -29.001 -151.166 -87.001 -209.499s-128 -87.5 -210 -87.5c-62 0 -118.333 17.5 -169 52.5s-87 81.5 -109 139.5c-2 4 -3 8.33301 -3 13c0 22.667 12.333 34 37 34
c12.667 0 23 -7.66699 31 -23l23 -44c43.333 -68 106.666 -102 189.999 -102c62.667 0 116.167 22.333 160.5 67s66.5 98 66.5 160c0 65.333 -23.333 119.666 -70 162.999s-102.667 65 -168 65c-60 0 -111.167 22 -153.5 66s-63.5 96 -63.5 156
c0 61.333 21.833 113.833 65.5 157.5s96.167 65.5 157.5 65.5c85.333 0 149.333 -36.667 192 -110c3.33301 -6.66699 5 -13 5 -19c0 -22.667 -12 -34 -36 -34c-5.33301 0 -23.166 15.5 -53.499 46.5s-66.166 46.5 -107.499 46.5c-42 0 -78 -15 -108 -45s-45 -66 -45 -108
c0 -45.333 16 -82 48 -110s71.333 -42 118 -42c80 0 148.167 -29.5 204.5 -88.5s84.5 -128.833 84.5 -209.5z" />
    <glyph glyph-name="Tcedilla" unicode="&#x162;" horiz-adv-x="1020" 
d="M1020 1385c0 -23.333 -11.667 -35 -35 -35h-415v-1282c64 -8.66699 117.5 -37.667 160.5 -87s64.5 -106.333 64.5 -171c0 -71.333 -25.5 -132.5 -76.5 -183.5s-112.167 -76.5 -183.5 -76.5c-104 0 -179.333 43.667 -226 131c-3.33301 6 -5 12 -5 18
c0 22.667 12.333 34 37 34c4 0 24.833 -18.833 62.5 -56.5s81.5 -56.5 131.5 -56.5c52 0 96.667 18.667 134 56s56 82 56 134s-18.667 96.667 -56 134s-82 56 -134 56c-23.333 0 -35 11.667 -35 35v1315h-415c-23.333 0 -35 11.667 -35 35s11.667 35 35 35h900
c23.333 0 35 -11.667 35 -35z" />
    <glyph glyph-name="tcedilla" unicode="&#x163;" horiz-adv-x="780" 
d="M795 -190c0 -71.333 -25.499 -132.499 -76.499 -183.499s-112.167 -76.5 -183.5 -76.5c-104 0 -179.333 43.667 -226 131c-3.33301 6 -5 12 -5 18c0 22.667 12.333 34 37 34c4.66699 0 25.167 -18.833 61.5 -56.5s80.5 -56.5 132.5 -56.5s96.667 18.667 134 56
s56 82 56 134s-18.667 96.667 -56 134s-82 56 -134 56c-71.333 0 -132.5 25.5 -183.5 76.5s-76.5 112.167 -76.5 183.5v640h-190c-23.333 0 -35 11.667 -35 35s11.667 35 35 35h190v415c0 23.333 11.667 35 35 35s35 -11.667 35 -35v-415h190c23.333 0 35 -11.667 35 -35
s-11.667 -35 -35 -35h-190v-640c0 -52 18.667 -96.667 56 -134s82 -56 134 -56c34 0 68.667 11 104 33s53.666 33 54.999 33c24 0 36 -12 36 -36c0 -18.667 -21.667 -40.334 -65 -65.001c86.667 -50 130 -125 130 -225z" />
    <glyph glyph-name="Tcaron" unicode="&#x164;" horiz-adv-x="1020" 
d="M795 1834c0 -11.333 -5.33301 -20.666 -16 -27.999l-222 -148c-8 -6 -15.333 -9 -22 -9s-14 3 -22 9l-222 148c-10.667 7.33301 -16 16.666 -16 27.999c0 24.667 11.333 37 34 37c7.33301 0 14 -2.33301 20 -7l206 -137l206 137c6 4.66699 12.667 7 20 7
c22.667 0 34 -12.333 34 -37zM1020 1385c0 -23.333 -11.667 -35 -35 -35h-415v-1315c0 -23.333 -11.667 -35 -35 -35s-35 11.667 -35 35v1315h-415c-23.333 0 -35 11.667 -35 35s11.667 35 35 35h900c23.333 0 35 -11.667 35 -35z" />
    <glyph glyph-name="tcaron" unicode="&#x165;" horiz-adv-x="780" 
d="M571 1834c0 -11.333 -5.33398 -20.666 -16.001 -27.999l-222 -148c-8.66699 -6 -16.334 -9 -23.001 -9c-6 0 -13.333 3 -22 9l-222 148c-10.667 7.33301 -16 16.666 -16 27.999c0 24.667 11.667 37 35 37c6.66699 0 13.334 -2.33301 20.001 -7l205 -137l206 137
c6.66699 4.66699 13.334 7 20.001 7c23.333 0 35 -12.333 35 -37zM729.999 100c0 -7.33301 -3.66797 -15.333 -11.001 -24c-42 -50.667 -103.333 -76 -184 -76c-71.333 0 -132.5 25.5 -183.5 76.5s-76.5 112.167 -76.5 183.5v640h-190c-23.333 0 -35 11.667 -35 35
s11.667 35 35 35h190v415c0 23.333 11.667 35 35 35s35 -11.667 35 -35v-415h190c23.333 0 35 -11.667 35 -35s-11.667 -35 -35 -35h-190v-640c0 -52 18.667 -96.667 56 -134s82 -56 134 -56c34 0 68.833 11 104.5 33s53.834 33 54.501 33c24 0 36 -12 36 -36z" />
    <glyph glyph-name="Tbar" unicode="&#x166;" horiz-adv-x="1020" 
d="M1020 1385c0 -23.333 -11.667 -35 -35 -35h-415v-605h190c23.333 0 35 -11.667 35 -35s-11.667 -35 -35 -35h-190v-640c0 -23.333 -11.667 -35 -35 -35s-35 11.667 -35 35v640h-190c-23.333 0 -35 11.667 -35 35s11.667 35 35 35h190v605h-415
c-23.333 0 -35 11.667 -35 35s11.667 35 35 35h900c23.333 0 35 -11.667 35 -35z" />
    <glyph glyph-name="tbar" unicode="&#x167;" horiz-adv-x="780" 
d="M730 100c0 -8 -3.66699 -16 -11 -24c-44.667 -50.667 -106 -76 -184 -76c-71.333 0 -132.5 25.5 -183.5 76.5s-76.5 112.167 -76.5 183.5v190h-190c-23.333 0 -35 11.667 -35 35s11.667 35 35 35h190v380h-190c-23.333 0 -35 11.667 -35 35s11.667 35 35 35h190v415
c0 23.333 11.667 35 35 35s35 -11.667 35 -35v-415h190c23.333 0 35 -11.667 35 -35s-11.667 -35 -35 -35h-190v-380h190c23.333 0 35 -11.667 35 -35s-11.667 -35 -35 -35h-190v-190c0 -52 18.667 -96.667 56 -134s82 -56 134 -56c33.333 0 67.833 11 103.5 33
s54.167 33 55.5 33c24 0 36 -12 36 -36z" />
    <glyph glyph-name="Utilde" unicode="&#x168;" horiz-adv-x="1170" 
d="M920 1761c0 -8 -3.66699 -18.333 -11 -31c-32 -53.333 -90 -80 -174 -80c-48.667 0 -102.667 25 -162 75s-105.333 75 -138 75c-47.333 0 -82.5 -12.5 -105.5 -37.5s-37.5 -37.5 -43.5 -37.5c-24 0 -36 11.333 -36 34c0 8 3.66699 18.333 11 31c32 53.333 90 80 174 80
c48.667 0 102.667 -25 162 -75s105.333 -75 138 -75c47.333 0 82.5 12.5 105.5 37.5s37.5 37.5 43.5 37.5c24 0 36 -11.333 36 -34zM1070 485c0 -134 -47.333 -248.333 -142 -343s-209 -142 -343 -142s-248.333 47.333 -343 142s-142 209 -142 343v900
c0 23.333 11.667 35 35 35s35 -11.667 35 -35v-900c0 -114.667 40.5 -212.5 121.5 -293.5s178.833 -121.5 293.5 -121.5s212.5 40.5 293.5 121.5s121.5 178.833 121.5 293.5v900c0 23.333 11.667 35 35 35s35 -11.667 35 -35v-900z" />
    <glyph glyph-name="utilde" unicode="&#x169;" horiz-adv-x="871" 
d="M771 1311c0 -8 -3.99805 -18.333 -11.998 -31c-32 -53.333 -90 -80 -174 -80c-48.667 0 -102.667 25 -162 75s-105.333 75 -138 75c-46.667 0 -81.667 -12.5 -105 -37.5s-38 -37.5 -44 -37.5c-24 0 -36 11.333 -36 34c0 8 3.66699 18.333 11 31c32 53.333 90 80 174 80
c49.333 0 103.5 -25 162.5 -75s104.833 -75 137.5 -75c47.333 0 82.666 12.5 105.999 37.5s37.666 37.5 42.999 37.5c24.667 0 37 -11.333 37 -34zM770.002 335c0 -92 -32.667 -170.833 -98 -236.5s-144.333 -98.5 -237 -98.5c-92 -0 -170.833 32.833 -236.5 98.5
s-98.5 144.5 -98.5 236.5v600c0 23.333 11.667 35 35 35s35 -11.667 35 -35v-600c0 -72.667 26 -135 78 -187s114.333 -78 187 -78c73.333 0 135.833 26 187.5 78s77.5 114.333 77.5 187v600c0 23.333 11.667 35 35 35s35 -11.667 35 -35v-600z" />
    <glyph glyph-name="Umacron" unicode="&#x16a;" horiz-adv-x="1170" 
d="M1070 1760c0 -23.333 -11.667 -35 -35 -35h-900c-23.333 0 -35 11.667 -35 35s11.667 35 35 35h900c23.333 0 35 -11.667 35 -35zM1070 485c0 -134 -47.333 -248.333 -142 -343s-209 -142 -343 -142s-248.333 47.333 -343 142s-142 209 -142 343v900
c0 23.333 11.667 35 35 35s35 -11.667 35 -35v-900c0 -114.667 40.5 -212.5 121.5 -293.5s178.833 -121.5 293.5 -121.5s212.5 40.5 293.5 121.5s121.5 178.833 121.5 293.5v900c0 23.333 11.667 35 35 35s35 -11.667 35 -35v-900z" />
    <glyph glyph-name="umacron" unicode="&#x16b;" horiz-adv-x="870" 
d="M770 1310c0 -23.333 -11.667 -35 -35 -35h-600c-23.333 0 -35 11.667 -35 35s11.667 35 35 35h600c23.333 0 35 -11.667 35 -35zM770 335c0 -92 -32.833 -170.833 -98.5 -236.5s-144.5 -98.5 -236.5 -98.5s-170.833 32.833 -236.5 98.5s-98.5 144.5 -98.5 236.5v600
c0 23.333 11.667 35 35 35s35 -11.667 35 -35v-600c0 -72.667 26 -135 78 -187s114.333 -78 187 -78s135 26 187 78s78 114.333 78 187v600c0 23.333 11.667 35 35 35s35 -11.667 35 -35v-600z" />
    <glyph glyph-name="Ubreve" unicode="&#x16c;" horiz-adv-x="1170" 
d="M846 1835c0 -9.33301 -10.333 -25 -31 -47c-84.667 -91.333 -161.334 -137 -230.001 -137c-69.333 0 -146.333 45.667 -231 137c-20 22 -30 37.667 -30 47c0 23.333 12.333 35 37 35c6.66699 0 35.834 -25 87.501 -75s97.167 -75 136.5 -75c38.667 0 84 25 136 75
s81.333 75 88 75c24.667 0 37 -11.667 37 -35zM1070 485c0 -134 -47.333 -248.333 -142 -343s-209 -142 -343 -142s-248.333 47.333 -343 142s-142 209 -142 343v900c0 23.333 11.667 35 35 35s35 -11.667 35 -35v-900c0 -114.667 40.5 -212.5 121.5 -293.5
s178.833 -121.5 293.5 -121.5s212.5 40.5 293.5 121.5s121.5 178.833 121.5 293.5v900c0 23.333 11.667 35 35 35s35 -11.667 35 -35v-900z" />
    <glyph glyph-name="ubreve" unicode="&#x16d;" horiz-adv-x="870" 
d="M696 1385c0 -9.33301 -10.333 -25 -31 -47c-84.667 -91.333 -161.667 -137 -231 -137s-146 45.667 -230 137c-20 22 -30 37.667 -30 47c0 23.333 12.333 35 37 35c6.66699 0 35.667 -25 87 -75s97 -75 137 -75c38.667 0 84 25 136 75s81.333 75 88 75
c24.667 0 37 -11.667 37 -35zM770 335c0 -92 -32.833 -170.833 -98.5 -236.5s-144.5 -98.5 -236.5 -98.5s-170.833 32.833 -236.5 98.5s-98.5 144.5 -98.5 236.5v600c0 23.333 11.667 35 35 35s35 -11.667 35 -35v-600c0 -72.667 26 -135 78 -187s114.333 -78 187 -78
s135 26 187 78s78 114.333 78 187v600c0 23.333 11.667 35 35 35s35 -11.667 35 -35v-600z" />
    <glyph glyph-name="Uring" unicode="&#x16e;" horiz-adv-x="1170" 
d="M762 1696c0 -48.667 -17.333 -89.834 -52 -123.501s-76.334 -50.5 -125.001 -50.5s-90.5 16.833 -125.5 50.5s-52.5 74.834 -52.5 123.501s17.5 90.334 52.5 125.001s76.833 52 125.5 52s90.334 -17.333 125.001 -52s52 -76.334 52 -125.001zM1070 485
c0 -134 -47.333 -248.333 -142 -343s-209 -142 -343 -142s-248.333 47.333 -343 142s-142 209 -142 343v900c0 23.333 11.667 35 35 35s35 -11.667 35 -35v-900c0 -114.667 40.5 -212.5 121.5 -293.5s178.833 -121.5 293.5 -121.5s212.5 40.5 293.5 121.5
s121.5 178.833 121.5 293.5v900c0 23.333 11.667 35 35 35s35 -11.667 35 -35v-900zM692 1696c0 29.333 -10.5 54.5 -31.5 75.5s-46.167 31.5 -75.5 31.5s-54.666 -10.5 -75.999 -31.5s-32 -46.167 -32 -75.5c0 -30 10.667 -54.833 32 -74.5s46.666 -29.5 75.999 -29.5
s54.5 9.83301 75.5 29.5s31.5 44.5 31.5 74.5z" />
    <glyph glyph-name="uring" unicode="&#x16f;" horiz-adv-x="870" 
d="M612 1271c0 -48.667 -17.333 -89.834 -52 -123.501s-76.334 -50.5 -125.001 -50.5s-90.5 16.833 -125.5 50.5s-52.5 74.834 -52.5 123.501s17.5 90.334 52.5 125.001s76.833 52 125.5 52s90.334 -17.333 125.001 -52s52 -76.334 52 -125.001zM770 335
c0 -92 -32.833 -170.833 -98.5 -236.5s-144.5 -98.5 -236.5 -98.5s-170.833 32.833 -236.5 98.5s-98.5 144.5 -98.5 236.5v600c0 23.333 11.667 35 35 35s35 -11.667 35 -35v-600c0 -72.667 26 -135 78 -187s114.333 -78 187 -78s135 26 187 78s78 114.333 78 187v600
c0 23.333 11.667 35 35 35s35 -11.667 35 -35v-600zM542 1271c0 29.333 -10.5 54.5 -31.5 75.5s-46.167 31.5 -75.5 31.5s-54.666 -10.5 -75.999 -31.5s-32 -46.167 -32 -75.5c0 -30 10.667 -54.833 32 -74.5s46.666 -29.5 75.999 -29.5s54.5 9.83301 75.5 29.5
s31.5 44.5 31.5 74.5z" />
    <glyph glyph-name="Udblacute" unicode="&#x170;" horiz-adv-x="1170" 
d="M995 1834c0 -12 -6.33301 -22 -19 -30c-22 -13.333 -76.667 -41.666 -164 -84.999c-93.333 -46.667 -144.333 -70 -153 -70c-22.667 0 -34 12.333 -34 37c0 12 6.33301 22 19 30c22 13.333 76.667 41.666 164 84.999c93.333 46.667 144.333 70 153 70
c22.667 0 34 -12.333 34 -37zM545 1834c0 -12 -6.33301 -22 -19 -30c-22 -13.333 -76.667 -41.666 -164 -84.999c-93.333 -46.667 -144.333 -70 -153 -70c-22.667 0 -34 12.333 -34 37c0 12 6.33301 22 19 30c22 13.333 76.667 41.666 164 84.999
c93.333 46.667 144.333 70 153 70c22.667 0 34 -12.333 34 -37zM1070 485c0 -134 -47.333 -248.333 -142 -343s-209 -142 -343 -142s-248.333 47.333 -343 142s-142 209 -142 343v900c0 23.333 11.667 35 35 35s35 -11.667 35 -35v-900c0 -114.667 40.5 -212.5 121.5 -293.5
s178.833 -121.5 293.5 -121.5s212.5 40.5 293.5 121.5s121.5 178.833 121.5 293.5v900c0 23.333 11.667 35 35 35s35 -11.667 35 -35v-900z" />
    <glyph glyph-name="udblacute" unicode="&#x171;" horiz-adv-x="1021" 
d="M921 1384c0 -12 -6.66797 -22 -20.001 -30c-21.333 -13.333 -76 -41.666 -164 -84.999c-93.333 -46.667 -144.333 -70 -153 -70c-22.667 0 -34 12.333 -34 37c0 12 6.66699 22 20 30c21.333 13.333 76 41.666 164 84.999c92.667 46.667 143.334 70 152.001 70
c23.333 0 35 -12.333 35 -37zM470.999 1384c0 -12 -6.66797 -22 -20.001 -30c-21.333 -13.333 -76 -41.666 -164 -84.999c-93.333 -46.667 -144.333 -70 -153 -70c-22.667 0 -34 12.333 -34 37c0 12 6.66699 22 20 30c21.333 13.333 76 41.666 164 84.999
c92.667 46.667 143.334 70 152.001 70c23.333 0 35 -12.333 35 -37zM844.998 335c0 -92 -32.667 -170.833 -98 -236.5s-144.333 -98.5 -237 -98.5c-92 -0 -170.833 32.833 -236.5 98.5s-98.5 144.5 -98.5 236.5v600c0 23.333 11.667 35 35 35s35 -11.667 35 -35v-600
c0 -72.667 26 -135 78 -187s114.333 -78 187 -78c73.333 0 135.833 26 187.5 78s77.5 114.333 77.5 187v600c0 23.333 11.667 35 35 35s35 -11.667 35 -35v-600z" />
    </font>
</defs>
</svg>
