<?xml version="1.0" standalone="no"?>
<!DOCTYPE svg PUBLIC "-//W3C//DTD SVG 1.1//EN" "http://www.w3.org/Graphics/SVG/1.1/DTD/svg11.dtd" >
<svg>
<metadata>
Created by FontForge 20090914 at Tue Jan 22 17:06:09 2013
 By www-data
A Planet Font. Copyright 1998 The Planet                                                                       http://www.planet.dk
</metadata>
<defs>
<font id="PlanetKosmos" horiz-adv-x="825" >
  <font-face 
    font-family="Planet Kosmos"
    font-weight="400"
    font-stretch="normal"
    units-per-em="1000"
    panose-1="0 0 4 0 0 0 0 0 0 0"
    ascent="800"
    descent="-200"
    x-height="527.998"
    cap-height="527.999"
    bbox="-187.999 -638.001 1459 1008"
    underline-thickness="20"
    underline-position="-123"
    unicode-range="U+0020-U+2030"
  />
<missing-glyph horiz-adv-x="500" 
d="M63 0v800h375v-800h-375zM125 63h250v675h-250v-675z" />
    <glyph glyph-name=".notdef" horiz-adv-x="500" 
d="M63 0v800h375v-800h-375zM125 63h250v675h-250v-675z" />
    <glyph glyph-name="space" unicode=" " horiz-adv-x="485" 
 />
    <glyph glyph-name="exclam" unicode="!" horiz-adv-x="376" 
d="M142 192c-13.333 0 -27.333 -4.66699 -42 -14s-26 -20.666 -34 -33.999l-55 -96c-5.33301 -8.66699 -8 -16.667 -8 -24c0 -16 9.33301 -24 28 -24h240c13.333 0 27.333 4.66699 42 14s26 20.666 34 33.999l55 96c5.33301 8.66699 8 16.667 8 24c0 16 -9.33301 24 -28 24
h-240zM437 288c13.333 0 27.5 4.66699 42.5 14s26.167 20.666 33.5 33.999l360 624c5.33301 8.66699 8 16.667 8 24c0 16 -9.33301 24 -28 24h-240c-13.333 0 -27.333 -4.66699 -42 -14s-26 -20.666 -34 -33.999l-360 -624c-4.66699 -8.66699 -7 -16.667 -7 -24
c0 -16 9 -24 27 -24h240z" />
    <glyph glyph-name="quotedbl" unicode="&#x22;" horiz-adv-x="812" 
d="M927 816c-13.333 0 -27.333 -4.66797 -42 -14.001s-26 -20.666 -34 -33.999l-110 -192c-10 -17.333 -15 -35.333 -15 -54c0 -10.667 1.66699 -19 5 -25l133 -226c4 -6 9 -9 15 -9c10.667 0 21 8.66699 31 26l277 480c5.33301 8.66699 8 16.667 8 24
c0 16 -9.33301 24 -28 24h-240zM495 815.999c-13.333 0 -27.333 -4.66797 -42 -14.001s-26 -20.666 -34 -33.999l-110 -192c-10 -17.333 -15 -35.333 -15 -54c0 -10.667 1.66699 -19 5 -25l133 -226c4 -6 9 -9 15 -9c10.667 0 21 8.66699 31 26l277 480
c5.33301 8.66699 8 16.667 8 24c0 16 -9.33301 24 -28 24h-240z" />
    <glyph glyph-name="numbersign" unicode="#" horiz-adv-x="997" 
d="M1163 384l56 95.9961c4.66699 8.66699 7 16.667 7 24c0 13.333 -9.16699 21.333 -27.5 24s-27.5 10.667 -27.5 24c0 7.33301 2.33301 15.333 7 24v0c5.33301 8.66699 8 16.667 8 24c0 16 -9.33301 24 -28 24h-240c-13.333 0 -27.333 -4.66699 -42 -14
s-26 -20.666 -34 -33.999v0c-7.33301 -13.333 -18.5 -24.666 -33.5 -33.999s-28.833 -14 -41.5 -14v0c-18.667 0 -28 8 -28 24c0 7.33301 2.33301 15.333 7 24v0c5.33301 8.66699 8 16.667 8 24c0 16 -9.33301 24 -28 24h-240c-13.333 0 -27.333 -4.66699 -42 -14
s-26 -20.666 -34 -33.999v0c-7.33301 -13.333 -18.5 -24.666 -33.5 -33.999s-28.833 -14 -41.5 -14v0c-13.333 0 -27.5 -4.66699 -42.5 -14s-26.167 -20.666 -33.5 -33.999l-56 -96c-4.66699 -8.66699 -7 -16.667 -7 -24c0 -16 9.33301 -24 28 -24v0c18 0 27 -8 27 -24
c0 -7.33301 -2.33301 -15.333 -7 -24v0c-7.33301 -13.333 -18.5 -24.666 -33.5 -33.999s-29.167 -14 -42.5 -14v0c-13.333 0 -27.333 -4.66699 -42 -14s-25.667 -20.666 -33 -33.999l-56 -96c-4.66699 -8.66699 -7 -16.667 -7 -24c0 -16 9 -24 27 -24v0
c18.667 0 28 -8 28 -24c0 -7.33301 -2.33301 -15.333 -7 -24v0c-5.33301 -8.66699 -8 -16.667 -8 -24c0 -16 9.33301 -24 28 -24h240c13.333 0 27.333 4.66699 42 14s26 20.666 34 33.999v0c7.33301 13.333 18.5 24.666 33.5 33.999s28.833 14 41.5 14v0
c18.667 0 28 -8 28 -24c0 -7.33301 -2.33301 -15.333 -7 -24v0c-5.33301 -8.66699 -8 -16.667 -8 -24c0 -16 9.33301 -24 28 -24h240c13.333 0 27.333 4.66699 42 14s26 20.666 34 33.999v0c13.333 24 38.5 40 75.5 48s62.167 24 75.5 48l56 96
c4.66699 8.66699 7 16.667 7 24c0 13.333 -9.16699 21.333 -27.5 24s-27.5 10.667 -27.5 24c0 7.33301 2.33301 15.333 7 24v0c14 24 39.333 40 76 48s61.667 24 75 48zM600 239.996c-18 0 -27 8 -27 24c0 7.33301 2.33301 15.333 7 24v0
c7.33301 13.333 18.5 24.666 33.5 33.999s29.167 14 42.5 14v0c18 0 27 -8 27 -24c0 -7.33301 -2.33301 -15.333 -7 -24v0c-7.33301 -13.333 -18.5 -24.666 -33.5 -33.999s-29.167 -14 -42.5 -14z" />
    <glyph glyph-name="dollar" unicode="$" 
d="M894 336c13.333 0 27.333 4.66699 42 14s26 20.666 34 33.999l55 96c4.66699 8.66699 7 16.667 7 24c0 16 -9 24 -27 24c-32 0 -54.333 10.333 -67 31l-133 226c-3.33301 6 -8 9 -14 9c-11.333 0 -22 -8.66699 -32 -26l-111 -192
c-7.33301 -13.333 -18.333 -24.666 -33 -33.999s-28.667 -14 -42 -14h-240c-13.333 0 -27.5 -4.66699 -42.5 -14s-26.167 -20.666 -33.5 -33.999l-111 -192c-4.66699 -8.66699 -7 -16.667 -7 -24c0 -16 9 -24 27 -24h336c18.667 0 28 -8 28 -24
c0 -7.33301 -2.33301 -15.333 -7 -24l-56 -96c-7.33301 -13.333 -18.5 -24.666 -33.5 -33.999s-28.833 -14 -41.5 -14c-18.667 0 -28 8 -28 24c0 7.33301 2.33301 15.333 7 24l28 48c4.66699 8.66699 7 16.667 7 24c0 16 -9 24 -27 24h-240
c-13.333 0 -27.5 -4.66699 -42.5 -14s-26.167 -20.666 -33.5 -33.999l-55 -96c-5.33301 -8.66699 -8 -16.667 -8 -24c-0 -16 9.33301 -24 28 -24c32 0 54 -10.333 66 -31l133 -226c4 -6 9 -9 15 -9c10.667 0 21 8.66699 31 26l111 192c8 13.333 19.333 24.666 34 33.999
s28.667 14 42 14h240c13.333 0 27.333 4.66699 42 14s26 20.666 34 33.999l110 192c5.33301 8.66699 8 16.667 8 24c0 16 -9.33301 24 -28 24h-336c-18 0 -27 8 -27 24c0 7.33301 2.33301 15.333 7 24l55 96c8 13.333 19.333 24.666 34 33.999s28.667 14 42 14
c18.667 0 28 -8 28 -24c0 -7.33301 -2.66699 -15.333 -8 -24l-27 -48c-5.33301 -8.66699 -8 -16.667 -8 -24c0 -16 9.33301 -24 28 -24h240z" />
    <glyph glyph-name="percent" unicode="%" horiz-adv-x="1109" 
d="M993 564c10 17.333 15 35.333 15 54c0 10.667 -1.66699 19 -5 25l-133 226c-4 6 -9 9 -15 9c-10.667 0 -21 -8.66699 -31 -26l-513 -888c-10 -16.667 -15 -34.667 -15 -54c0 -10 2 -18.333 6 -25l133 -225c3.33301 -6.66699 8 -10 14 -10c11.333 0 22 8.66699 32 26z
M545 744c-46 0 -95.002 -16.333 -147.002 -49s-91.333 -72.334 -118 -119.001c-17.333 -30 -26 -58 -26 -84c0 -25.333 8.5 -45.666 25.5 -60.999s40.833 -23 71.5 -23c46.667 0 95.834 16.333 147.501 49s90.834 72.334 117.501 119.001c17.333 30 26 58 26 84
c0 25.333 -8.5 45.666 -25.5 60.999s-40.833 23 -71.5 23zM980.998 168c-46.667 0 -95.832 -16.333 -147.499 -49s-90.834 -72.334 -117.501 -119.001c-17.333 -30 -26 -58 -26 -84c0 -25.333 8.5 -45.666 25.5 -60.999s40.833 -23 71.5 -23c46 0 94.833 16.333 146.5 49
s91.167 72.334 118.5 119.001c17.333 30 26 58 26 84c0 25.333 -8.66699 45.666 -26 60.999s-41 23 -71 23z" />
    <glyph glyph-name="ampersand" unicode="&#x26;" horiz-adv-x="1010" 
d="M1109 288c5.33301 8.66699 8 16.6689 8 24.002c0 16 -9.33301 24 -28 24v0c-18.667 0 -28 8 -28 24c0 6 2.5 14 7.5 24s7.5 18 7.5 24c0 16 -9.33301 24 -28 24h-240c-23.333 0 -48.5 -16 -75.5 -48s-52.167 -48 -75.5 -48v0c-13.333 0 -27.333 -4.66699 -42 -14
s-26 -20.666 -34 -33.999c-4.66699 -8.66699 -7 -16.667 -7 -24c0 -16 9 -24 27 -24v0c18.667 0 28 -8 28 -24c0 -7.33301 -2.33301 -15.333 -7 -24l-56 -96c-7.33301 -13.333 -18.5 -24.666 -33.5 -33.999s-28.833 -14 -41.5 -14h-96c-18.667 0 -28 8 -28 24
c0 7.33301 2.33301 15.333 7 24l222 384c8 13.333 19.333 24.666 34 33.999s28.667 14 42 14v0h336c13.333 0 27.333 4.66699 42 14s26 20.666 34 33.999l55 96c4.66699 8.66699 7 16.667 7 24c0 16 -9 24 -27 24h-672c-13.333 0 -27.5 -4.66699 -42.5 -14
s-26.167 -20.666 -33.5 -33.999l-360 -624c-5.33301 -8.66699 -8 -16.667 -8 -24c0 -16 9.33301 -24 28 -24h768c13.333 0 27.333 4.66699 42 14s26 20.666 34 33.999l83 144c7.33301 13.333 18.5 24.666 33.5 33.999s28.833 14 41.5 14v0c13.333 0 27.5 4.66699 42.5 14
s26.167 20.666 33.5 33.999zM679 624.002c8 13.333 19.333 24.666 34 33.999s28.667 14 42 14v0c18.667 0 28 -8 28 -24c0 -7.33301 -2.66699 -15.333 -8 -24c-7.33301 -13.333 -18.5 -24.666 -33.5 -33.999s-28.833 -14 -41.5 -14v0c-18.667 0 -28 8 -28 24
c0 7.33301 2.33301 15.333 7 24z" />
    <glyph glyph-name="quotesingle" unicode="'" horiz-adv-x="380" 
d="M496 816c-12.667 0 -26.5 -4.66797 -41.5 -14.001s-26.167 -20.666 -33.5 -33.999l-111 -192c-10 -17.333 -15 -35.333 -15 -54c0 -10.667 2 -19 6 -25l132 -226c4 -6 9 -9 15 -9c11.333 0 22 8.66699 32 26l277 480c4.66699 8.66699 7 16.667 7 24
c0 16 -9.33301 24 -28 24h-240z" />
    <glyph glyph-name="parenleft" unicode="(" horiz-adv-x="660" 
d="M810 624c7.33301 13.333 18.502 24.666 33.502 33.999s29.167 14 42.5 14c11.333 0 23.666 2.33301 36.999 7c17.333 6 26 14 26 24c0 11.333 -12 17 -36 17h-336c-12.667 0 -26.5 -4.66699 -41.5 -14s-26.167 -20.666 -33.5 -33.999l-472 -816
c-4.66699 -8.66699 -7 -16.667 -7 -24c0 -16 9.33301 -24 28 -24h336c11.333 0 23.666 2.33301 36.999 7c18 6 27 14 27 24c0 8.66699 -10.667 14.167 -32 16.5s-32 10.5 -32 24.5c0 7.33301 2.33301 15.333 7 24z" />
    <glyph glyph-name="parenright" unicode=")" horiz-adv-x="663" 
d="M467 720c-11.333 0 -24.001 -2.33301 -38.001 -7c-17.333 -6 -26 -14 -26 -24c0 -8 10.667 -13.333 32 -16s32 -11 32 -25c0 -7.33301 -2.33301 -15.333 -7 -24l-416 -720c-8 -13.333 -19.333 -24.666 -34 -33.999s-28.167 -14 -40.5 -14s-25.166 -2.33301 -38.499 -7
c-18 -6 -27 -14 -27 -24c0 -11.333 12 -17 36 -17h336c13.333 0 27.5 4.66699 42.5 14s26.167 20.666 33.5 33.999l471 816c5.33301 8.66699 8 16.667 8 24c0 16 -9.33301 24 -28 24h-336z" />
    <glyph glyph-name="asterisk" unicode="*" horiz-adv-x="736" 
d="M972 527c5.33301 8.66699 8 16.667 8 24c0 16 -9.33301 24 -28 24h-72c-32 0 -54 10.333 -66 31l-133 226c-4 6 -9 9 -15 9c-10.667 0 -21 -8.66699 -31 -26l-111 -192c-8 -13.333 -19.333 -24.666 -34 -33.999s-28.667 -14 -42 -14h-72
c-13.333 0 -27.333 -4.66699 -42 -14s-26 -20.666 -34 -33.999l-55 -96c-4.66699 -8.66699 -7 -16.667 -7 -24c0 -16 9 -24 27 -24h120l152 -257c3.33301 -6 8 -9 14 -9c11.333 0 22 8.66699 32 26l111 192c7.33301 13.333 18.333 24.666 33 33.999s28.667 14 42 14h72
c13.333 0 27.5 4.66699 42.5 14s26.167 20.666 33.5 33.999z" />
    <glyph glyph-name="plus" unicode="+" horiz-adv-x="805" 
d="M828 431c-18 0 -27 7.99902 -27 23.999c0 7.33301 2.33301 15.333 7 24v0l56 96c4.66699 8.66699 7 16.667 7 24c0 16 -9.33301 24 -28 24h-240c-12.667 0 -26.5 -4.66699 -41.5 -14s-26.167 -20.666 -33.5 -33.999v0l-56 -96
c-7.33301 -13.333 -18.5 -24.666 -33.5 -33.999s-29.167 -14 -42.5 -14h-120c-12.667 0 -26.5 -4.66699 -41.5 -14s-26.167 -20.666 -33.5 -33.999l-111 -192c-4.66699 -8.66699 -7 -16.667 -7 -24c0 -16 9 -24 27 -24h120c18.667 0 28 -8 28 -24
c0 -7.33301 -2.66699 -15.333 -8 -24l-69 -120c-1.33301 -2 -2 -4 -2 -6c0 -12 12 -18 36 -18h240c32 0 52.667 8 62 24l69 120c8 13.333 19.333 24.666 34 33.999s28.667 14 42 14h120c13.333 0 27.333 4.66699 42 14s26 20.666 34 33.999l111 192
c4.66699 8.66699 7 16.667 7 24c0 16 -9.33301 24 -28 24h-120z" />
    <glyph glyph-name="comma" unicode="," horiz-adv-x="390" 
d="M201 288c-12.667 0 -26.5 -4.66797 -41.5 -14.001s-26.167 -20.666 -33.5 -33.999l-111 -192c-10 -17.333 -15 -35.333 -15 -54c0 -10.667 2 -19 6 -25l132 -226c4 -6 9 -9 15 -9c11.333 0 22 8.66699 32 26l277 480c4.66699 8.66699 7 16.667 7 24
c0 16 -9.33301 24 -28 24h-240z" />
    <glyph glyph-name="hyphen" unicode="-" horiz-adv-x="838" 
d="M290 431c-13.333 0 -27.5 -4.66699 -42.5 -14s-26.167 -20.666 -33.5 -33.999l-111 -192c-4.66699 -8.66699 -7 -16.667 -7 -24c0 -16 9 -24 27 -24h672c13.333 0 27.5 4.66699 42.5 14s26.167 20.666 33.5 33.999l111 192c4.66699 8.66699 7 16.667 7 24
c0 16 -9 24 -27 24h-672z" />
    <glyph glyph-name="hyphen" unicode="&#x2010;" horiz-adv-x="838" 
d="M290 431c-13.333 0 -27.5 -4.66699 -42.5 -14s-26.167 -20.666 -33.5 -33.999l-111 -192c-4.66699 -8.66699 -7 -16.667 -7 -24c0 -16 9 -24 27 -24h672c13.333 0 27.5 4.66699 42.5 14s26.167 20.666 33.5 33.999l111 192c4.66699 8.66699 7 16.667 7 24
c0 16 -9 24 -27 24h-672z" />
    <glyph glyph-name="period" unicode="." horiz-adv-x="390" 
d="M273 0c12.667 0 26.5 4.66699 41.5 14s26.167 20.666 33.5 33.999l111 192c5.33301 8.66699 8 16.667 8 24c0 16 -9.33301 24 -28 24h-240c-13.333 0 -27.333 -4.66699 -42 -14s-26 -20.666 -34 -33.999l-111 -192c-4.66699 -8.66699 -7 -16.667 -7 -24
c0 -16 9.33301 -24 28 -24h240z" />
    <glyph glyph-name="slash" unicode="/" horiz-adv-x="399" 
d="M717 672c10 17.333 15 35.333 15 54c0 10.667 -2 19 -6 25l-133 226c-3.33301 6 -8 9 -14 9c-11.333 0 -22 -8.66699 -32 -26l-634 -1098c-8 -14 -12 -29.333 -12 -46c0 -11.333 2 -20.333 6 -27l133 -226c3.33301 -6 8.33301 -9 15 -9c10.667 0 21 8.66699 31 26z" />
    <glyph glyph-name="zero" unicode="0" 
d="M338 528c-13.333 0 -27.5 -4.66699 -42.5 -14s-26.167 -20.666 -33.5 -33.999l-250 -432c-4.66699 -8.66699 -7 -16.667 -7 -24c0 -16 9.33301 -24 28 -24h672c12.667 0 26.5 4.66699 41.5 14s26.167 20.666 33.5 33.999l250 432c4.66699 8.66699 7 16.667 7 24
c0 16 -9 24 -27 24h-672zM472 96c-7.33301 -13.333 -18.5 -24.666 -33.5 -33.999s-29.167 -14 -42.5 -14v0c-18 0 -27 8 -27 24c0 7.33301 2.33301 15.333 7 24l194 336c8 13.333 19.333 24.666 34 33.999s28.667 14 42 14v0c18 0 27 -8 27 -24
c0 -7.33301 -2.33301 -15.333 -7 -24z" />
    <glyph glyph-name="one" unicode="1" horiz-adv-x="380" 
d="M434 528c-24 0 -44.833 -8 -62.5 -24s-38.167 -24 -61.5 -24c-13.333 0 -27.333 -4.66699 -42 -14s-26 -20.666 -34 -33.999l-222 -384c-4.66699 -8.66699 -7 -16.667 -7 -24c0 -16 9.33301 -24 28 -24h240c12.667 0 26.5 4.66699 41.5 14s26.167 20.666 33.5 33.999
l250 432c4.66699 8.66699 7 16.667 7 24c0 16 -9 24 -27 24h-144z" />
    <glyph glyph-name="two" unicode="2" horiz-adv-x="795" 
d="M861 288c13.333 0 27.333 4.66699 42 14s26 20.666 34 33.999l83 144c4.66699 8.66699 7 16.667 7 24c0 16 -9 24 -27 24h-672c-32 0 -52.667 -8 -62 -24l-42 -72c-4.66699 -8.66699 -7 -16.667 -7 -24c0 -16 9 -24 27 -24h240c13.333 0 27.5 4.66699 42.5 14
s26.167 20.666 33.5 33.999v0c8 13.333 19.333 24.666 34 33.999s28.667 14 42 14v0c18 0 27 -8 27 -24c0 -7.33301 -2.33301 -15.333 -7 -24l-28 -48c-7.33301 -13.333 -18.5 -24.666 -33.5 -33.999s-28.833 -14 -41.5 -14v0h-336c-13.333 0 -27.5 -4.66699 -42.5 -14
s-26.167 -20.666 -33.5 -33.999l-139 -240c-4.66699 -8.66699 -7 -16.667 -7 -24c0 -16 9.33301 -24 28 -24h672c32 0 52.667 8 62 24l69 120c4.66699 8.66699 7 16.667 7 24c0 16 -9 24 -27 24h-240c-13.333 0 -27.5 -4.66699 -42.5 -14s-26.167 -20.666 -33.5 -33.999
l-28 -48c-7.33301 -13.333 -18.5 -24.666 -33.5 -33.999s-29.167 -14 -42.5 -14v0c-18 0 -27 8 -27 24c0 7.33301 2.33301 15.333 7 24l83 144c8 13.333 19.333 24.666 34 33.999s28.667 14 42 14v0h336z" />
    <glyph glyph-name="three" unicode="3" horiz-adv-x="805" 
d="M935.5 350c15 9.33301 26.168 20.666 33.501 33.999l56 96c4.66699 8.66699 7 16.667 7 24c0 16 -9 24 -27 24h-672c-13.333 0 -27.5 -4.66699 -42.5 -14s-26.167 -20.666 -33.5 -33.999l-28 -48c-4.66699 -8.66699 -7 -16.667 -7 -24c0 -16 9 -24 27 -24h240
c13.333 0 27.5 4.66699 42.5 14s26.167 20.666 33.5 33.999v0c8 13.333 19.333 24.666 34 33.999s28.667 14 42 14v0c18 0 27 -8 27 -24c0 -7.33301 -2.33301 -15.333 -7 -24l-28 -48c-7.33301 -13.333 -18.5 -24.666 -33.5 -33.999s-28.833 -14 -41.5 -14v0
c-12 0 -24.667 -2.33301 -38 -7c-17.333 -6 -26 -14 -26 -24c0 -11.333 12 -17 36 -17v0c18.667 0 28 -8 28 -24c0 -7.33301 -2.66699 -15.333 -8 -24l-83 -144c-7.33301 -13.333 -18.5 -24.666 -33.5 -33.999s-29.167 -14 -42.5 -14v0c-18 0 -27 8 -27 24
c0 7.33301 2.33301 15.333 7 24l56 96c4.66699 8.66699 7 16.667 7 24c0 16 -9.33301 24 -28 24h-240c-13.333 0 -27.333 -4.66699 -42 -14s-25.667 -20.666 -33 -33.999l-84 -144c-4.66699 -8.66699 -7 -16.667 -7 -24c0 -16 9.33301 -24 28 -24h672
c12.667 0 26.5 4.66699 41.5 14s26.167 20.666 33.5 33.999l111 192c5.33301 8.66699 8 16.667 8 24c0 16 -9.33301 24 -28 24v0c-24 0 -36 5.66699 -36 17c0 10 8.66699 18 26 24c13.333 4.66699 26.166 7 38.499 7s26 4.66699 41 14z" />
    <glyph glyph-name="four" unicode="4" horiz-adv-x="805" 
d="M763 528c-13.333 0 -27.333 -4.66895 -42 -14.002s-25.667 -20.666 -33 -33.999l-56 -96c-7.33301 -13.333 -18.5 -24.666 -33.5 -33.999s-29.167 -14 -42.5 -14v0c-18 0 -27 8 -27 24c0 7.33301 2.33301 15.333 7 24l56 96c4.66699 8.66699 7 16.667 7 24
c0 16 -9.33301 24 -28 24h-240c-13.333 0 -27.333 -4.66699 -42 -14s-25.667 -20.666 -33 -33.999l-84 -144c-4.66699 -8.66699 -7 -16.667 -7 -24c0 -16 9.33301 -24 28 -24h336c18 0 27 -8 27 -24c0 -7.33301 -2.33301 -15.333 -7 -24l-111 -192
c-4.66699 -8.66699 -7 -16.667 -7 -24c0 -16 9 -24 27 -24h240c13.333 0 27.5 4.66699 42.5 14s26.167 20.666 33.5 33.999l250 432c4.66699 8.66699 7 16.667 7 24c0 16 -9.33301 24 -28 24h-240z" />
    <glyph glyph-name="five" unicode="5" horiz-adv-x="820" 
d="M985 480c11.333 0 24 2.33203 38 6.99902c17.333 6 26 14 26 24c0 11.333 -12 17 -36 17h-672c-13.333 0 -27.333 -4.66699 -42 -14s-26 -20.666 -34 -33.999l-83 -144c-4.66699 -8.66699 -7 -16.667 -7 -24c0 -16 9 -24 27 -24h336c18.667 0 28 -8 28 -24
c0 -7.33301 -2.33301 -15.333 -7 -24l-83 -144c-8 -13.333 -19.333 -24.666 -34 -33.999s-28.667 -14 -42 -14v0c-18.667 0 -28 8 -28 24c0 7.33301 2.66699 15.333 8 24l27 48c5.33301 8.66699 8 16.667 8 24c0 16 -9.33301 24 -28 24h-240
c-13.333 0 -27.333 -4.66699 -42 -14s-26 -20.666 -34 -33.999l-69 -120c-1.33301 -2 -2 -4.33301 -2 -7c0 -11.333 12 -17 36 -17h672c13.333 0 27.333 4.66699 42 14s26 20.666 34 33.999l138 240c5.33301 8.66699 8 16.667 8 24c0 16 -9.33301 24 -28 24h-336
c-18.667 0 -28 8 -28 24c0 7.33301 2.66699 15.333 8 24l28 48c7.33301 13.333 18.333 24.666 33 33.999s28.667 14 42 14h336z" />
    <glyph glyph-name="six" unicode="6" horiz-adv-x="830" 
d="M931 384c13.333 0 27.5 4.66895 42.5 14.002s26.167 20.666 33.5 33.999l28 48c4.66699 8.66699 7 16.667 7 24c0 16 -9 24 -27 24h-672c-13.333 0 -27.5 -4.66699 -42.5 -14s-26.167 -20.666 -33.5 -33.999l-250 -432c-4.66699 -8.66699 -7 -16.667 -7 -24
c0 -16 9.33301 -24 28 -24h672c12.667 0 26.5 4.66699 41.5 14s26.167 20.666 33.5 33.999l139 240c4.66699 8.66699 7 16.667 7 24c0 16 -9 24 -27 24h-336c-18.667 0 -28 8 -28 24c0 7.33301 2.33301 15.333 7 24l28 48c8 13.333 19.333 24.666 34 33.999s28.667 14 42 14
v0c18 0 27 -8 27 -24c0 -7.33301 -2.33301 -15.333 -7 -24v0c-4.66699 -8.66699 -7 -16.667 -7 -24c0 -16 9 -24 27 -24h240zM540 288.002c18.667 0 28 -8 28 -24c0 -7.33301 -2.66699 -15.333 -8 -24l-83 -144c-7.33301 -13.333 -18.5 -24.666 -33.5 -33.999
s-29.167 -14 -42.5 -14v0c-18 0 -27 8 -27 24c0 7.33301 2.33301 15.333 7 24l83 144c8 13.333 19.333 24.666 34 33.999s28.667 14 42 14z" />
    <glyph glyph-name="seven" unicode="7" horiz-adv-x="815" 
d="M331 528c-13.333 0 -27.333 -4.66504 -42 -13.998s-26 -20.666 -34 -33.999l-28 -48c-4.66699 -8.66699 -7 -16.667 -7 -24c0 -16 9.33301 -24 28 -24h240c12.667 0 26.5 4.66699 41.5 14s26.167 20.666 33.5 33.999v0c8 13.333 19.333 24.666 34 33.999s28.667 14 42 14
v0c18.667 0 28 -8 28 -24c0 -7.33301 -2.66699 -15.333 -8 -24l-221 -384c-5.33301 -8.66699 -8 -16.667 -8 -24c0 -16 9.33301 -24 28 -24h240c13.333 0 27.333 4.66699 42 14s26 20.666 34 33.999l249 432c4.66699 8.66699 7 16.667 7 24c0 16 -9 24 -27 24h-672z" />
    <glyph glyph-name="eight" unicode="8" 
d="M941.5 350c15 9.33301 26.167 20.666 33.5 33.999l55 96c5.33301 8.66699 8 16.667 8 24c0 16 -9.33301 24 -28 24h-672c-13.333 0 -27.333 -4.66699 -42 -14s-26 -20.666 -34 -33.999l-55 -96c-4.66699 -8.66699 -7 -16.667 -7 -24c0 -16 9 -24 27 -24v0
c24 0 36 -5.66699 36 -17c0 -10 -8.66699 -18 -26 -24c-13.333 -4.66699 -25.666 -7 -36.999 -7v0c-13.333 0 -27.5 -4.66699 -42.5 -14s-26.167 -20.666 -33.5 -33.999l-111 -192c-4.66699 -8.66699 -7 -16.667 -7 -24c0 -16 9 -24 27 -24h672
c13.333 0 27.5 4.66699 42.5 14s26.167 20.666 33.5 33.999l111 192c4.66699 8.66699 7 16.667 7 24c0 16 -9 24 -27 24v0c-24 0 -36 5.66699 -36 17c0 10 8.66699 18 26 24c13.333 4.66699 26.166 7 38.499 7s26 4.66699 41 14zM473 96
c-8 -13.333 -19.333 -24.666 -34 -33.999s-28.667 -14 -42 -14v0c-18.667 0 -28 8 -28 24c0 7.33301 2.66699 15.333 8 24l83 144c7.33301 13.333 18.5 24.666 33.5 33.999s29.167 14 42.5 14v0c18 0 27 -8 27 -24c0 -7.33301 -2.33301 -15.333 -7 -24zM639 384
c-7.33301 -13.333 -18.5 -24.666 -33.5 -33.999s-29.167 -14 -42.5 -14v0c-18 0 -27 8 -27 24c0 7.33301 2.33301 15.333 7 24l28 48c7.33301 13.333 18.5 24.666 33.5 33.999s28.833 14 41.5 14v0c18.667 0 28 -8 28 -24c0 -7.33301 -2.33301 -15.333 -7 -24z" />
    <glyph glyph-name="nine" unicode="9" 
d="M1034 480c5.33301 8.66699 8 16.665 8 23.998c0 16 -9.33301 24 -28 24h-671c-13.333 0 -27.5 -4.66699 -42.5 -14s-26.167 -20.666 -33.5 -33.999l-83 -144c-5.33301 -8.66699 -8 -16.667 -8 -24c0 -16 9.33301 -24 28 -24h335c18.667 0 28 -8 28 -24
c0 -7.33301 -2.33301 -15.333 -7 -24l-83 -144c-8 -13.333 -19.333 -24.666 -34 -33.999s-28.667 -14 -42 -14c-18 0 -27 8 -27 24c0 7.33301 2.33301 15.333 7 24l56 96c4.66699 8.66699 7 16.667 7 24c0 16 -9.33301 24 -28 24h-240c-13.333 0 -27.333 -4.66699 -42 -14
s-25.667 -20.666 -33 -33.999l-84 -144c-4.66699 -8.66699 -7 -16.667 -7 -24c0 -16 9.33301 -24 28 -24h671c13.333 0 27.333 4.66699 42 14s26 20.666 34 33.999zM567 335.998c-18 0 -27 8 -27 24c0 7.33301 2.33301 15.333 7 24l28 48c8 13.333 19.333 24.666 34 33.999
s28.667 14 42 14c18 0 27 -8 27 -24c0 -7.33301 -2.33301 -15.333 -7 -24l-28 -48c-8 -13.333 -19.333 -24.666 -34 -33.999s-28.667 -14 -42 -14z" />
    <glyph glyph-name="colon" unicode=":" horiz-adv-x="396" 
d="M478 336c13.333 0 27.333 4.66699 42 14s26 20.666 34 33.999l55 96c5.33301 8.66699 8 16.667 8 24c0 16 -9.33301 24 -28 24h-240c-13.333 0 -27.333 -4.66699 -42 -14s-26 -20.666 -34 -33.999l-55 -96c-5.33301 -8.66699 -8 -16.667 -8 -24c0 -16 9.33301 -24 28 -24
h240zM284 0c13.333 0 27.333 4.66699 42 14s26 20.666 34 33.999l111 192c4.66699 8.66699 7 16.667 7 24c0 16 -9.33301 24 -28 24h-240c-12.667 0 -26.5 -4.66699 -41.5 -14s-26.167 -20.666 -33.5 -33.999l-111 -192c-4.66699 -8.66699 -7 -16.667 -7 -24
c0 -16 9 -24 27 -24h240z" />
    <glyph glyph-name="semicolon" unicode=";" horiz-adv-x="396" 
d="M347 528c-13.333 0 -27.5 -4.66699 -42.5 -14s-26.167 -20.666 -33.5 -33.999l-56 -96c-4.66699 -8.66699 -7 -16.667 -7 -24c0 -16 9.33301 -24 28 -24h240c13.333 0 27.333 4.66699 42 14s25.667 20.666 33 33.999l56 96c4.66699 8.66699 7 16.667 7 24
c0 16 -9 24 -27 24h-240zM21 48c-9.33301 -17.333 -14 -35.334 -14 -54.001c0 -10.667 1.66699 -19 5 -25l133 -226c3.33301 -6 8 -9 14 -9c11.333 0 22 8.66699 32 26l277 480c5.33301 8.66699 8 16.667 8 24c0 16 -9.33301 24 -28 24h-240
c-13.333 0 -27.333 -4.66699 -42 -14s-26 -20.666 -34 -33.999z" />
    <glyph glyph-name="less" unicode="&#x3c;" horiz-adv-x="551" 
d="M345 209c-4 6 -6 14.332 -6 24.999c0 18.667 5 36.667 15 54l277 480c5.33301 8.66699 8 16.667 8 24c0 16 -9.33301 24 -28 24h-240c-13.333 0 -27.333 -4.66699 -42 -14s-26 -20.666 -34 -33.999l-277 -480c-10 -17.333 -15 -35.333 -15 -54c0 -10.667 2 -19 6 -25
l133 -226c12 -20.667 34 -31 66 -31h240c22 0 33 6.66699 33 20c0 4 -1 7.66699 -3 11z" />
    <glyph glyph-name="equal" unicode="=" horiz-adv-x="752" 
d="M351 528c-13.333 0 -27.333 -4.66699 -42 -14s-26 -20.666 -34 -33.999l-55 -96c-5.33301 -8.66699 -8 -16.667 -8 -24c0 -16 9.33301 -24 28 -24h576c13.333 0 27.333 4.66699 42 14s26 20.666 34 33.999l55 96c5.33301 8.66699 8 16.667 8 24c0 16 -9.33301 24 -28 24
h-576zM185 240c-13.333 0 -27.5 -4.66699 -42.5 -14s-26.167 -20.666 -33.5 -33.999l-55 -96c-5.33301 -8.66699 -8 -16.667 -8 -24c0 -16 9.33301 -24 28 -24h576c13.333 0 27.333 4.66699 42 14s26 20.666 34 33.999l55 96c4.66699 8.66699 7 16.667 7 24
c0 16 -9 24 -27 24h-576z" />
    <glyph glyph-name="greater" unicode="&#x3e;" horiz-adv-x="429" 
d="M279 -48c13.333 0 27.5 4.66797 42.5 14.001s26.167 20.666 33.5 33.999l277 480c10 17.333 15 35.333 15 54c0 10.667 -1.66699 19 -5 25l-133 226c-12.667 20.667 -35 31 -67 31h-240c-22 0 -33 -6.66699 -33 -20c0 -3.33301 1.33301 -7 4 -11l133 -226
c3.33301 -6 5 -14.333 5 -25c0 -18.667 -5 -36.667 -15 -54l-221 -384l-42 -72l-28 -48c-1.33301 -2 -2 -4.33301 -2 -7c0 -11.333 12 -17 36 -17h240z" />
    <glyph glyph-name="question" unicode="?" 
d="M135 192c-13.333 0 -27.333 -4.66699 -42 -14s-25.667 -20.666 -33 -33.999l-56 -96c-4.66699 -8.66699 -7 -16.667 -7 -24c0 -16 9 -24 27 -24h240c13.333 0 27.5 4.66699 42.5 14s26.167 20.666 33.5 33.999l56 96c4.66699 8.66699 7 16.667 7 24
c0 16 -9.33301 24 -28 24h-240zM251 816c-13.333 0 -27.5 -4.66602 -42.5 -13.999s-26.167 -20.666 -33.5 -33.999l-55 -96c-5.33301 -8.66699 -8 -16.667 -8 -24c0 -16 9.33301 -24 28 -24h240c13.333 0 27.333 4.66699 42 14s26 20.666 34 33.999l27 48
c8 13.333 19.333 24.666 34 33.999s28.667 14 42 14c11.333 0 24 2.33301 38 7c17.333 6 26 14 26 24c0 11.333 -12 17 -36 17v0h-336zM534 384.001c8 13.333 19.333 24.666 34 33.999s28.667 14 42 14h120c13.333 0 27.333 4.66699 42 14s26 20.666 34 33.999l166 288
c4.66699 8.66699 7 16.667 7 24c0 16 -9.33301 24 -28 24h-240c-12.667 0 -26.5 -4.66699 -41.5 -14s-26.167 -20.666 -33.5 -33.999l-111 -192c-8 -13.333 -19.333 -24.666 -34 -33.999s-28.667 -14 -42 -14h-120c-13.333 0 -27.333 -4.66699 -42 -14
s-26 -20.666 -34 -33.999l-83 -144c-4.66699 -8.66699 -7 -16.667 -7 -24c0 -16 9.33301 -24 28 -24h240c12.667 0 26.5 4.66699 41.5 14s26.167 20.666 33.5 33.999z" />
    <glyph glyph-name="A" unicode="A" horiz-adv-x="815" 
d="M328 528c-13.333 0 -27.5 -4.66699 -42.5 -14s-26.167 -20.666 -33.5 -33.999l-56 -96c-4.66699 -8.66699 -7 -16.667 -7 -24c0 -16 9.33301 -24 28 -24h240c12.667 0 26.5 4.66699 41.5 14s26.167 20.666 33.5 33.999l28 48c8 13.333 19.333 24.666 34 33.999
s28.667 14 42 14v0c18 0 27 -8 27 -24c0 -7.33301 -2.33301 -15.333 -7 -24l-55 -96c-8 -13.333 -19.333 -24.666 -34 -33.999s-28.667 -14 -42 -14v0h-336c-13.333 0 -27.333 -4.66699 -42 -14s-26 -20.666 -34 -33.999l-111 -192c-4.66699 -8.66699 -7 -16.667 -7 -24
c0 -16 9.33301 -24 28 -24h672c12.667 0 26.5 4.66699 41.5 14s26.167 20.666 33.5 33.999l250 432c4.66699 8.66699 7 16.667 7 24c0 16 -9 24 -27 24h-672zM462 96c-7.33301 -13.333 -18.5 -24.666 -33.5 -33.999s-29.167 -14 -42.5 -14v0c-18 0 -27 8 -27 24
c0 7.33301 2.33301 15.333 7 24l56 96c7.33301 13.333 18.333 24.666 33 33.999s28.667 14 42 14v0c18.667 0 28 -8 28 -24c0 -7.33301 -2.33301 -15.333 -7 -24z" />
    <glyph glyph-name="B" unicode="B" horiz-adv-x="805" 
d="M675 528c-19.333 0 -29 7.66797 -29 23.001c0 6 1.66699 12.333 5 19c8 14 12 29.333 12 46c0 11.333 -2 20.333 -6 27l-133 226c-3.33301 6 -8 9 -14 9c-11.333 0 -22 -8.66699 -32 -26l-464 -804c-4.66699 -8.66699 -7 -16.667 -7 -24c0 -16 9 -24 27 -24h672
c13.333 0 27.5 4.66699 42.5 14s26.167 20.666 33.5 33.999l249 432c5.33301 8.66699 8 16.667 8 24c0 16 -9.33301 24 -28 24h-336zM474 96.001c-8 -13.333 -19.333 -24.666 -34 -33.999s-28.667 -14 -42 -14c-18.667 0 -28 8 -28 24c0 7.33301 2.66699 15.333 8 24
l194 336c7.33301 13.333 18.5 24.666 33.5 33.999s28.833 14 41.5 14c18.667 0 28 -8 28 -24c0 -7.33301 -2.33301 -15.333 -7 -24z" />
    <glyph glyph-name="C" unicode="C" horiz-adv-x="805" 
d="M894 336c12.667 0 26.5 4.66699 41.5 14s26.167 20.666 33.5 33.999l56 96c4.66699 8.66699 7 16.667 7 24c0 16 -9 24 -27 24h-672c-13.333 0 -27.5 -4.66699 -42.5 -14s-26.167 -20.666 -33.5 -33.999l-250 -432c-4.66699 -8.66699 -7 -16.667 -7 -24
c-0 -16 9.33301 -24 28 -24h672c12.667 0 26.5 4.66699 41.5 14s26.167 20.666 33.5 33.999l111 192c5.33301 8.66699 8 16.667 8 24c0 16 -9.33301 24 -28 24h-240c-13.333 0 -27.333 -4.66699 -42 -14s-26 -20.666 -34 -33.999l-83 -144
c-7.33301 -13.333 -18.5 -24.666 -33.5 -33.999s-29.167 -14 -42.5 -14v0c-18 0 -27 8 -27 24c0 7.33301 2.33301 15.333 7 24l194 336c8 13.333 19.333 24.666 34 33.999s28.667 14 42 14v0c18 0 27 -8 27 -24c0 -7.33301 -2.33301 -15.333 -7 -24l-28 -48
c-4.66699 -8.66699 -7 -16.667 -7 -24c0 -16 9.33301 -24 28 -24h240z" />
    <glyph glyph-name="D" unicode="D" horiz-adv-x="805" 
d="M943 869c-3.33301 6 -8 8.99902 -14 8.99902c-11.333 0 -22 -8.66699 -32 -26l-159 -276c-8 -13.333 -19.333 -24.666 -34 -33.999s-28.667 -14 -42 -14v0h-336c-13.333 0 -27.333 -4.66699 -42 -14s-26 -20.666 -34 -33.999l-249 -432
c-5.33301 -8.66699 -8 -16.667 -8 -24c0 -16 9.33301 -24 28 -24h672c13.333 0 27.333 4.66699 42 14s26 20.666 34 33.999l301 522c8 14 12 29.333 12 46c0 11.333 -2 20.333 -6 27zM461 95.999c-8 -13.333 -19.333 -24.666 -34 -33.999s-28.667 -14 -42 -14v0
c-18.667 0 -28 8 -28 24c0 7.33301 2.66699 15.333 8 24l193 336c8 13.333 19.333 24.666 34 33.999s28.667 14 42 14v0c18.667 0 28 -8 28 -24c0 -7.33301 -2.66699 -15.333 -8 -24z" />
    <glyph glyph-name="E" unicode="E" horiz-adv-x="805" 
d="M499 240h336c13.333 0 27.333 4.66699 42 14s26 20.666 34 33.999l111 192c4.66699 8.66699 7 16.667 7 24c0 16 -9.33301 24 -28 24h-672c-13.333 0 -27.333 -4.66699 -42 -14s-25.667 -20.666 -33 -33.999l-250 -432c-4.66699 -8.66699 -7 -16.667 -7 -24
c0 -16 9 -24 27 -24h672c13.333 0 27.5 4.66699 42.5 14s26.167 20.666 33.5 33.999l56 96c4.66699 8.66699 7 16.667 7 24c0 16 -9.33301 24 -28 24h-240c-13.333 0 -27.333 -4.66699 -42 -14s-25.667 -20.666 -33 -33.999l-28 -48c-8 -13.333 -19.333 -24.666 -34 -33.999
s-28.667 -14 -42 -14c-18.667 0 -28 8 -28 24c0 7.33301 2.66699 15.333 8 24l55 96c8 13.333 19.333 24.666 34 33.999s28.667 14 42 14zM562 432c7.33301 13.333 18.5 24.666 33.5 33.999s29.167 14 42.5 14c18 0 27 -8 27 -24c0 -7.33301 -2.33301 -15.333 -7 -24
l-56 -96c-7.33301 -13.333 -18.5 -24.666 -33.5 -33.999s-28.833 -14 -41.5 -14c-18.667 0 -28 8 -28 24c0 7.33301 2.33301 15.333 7 24z" />
    <glyph glyph-name="F" unicode="F" horiz-adv-x="376" 
d="M808 768c11.333 0 23.668 2.33398 37.001 7.00098c17.333 6 26 14 26 24c0 11.333 -12 17 -36 17h-336c-13.333 0 -27.333 -4.66699 -42 -14s-25.667 -20.666 -33 -33.999l-464 -803c-10 -17.333 -15 -35.333 -15 -54c0 -10.667 2 -19 6 -25l132 -226c4 -6 9 -9 15 -9
c11.333 0 22 8.66699 32 26l491 851c7.33301 13.333 18.5 24.666 33.5 33.999s29.167 14 42.5 14v0c11.333 0 23.666 2.33301 36.999 7c17.333 6 26 14 26 24c0 11.333 -12 17 -36 17v0c-18 0 -27 8 -27 24c0 7.33301 2.33301 15.333 7 24l28 48
c7.33301 13.333 18.5 24.666 33.5 33.999s29.167 14 42.5 14z" />
    <glyph glyph-name="G" unicode="G" horiz-adv-x="795" 
d="M511 -340c4 -6.66699 9 -10.002 15 -10.002c11.333 0 22 8.66699 32 26l325 564c4.66699 8.66699 7 16.667 7 24c0 16 -9 24 -27 24h-240c-13.333 0 -27.5 -4.66699 -42.5 -14s-26.167 -20.666 -33.5 -33.999l-83 -144c-8 -13.333 -19.333 -24.666 -34 -33.999
s-28.667 -14 -42 -14v0c-18.667 0 -28 8 -28 24c0 7.33301 2.66699 15.333 8 24l194 336c7.33301 13.333 18.5 24.666 33.5 33.999s29.167 14 42.5 14v0c18 0 27 -8 27 -24c0 -7.33301 -2.33301 -15.333 -7 -24l-28 -48c-4.66699 -8.66699 -7 -16.667 -7 -24
c0 -16 9 -24 27 -24h240c13.333 0 27.5 4.66699 42.5 14s26.167 20.666 33.5 33.999l56 96c4.66699 8.66699 7 16.667 7 24c0 16 -9.33301 24 -28 24h-672c-13.333 0 -27.333 -4.66699 -42 -14s-25.667 -20.666 -33 -33.999l-250 -432c-4.66699 -8.66699 -7 -16.667 -7 -24
c0 -16 9 -24 27 -24h336c20 0 30 -7.66699 30 -23c0 -6 -2 -12.333 -6 -19c-8 -13.333 -12 -28.333 -12 -45c0 -11.333 2 -20.666 6 -27.999z" />
    <glyph glyph-name="H" unicode="H" 
d="M662 528c-20 0 -30 7.66992 -30 23.0029c0 6 2 12.333 6 19c8 14 12 29.333 12 46c0 11.333 -2 20.333 -6 27l-133 226c-3.33301 6 -8 9 -14 9c-11.333 0 -22 -8.66699 -32 -26l-464 -804c-5.33301 -8.66699 -8 -16.667 -8 -24c0 -16 9.33301 -24 28 -24h240
c13.333 0 27.333 4.66699 42 14s26 20.666 34 33.999l221 384c8 13.333 19.333 24.666 34 33.999s28.667 14 42 14v0c18.667 0 28 -8 28 -24c0 -7.33301 -2.66699 -15.333 -8 -24l-221 -384c-5.33301 -8.66699 -8 -16.667 -8 -24c0 -16 9.33301 -24 28 -24h240
c13.333 0 27.333 4.66699 42 14s26 20.666 34 33.999l249 432c5.33301 8.66699 8 16.667 8 24c0 16 -9.33301 24 -28 24h-336z" />
    <glyph glyph-name="I" unicode="I" horiz-adv-x="386" 
d="M278 0c12.667 0 26.5 4.66699 41.5 14s26.167 20.666 33.5 33.999l250 432c4.66699 8.66699 7 16.667 7 24c0 16 -9.33301 24 -28 24h-240c-12.667 0 -26.5 -4.66699 -41.5 -14s-26.167 -20.666 -33.5 -33.999l-250 -432c-4.66699 -8.66699 -7 -16.667 -7 -24
c0 -16 9.33301 -24 28 -24h240z" />
    <glyph glyph-name="J" unicode="J" horiz-adv-x="429" 
d="M643 481c4.66699 8.66699 7 16.666 7 23.999c0 16 -9 24 -27 24h-240c-13.333 0 -27.5 -4.66699 -42.5 -14s-26.167 -20.666 -33.5 -33.999l-302 -522c-8 -14 -12 -29.333 -12 -46c0 -11.333 2.33301 -20.333 7 -27l132 -226c4 -6 9 -9 15 -9c11.333 0 22 8.66699 32 26z
" />
    <glyph glyph-name="K" unicode="K" 
d="M1034 480c5.33301 8.66699 8 16.6689 8 24.002c0 16 -9.33301 24 -28 24h-240c-13.333 0 -27.333 -4.66699 -42 -14s-26 -20.666 -34 -33.999l-28 -48c-7.33301 -13.333 -18.333 -24.666 -33 -33.999s-28.667 -14 -42 -14v0c-18.667 0 -28 8 -28 24
c0 7.33301 2.33301 15.333 7 24l80 138c8 14 12 29.333 12 46c0 11.333 -2 20.333 -6 27l-133 226c-3.33301 6 -8 9 -14 9c-11.333 0 -22 -8.66699 -32 -26l-464 -804c-5.33301 -8.66699 -8 -16.667 -8 -24c0 -16 9.33301 -24 28 -24h240c13.333 0 27.333 4.66699 42 14
s26 20.666 34 33.999l138 240c8 13.333 19.333 24.666 34 33.999s28.667 14 42 14v0c18.667 0 28 -8 28 -24c0 -7.33301 -2.66699 -15.333 -8 -24l-138 -240c-5.33301 -8.66699 -8 -16.667 -8 -24c0 -16 9.33301 -24 28 -24h240c13.333 0 27 4.16699 41 12.5
s24.333 18.166 31 29.499c8 14 12 29.333 12 46c0 11.333 -2 20.333 -6 27l-111 190c-2.66699 4 -4 7.66699 -4 11c0 13.333 11 20 33 20h198c13.333 0 27.333 4.66699 42 14s26 20.666 34 33.999z" />
    <glyph glyph-name="L" unicode="L" horiz-adv-x="386" 
d="M521 869c-3.33301 6 -8 9.00098 -14 9.00098c-11.333 0 -22 -8.66699 -32 -26l-159 -276l-305 -528c-5.33301 -8.66699 -8 -16.667 -8 -24c0 -16 9.33301 -24 28 -24h240c13.333 0 27.333 4.66699 42 14s26 20.666 34 33.999l301 522c8 14 12 29.333 12 46
c0 11.333 -2 20.333 -6 27z" />
    <glyph glyph-name="M" unicode="M" horiz-adv-x="1234" 
d="M813 -42c-8 -13.333 -12 -28.3311 -12 -44.998c0 -11.333 2 -20.666 6 -27.999l133 -225c4 -6.66699 9 -10 15 -10c10.667 0 21 8.66699 31 26l464 804c5.33301 8.66699 8 16.667 8 24c0 16 -9.33301 24 -28 24h-1104c-13.333 0 -27.333 -4.66699 -42 -14
s-26 -20.666 -34 -33.999l-249 -432c-5.33301 -8.66699 -8 -16.667 -8 -24c0 -16 9.33301 -24 28 -24h240c13.333 0 27.333 4.66699 42 14s26 20.666 34 33.999l221 384c8 13.333 19.333 24.666 34 33.999s28.667 14 42 14v0c18.667 0 28 -8 28 -24
c0 -7.33301 -2.66699 -15.333 -8 -24l-221 -384c-5.33301 -8.66699 -8 -16.667 -8 -24c0 -16 9.33301 -24 28 -24h240c13.333 0 27.333 4.66699 42 14s26 20.666 34 33.999l222 384c7.33301 13.333 18.333 24.666 33 33.999s28.667 14 42 14v0c18.667 0 28 -8 28 -24
c0 -7.33301 -2.33301 -15.333 -7 -24z" />
    <glyph glyph-name="N" unicode="N" 
d="M343 528c-12.667 0 -26.5 -4.66504 -41.5 -13.998s-26.167 -20.666 -33.5 -33.999l-250 -432c-4.66699 -8.66699 -7 -16.667 -7 -24c0 -16 9.33301 -24 28 -24h240c12.667 0 26.5 4.66699 41.5 14s26.167 20.666 33.5 33.999l222 384
c7.33301 13.333 18.5 24.666 33.5 33.999s29.167 14 42.5 14c18 0 27 -8 27 -24c0 -7.33301 -2.33301 -15.333 -7 -24l-222 -384c-4.66699 -8.66699 -7 -16.667 -7 -24c0 -16 9.33301 -24 28 -24h240c12.667 0 26.5 4.66699 41.5 14s26.167 20.666 33.5 33.999l250 432
c4.66699 8.66699 7 16.667 7 24c0 16 -9.33301 24 -28 24h-672z" />
    <glyph glyph-name="O" unicode="O" 
d="M349 528c-12.667 0 -26.5 -4.66699 -41.5 -14s-26.167 -20.666 -33.5 -33.999l-250 -432c-4.66699 -8.66699 -7 -16.667 -7 -24c0 -16 9.33301 -24 28 -24h672c12.667 0 26.5 4.66699 41.5 14s26.167 20.666 33.5 33.999l250 432c4.66699 8.66699 7 16.667 7 24
c0 16 -9.33301 24 -28 24h-672zM484 96c-7.33301 -13.333 -18.5 -24.666 -33.5 -33.999s-29.167 -14 -42.5 -14v0c-18 0 -27 8 -27 24c0 7.33301 2.33301 15.333 7 24l194 336c7.33301 13.333 18.5 24.666 33.5 33.999s29.167 14 42.5 14v0c18 0 27 -8 27 -24
c0 -7.33301 -2.33301 -15.333 -7 -24z" />
    <glyph glyph-name="P" unicode="P" horiz-adv-x="855" 
d="M382 528c-13.333 0 -27.333 -4.66699 -42 -14s-25.667 -20.666 -33 -33.999l-302 -522c-8 -13.333 -12 -28.333 -12 -45c0 -11.333 2.33301 -20.666 7 -27.999l132 -225c4 -6.66699 9 -10 15 -10c11.333 0 22 8.66699 32 26l159 276
c7.33301 13.333 18.5 24.666 33.5 33.999s28.833 14 41.5 14v0h336c13.333 0 27.5 4.66699 42.5 14s26.167 20.666 33.5 33.999l250 432c4.66699 8.66699 7 16.667 7 24c0 16 -9.33301 24 -28 24h-672zM517 96c-8 -13.333 -19.333 -24.666 -34 -33.999s-28.667 -14 -42 -14
v0c-18.667 0 -28 8 -28 24c0 7.33301 2.66699 15.333 8 24l194 336c7.33301 13.333 18.5 24.666 33.5 33.999s29.167 14 42.5 14v0c18 0 27 -8 27 -24c0 -7.33301 -2.33301 -15.333 -7 -24z" />
    <glyph glyph-name="Q" unicode="Q" 
d="M1031 480c5.33301 8.66699 8 16.666 8 23.999c0 16 -9.33301 24 -28 24h-672c-13.333 0 -27.333 -4.66699 -42 -14s-26 -20.666 -34 -33.999l-249 -432c-5.33301 -8.66699 -8 -16.667 -8 -24c0 -16 9.33301 -24 28 -24h336c20 -0 30 -7.66699 30 -23
c0 -6 -2 -12.333 -6 -19c-8 -14 -12 -29.333 -12 -46c0 -11.333 2 -20.333 6 -27l133 -226c3.33301 -6 8 -9 14 -9c11.333 0 22 8.66699 32 26zM398 47.999c-18.667 0 -28 8 -28 24c0 7.33301 2.66699 15.333 8 24l194 336c7.33301 13.333 18.333 24.666 33 33.999
s28.667 14 42 14v0c18.667 0 28 -8 28 -24c0 -7.33301 -2.33301 -15.333 -7 -24l-194 -336c-8 -13.333 -19.333 -24.666 -34 -33.999s-28.667 -14 -42 -14z" />
    <glyph glyph-name="R" unicode="R" 
d="M325 528c-13.333 0 -27.333 -4.66504 -42 -13.998s-26 -20.666 -34 -33.999l-249 -432c-4.66699 -8.66699 -7 -16.667 -7 -24c0 -16 9 -24 27 -24h240c13.333 0 27.5 4.66699 42.5 14s26.167 20.666 33.5 33.999l222 384c7.33301 13.333 18.5 24.666 33.5 33.999
s28.833 14 41.5 14v0c18.667 0 28 -8 28 -24c0 -7.33301 -2.33301 -15.333 -7 -24l-28 -48c-4.66699 -8.66699 -7 -16.667 -7 -24c0 -16 9 -24 27 -24h240c13.333 0 27.5 4.66699 42.5 14s26.167 20.666 33.5 33.999l55 96c5.33301 8.66699 8 16.667 8 24
c0 16 -9.33301 24 -28 24h-672z" />
    <glyph glyph-name="S" unicode="S" 
d="M900 336c13.333 0 27.5 4.66699 42.5 14s26.167 20.666 33.5 33.999l55 96c5.33301 8.66699 8 16.667 8 24c0 16 -9.33301 24 -28 24h-672c-13.333 0 -27.333 -4.66699 -42 -14s-26 -20.666 -34 -33.999l-110 -192c-5.33301 -8.66699 -8 -16.667 -8 -24
c0 -16 9.33301 -24 28 -24h336c18.667 0 28 -8 28 -24c0 -7.33301 -2.66699 -15.333 -8 -24l-55 -96c-8 -13.333 -19.333 -24.666 -34 -33.999s-28.667 -14 -42 -14c-18.667 0 -28 8 -28 24c0 7.33301 2.66699 15.333 8 24l27 48c5.33301 8.66699 8 16.667 8 24
c0 16 -9.33301 24 -28 24h-240c-13.333 0 -27.333 -4.66699 -42 -14s-26 -20.666 -34 -33.999l-55 -96c-4.66699 -8.66699 -7 -16.667 -7 -24c0 -16 9 -24 27 -24h672c13.333 0 27.5 4.66699 42.5 14s26.167 20.666 33.5 33.999l111 192c4.66699 8.66699 7 16.667 7 24
c0 16 -9 24 -27 24h-336c-18.667 0 -28 8 -28 24c0 7.33301 2.33301 15.333 7 24l56 96c7.33301 13.333 18.5 24.666 33.5 33.999s28.833 14 41.5 14c18.667 0 28 -8 28 -24c0 -7.33301 -2.33301 -15.333 -7 -24l-28 -48c-4.66699 -8.66699 -7 -16.667 -7 -24
c0 -16 9 -24 27 -24h240z" />
    <glyph glyph-name="T" unicode="T" horiz-adv-x="369" 
d="M621 528c8 13.333 19.333 24.666 34 33.999s28.667 14 42 14v0c11.333 0 24 2.33301 38 7c17.333 6 26 14 26 24c0 11.333 -12 17 -36 17v0c-18.667 0 -28 8 -28 24c0 7.33301 2.33301 15.333 7 24l56 96c4.66699 8.66699 7 16.667 7 24c0 16 -9 24 -27 24h-240
c-13.333 0 -27.5 -4.66699 -42.5 -14s-26.167 -20.666 -33.5 -33.999l-464 -804c-10 -16.667 -15 -34.667 -15 -54c0 -10 2 -18.333 6 -25l132 -225c4 -6.66699 9 -10 15 -10c11.333 0 22 8.66699 32 26z" />
    <glyph glyph-name="U" unicode="U" horiz-adv-x="805" 
d="M771 528c-13.333 0 -27.333 -4.66895 -42 -14.002s-26 -20.666 -34 -33.999l-221 -384c-8 -13.333 -19.333 -24.666 -34 -33.999s-28.667 -14 -42 -14c-18.667 0 -28 8 -28 24c0 7.33301 2.66699 15.333 8 24l221 384c5.33301 8.66699 8 16.667 8 24
c0 16 -9.33301 24 -28 24h-240c-13.333 0 -27.333 -4.66699 -42 -14s-26 -20.666 -34 -33.999l-249 -432c-4.66699 -8.66699 -7 -16.667 -7 -24c0 -16 9 -24 27 -24h672c13.333 0 27.5 4.66699 42.5 14s26.167 20.666 33.5 33.999l249 432c5.33301 8.66699 8 16.667 8 24
c0 16 -9.33301 24 -28 24h-240z" />
    <glyph glyph-name="V" unicode="V" horiz-adv-x="660" 
d="M622 528c-13.333 0 -27.333 -4.66895 -42 -14.002s-26 -20.666 -34 -33.999l-221 -384c-8 -13.333 -19.333 -24.666 -34 -33.999s-28.667 -14 -42 -14c-18.667 0 -28 8 -28 24c0 7.33301 2.66699 15.333 8 24l221 384c5.33301 8.66699 8 16.667 8 24
c0 16 -9.33301 24 -28 24h-240c-13.333 0 -27.333 -4.66699 -42 -14s-26 -20.666 -34 -33.999l-83 -144c-10 -17.333 -14.667 -35.333 -14 -54c0 -10.667 1.66699 -19 5 -25l133 -226c12 -20.667 34 -31 66 -31h336c13.333 0 27.5 4.66699 42.5 14
s26.167 20.666 33.5 33.999l249 432c5.33301 8.66699 8 16.667 8 24c0 16 -9.33301 24 -28 24h-240z" />
    <glyph glyph-name="W" unicode="W" horiz-adv-x="1079" 
d="M1037 528c-13.333 0 -27.333 -4.6709 -42 -14.0039s-25.667 -20.666 -33 -33.999l-222 -384c-8 -13.333 -19.333 -24.666 -34 -33.999s-28.667 -14 -42 -14c-18 0 -27 8 -27 24c0 7.33301 2.33301 15.333 7 24l222 384c4.66699 8.66699 7 16.667 7 24c0 16 -9 24 -27 24
h-240c-13.333 0 -27.5 -4.66699 -42.5 -14s-26.167 -20.666 -33.5 -33.999l-222 -384c-7.33301 -13.333 -18.5 -24.666 -33.5 -33.999s-28.833 -14 -41.5 -14c-18.667 0 -28 8 -28 24c0 7.33301 2.33301 15.333 7 24l222 384c4.66699 8.66699 7 16.667 7 24
c0 16 -9 24 -27 24h-240c-13.333 0 -27.5 -4.66699 -42.5 -14s-26.167 -20.666 -33.5 -33.999l-83 -144c-10 -17.333 -15 -35.333 -15 -54c0 -10.667 2 -19 6 -25l151 -257h815c13.333 0 27.5 4.66699 42.5 14s26.167 20.666 33.5 33.999l250 432
c4.66699 8.66699 7 16.667 7 24c0 16 -9.33301 24 -28 24h-240z" />
    <glyph glyph-name="X" unicode="X" horiz-adv-x="795" 
d="M191 288c-13.333 0 -27.5 -4.66699 -42.5 -14s-26.167 -20.666 -33.5 -33.999l-111 -192c-4.66699 -8.66699 -7 -16.667 -7 -24c0 -16 9 -24 27 -24h240c13.333 0 27.5 4.66699 42.5 14s26.167 20.666 33.5 33.999l83 144c8 13.333 19.333 24.666 34 33.999
s28.667 14 42 14c18 0 27 -8 27 -24c0 -7.33301 -2.33301 -15.333 -7 -24l-83 -144c-5.33301 -8.66699 -8 -16.667 -8 -24c0 -16 9.33301 -24 28 -24h240c13.333 0 27.333 4.66699 42 14s26 20.666 34 33.999l110 192c5.33301 8.66699 8 16.667 8 24
c0 16 -9.33301 24 -28 24h-240c-24 0 -36 5.66699 -36 17c0 10 8.66699 18 26 24c14 4.66699 26.667 7 38 7h240c13.333 0 27.333 4.66699 42 14s26 20.666 34 33.999l55 96c4.66699 8.66699 7 16.667 7 24c0 16 -9 24 -27 24h-240c-13.333 0 -27.5 -4.66699 -42.5 -14
s-26.167 -20.666 -33.5 -33.999l-28 -48c-7.33301 -13.333 -18.5 -24.666 -33.5 -33.999s-28.833 -14 -41.5 -14v0c-18.667 0 -28 8 -28 24c0 7.33301 2.33301 15.333 7 24l28 48c4.66699 8.66699 7 16.667 7 24c0 16 -9 24 -27 24h-240c-13.333 0 -27.5 -4.66699 -42.5 -14
s-26.167 -20.666 -33.5 -33.999l-55 -96c-5.33301 -8.66699 -8 -16.667 -8 -24c0 -16 9.33301 -24 28 -24h240c24 0 36 -5.66699 36 -17c0 -10 -8.66699 -18 -26 -24c-14 -4.66699 -26.667 -7 -38 -7h-239z" />
    <glyph glyph-name="Y" unicode="Y" horiz-adv-x="832" 
d="M518 -341c3.33301 -6 8 -9.00293 14 -9.00293c11.333 0 22 8.66699 32 26l464 804c4.66699 8.66699 7 16.667 7 24c0 16 -9 24 -27 24h-240c-13.333 0 -27.333 -4.66699 -42 -14s-26 -20.666 -34 -33.999l-222 -384c-7.33301 -13.333 -18.5 -24.666 -33.5 -33.999
s-28.833 -14 -41.5 -14v0c-18.667 0 -28 8 -28 24c0 7.33301 2.33301 15.333 7 24l222 384c4.66699 8.66699 7 16.667 7 24c0 16 -9 24 -27 24h-240c-13.333 0 -27.333 -4.66699 -42 -14s-26 -20.666 -34 -33.999l-249 -432c-5.33301 -8.66699 -8 -16.667 -8 -24
c0 -16 9.33301 -24 28 -24h336c19.333 -0 29 -7.66699 29 -23c0 -6 -1.66699 -12.333 -5 -19c-8 -14 -12 -29.333 -12 -46c0 -11.333 2 -20.333 6 -27z" />
    <glyph glyph-name="Z" unicode="Z" 
d="M388 48c-18.667 0 -28.001 8 -28.001 24c0 7.33301 2.66699 15.333 8 24l55 96c8 13.333 19.333 24.666 34 33.999s28.667 14 42 14v0h336c13.333 0 27.333 4.66699 42 14s26 20.666 34 33.999l111 192c4.66699 8.66699 7 16.667 7 24c0 16 -9.33301 24 -28 24h-672
c-11.333 0 -23.666 -2.33301 -36.999 -7c-18 -6 -27 -14 -27 -24c0 -11.333 12.333 -17 37 -17h336c18 0 27 -8 27 -24c0 -7.33301 -2.33301 -15.333 -7 -24l-56 -96c-7.33301 -13.333 -18.5 -24.666 -33.5 -33.999s-28.833 -14 -41.5 -14v0h-336
c-13.333 0 -27.5 -4.66699 -42.5 -14s-26.167 -20.666 -33.5 -33.999l-111 -192c-4.66699 -8.66699 -7 -16.667 -7 -24c0 -16 9 -24 27 -24h672c12 -0 24.667 2.33301 38 7c17.333 6 26 14 26 24c0 11.333 -12 17 -36 17h-336z" />
    <glyph glyph-name="bracketleft" unicode="[" horiz-adv-x="630" 
d="M698 624c7.33301 13.333 18.502 24.666 33.502 33.999s28.667 14 41 14s25.166 2.33301 38.499 7c17.333 6 26 14 26 24c0 11.333 -12 17 -36 17h-336c-13.333 0 -27.333 -4.66699 -42 -14s-26 -20.666 -34 -33.999l-471 -816c-4.66699 -8.66699 -7 -16.667 -7 -24
c0 -16 9.33301 -24 28 -24h336c11.333 0 23.666 2.33301 36.999 7c17.333 6 26 14 26 24c0 8.66699 -10.5 14.167 -31.5 16.5s-31.5 10.5 -31.5 24.5c0 7.33301 2.33301 15.333 7 24z" />
    <glyph glyph-name="backslash" unicode="\" 
d="M559 720c-13.333 0 -27.333 -4.66699 -42 -14s-25.667 -20.666 -33 -33.999l-472 -816c-4.66699 -8.66699 -7 -16.667 -7 -24c0 -16 9.33301 -24 28 -24h240c12.667 0 26.5 4.66699 41.5 14s26.167 20.666 33.5 33.999l472 816c4.66699 8.66699 7 16.667 7 24
c0 16 -9.33301 24 -28 24h-240z" />
    <glyph glyph-name="bracketright" unicode="]" horiz-adv-x="617" 
d="M576 720c-11.333 0 -24 -2.33301 -38 -7c-17.333 -6 -26 -14 -26 -24c0 -8 10.667 -13.333 32 -16s32 -11 32 -25c0 -7.33301 -2.66699 -15.333 -8 -24l-415 -720c-8 -13.333 -19.333 -24.666 -34 -33.999s-28.167 -14 -40.5 -14s-25.5 -2.33301 -39.5 -7
c-17.333 -6 -26 -14 -26 -24c0 -11.333 12 -17 36 -17h336c13.333 0 27.5 4.66699 42.5 14s26.167 20.666 33.5 33.999l471 816c5.33301 8.66699 8 16.667 8 24c0 16 -9.33301 24 -28 24h-336z" />
    <glyph glyph-name="a" unicode="a" 
d="M348 528c-13.333 0 -27.5 -4.66699 -42.5 -14s-26.167 -20.666 -33.5 -33.999l-56 -96c-4.66699 -8.66699 -7 -16.667 -7 -24c0 -16 9.33301 -24 28 -24h240c12.667 0 26.5 4.66699 41.5 14s26.167 20.666 33.5 33.999l28 48c8 13.333 19.333 24.666 34 33.999
s28.667 14 42 14v0c18 0 27 -8 27 -24c0 -7.33301 -2.33301 -15.333 -7 -24l-55 -96c-8 -13.333 -19.333 -24.666 -34 -33.999s-28.667 -14 -42 -14v0h-336c-13.333 0 -27.333 -4.66699 -42 -14s-26 -20.666 -34 -33.999l-111 -192c-4.66699 -8.66699 -7 -16.667 -7 -24
c0 -16 9.33301 -24 28 -24h672c12.667 0 26.5 4.66699 41.5 14s26.167 20.666 33.5 33.999l250 432c4.66699 8.66699 7 16.667 7 24c0 16 -9 24 -27 24h-672zM482 96c-7.33301 -13.333 -18.5 -24.666 -33.5 -33.999s-29.167 -14 -42.5 -14v0c-18 0 -27 8 -27 24
c0 7.33301 2.33301 15.333 7 24l56 96c7.33301 13.333 18.333 24.666 33 33.999s28.667 14 42 14v0c18.667 0 28 -8 28 -24c0 -7.33301 -2.33301 -15.333 -7 -24z" />
    <glyph glyph-name="b" unicode="b" 
d="M674 528c-20 0 -30 7.66797 -30 23.001c0 6 2 12.333 6 19c8 14 12 29.333 12 46c0 11.333 -2 20.333 -6 27l-133 226c-4 6 -9 9 -15 9c-10.667 0 -21 -8.66699 -31 -26l-465 -804c-4.66699 -8.66699 -7 -16.667 -7 -24c0 -16 9.33301 -24 28 -24h672
c12.667 0 26.5 4.66699 41.5 14s26.167 20.666 33.5 33.999l250 432c4.66699 8.66699 7 16.667 7 24c0 16 -9 24 -27 24h-336zM472 96.001c-7.33301 -13.333 -18.5 -24.666 -33.5 -33.999s-29.167 -14 -42.5 -14c-18 0 -27 8 -27 24c0 7.33301 2.33301 15.333 7 24l194 336
c8 13.333 19.333 24.666 34 33.999s28.667 14 42 14c18 0 27 -8 27 -24c0 -7.33301 -2.33301 -15.333 -7 -24z" />
    <glyph glyph-name="c" unicode="c" horiz-adv-x="805" 
d="M894 336c12.667 0 26.5 4.66699 41.5 14s26.167 20.666 33.5 33.999l56 96c4.66699 8.66699 7 16.667 7 24c0 16 -9 24 -27 24h-672c-13.333 0 -27.5 -4.66699 -42.5 -14s-26.167 -20.666 -33.5 -33.999l-250 -432c-4.66699 -8.66699 -7 -16.667 -7 -24
c-0 -16 9.33301 -24 28 -24h672c12.667 0 26.5 4.66699 41.5 14s26.167 20.666 33.5 33.999l111 192c5.33301 8.66699 8 16.667 8 24c0 16 -9.33301 24 -28 24h-240c-13.333 0 -27.333 -4.66699 -42 -14s-26 -20.666 -34 -33.999l-83 -144
c-7.33301 -13.333 -18.5 -24.666 -33.5 -33.999s-29.167 -14 -42.5 -14v0c-18 0 -27 8 -27 24c0 7.33301 2.33301 15.333 7 24l194 336c8 13.333 19.333 24.666 34 33.999s28.667 14 42 14v0c18 0 27 -8 27 -24c0 -7.33301 -2.33301 -15.333 -7 -24l-28 -48
c-4.66699 -8.66699 -7 -16.667 -7 -24c0 -16 9.33301 -24 28 -24h240z" />
    <glyph glyph-name="d" unicode="d" horiz-adv-x="815" 
d="M955 869c-4 6 -9 8.99902 -15 8.99902c-10.667 0 -21 -8.66699 -31 -26l-160 -276c-7.33301 -13.333 -18.5 -24.666 -33.5 -33.999s-28.833 -14 -41.5 -14v0h-336c-13.333 0 -27.5 -4.66699 -42.5 -14s-26.167 -20.666 -33.5 -33.999l-250 -432
c-4.66699 -8.66699 -7 -16.667 -7 -24c0 -16 9.33301 -24 28 -24h672c12.667 0 26.5 4.66699 41.5 14s26.167 20.666 33.5 33.999l302 522c8 14 12 29.333 12 46c0 11.333 -2 20.333 -6 27zM472 95.999c-7.33301 -13.333 -18.5 -24.666 -33.5 -33.999s-29.167 -14 -42.5 -14
v0c-18 0 -27 8 -27 24c0 7.33301 2.33301 15.333 7 24l194 336c8 13.333 19.333 24.666 34 33.999s28.667 14 42 14v0c18 0 27 -8 27 -24c0 -7.33301 -2.33301 -15.333 -7 -24z" />
    <glyph glyph-name="e" unicode="e" horiz-adv-x="815" 
d="M507 240h336c13.333 0 27.5 4.66699 42.5 14s26.167 20.666 33.5 33.999l111 192c4.66699 8.66699 7 16.667 7 24c0 16 -9 24 -27 24h-672c-13.333 0 -27.5 -4.66699 -42.5 -14s-26.167 -20.666 -33.5 -33.999l-250 -432c-4.66699 -8.66699 -7 -16.667 -7 -24
c0 -16 9.33301 -24 28 -24h672c12.667 0 26.5 4.66699 41.5 14s26.167 20.666 33.5 33.999l56 96c4.66699 8.66699 7 16.667 7 24c0 16 -9 24 -27 24h-240c-13.333 0 -27.5 -4.66699 -42.5 -14s-26.167 -20.666 -33.5 -33.999l-28 -48
c-7.33301 -13.333 -18.5 -24.666 -33.5 -33.999s-29.167 -14 -42.5 -14c-18 0 -27 8 -27 24c0 7.33301 2.33301 15.333 7 24l56 96c7.33301 13.333 18.333 24.666 33 33.999s28.667 14 42 14zM570 432c8 13.333 19.333 24.666 34 33.999s28.667 14 42 14c18 0 27 -8 27 -24
c0 -7.33301 -2.33301 -15.333 -7 -24l-55 -96c-8 -13.333 -19.333 -24.666 -34 -33.999s-28.667 -14 -42 -14c-18.667 0 -28 8 -28 24c0 7.33301 2.66699 15.333 8 24z" />
    <glyph glyph-name="f" unicode="f" horiz-adv-x="389" 
d="M818 768c11.333 0 23.668 2.33398 37.001 7.00098c17.333 6 26 14 26 24c0 11.333 -12 17 -36 17h-336c-13.333 0 -27.333 -4.66699 -42 -14s-25.667 -20.666 -33 -33.999l-464 -803c-10 -17.333 -15 -35.333 -15 -54c0 -10.667 2 -19 6 -25l132 -226c4 -6 9 -9 15 -9
c11.333 0 22 8.66699 32 26l491 851c7.33301 13.333 18.5 24.666 33.5 33.999s29.167 14 42.5 14v0c11.333 0 23.666 2.33301 36.999 7c17.333 6 26 14 26 24c0 11.333 -12 17 -36 17v0c-18 0 -27 8 -27 24c0 7.33301 2.33301 15.333 7 24l28 48
c7.33301 13.333 18.5 24.666 33.5 33.999s29.167 14 42.5 14z" />
    <glyph glyph-name="g" unicode="g" horiz-adv-x="815" 
d="M510 -340c3.33301 -6.66699 8 -10.002 14 -10.002c11.333 0 22 8.66699 32 26l325 564c5.33301 8.66699 8 16.667 8 24c0 16 -9.33301 24 -28 24h-240c-13.333 0 -27.333 -4.66699 -42 -14s-26 -20.666 -34 -33.999l-83 -144
c-7.33301 -13.333 -18.5 -24.666 -33.5 -33.999s-29.167 -14 -42.5 -14v0c-18 0 -27 8 -27 24c0 7.33301 2.33301 15.333 7 24l194 336c8 13.333 19.333 24.666 34 33.999s28.667 14 42 14v0c18 0 27 -8 27 -24c0 -7.33301 -2.33301 -15.333 -7 -24l-28 -48
c-4.66699 -8.66699 -7 -16.667 -7 -24c0 -16 9.33301 -24 28 -24h240c12.667 0 26.5 4.66699 41.5 14s26.167 20.666 33.5 33.999l56 96c4.66699 8.66699 7 16.667 7 24c0 16 -9 24 -27 24h-672c-13.333 0 -27.5 -4.66699 -42.5 -14s-26.167 -20.666 -33.5 -33.999
l-250 -432c-4.66699 -8.66699 -7 -16.667 -7 -24c0 -16 9.33301 -24 28 -24h336c19.333 0 29 -7.66699 29 -23c0 -6 -1.66699 -12.333 -5 -19c-8 -13.333 -12 -28.333 -12 -45c0 -11.333 2 -20.666 6 -27.999z" />
    <glyph glyph-name="h" unicode="h" horiz-adv-x="832" 
d="M679 528c-20 0 -30 7.66992 -30 23.0029c0 6 2 12.333 6 19c8 14 12 29.333 12 46c0 11.333 -2 20.333 -6 27l-133 226c-4 6 -9 9 -15 9c-10.667 0 -21 -8.66699 -31 -26l-465 -804c-4.66699 -8.66699 -7 -16.667 -7 -24c0 -16 9.33301 -24 28 -24h240
c12.667 0 26.5 4.66699 41.5 14s26.167 20.666 33.5 33.999l222 384c8 13.333 19.333 24.666 34 33.999s28.667 14 42 14v0c18 0 27 -8 27 -24c0 -7.33301 -2.33301 -15.333 -7 -24l-222 -384c-4.66699 -8.66699 -7 -16.667 -7 -24c0 -16 9.33301 -24 28 -24h240
c12.667 0 26.5 4.66699 41.5 14s26.167 20.666 33.5 33.999l250 432c4.66699 8.66699 7 16.667 7 24c0 16 -9 24 -27 24h-336z" />
    <glyph glyph-name="i" unicode="i" horiz-adv-x="393" 
d="M278 0c12.667 0 26.5 4.66699 41.5 14s26.167 20.666 33.5 33.999l250 432c4.66699 8.66699 7 16.667 7 24c0 16 -9 24 -27 24h-240c-13.333 0 -27.5 -4.66699 -42.5 -14s-26.167 -20.666 -33.5 -33.999l-250 -432c-4.66699 -8.66699 -7 -16.667 -7 -24
c0 -16 9.33301 -24 28 -24h240z" />
    <glyph glyph-name="j" unicode="j" horiz-adv-x="376" 
d="M594 481c5.33301 8.66699 8 16.666 8 23.999c0 16 -9.33301 24 -28 24h-240c-13.333 0 -27.333 -4.66699 -42 -14s-26 -20.666 -34 -33.999l-301 -522c-8 -14 -12 -29.333 -12 -46c0 -11.333 2 -20.333 6 -27l133 -226c3.33301 -6 8.33301 -9 15 -9
c10.667 0 21 8.66699 31 26z" />
    <glyph glyph-name="k" unicode="k" horiz-adv-x="805" 
d="M1025 480c4.66699 8.66699 7 16.6689 7 24.002c0 16 -9 24 -27 24h-240c-13.333 0 -27.5 -4.66699 -42.5 -14s-26.167 -20.666 -33.5 -33.999l-28 -48c-7.33301 -13.333 -18.5 -24.666 -33.5 -33.999s-29.167 -14 -42.5 -14v0c-18 0 -27 8 -27 24
c0 7.33301 2.33301 15.333 7 24l80 138c8 14 12 29.333 12 46c0 11.333 -2 20.333 -6 27l-133 226c-4 6 -9 9 -15 9c-10.667 0 -21 -8.66699 -31 -26l-465 -804c-4.66699 -8.66699 -7 -16.667 -7 -24c-0 -16 9.33301 -24 28 -24h240c12.667 0 26.5 4.66699 41.5 14
s26.167 20.666 33.5 33.999l139 240c7.33301 13.333 18.5 24.666 33.5 33.999s29.167 14 42.5 14v0c18 0 27 -8 27 -24c0 -7.33301 -2.33301 -15.333 -7 -24l-139 -240c-4.66699 -8.66699 -7 -16.667 -7 -24c0 -16 9.33301 -24 28 -24h240
c12.667 0 26.167 4.16699 40.5 12.5s24.833 18.166 31.5 29.499c8 14 12 29.333 12 46c0 11.333 -2 20.333 -6 27l-112 190c-2 4 -3 7.66699 -3 11c0 13.333 11 20 33 20h198c12.667 0 26.5 4.66699 41.5 14s26.167 20.666 33.5 33.999z" />
    <glyph glyph-name="l" unicode="l" horiz-adv-x="393" 
d="M533 869c-4 6 -9 9.00098 -15 9.00098c-10.667 0 -21 -8.66699 -31 -26l-160 -276l-305 -528c-4.66699 -8.66699 -7 -16.667 -7 -24c0 -16 9.33301 -24 28 -24h240c12.667 0 26.5 4.66699 41.5 14s26.167 20.666 33.5 33.999l302 522c8 14 12 29.333 12 46
c0 11.333 -2 20.333 -6 27z" />
    <glyph glyph-name="m" unicode="m" horiz-adv-x="1228" 
d="M815 -42c-8 -13.333 -12 -28.3311 -12 -44.998c0 -11.333 2 -20.666 6 -27.999l133 -225c3.33301 -6.66699 8 -10 14 -10c11.333 0 22 8.66699 32 26l464 804c4.66699 8.66699 7 16.667 7 24c0 16 -9 24 -27 24h-1104c-13.333 0 -27.5 -4.66699 -42.5 -14
s-26.167 -20.666 -33.5 -33.999l-250 -432c-4.66699 -8.66699 -7 -16.667 -7 -24c0 -16 9.33301 -24 28 -24h240c12.667 0 26.5 4.66699 41.5 14s26.167 20.666 33.5 33.999l222 384c8 13.333 19.333 24.666 34 33.999s28.667 14 42 14v0c18 0 27 -8 27 -24
c0 -7.33301 -2.33301 -15.333 -7 -24l-222 -384c-4.66699 -8.66699 -7 -16.667 -7 -24c0 -16 9.33301 -24 28 -24h240c12.667 0 26.5 4.66699 41.5 14s26.167 20.666 33.5 33.999l222 384c8 13.333 19.333 24.666 34 33.999s28.667 14 42 14v0c18 0 27 -8 27 -24
c0 -7.33301 -2.33301 -15.333 -7 -24z" />
    <glyph glyph-name="n" unicode="n" horiz-adv-x="815" 
d="M333 528c-13.333 0 -27.5 -4.66504 -42.5 -13.998s-26.167 -20.666 -33.5 -33.999l-250 -432c-4.66699 -8.66699 -7 -16.667 -7 -24c-0 -16 9.33301 -24 28 -24h240c12.667 0 26.5 4.66699 41.5 14s26.167 20.666 33.5 33.999l222 384c8 13.333 19.333 24.666 34 33.999
s28.667 14 42 14c18 0 27 -8 27 -24c0 -7.33301 -2.33301 -15.333 -7 -24l-222 -384c-4.66699 -8.66699 -7 -16.667 -7 -24c0 -16 9.33301 -24 28 -24h240c12.667 0 26.5 4.66699 41.5 14s26.167 20.666 33.5 33.999l250 432c4.66699 8.66699 7 16.667 7 24
c0 16 -9 24 -27 24h-672z" />
    <glyph glyph-name="o" unicode="o" 
d="M338 528c-13.333 0 -27.5 -4.66699 -42.5 -14s-26.167 -20.666 -33.5 -33.999l-250 -432c-4.66699 -8.66699 -7 -16.667 -7 -24c0 -16 9.33301 -24 28 -24h672c12.667 0 26.5 4.66699 41.5 14s26.167 20.666 33.5 33.999l250 432c4.66699 8.66699 7 16.667 7 24
c0 16 -9 24 -27 24h-672zM472 96c-7.33301 -13.333 -18.5 -24.666 -33.5 -33.999s-29.167 -14 -42.5 -14v0c-18 0 -27 8 -27 24c0 7.33301 2.33301 15.333 7 24l194 336c8 13.333 19.333 24.666 34 33.999s28.667 14 42 14v0c18 0 27 -8 27 -24
c0 -7.33301 -2.33301 -15.333 -7 -24z" />
    <glyph glyph-name="p" unicode="p" horiz-adv-x="818" 
d="M329 528c-13.333 0 -27.333 -4.66699 -42 -14s-26 -20.666 -34 -33.999l-301 -522c-8 -13.333 -12 -28.333 -12 -45c0 -11.333 2 -20.666 6 -27.999l133 -225c3.33301 -6.66699 8.33301 -10 15 -10c10.667 0 21 8.66699 31 26l159 276c8 13.333 19.333 24.666 34 33.999
s28.667 14 42 14v0h336c13.333 0 27.333 4.66699 42 14s26 20.666 34 33.999l249 432c5.33301 8.66699 8 16.667 8 24c0 16 -9.33301 24 -28 24h-672zM463 96c-7.33301 -13.333 -18.333 -24.666 -33 -33.999s-28.667 -14 -42 -14v0c-18.667 0 -28 8 -28 24
c0 7.33301 2.33301 15.333 7 24l194 336c8 13.333 19.333 24.666 34 33.999s28.667 14 42 14v0c18.667 0 28 -8 28 -24c0 -7.33301 -2.66699 -15.333 -8 -24z" />
    <glyph glyph-name="q" unicode="q" 
d="M1030 480c4.66699 8.66699 7 16.666 7 23.999c0 16 -9 24 -27 24h-672c-13.333 0 -27.5 -4.66699 -42.5 -14s-26.167 -20.666 -33.5 -33.999l-250 -432c-4.66699 -8.66699 -7 -16.667 -7 -24c0 -16 9.33301 -24 28 -24h336c19.333 -0 29 -7.66699 29 -23
c0 -6 -2 -12.333 -6 -19c-8 -14 -12 -29.333 -12 -46c0 -11.333 2.33301 -20.333 7 -27l132 -226c4 -6 9 -9 15 -9c11.333 0 22 8.66699 32 26zM396 47.999c-18 0 -27 8 -27 24c0 7.33301 2.33301 15.333 7 24l194 336c8 13.333 19.333 24.666 34 33.999s28.667 14 42 14v0
c18 0 27 -8 27 -24c0 -7.33301 -2.33301 -15.333 -7 -24l-194 -336c-7.33301 -13.333 -18.5 -24.666 -33.5 -33.999s-29.167 -14 -42.5 -14z" />
    <glyph glyph-name="r" unicode="r" horiz-adv-x="815" 
d="M348 528c-13.333 0 -27.5 -4.66504 -42.5 -13.998s-26.167 -20.666 -33.5 -33.999l-250 -432c-4.66699 -8.66699 -7 -16.667 -7 -24c0 -16 9.33301 -24 28 -24h240c12.667 0 26.5 4.66699 41.5 14s26.167 20.666 33.5 33.999l222 384c8 13.333 19.333 24.666 34 33.999
s28.667 14 42 14v0c18 0 27 -8 27 -24c0 -7.33301 -2.33301 -15.333 -7 -24l-28 -48c-4.66699 -8.66699 -7 -16.667 -7 -24c0 -16 9.33301 -24 28 -24h240c12.667 0 26.5 4.66699 41.5 14s26.167 20.666 33.5 33.999l56 96c4.66699 8.66699 7 16.667 7 24c0 16 -9 24 -27 24
h-672z" />
    <glyph glyph-name="s" unicode="s" 
d="M909 336c12.667 0 26.5 4.66699 41.5 14s26.167 20.666 33.5 33.999l56 96c4.66699 8.66699 7 16.667 7 24c0 16 -9 24 -27 24h-672c-13.333 0 -27.5 -4.66699 -42.5 -14s-26.167 -20.666 -33.5 -33.999l-111 -192c-4.66699 -8.66699 -7 -16.667 -7 -24
c0 -16 9 -24 27 -24h336c18.667 0 28 -8 28 -24c0 -7.33301 -2.33301 -15.333 -7 -24l-56 -96c-7.33301 -13.333 -18.5 -24.666 -33.5 -33.999s-29.167 -14 -42.5 -14c-18 0 -27 8 -27 24c0 7.33301 2.33301 15.333 7 24l28 48c4.66699 8.66699 7 16.667 7 24
c0 16 -9 24 -27 24h-240c-13.333 0 -27.5 -4.66699 -42.5 -14s-26.167 -20.666 -33.5 -33.999l-56 -96c-4.66699 -8.66699 -7 -16.667 -7 -24c0 -16 9.33301 -24 28 -24h672c12.667 0 26.5 4.66699 41.5 14s26.167 20.666 33.5 33.999l111 192
c5.33301 8.66699 8 16.667 8 24c0 16 -9.33301 24 -28 24h-336c-18.667 0 -28 8 -28 24c0 7.33301 2.66699 15.333 8 24l55 96c8 13.333 19.333 24.666 34 33.999s28.667 14 42 14c18 0 27 -8 27 -24c0 -7.33301 -2.33301 -15.333 -7 -24l-28 -48
c-4.66699 -8.66699 -7 -16.667 -7 -24c0 -16 9.33301 -24 28 -24h240z" />
    <glyph glyph-name="t" unicode="t" horiz-adv-x="446" 
d="M626 528c8 13.333 19.333 24.666 34 33.999s28.667 14 42 14v0c11.333 0 24 2.33301 38 7c17.333 6 26 14 26 24c0 11.333 -12 17 -36 17v0c-18.667 0 -28 8 -28 24c0 7.33301 2.33301 15.333 7 24l56 96c4.66699 8.66699 7 16.667 7 24c0 16 -9 24 -27 24h-240
c-13.333 0 -27.5 -4.66699 -42.5 -14s-26.167 -20.666 -33.5 -33.999l-464 -804c-10 -16.667 -15 -34.667 -15 -54c0 -10 2 -18.333 6 -25l132 -225c4 -6.66699 9 -10 15 -10c11.333 0 22 8.66699 32 26z" />
    <glyph glyph-name="u" unicode="u" horiz-adv-x="818" 
d="M775 528c-13.333 0 -27.5 -4.66895 -42.5 -14.002s-26.167 -20.666 -33.5 -33.999l-222 -384c-7.33301 -13.333 -18.5 -24.666 -33.5 -33.999s-29.167 -14 -42.5 -14c-18 0 -27 8 -27 24c0 7.33301 2.33301 15.333 7 24l222 384c4.66699 8.66699 7 16.667 7 24
c0 16 -9 24 -27 24h-240c-13.333 0 -27.5 -4.66699 -42.5 -14s-26.167 -20.666 -33.5 -33.999l-250 -432c-4.66699 -8.66699 -7 -16.667 -7 -24c0 -16 9.33301 -24 28 -24h672c12.667 0 26.5 4.66699 41.5 14s26.167 20.666 33.5 33.999l250 432
c4.66699 8.66699 7 16.667 7 24c0 16 -9 24 -27 24h-240z" />
    <glyph glyph-name="v" unicode="v" horiz-adv-x="812" 
d="M766 528c-13.333 0 -27.5 -4.66895 -42.5 -14.002s-26.167 -20.666 -33.5 -33.999l-222 -384c-7.33301 -13.333 -18.5 -24.666 -33.5 -33.999s-28.833 -14 -41.5 -14c-18.667 0 -28 8 -28 24c0 7.33301 2.33301 15.333 7 24l222 384c4.66699 8.66699 7 16.667 7 24
c0 16 -9 24 -27 24h-240c-13.333 0 -27.5 -4.66699 -42.5 -14s-26.167 -20.666 -33.5 -33.999l-83 -144c-10 -17.333 -15 -35.333 -15 -54c0 -10.667 2 -19 6 -25l132 -226c12.667 -20.667 35 -31 67 -31h336c13.333 0 27.333 4.66699 42 14s26 20.666 34 33.999l249 432
c4.66699 8.66699 7 16.667 7 24c0 16 -9 24 -27 24h-240z" />
    <glyph glyph-name="w" unicode="w" horiz-adv-x="1221" 
d="M1179 528c-13.333 0 -27.333 -4.6709 -42 -14.0039s-26 -20.666 -34 -33.999l-221 -384c-8 -13.333 -19.333 -24.666 -34 -33.999s-28.667 -14 -42 -14c-18 0 -27 8 -27 24c0 7.33301 2.33301 15.333 7 24l222 384c4.66699 8.66699 7 16.667 7 24c0 16 -9 24 -27 24h-240
c-13.333 0 -27.5 -4.66699 -42.5 -14s-26.167 -20.666 -33.5 -33.999l-222 -384c-7.33301 -13.333 -18.5 -24.666 -33.5 -33.999s-29.167 -14 -42.5 -14c-18 0 -27 8 -27 24c0 7.33301 2.33301 15.333 7 24l222 384c4.66699 8.66699 7 16.667 7 24c0 16 -9 24 -27 24h-240
c-13.333 0 -27.5 -4.66699 -42.5 -14s-26.167 -20.666 -33.5 -33.999l-83 -144c-10 -17.333 -15 -35.333 -15 -54c0 -10.667 1.66699 -19 5 -25l152 -257h815c13.333 0 27.5 4.66699 42.5 14s26.167 20.666 33.5 33.999l249 432c5.33301 8.66699 8 16.667 8 24
c0 16 -9.33301 24 -28 24h-240z" />
    <glyph glyph-name="x" unicode="x" horiz-adv-x="812" 
d="M199 288c-13.333 0 -27.332 -4.66699 -41.999 -14s-26 -20.666 -34 -33.999l-111 -192c-4.66699 -8.66699 -7 -16.667 -7 -24c0 -16 9.33301 -24 28 -24h240c12.667 0 26.5 4.66699 41.5 14s26.167 20.666 33.5 33.999l84 144c7.33301 13.333 18.333 24.666 33 33.999
s28.667 14 42 14c18 0 27 -8 27 -24c0 -7.33301 -2.33301 -15.333 -7 -24l-83 -144c-4.66699 -8.66699 -7 -16.667 -7 -24c0 -16 9 -24 27 -24h240c13.333 0 27.333 4.66699 42 14s26 20.666 34 33.999l111 192c4.66699 8.66699 7 16.667 7 24c0 16 -9.33301 24 -28 24h-240
c-24 0 -36 5.66699 -36 17c0 10 9 18 27 24c13.333 4.66699 25.666 7 36.999 7h240c13.333 0 27.333 4.66699 42 14s26 20.666 34 33.999l55 96c5.33301 8.66699 8 16.667 8 24c0 16 -9.33301 24 -28 24h-240c-13.333 0 -27.333 -4.66699 -42 -14s-26 -20.666 -34 -33.999
l-27 -48c-8 -13.333 -19.333 -24.666 -34 -33.999s-28.667 -14 -42 -14v0c-18.667 0 -28 8 -28 24c0 7.33301 2.66699 15.333 8 24l27 48c5.33301 8.66699 8 16.667 8 24c0 16 -9.33301 24 -28 24h-240c-13.333 0 -27.333 -4.66699 -42 -14s-26 -20.666 -34 -33.999l-55 -96
c-4.66699 -8.66699 -7 -16.667 -7 -24c0 -16 9 -24 27 -24h240c24 0 36 -5.66699 36 -17c0 -10 -8.66699 -18 -26 -24c-13.333 -4.66699 -26 -7 -38 -7h-239z" />
    <glyph glyph-name="y" unicode="y" 
d="M519 -341c4 -6 9 -9.00293 15 -9.00293c11.333 0 22 8.66699 32 26l464 804c4.66699 8.66699 7 16.667 7 24c0 16 -9 24 -27 24h-240c-13.333 0 -27.5 -4.66699 -42.5 -14s-26.167 -20.666 -33.5 -33.999l-222 -384c-7.33301 -13.333 -18.5 -24.666 -33.5 -33.999
s-29.167 -14 -42.5 -14v0c-18 0 -27 8 -27 24c0 7.33301 2.33301 15.333 7 24l222 384c4.66699 8.66699 7 16.667 7 24c0 16 -9 24 -27 24h-240c-13.333 0 -27.5 -4.66699 -42.5 -14s-26.167 -20.666 -33.5 -33.999l-250 -432c-4.66699 -8.66699 -7 -16.667 -7 -24
c0 -16 9.33301 -24 28 -24h336c19.333 -0 29 -7.66699 29 -23c0 -6 -2 -12.333 -6 -19c-8 -14 -12 -29.333 -12 -46c0 -11.333 2.33301 -20.333 7 -27z" />
    <glyph glyph-name="z" unicode="z" 
d="M386 48c-18 0 -26.999 8 -26.999 24c0 7.33301 2.33301 15.333 7 24l56 96c7.33301 13.333 18.333 24.666 33 33.999s28.667 14 42 14v0h336c13.333 0 27.5 4.66699 42.5 14s26.167 20.666 33.5 33.999l111 192c4.66699 8.66699 7 16.667 7 24c0 16 -9 24 -27 24h-672
c-12 0 -24.667 -2.33301 -38 -7c-17.333 -6 -26 -14 -26 -24c0 -11.333 12 -17 36 -17h336c18 0 27 -8 27 -24c0 -7.33301 -2.33301 -15.333 -7 -24l-55 -96c-8 -13.333 -19.333 -24.666 -34 -33.999s-28.667 -14 -42 -14v0h-336c-13.333 0 -27.333 -4.66699 -42 -14
s-26 -20.666 -34 -33.999l-111 -192c-4.66699 -8.66699 -7 -16.667 -7 -24c0 -16 9.33301 -24 28 -24h672c11.333 -0 23.666 2.33301 36.999 7c17.333 6 26 14 26 24c0 11.333 -12 17 -36 17h-336z" />
    <glyph glyph-name="braceleft" unicode="{" 
d="M809 624c7.33301 13.333 18.501 24.666 33.501 33.999s29.167 14 42.5 14c11.333 0 23.666 2.33301 36.999 7c18 6 27 14 27 24c0 11.333 -12.333 17 -37 17h-336c-12.667 0 -26.5 -4.66699 -41.5 -14s-26.167 -20.666 -33.5 -33.999l-471 -816
c-5.33301 -8.66699 -8 -16.667 -8 -24c0 -16 9.33301 -24 28 -24h336c11.333 0 24 2.33301 38 7c17.333 6 26 14 26 24c0 8.66699 -10.667 14.167 -32 16.5s-32 10.5 -32 24.5c0 7.33301 2.33301 15.333 7 24z" />
    <glyph glyph-name="bar" unicode="|" 
d="M559 720c-13.333 0 -27.333 -4.66699 -42 -14s-25.667 -20.666 -33 -33.999l-472 -816c-4.66699 -8.66699 -7 -16.667 -7 -24c0 -16 9.33301 -24 28 -24h240c12.667 0 26.5 4.66699 41.5 14s26.167 20.666 33.5 33.999l472 816c4.66699 8.66699 7 16.667 7 24
c0 16 -9.33301 24 -28 24h-240z" />
    <glyph glyph-name="braceright" unicode="}" 
d="M570 720c-11.333 0 -23.668 -2.33301 -37.001 -7c-18 -6 -27 -14 -27 -24c0 -8 10.667 -13.333 32 -16s32 -11 32 -25c0 -7.33301 -2.33301 -15.333 -7 -24l-416 -720c-7.33301 -13.333 -18.5 -24.666 -33.5 -33.999s-28.667 -14 -41 -14s-25.166 -2.33301 -38.499 -7
c-17.333 -6 -26 -14 -26 -24c0 -11.333 12 -17 36 -17h336c12.667 0 26.5 4.66699 41.5 14s26.167 20.666 33.5 33.999l471 816c5.33301 8.66699 8 16.667 8 24c0 16 -9.33301 24 -28 24h-336z" />
    <glyph glyph-name="asciitilde" unicode="~" 
d="M646 481c-13.333 0 -27.333 -4.66699 -42 -14s-25.667 -20.666 -33 -33.999l-28 -48c-8 -13.333 -19.333 -24.666 -34 -33.999s-28.667 -14 -42 -14v0h-336c-13.333 0 -27.333 -4.66699 -42 -14s-26 -20.666 -34 -33.999l-55 -96c-4.66699 -8.66699 -7 -16.667 -7 -24
c0 -16 9 -24 27 -24h240c13.333 0 27.5 4.66699 42.5 14s26.167 20.666 33.5 33.999l28 48c7.33301 13.333 18.5 24.666 33.5 33.999s28.833 14 41.5 14v0h336c13.333 0 27.5 4.66699 42.5 14s26.167 20.666 33.5 33.999l56 96c4.66699 8.66699 7 16.667 7 24
c0 16 -9.33301 24 -28 24h-240z" />
    <glyph glyph-name="nonbreakingspace" unicode="&#xa0;" horiz-adv-x="485" 
 />
    <glyph glyph-name="exclamdown" unicode="&#xa1;" 
d="M863 768c4.66699 8.66699 7 16.667 7 24c0 16 -9.33301 24 -28 24h-240c-13.333 0 -27.333 -4.66699 -42 -14s-25.667 -20.666 -33 -33.999l-56 -96c-4.66699 -8.66699 -7 -16.667 -7 -24c0 -16 9 -24 27 -24h240c13.333 0 27.5 4.66699 42.5 14
s26.167 20.666 33.5 33.999zM696 480c5.33301 8.66699 8 16.667 8 24c0 16 -9.33301 24 -28 24h-240c-13.333 0 -27.333 -4.66699 -42 -14s-26 -20.666 -34 -33.999l-360 -624c-4.66699 -8.66699 -7 -16.667 -7 -24c0 -16 9 -24 27 -24h240c13.333 0 27.5 4.66699 42.5 14
s26.167 20.666 33.5 33.999z" />
    <glyph glyph-name="cent" unicode="&#xa2;" 
d="M886 336c13.333 0 27.501 4.66895 42.501 14.002s26.167 20.666 33.5 33.999l55 96c5.33301 8.66699 8 16.667 8 24c0 16 -9.33301 24 -28 24h-298c-6.66699 0 -16.334 10.333 -29.001 31l-132 226c-4 6 -9 9 -15 9c-11.333 0 -22 -8.66699 -32 -26l-110 -192
c-14 -24 -36 -40 -66 -48s-52 -24 -66 -48l-249 -432c-4.66699 -8.66699 -7 -16.667 -7 -24c0 -16 9 -24 27 -24v0c32 0 54.333 -10.333 67 -31l133 -226c3.33301 -6 8 -9 14 -9c11.333 0 22 8.66699 32 26l111 192c7.33301 13.333 18.333 24.666 33 33.999s28.667 14 42 14
h240c13.333 0 27.5 4.66699 42.5 14s26.167 20.666 33.5 33.999l111 192c4.66699 8.66699 7 16.667 7 24c0 16 -9 24 -27 24h-240c-13.333 0 -27.5 -4.66699 -42.5 -14s-26.167 -20.666 -33.5 -33.999l-83 -144c-8 -13.333 -19.333 -24.666 -34 -33.999s-28.667 -14 -42 -14
v0c-18.667 0 -28 8 -28 24c0 7.33301 2.66699 15.333 8 24l194 336c7.33301 13.333 18.5 24.666 33.5 33.999s28.833 14 41.5 14v0c18.667 0 28 -8 28 -24c0 -7.33301 -2.33301 -15.333 -7 -24l-28 -48c-4.66699 -8.66699 -7 -16.667 -7 -24c0 -16 9 -24 27 -24h240z" />
    <glyph glyph-name="sterling" unicode="&#xa3;" horiz-adv-x="795" 
d="M600 257c-4 6 -9 8.99902 -15 8.99902c-10.667 0 -21 -8.66699 -31 -26l-84 -144c-7.33301 -13.333 -18.5 -24.666 -33.5 -33.999s-28.833 -14 -41.5 -14v0c-18.667 0 -28 8 -28 24c0 7.33301 2.33301 15.333 7 24l274 474c8 14 12 29.333 12 46
c0 11.333 -2 20.333 -6 27l-133 226c-3.33301 6 -8 9 -14 9c-11.333 0 -22 -8.66699 -32 -26l-464 -804c-5.33301 -8.66699 -8 -16.667 -8 -24c0 -16 9.33301 -24 28 -24h672c22 0 33 6.66699 33 20c0 4 -1 7.66699 -3 11z" />
    <glyph glyph-name="brokenbar" unicode="&#xa6;" 
d="M4 48c-4.66699 -8.66699 -7 -16.667 -7 -24c0 -16 9.33301 -24 28 -24h240c13.333 0 27.333 4.66699 42 14s25.667 20.666 33 33.999l111 192c5.33301 8.66699 8 16.667 8 24c0 16 -9.33301 24 -28 24h-240c-13.333 0 -27.333 -4.66699 -42 -14s-26 -20.666 -34 -33.999z
M486 384c13.333 0 27.5 4.66797 42.5 14.001s26.167 20.666 33.5 33.999l111 192c10 17.333 15 35.333 15 54c0 10.667 -2 19 -6 25l-133 226c-3.33301 6 -8 9 -14 9c-11.333 0 -22 -8.66699 -32 -26l-277 -480c-4.66699 -8.66699 -7 -16.667 -7 -24c0 -16 9 -24 27 -24h240
z" />
    <glyph glyph-name="section" unicode="&#xa7;" horiz-adv-x="792" 
d="M430 720c-13.333 0 -27.332 -4.66895 -41.999 -14.002s-26 -20.666 -34 -33.999l-83 -144c-4.66699 -8.66699 -7 -16.667 -7 -24c0 -16 9 -24 27 -24h240h96c18.667 0 28 -8 28 -24c0 -7.33301 -2.33301 -15.333 -7 -24v0c-8 -13.333 -19.333 -24.666 -34 -33.999
s-28.667 -14 -42 -14v0h-336c-13.333 0 -27.333 -4.66699 -42 -14s-26 -20.666 -34 -33.999v0c-10 -17.333 -15 -35.333 -15 -54c0 -10.667 2 -19 6 -25l133 -226c12 -20.667 34 -31 66 -31v0c18.667 0 28 -8 28 -24c0 -7.33301 -2.33301 -15.333 -7 -24l-84 -144
c-7.33301 -13.333 -18.333 -24.666 -33 -33.999s-28.667 -14 -42 -14v0c-18.667 0 -28 8 -28 24c0 7.33301 2.33301 15.333 7 24l28 48c5.33301 8.66699 8 16.667 8 24c0 16 -9.33301 24 -28 24h-240c-13.333 0 -27.333 -4.66699 -42 -14s-26 -20.666 -34 -33.999l-69 -120
c-1.33301 -2 -2 -4.33301 -2 -7c0 -11.333 12 -17 36 -17h672c13.333 0 27.333 4.66699 42 14s26 20.666 34 33.999l138 240c5.33301 8.66699 8 16.667 8 24c0 16 -9.33301 24 -28 24h-336c-24 0 -36 5.66699 -36 17c0 10 8.66699 18 26 24c13.333 4.66699 26 7 38 7v0h336
c13.333 0 27.333 4.66699 42 14s25.667 20.666 33 33.999v0l42 72c9.33301 16 7.66602 34.333 -5.00098 55l-132 226c-12.667 20.667 -35 31 -67 31v0c-18.667 0 -28 8 -28 24c0 7.33301 2.66699 15.333 8 24l28 48c7.33301 13.333 18.333 24.666 33 33.999s28.667 14 42 14
v0c18.667 0 28 -8 28 -24c0 -6 -2.5 -14 -7.5 -24s-7.5 -18 -7.5 -24c0 -16 9.33301 -24 28 -24h240c32.667 0 58 16 76 48l43 79c0 11.333 -12 17 -36 17h-672zM565.001 287.998l-70 -119.999c-9.33301 -16 -30 -24 -62 -24v0c-24 0 -36 5.66699 -36 17
c0 2.66699 0.666992 5 2 7l70 120c7.33301 13.333 18.333 24.666 33 33.999s28.667 14 42 14v0c18.667 0 28 -8 28 -24c0 -7.33301 -2.33301 -15.333 -7 -24v0z" />
    <glyph glyph-name="dieresis" unicode="&#xa8;" 
d="M535 720c-12.667 0 -26.5 -4.66699 -41.5 -14s-26.167 -20.666 -33.5 -33.999l-28 -48c-4.66699 -8.66699 -7 -16.667 -7 -24c0 -16 9 -24 27 -24h240c13.333 0 27.5 4.66699 42.5 14s26.167 20.666 33.5 33.999l28 48c4.66699 8.66699 7 16.667 7 24
c0 16 -9.33301 24 -28 24h-240zM0 624c-4.66699 -8.66699 -7 -16.667 -7 -24c0 -16 9 -24 27 -24h240c13.333 0 27.5 4.66699 42.5 14s26.167 20.666 33.5 33.999l28 48c4.66699 8.66699 7 16.667 7 24c0 16 -9.33301 24 -28 24h-240c-12.667 0 -26.5 -4.66699 -41.5 -14
s-26.167 -20.666 -33.5 -33.999z" />
    <glyph glyph-name="guillemotleft" unicode="&#xab;" 
d="M9 288c-10 -17.333 -15 -35.334 -15 -54.001c0 -10.667 2 -19 6 -25l133 -226c3.33301 -6 8 -9 14 -9c11.333 0 22 8.66699 32 26l277 480c5.33301 8.66699 8 16.667 8 24c0 16 -9.33301 24 -28 24h-240c-13.333 0 -27.333 -4.66699 -42 -14s-26 -20.666 -34 -33.999z
M628 527.999c-13.333 0 -27.333 -4.66797 -42 -14.001s-26 -20.666 -34 -33.999l-111 -192c-10 -17.333 -15 -35.333 -15 -54c0 -10.667 2 -19 6 -25l133 -226c3.33301 -6 8 -9 14 -9c11.333 0 22 8.66699 32 26l277 480c5.33301 8.66699 8 16.667 8 24
c0 16 -9.33301 24 -28 24h-240z" />
    <glyph glyph-name="minus" unicode="&#xad;" 
d="M151 288c-13.333 0 -27.333 -4.66699 -42 -14s-26 -20.666 -34 -33.999l-55 -96c-4.66699 -8.66699 -7 -16.667 -7 -24c0 -16 9 -24 27 -24h672c13.333 0 27.5 4.66699 42.5 14s26.167 20.666 33.5 33.999l55 96c5.33301 8.66699 8 16.667 8 24c0 16 -9.33301 24 -28 24
h-672z" />
    <glyph glyph-name="minus" unicode="&#x2212;" 
d="M151 288c-13.333 0 -27.333 -4.66699 -42 -14s-26 -20.666 -34 -33.999l-55 -96c-4.66699 -8.66699 -7 -16.667 -7 -24c0 -16 9 -24 27 -24h672c13.333 0 27.5 4.66699 42.5 14s26.167 20.666 33.5 33.999l55 96c5.33301 8.66699 8 16.667 8 24c0 16 -9.33301 24 -28 24
h-672z" />
    <glyph glyph-name="degree" unicode="&#xb0;" 
d="M131 720c-13.333 0 -27.333 -4.66699 -42 -14s-26 -20.666 -34 -33.999l-55 -96c-4.66699 -8.66699 -7 -16.667 -7 -24c0 -16 9 -24 27 -24h672c13.333 0 27.5 4.66699 42.5 14s26.167 20.666 33.5 33.999l55 96c5.33301 8.66699 8 16.667 8 24c0 16 -9.33301 24 -28 24
h-672zM460 624c-8 -13.333 -19.333 -24.666 -34 -33.999s-28.667 -14 -42 -14v0c-18.667 0 -28 8 -28 24c0 7.33301 2.66699 15.333 8 24v0c7.33301 13.333 18.5 24.666 33.5 33.999s28.833 14 41.5 14v0c18.667 0 28 -8 28 -24c0 -7.33301 -2.33301 -15.333 -7 -24v0z" />
    <glyph glyph-name="plusminus" unicode="&#xb1;" 
d="M1043 528c-18 0 -27 7.99902 -27 23.999c0 7.33301 2.33301 15.333 7 24v0l56 96c4.66699 8.66699 7 16.667 7 24c0 16 -9.33301 24 -28 24h-240c-13.333 0 -27.333 -4.66699 -42 -14s-25.667 -20.666 -33 -33.999l-56 -96c-7.33301 -13.333 -18.5 -24.666 -33.5 -33.999
s-29.167 -14 -42.5 -14h-120c-12.667 0 -26.5 -4.66699 -41.5 -14s-26.167 -20.666 -33.5 -33.999l-111 -192c-5.33301 -8.66699 -8 -16.667 -8 -24c0 -16 9.33301 -24 28 -24h120c18.667 0 28 -8 28 -24c0 -7.33301 -2.66699 -15.333 -8 -24l-69 -120
c-1.33301 -2 -2 -4.33301 -2 -7c0 -11.333 12 -17 36 -17h240c32 0 52.667 8 62 24l69 120c8 13.333 19.333 24.666 34 33.999s28.667 14 42 14h120c13.333 0 27.333 4.66699 42 14s26 20.666 34 33.999l111 192c4.66699 8.66699 7 16.667 7 24c0 16 -9.33301 24 -28 24
h-120zM187 -0.000976562c-13.333 0 -27.5 -4.66699 -42.5 -14s-26.167 -20.666 -33.5 -33.999l-111 -192c-4.66699 -8.66699 -7 -16.667 -7 -24c0 -16 9 -24 27 -24h672c13.333 0 27.5 4.66699 42.5 14s26.167 20.666 33.5 33.999l111 192c4.66699 8.66699 7 16.667 7 24
c0 16 -9 24 -27 24h-672z" />
    <glyph glyph-name="acute" unicode="&#xb4;" horiz-adv-x="360" 
d="M571 528c22 0 33 6.66699 33 20c0 4 -1 7.66699 -3 11l-133 226c-3.33301 6 -8.33301 9 -15 9c-10.667 0 -21 -8.66699 -31 -26l-111 -192c-4.66699 -8.66699 -7 -16.667 -7 -24c0 -16 9 -24 27 -24h240z" />
    <glyph glyph-name="paragraph" unicode="&#xb6;" 
d="M353 -629c3.33301 -6 8 -9.00098 14 -9.00098c11.333 0 22 8.66699 32 26l741 1284c5.33301 8.66699 8 16.667 8 24c0 16 -9.33301 24 -28 24h-672c-13.333 0 -27.333 -4.66699 -42 -14s-26 -20.666 -34 -33.999l-249 -432c-4.66699 -8.66699 -7 -16.667 -7 -24
c0 -16 9 -24 27 -24h336c18.667 0 28 -8 28 -24c0 -7.33301 -2.66699 -15.333 -8 -24l-270 -468c-10 -17.333 -15 -35.333 -15 -54c0 -10.667 2 -19 6 -25zM507 239.999c-18.667 0 -28 8 -28 24c0 7.33301 2.66699 15.333 8 24l194 336
c7.33301 13.333 18.5 24.666 33.5 33.999s28.833 14 41.5 14v0c18.667 0 28 -8 28 -24c0 -7.33301 -2.33301 -15.333 -7 -24l-194 -336c-8 -13.333 -19.333 -24.666 -34 -33.999s-28.667 -14 -42 -14z" />
    <glyph glyph-name="guillemotright" unicode="&#xbb;" 
d="M879 240c10 17.333 15 35.334 15 54.001c0 10.667 -2 19 -6 25l-133 226c-3.33301 6 -8 9 -14 9c-11.333 0 -22 -8.66699 -32 -26l-277 -480c-4.66699 -8.66699 -7 -16.667 -7 -24c0 -16 9 -24 27 -24h240c13.333 0 27.5 4.66699 42.5 14s26.167 20.666 33.5 33.999z
M323 545.001c-3.33301 6 -8 9.00098 -14 9.00098c-11.333 0 -22 -8.66699 -32 -26l-277 -480c-4.66699 -8.66699 -7 -16.667 -7 -24c0 -16 9 -24 27 -24h240c13.333 0 27.5 4.66699 42.5 14s26.167 20.666 33.5 33.999l111 192c10 17.333 15 35.333 15 54
c0 10.667 -2 19 -6 25z" />
    <glyph glyph-name="questiondown" unicode="&#xbf;" 
d="M947 624c13.333 0 27.5 4.66699 42.5 14s26.167 20.666 33.5 33.999l56 96c4.66699 8.66699 7 16.667 7 24c0 16 -9.33301 24 -28 24h-240c-13.333 0 -27.333 -4.66699 -42 -14s-25.667 -20.666 -33 -33.999l-56 -96c-4.66699 -8.66699 -7 -16.667 -7 -24
c0 -16 9 -24 27 -24h240zM879 48c4.66699 8.66699 7 16.665 7 23.998c0 16 -9 24 -27 24h-240c-13.333 0 -27.5 -4.66699 -42.5 -14s-26.167 -20.666 -33.5 -33.999l-83 -144c-8 -13.333 -19.333 -24.666 -34 -33.999s-28.667 -14 -42 -14v0c-18.667 0 -28 8 -28 24
c0 7.33301 2.66699 15.333 8 24l138 240c8 13.333 19.333 24.666 34 33.999s28.667 14 42 14h120c13.333 0 27.333 4.66699 42 14s26 20.666 34 33.999l138 240c5.33301 8.66699 8 16.667 8 24c0 16 -9.33301 24 -28 24h-240c-13.333 0 -27.333 -4.66699 -42 -14
s-26 -20.666 -34 -33.999l-55 -96c-8 -13.333 -19.333 -24.666 -34 -33.999s-28.667 -14 -42 -14h-120c-13.333 0 -27.333 -4.66699 -42 -14s-26 -20.666 -34 -33.999l-249 -432c-4.66699 -8.66699 -7 -16.667 -7 -24c0 -16 9 -24 27 -24h672c13.333 0 27.5 4.66699 42.5 14
s26.167 20.666 33.5 33.999z" />
    <glyph glyph-name="Adieresis" unicode="&#xc4;" 
d="M872 720c-12.667 0 -26.5 -4.66699 -41.5 -14s-26.167 -20.666 -33.5 -33.999l-28 -48c-4.66699 -8.66699 -7 -16.667 -7 -24c0 -16 9 -24 27 -24h240c13.333 0 27.5 4.66699 42.5 14s26.167 20.666 33.5 33.999l28 48c4.66699 8.66699 7 16.667 7 24
c0 16 -9.33301 24 -28 24h-240zM701 672c4.66699 8.66699 7 16.667 7 24c0 16 -9.33301 24 -28 24h-240c-12.667 0 -26.5 -4.66699 -41.5 -14s-26.167 -20.666 -33.5 -33.999l-28 -48c-4.66699 -8.66699 -7 -16.667 -7 -24c0 -16 9 -24 27 -24h240
c13.333 0 27.5 4.66699 42.5 14s26.167 20.666 33.5 33.999zM666 528h-336c-13.333 0 -27.5 -4.66699 -42.5 -14s-26.167 -20.666 -33.5 -33.999l-56 -96c-4.66699 -8.66699 -7 -16.667 -7 -24c0 -16 9.33301 -24 28 -24h240c13.333 0 27.333 4.66699 42 14
s25.667 20.666 33 33.999l28 48c8 13.333 19.333 24.666 34 33.999s28.667 14 42 14v0c18.667 0 28 -8 28 -24c0 -7.33301 -2.66699 -15.333 -8 -24l-55 -96c-8 -13.333 -19.333 -24.666 -34 -33.999s-28.667 -14 -42 -14v0h-336c-13.333 0 -27.333 -4.66699 -42 -14
s-26 -20.666 -34 -33.999l-111 -192c-4.66699 -8.66699 -7 -16.667 -7 -24c0 -16 9.33301 -24 28 -24h672c13.333 0 27.333 4.66699 42 14s25.667 20.666 33 33.999l250 432c4.66699 8.66699 7 16.667 7 24c0 16 -9 24 -27 24h-336zM464 96
c-7.33301 -13.333 -18.5 -24.666 -33.5 -33.999s-29.167 -14 -42.5 -14v0c-18 0 -27 8 -27 24c0 7.33301 2.33301 15.333 7 24l56 96c7.33301 13.333 18.5 24.666 33.5 33.999s28.833 14 41.5 14v0c18.667 0 28 -8 28 -24c0 -7.33301 -2.33301 -15.333 -7 -24z" />
    <glyph glyph-name="Aring" unicode="&#xc5;" 
d="M449 720c-13.333 0 -27.5 -4.66699 -42.5 -14s-26.167 -20.666 -33.5 -33.999l-28 -48c-4.66699 -8.66699 -7 -16.667 -7 -24c0 -16 9.33301 -24 28 -24h672c12.667 0 26.5 4.66699 41.5 14s26.167 20.666 33.5 33.999l28 48c4.66699 8.66699 7 16.667 7 24
c0 16 -9 24 -27 24h-672zM729 624c-24 0 -36 5.66699 -36 17c0 10 8.66699 18 26 24c14 4.66699 26.667 7 38 7v0c24 0 36 -5.66699 36 -17c0 -10 -8.66699 -18 -26 -24c-14 -4.66699 -26.667 -7 -38 -7zM674 528h-336c-13.333 0 -27.333 -4.66699 -42 -14
s-26 -20.666 -34 -33.999l-55 -96c-5.33301 -8.66699 -8 -16.667 -8 -24c0 -16 9.33301 -24 28 -24h240c13.333 0 27.333 4.66699 42 14s26 20.666 34 33.999l27 48c8 13.333 19.333 24.666 34 33.999s28.667 14 42 14v0c18.667 0 28 -8 28 -24
c0 -7.33301 -2.66699 -15.333 -8 -24l-55 -96c-7.33301 -13.333 -18.5 -24.666 -33.5 -33.999s-29.167 -14 -42.5 -14v0h-336c-13.333 0 -27.333 -4.66699 -42 -14s-25.667 -20.666 -33 -33.999l-111 -192c-5.33301 -8.66699 -8 -16.667 -8 -24c0 -16 9.33301 -24 28 -24
h672c13.333 0 27.333 4.66699 42 14s26 20.666 34 33.999l249 432c5.33301 8.66699 8 16.667 8 24c0 16 -9.33301 24 -28 24h-336zM472 96c-7.33301 -13.333 -18.5 -24.666 -33.5 -33.999s-28.833 -14 -41.5 -14v0c-18.667 0 -28 8 -28 24c0 7.33301 2.33301 15.333 7 24
l56 96c7.33301 13.333 18.5 24.666 33.5 33.999s29.167 14 42.5 14v0c18 0 27 -8 27 -24c0 -7.33301 -2.33301 -15.333 -7 -24z" />
    <glyph glyph-name="AE" unicode="&#xc6;" 
d="M927 240h336c13.333 0 27.333 4.66699 42 14s26 20.666 34 33.999l110 192c5.33301 8.66699 8 16.667 8 24c0 16 -9.33301 24 -28 24h-1104c-13.333 0 -27.333 -4.66699 -42 -14s-26 -20.666 -34 -33.999l-55 -96c-4.66699 -8.66699 -7 -16.667 -7 -24
c0 -16 9 -24 27 -24h240c13.333 0 27.5 4.66699 42.5 14s26.167 20.666 33.5 33.999l28 48c7.33301 13.333 18.5 24.666 33.5 33.999s28.833 14 41.5 14v0c18.667 0 28 -8 28 -24c0 -7.33301 -2.33301 -15.333 -7 -24l-56 -96c-7.33301 -13.333 -18.5 -24.666 -33.5 -33.999
s-28.833 -14 -41.5 -14v0h-336c-13.333 0 -27.5 -4.66699 -42.5 -14s-26.167 -20.666 -33.5 -33.999l-111 -192c-4.66699 -8.66699 -7 -16.667 -7 -24c0 -16 9 -24 27 -24h1104c13.333 0 27.5 4.66699 42.5 14s26.167 20.666 33.5 33.999l55 96
c5.33301 8.66699 8 16.667 8 24c0 16 -9.33301 24 -28 24h-240c-13.333 0 -27.333 -4.66699 -42 -14s-26 -20.666 -34 -33.999l-27 -48c-8 -13.333 -19.333 -24.666 -34 -33.999s-28.667 -14 -42 -14c-18.667 0 -28 8 -28 24c0 7.33301 2.66699 15.333 8 24l55 96
c8 13.333 19.333 24.666 34 33.999s28.667 14 42 14zM460 96c-8 -13.333 -19.333 -24.666 -34 -33.999s-28.667 -14 -42 -14v0c-18.667 0 -28 8 -28 24c0 7.33301 2.66699 15.333 8 24l55 96c8 13.333 19.333 24.666 34 33.999s28.667 14 42 14v0c18.667 0 28 -8 28 -24
c0 -7.33301 -2.66699 -15.333 -8 -24zM990 432c7.33301 13.333 18.5 24.666 33.5 33.999s28.833 14 41.5 14c18.667 0 28 -8 28 -24c0 -7.33301 -2.33301 -15.333 -7 -24l-56 -96c-7.33301 -13.333 -18.5 -24.666 -33.5 -33.999s-28.833 -14 -41.5 -14
c-18.667 0 -28 8 -28 24c0 7.33301 2.33301 15.333 7 24z" />
    <glyph glyph-name="Ccedilla" unicode="&#xc7;" 
d="M891 336c13.333 0 27.333 4.66797 42 14.001s26 20.666 34 33.999l55 96c4.66699 8.66699 7 16.667 7 24c0 16 -9 24 -27 24h-672c-13.333 0 -27.5 -4.66699 -42.5 -14s-26.167 -20.666 -33.5 -33.999l-249 -432c-5.33301 -8.66699 -8 -16.667 -8 -24
c0 -16 9.33301 -24 28 -24c32 0 54 -10.333 66 -31l133 -226c4 -6 9 -9 15 -9c10.667 0 21 8.66699 31 26l111 192c8 13.333 19.333 24.666 34 33.999s28.667 14 42 14h240c13.333 0 27.333 4.66699 42 14s26 20.666 34 33.999l110 192c5.33301 8.66699 8 16.667 8 24
c0 16 -9.33301 24 -28 24h-240c-13.333 0 -27.333 -4.66699 -42 -14s-26 -20.666 -34 -33.999l-83 -144c-7.33301 -13.333 -18.5 -24.666 -33.5 -33.999s-28.833 -14 -41.5 -14c-18.667 0 -28 8 -28 24c0 7.33301 2.33301 15.333 7 24l194 336
c8 13.333 19.333 24.666 34 33.999s28.667 14 42 14c18.667 0 28 -8 28 -24c0 -7.33301 -2.66699 -15.333 -8 -24l-27 -48c-5.33301 -8.66699 -8 -16.667 -8 -24c0 -16 9.33301 -24 28 -24h240z" />
    <glyph glyph-name="Eacute" unicode="&#xc9;" 
d="M505 240l336 -0.000976562c13.333 0 27.5 4.66699 42.5 14s26.167 20.666 33.5 33.999l111 192c4.66699 8.66699 7 16.667 7 24c0 16 -9 24 -27 24c-32 0 -54.333 10.333 -67 31l-133 226c-3.33301 6 -8 9 -14 9c-11.333 0 -22 -8.66699 -32 -26l-111 -192
c-7.33301 -13.333 -18.333 -24.666 -33 -33.999s-28.667 -14 -42 -14h-240c-13.333 0 -27.5 -4.66699 -42.5 -14s-26.167 -20.666 -33.5 -33.999l-249 -432c-5.33301 -8.66699 -8 -16.667 -8 -24c0 -16 9.33301 -24 28 -24h672c13.333 0 27.333 4.66699 42 14
s26 20.666 34 33.999l55 96c4.66699 8.66699 7 16.667 7 24c0 16 -9 24 -27 24h-240c-13.333 0 -27.5 -4.66699 -42.5 -14s-26.167 -20.666 -33.5 -33.999l-28 -48c-7.33301 -13.333 -18.5 -24.666 -33.5 -33.999s-28.833 -14 -41.5 -14c-18.667 0 -28 8 -28 24
c0 7.33301 2.33301 15.333 7 24l56 96c7.33301 13.333 18.5 24.666 33.5 33.999s28.833 14 41.5 14zM568 431.999c8 13.333 19.333 24.666 34 33.999s28.667 14 42 14c18.667 0 28 -8 28 -24c0 -7.33301 -2.66699 -15.333 -8 -24l-55 -96
c-8 -13.333 -19.333 -24.666 -34 -33.999s-28.667 -14 -42 -14c-18 0 -27 8 -27 24c0 7.33301 2.33301 15.333 7 24z" />
    <glyph glyph-name="Eth" unicode="&#xd0;" 
d="M946 869c-4 6 -9 8.99707 -15 8.99707c-10.667 0 -21 -8.66699 -31 -26l-49 -84c-7.33301 -13.333 -18.5 -24.666 -33.5 -33.999s-28.833 -14 -41.5 -14v0c-13.333 0 -27.5 -4.66699 -42.5 -14s-26.167 -20.666 -33.5 -33.999v0c-5.33301 -8.66699 -8 -16.667 -8 -24
c0 -16 9.33301 -24 28 -24v0c18.667 0 28 -8 28 -24c0 -7.33301 -2.66699 -15.333 -8 -24v0c-7.33301 -13.333 -18.5 -24.666 -33.5 -33.999s-28.833 -14 -41.5 -14v0h-336c-13.333 0 -27.5 -4.66699 -42.5 -14s-26.167 -20.666 -33.5 -33.999l-249 -432
c-5.33301 -8.66699 -8 -16.667 -8 -24c0 -16 9.33301 -24 28 -24h672c13.333 0 27.333 4.66699 42 14s26 20.666 34 33.999l301 522c8 14 12 29.333 12 46c0 11.333 -2 20.333 -6 27zM463 95.9971c-7.33301 -13.333 -18.5 -24.666 -33.5 -33.999s-28.833 -14 -41.5 -14v0
c-18.667 0 -28 8 -28 24c0 7.33301 2.33301 15.333 7 24l194 336c8 13.333 19.333 24.666 34 33.999s28.667 14 42 14v0c18.667 0 28 -8 28 -24c0 -7.33301 -2.66699 -15.333 -8 -24z" />
    <glyph glyph-name="Ntilde" unicode="&#xd1;" 
d="M677 528l-336 0.00195312c-13.333 0 -27.333 -4.66699 -42 -14s-26 -20.666 -34 -33.999l-249 -432c-4.66699 -8.66699 -7 -16.667 -7 -24c0 -16 9 -24 27 -24h240c13.333 0 27.5 4.66699 42.5 14s26.167 20.666 33.5 33.999l222 384
c7.33301 13.333 18.5 24.666 33.5 33.999s28.833 14 41.5 14v0c18.667 0 28 -8 28 -24c0 -7.33301 -2.33301 -15.333 -7 -24l-222 -384c-4.66699 -8.66699 -7 -16.667 -7 -24c0 -16 9 -24 27 -24h240c13.333 0 27.5 4.66699 42.5 14s26.167 20.666 33.5 33.999l249 432
c5.33301 8.66699 8 16.667 8 24c0 16 -9.33301 24 -28 24h-336zM939 816.002c-12.667 0 -26.5 -4.66699 -41.5 -14s-26.167 -20.666 -33.5 -33.999v0c-8 -13.333 -19.333 -24.666 -34 -33.999s-28.667 -14 -42 -14v0h-336c-13.333 0 -27.333 -4.66699 -42 -14
s-26 -20.666 -34 -33.999l-27 -48c-5.33301 -8.66699 -8 -16.667 -8 -24c0 -16 9.33301 -24 28 -24h240c13.333 0 27.333 4.66699 42 14s26 20.666 34 33.999v0c7.33301 13.333 18.333 24.666 33 33.999s28.667 14 42 14v0h336c13.333 0 27.5 4.66699 42.5 14
s26.167 20.666 33.5 33.999l28 48c4.66699 8.66699 7 16.667 7 24c0 16 -9.33301 24 -28 24h-240z" />
    <glyph glyph-name="Odieresis" unicode="&#xd6;" 
d="M661 528h-336c-13.333 0 -27.333 -4.66699 -42 -14s-26 -20.666 -34 -33.999l-249 -432c-4.66699 -8.66699 -7 -16.667 -7 -24c0 -16 9 -24 27 -24h672c13.333 0 27.5 4.66699 42.5 14s26.167 20.666 33.5 33.999l249 432c5.33301 8.66699 8 16.667 8 24
c0 16 -9.33301 24 -28 24h-336zM460 96c-8 -13.333 -19.333 -24.666 -34 -33.999s-28.667 -14 -42 -14v0c-18.667 0 -28 8 -28 24c0 7.33301 2.66699 15.333 8 24l194 336c7.33301 13.333 18.5 24.666 33.5 33.999s28.833 14 41.5 14v0c18.667 0 28 -8 28 -24
c0 -7.33301 -2.33301 -15.333 -7 -24zM868 720c-13.333 0 -27.333 -4.66699 -42 -14s-26 -20.666 -34 -33.999l-27 -48c-5.33301 -8.66699 -8 -16.667 -8 -24c0 -16 9.33301 -24 28 -24h240c13.333 0 27.333 4.66699 42 14s26 20.666 34 33.999l27 48
c5.33301 8.66699 8 16.667 8 24c0 16 -9.33301 24 -28 24h-240zM696 672c5.33301 8.66699 8 16.667 8 24c0 16 -9.33301 24 -28 24h-240c-13.333 0 -27.333 -4.66699 -42 -14s-26 -20.666 -34 -33.999l-27 -48c-5.33301 -8.66699 -8 -16.667 -8 -24
c0 -16 9.33301 -24 28 -24h240c13.333 0 27.333 4.66699 42 14s26 20.666 34 33.999z" />
    <glyph glyph-name="Oslash" unicode="&#xd8;" 
d="M332 528c-12.667 0 -26.5 -4.66699 -41.5 -14s-26.167 -20.666 -33.5 -33.999l-250 -432c-4.66699 -8.66699 -7 -16.667 -7 -24c-0 -16 9.33301 -24 28 -24h672c12.667 0 26.5 4.66699 41.5 14s26.167 20.666 33.5 33.999l250 432c4.66699 8.66699 7 16.667 7 24
c0 16 -9.33301 24 -28 24h-672zM467 96c-7.33301 -13.333 -18.5 -24.666 -33.5 -33.999s-29.167 -14 -42.5 -14v0c-18 0 -27 8 -27 24c0 7.33301 2.33301 15.333 7 24l55 96c8 13.333 19.333 24.666 34 33.999s28.667 14 42 14v0c18.667 0 28 -8 28 -24
c0 -7.33301 -2.66699 -15.333 -8 -24zM606 336c-8 -13.333 -19.333 -24.666 -34 -33.999s-28.667 -14 -42 -14v0c-18.667 0 -28 8 -28 24c0 7.33301 2.66699 15.333 8 24l55 96c7.33301 13.333 18.5 24.666 33.5 33.999s29.167 14 42.5 14v0c18 0 27 -8 27 -24
c0 -7.33301 -2.33301 -15.333 -7 -24z" />
    <glyph glyph-name="Udieresis" unicode="&#xdc;" 
d="M661 528h-336c-13.333 0 -27.333 -4.66699 -42 -14s-26 -20.666 -34 -33.999l-249 -432c-4.66699 -8.66699 -7 -16.667 -7 -24c0 -16 9 -24 27 -24h672c13.333 0 27.5 4.66699 42.5 14s26.167 20.666 33.5 33.999l249 432c5.33301 8.66699 8 16.667 8 24
c0 16 -9.33301 24 -28 24h-336zM460 96c-8 -13.333 -19.333 -24.666 -34 -33.999s-28.667 -14 -42 -14v0c-18.667 0 -28 8 -28 24c0 7.33301 2.66699 15.333 8 24l194 336c7.33301 13.333 18.5 24.666 33.5 33.999s28.833 14 41.5 14v0c18.667 0 28 -8 28 -24
c0 -7.33301 -2.33301 -15.333 -7 -24zM868 720c-13.333 0 -27.333 -4.66699 -42 -14s-26 -20.666 -34 -33.999l-27 -48c-5.33301 -8.66699 -8 -16.667 -8 -24c0 -16 9.33301 -24 28 -24h240c13.333 0 27.333 4.66699 42 14s26 20.666 34 33.999l27 48
c5.33301 8.66699 8 16.667 8 24c0 16 -9.33301 24 -28 24h-240zM696 672c5.33301 8.66699 8 16.667 8 24c0 16 -9.33301 24 -28 24h-240c-13.333 0 -27.333 -4.66699 -42 -14s-26 -20.666 -34 -33.999l-27 -48c-5.33301 -8.66699 -8 -16.667 -8 -24
c0 -16 9.33301 -24 28 -24h240c13.333 0 27.333 4.66699 42 14s26 20.666 34 33.999z" />
    <glyph glyph-name="Thorn" unicode="&#xde;" 
d="M719 528c-20 0 -30 7.66895 -30 23.002c0 6 2 12.333 6 19c8 14 12 29.333 12 46c0 11.333 -2 20.333 -6 27l-133 226c-3.33301 6 -8 9 -14 9c-11.333 0 -22 -8.66699 -32 -26l-516 -894c-8 -14 -12 -29.333 -12 -46c0 -11.333 2 -20.333 6 -27l133 -226
c3.33301 -6 8 -9 14 -9c11.333 0 22 8.66699 32 26l159 276c8 13.333 19.333 24.666 34 33.999s28.667 14 42 14h335c13.333 0 27.5 4.66699 42.5 14s26.167 20.666 33.5 33.999l250 432c4.66699 8.66699 7 16.667 7 24c0 16 -9.33301 24 -28 24h-335zM442 48.002
c-18.667 0 -27.999 8 -27.999 24c0 7.33301 2.66699 15.333 8 24l194 336c7.33301 13.333 18.333 24.666 33 33.999s28.667 14 42 14c18 0 27 -8 27 -24c0 -7.33301 -2.33301 -15.333 -7 -24l-194 -336c-8 -13.333 -19.333 -24.666 -34 -33.999s-28.334 -14 -41.001 -14z
" />
    <glyph glyph-name="agrave" unicode="&#xe0;" 
d="M997 528c-32 0 -54 10.332 -66 30.999l-133 226c-4 6 -9 9 -15 9c-10.667 0 -21 -8.66699 -31 -26l-111 -192c-8 -13.333 -19.333 -24.666 -34 -33.999s-28.667 -14 -42 -14h-240c-13.333 0 -27.333 -4.66699 -42 -14s-26 -20.666 -34 -33.999l-55 -96
c-4.66699 -8.66699 -7 -16.667 -7 -24c0 -16 9 -24 27 -24h240c13.333 0 27.5 4.66699 42.5 14s26.167 20.666 33.5 33.999l28 48c7.33301 13.333 18.5 24.666 33.5 33.999s28.833 14 41.5 14v0c18.667 0 28 -8 28 -24c0 -7.33301 -2.33301 -15.333 -7 -24l-56 -96
c-7.33301 -13.333 -18.5 -24.666 -33.5 -33.999s-28.833 -14 -41.5 -14v0h-336c-13.333 0 -27.5 -4.66699 -42.5 -14s-26.167 -20.666 -33.5 -33.999l-111 -192c-4.66699 -8.66699 -7 -16.667 -7 -24c0 -16 9 -24 27 -24h672c13.333 0 27.5 4.66699 42.5 14
s26.167 20.666 33.5 33.999l249 432c5.33301 8.66699 8 16.667 8 24c0 16 -9.33301 24 -28 24zM460 95.999c-8 -13.333 -19.333 -24.666 -34 -33.999s-28.667 -14 -42 -14v0c-18.667 0 -28 8 -28 24c0 7.33301 2.66699 15.333 8 24l55 96c8 13.333 19.333 24.666 34 33.999
s28.667 14 42 14v0c18.667 0 28 -8 28 -24c0 -7.33301 -2.66699 -15.333 -8 -24z" />
    <glyph glyph-name="aacute" unicode="&#xe1;" 
d="M998 528c-32 0 -54 10.332 -66 30.999l-133 226c-4 6 -9 9 -15 9c-11.333 0 -22 -8.66699 -32 -26l-110 -192c-8 -13.333 -19.333 -24.666 -34 -33.999s-28.667 -14 -42 -14h-240c-13.333 0 -27.333 -4.66699 -42 -14s-26 -20.666 -34 -33.999l-55 -96
c-5.33301 -8.66699 -8 -16.667 -8 -24c0 -16 9.33301 -24 28 -24h240c13.333 0 27.333 4.66699 42 14s26 20.666 34 33.999l27 48c8 13.333 19.333 24.666 34 33.999s28.667 14 42 14v0c18.667 0 28 -8 28 -24c0 -7.33301 -2.66699 -15.333 -8 -24l-55 -96
c-7.33301 -13.333 -18.5 -24.666 -33.5 -33.999s-29.167 -14 -42.5 -14v0h-336c-12.667 0 -26.5 -4.66699 -41.5 -14s-26.167 -20.666 -33.5 -33.999l-111 -192c-5.33301 -8.66699 -8 -16.667 -8 -24c0 -16 9.33301 -24 28 -24h672c13.333 0 27.333 4.66699 42 14
s26 20.666 34 33.999l249 432c5.33301 8.66699 8 16.667 8 24c0 16 -9.33301 24 -28 24zM461 95.999c-8 -13.333 -19.333 -24.666 -34 -33.999s-28.667 -14 -42 -14v0c-18.667 0 -28 8 -28 24c0 7.33301 2.33301 15.333 7 24l56 96c7.33301 13.333 18.5 24.666 33.5 33.999
s29.167 14 42.5 14v0c18 0 27 -8 27 -24c0 -7.33301 -2.33301 -15.333 -7 -24z" />
    <glyph glyph-name="acircumflex" unicode="&#xe2;" 
d="M923 816c-22 0 -33 -6.66699 -33 -20c0 -3.33301 1.33301 -7 4 -11l133 -226c3.33301 -6 8 -9 14 -9c11.333 0 22 8.66699 32 26l111 192c4.66699 8.66699 7 16.667 7 24c0 16 -9.33301 24 -28 24h-240zM587 816c-22 0 -33 -6.66699 -33 -20c0 -3.33301 1.33301 -7 4 -11
l133 -226c3.33301 -6 8 -9 14 -9c11.333 0 22 8.66699 32 26l111 192c4.66699 8.66699 7 16.667 7 24c0 16 -9.33301 24 -28 24h-240zM661 528h-336c-13.333 0 -27.333 -4.66699 -42 -14s-26 -20.666 -34 -33.999l-55 -96c-4.66699 -8.66699 -7 -16.667 -7 -24
c0 -16 9 -24 27 -24h240c13.333 0 27.5 4.66699 42.5 14s26.167 20.666 33.5 33.999l28 48c7.33301 13.333 18.5 24.666 33.5 33.999s28.833 14 41.5 14v0c18.667 0 28 -8 28 -24c0 -7.33301 -2.33301 -15.333 -7 -24l-56 -96c-7.33301 -13.333 -18.5 -24.666 -33.5 -33.999
s-28.833 -14 -41.5 -14v0h-336c-13.333 0 -27.5 -4.66699 -42.5 -14s-26.167 -20.666 -33.5 -33.999l-111 -192c-4.66699 -8.66699 -7 -16.667 -7 -24c0 -16 9 -24 27 -24h672c13.333 0 27.5 4.66699 42.5 14s26.167 20.666 33.5 33.999l249 432
c5.33301 8.66699 8 16.667 8 24c0 16 -9.33301 24 -28 24h-336zM460 96c-8 -13.333 -19.333 -24.666 -34 -33.999s-28.667 -14 -42 -14v0c-18.667 0 -28 8 -28 24c0 7.33301 2.66699 15.333 8 24l55 96c8 13.333 19.333 24.666 34 33.999s28.667 14 42 14v0
c18.667 0 28 -8 28 -24c0 -7.33301 -2.66699 -15.333 -8 -24z" />
    <glyph glyph-name="atilde" unicode="&#xe3;" 
d="M923 816c-12.667 0 -26.5 -4.66699 -41.5 -14s-26.167 -20.666 -33.5 -33.999v0c-8 -13.333 -19.333 -24.666 -34 -33.999s-28.667 -14 -42 -14v0h-336c-13.333 0 -27.333 -4.66699 -42 -14s-26 -20.666 -34 -33.999l-27 -48c-5.33301 -8.66699 -8 -16.667 -8 -24
c0 -16 9.33301 -24 28 -24h240c13.333 0 27.333 4.66699 42 14s26 20.666 34 33.999v0c7.33301 13.333 18.333 24.666 33 33.999s28.667 14 42 14v0h336c13.333 0 27.5 4.66699 42.5 14s26.167 20.666 33.5 33.999l28 48c4.66699 8.66699 7 16.667 7 24
c0 16 -9.33301 24 -28 24h-240zM661 528h-336c-13.333 0 -27.333 -4.66699 -42 -14s-26 -20.666 -34 -33.999l-55 -96c-4.66699 -8.66699 -7 -16.667 -7 -24c0 -16 9 -24 27 -24h240c13.333 0 27.5 4.66699 42.5 14s26.167 20.666 33.5 33.999l28 48
c7.33301 13.333 18.5 24.666 33.5 33.999s28.833 14 41.5 14v0c18.667 0 28 -8 28 -24c0 -7.33301 -2.33301 -15.333 -7 -24l-56 -96c-7.33301 -13.333 -18.5 -24.666 -33.5 -33.999s-28.833 -14 -41.5 -14v0h-336c-13.333 0 -27.5 -4.66699 -42.5 -14
s-26.167 -20.666 -33.5 -33.999l-111 -192c-4.66699 -8.66699 -7 -16.667 -7 -24c0 -16 9 -24 27 -24h672c13.333 0 27.5 4.66699 42.5 14s26.167 20.666 33.5 33.999l249 432c5.33301 8.66699 8 16.667 8 24c0 16 -9.33301 24 -28 24h-336zM460 96
c-8 -13.333 -19.333 -24.666 -34 -33.999s-28.667 -14 -42 -14v0c-18.667 0 -28 8 -28 24c0 7.33301 2.66699 15.333 8 24l55 96c8 13.333 19.333 24.666 34 33.999s28.667 14 42 14v0c18.667 0 28 -8 28 -24c0 -7.33301 -2.66699 -15.333 -8 -24z" />
    <glyph glyph-name="adieresis" unicode="&#xe4;" horiz-adv-x="795" 
d="M870 720c-12.667 0 -26.5 -4.66699 -41.5 -14s-26.167 -20.666 -33.5 -33.999l-28 -48c-4.66699 -8.66699 -7 -16.667 -7 -24c0 -16 9 -24 27 -24h240c13.333 0 27.5 4.66699 42.5 14s26.167 20.666 33.5 33.999l28 48c4.66699 8.66699 7 16.667 7 24
c0 16 -9.33301 24 -28 24h-240zM699 672c4.66699 8.66699 7 16.667 7 24c0 16 -9.33301 24 -28 24h-240c-12.667 0 -26.5 -4.66699 -41.5 -14s-26.167 -20.666 -33.5 -33.999l-28 -48c-4.66699 -8.66699 -7 -16.667 -7 -24c0 -16 9 -24 27 -24h240
c13.333 0 27.5 4.66699 42.5 14s26.167 20.666 33.5 33.999zM664 528h-336c-13.333 0 -27.5 -4.66699 -42.5 -14s-26.167 -20.666 -33.5 -33.999l-56 -96c-4.66699 -8.66699 -7 -16.667 -7 -24c0 -16 9.33301 -24 28 -24h240c12.667 0 26.5 4.66699 41.5 14
s26.167 20.666 33.5 33.999l28 48c8 13.333 19.333 24.666 34 33.999s28.667 14 42 14v0c18 0 27 -8 27 -24c0 -7.33301 -2.33301 -15.333 -7 -24l-55 -96c-8 -13.333 -19.333 -24.666 -34 -33.999s-28.667 -14 -42 -14v0h-336c-13.333 0 -27.333 -4.66699 -42 -14
s-26 -20.666 -34 -33.999l-111 -192c-4.66699 -8.66699 -7 -16.667 -7 -24c0 -16 9.33301 -24 28 -24h672c12.667 0 26.5 4.66699 41.5 14s26.167 20.666 33.5 33.999l250 432c4.66699 8.66699 7 16.667 7 24c0 16 -9 24 -27 24h-336zM462 96
c-7.33301 -13.333 -18.5 -24.666 -33.5 -33.999s-29.167 -14 -42.5 -14v0c-18 0 -27 8 -27 24c0 7.33301 2.33301 15.333 7 24l56 96c7.33301 13.333 18.333 24.666 33 33.999s28.667 14 42 14v0c18.667 0 28 -8 28 -24c0 -7.33301 -2.33301 -15.333 -7 -24z" />
    <glyph glyph-name="aring" unicode="&#xe5;" horiz-adv-x="805" 
d="M438 720c-12.667 0 -26.5 -4.66699 -41.5 -14s-26.167 -20.666 -33.5 -33.999l-28 -48c-4.66699 -8.66699 -7 -16.667 -7 -24c0 -16 9 -24 27 -24h672c13.333 0 27.5 4.66699 42.5 14s26.167 20.666 33.5 33.999l28 48c4.66699 8.66699 7 16.667 7 24
c0 16 -9.33301 24 -28 24h-672zM719 624c-24 0 -36 5.66699 -36 17c0 10 8.66699 18 26 24c13.333 4.66699 26 7 38 7v0c24 0 36 -5.66699 36 -17c0 -10 -8.66699 -18 -26 -24c-14 -4.66699 -26.667 -7 -38 -7zM664 528h-336c-13.333 0 -27.5 -4.66699 -42.5 -14
s-26.167 -20.666 -33.5 -33.999l-56 -96c-4.66699 -8.66699 -7 -16.667 -7 -24c0 -16 9.33301 -24 28 -24h240c12.667 0 26.5 4.66699 41.5 14s26.167 20.666 33.5 33.999l28 48c8 13.333 19.333 24.666 34 33.999s28.667 14 42 14v0c18 0 27 -8 27 -24
c0 -7.33301 -2.33301 -15.333 -7 -24l-55 -96c-8 -13.333 -19.333 -24.666 -34 -33.999s-28.667 -14 -42 -14v0h-336c-13.333 0 -27.333 -4.66699 -42 -14s-26 -20.666 -34 -33.999l-111 -192c-4.66699 -8.66699 -7 -16.667 -7 -24c0 -16 9.33301 -24 28 -24h672
c12.667 0 26.5 4.66699 41.5 14s26.167 20.666 33.5 33.999l250 432c4.66699 8.66699 7 16.667 7 24c0 16 -9 24 -27 24h-336zM462 96c-7.33301 -13.333 -18.5 -24.666 -33.5 -33.999s-29.167 -14 -42.5 -14v0c-18 0 -27 8 -27 24c0 7.33301 2.33301 15.333 7 24l56 96
c7.33301 13.333 18.333 24.666 33 33.999s28.667 14 42 14v0c18.667 0 28 -8 28 -24c0 -7.33301 -2.33301 -15.333 -7 -24z" />
    <glyph glyph-name="ae" unicode="&#xe6;" horiz-adv-x="1244" 
d="M929 240h336c13.333 0 27.5 4.66699 42.5 14s26.167 20.666 33.5 33.999l111 192c4.66699 8.66699 7 16.667 7 24c0 16 -9 24 -27 24h-1104c-13.333 0 -27.5 -4.66699 -42.5 -14s-26.167 -20.666 -33.5 -33.999l-56 -96c-4.66699 -8.66699 -7 -16.667 -7 -24
c0 -16 9.33301 -24 28 -24h240c12.667 0 26.5 4.66699 41.5 14s26.167 20.666 33.5 33.999l28 48c8 13.333 19.333 24.666 34 33.999s28.667 14 42 14v0c18 0 27 -8 27 -24c0 -7.33301 -2.33301 -15.333 -7 -24l-55 -96c-8 -13.333 -19.333 -24.666 -34 -33.999
s-28.667 -14 -42 -14v0h-336c-13.333 0 -27.333 -4.66699 -42 -14s-26 -20.666 -34 -33.999l-111 -192c-4.66699 -8.66699 -7 -16.667 -7 -24c0 -16 9.33301 -24 28 -24h1104c12.667 0 26.5 4.66699 41.5 14s26.167 20.666 33.5 33.999l56 96c4.66699 8.66699 7 16.667 7 24
c0 16 -9 24 -27 24h-240c-13.333 0 -27.5 -4.66699 -42.5 -14s-26.167 -20.666 -33.5 -33.999l-28 -48c-7.33301 -13.333 -18.5 -24.666 -33.5 -33.999s-29.167 -14 -42.5 -14c-18 0 -27 8 -27 24c0 7.33301 2.33301 15.333 7 24l56 96
c7.33301 13.333 18.333 24.666 33 33.999s28.667 14 42 14zM462 96c-7.33301 -13.333 -18.5 -24.666 -33.5 -33.999s-29.167 -14 -42.5 -14v0c-18 0 -27 8 -27 24c0 7.33301 2.33301 15.333 7 24l56 96c7.33301 13.333 18.333 24.666 33 33.999s28.667 14 42 14v0
c18.667 0 28 -8 28 -24c0 -7.33301 -2.33301 -15.333 -7 -24zM992 432c8 13.333 19.333 24.666 34 33.999s28.667 14 42 14c18 0 27 -8 27 -24c0 -7.33301 -2.33301 -15.333 -7 -24l-55 -96c-8 -13.333 -19.333 -24.666 -34 -33.999s-28.667 -14 -42 -14
c-18.667 0 -28 8 -28 24c0 7.33301 2.66699 15.333 8 24z" />
    <glyph glyph-name="ccedilla" unicode="&#xe7;" 
d="M886 336c13.333 0 27.5 4.66797 42.5 14.001s26.167 20.666 33.5 33.999l55 96c5.33301 8.66699 8 16.667 8 24c0 16 -9.33301 24 -28 24h-672c-13.333 0 -27.333 -4.66699 -42 -14s-26 -20.666 -34 -33.999l-249 -432c-4.66699 -8.66699 -7 -16.667 -7 -24
c0 -16 9 -24 27 -24c32 0 54.333 -10.333 67 -31l133 -226c3.33301 -6 8 -9 14 -9c11.333 0 22 8.66699 32 26l111 192c7.33301 13.333 18.333 24.666 33 33.999s28.667 14 42 14h240c13.333 0 27.5 4.66699 42.5 14s26.167 20.666 33.5 33.999l111 192
c4.66699 8.66699 7 16.667 7 24c0 16 -9 24 -27 24h-240c-13.333 0 -27.5 -4.66699 -42.5 -14s-26.167 -20.666 -33.5 -33.999l-83 -144c-8 -13.333 -19.333 -24.666 -34 -33.999s-28.667 -14 -42 -14c-18.667 0 -28 8 -28 24c0 7.33301 2.66699 15.333 8 24l194 336
c7.33301 13.333 18.5 24.666 33.5 33.999s28.833 14 41.5 14c18.667 0 28 -8 28 -24c0 -7.33301 -2.33301 -15.333 -7 -24l-28 -48c-4.66699 -8.66699 -7 -16.667 -7 -24c0 -16 9 -24 27 -24h240z" />
    <glyph glyph-name="egrave" unicode="&#xe8;" 
d="M495 240l336 -0.000976562c13.333 0 27.333 4.66699 42 14s26 20.666 34 33.999l110 192c5.33301 8.66699 8 16.667 8 24c0 16 -9.33301 24 -28 24c-32 0 -54 10.333 -66 31l-133 226c-4 6 -9 9 -15 9c-10.667 0 -21 -8.66699 -31 -26l-111 -192
c-8 -13.333 -19.333 -24.666 -34 -33.999s-28.667 -14 -42 -14h-240c-13.333 0 -27.333 -4.66699 -42 -14s-26 -20.666 -34 -33.999l-249 -432c-4.66699 -8.66699 -7 -16.667 -7 -24c0 -16 9 -24 27 -24h672c13.333 0 27.5 4.66699 42.5 14s26.167 20.666 33.5 33.999l55 96
c5.33301 8.66699 8 16.667 8 24c0 16 -9.33301 24 -28 24h-240c-13.333 0 -27.333 -4.66699 -42 -14s-26 -20.666 -34 -33.999l-27 -48c-8 -13.333 -19.333 -24.666 -34 -33.999s-28.667 -14 -42 -14c-18.667 0 -28 8 -28 24c0 7.33301 2.66699 15.333 8 24l55 96
c8 13.333 19.333 24.666 34 33.999s28.667 14 42 14zM558 431.999c7.33301 13.333 18.5 24.666 33.5 33.999s28.833 14 41.5 14c18.667 0 28 -8 28 -24c0 -7.33301 -2.33301 -15.333 -7 -24l-56 -96c-7.33301 -13.333 -18.5 -24.666 -33.5 -33.999s-28.833 -14 -41.5 -14
c-18.667 0 -28 8 -28 24c0 7.33301 2.33301 15.333 7 24z" />
    <glyph glyph-name="eacute" unicode="&#xe9;" 
d="M495 240l336 -0.000976562c13.333 0 27.333 4.66699 42 14s26 20.666 34 33.999l110 192c5.33301 8.66699 8 16.667 8 24c0 16 -9.33301 24 -28 24v0c-32 0 -54 10.333 -66 31l-133 226c-4 6 -9 9 -15 9c-10.667 0 -21 -8.66699 -31 -26l-111 -192
c-8 -13.333 -19.333 -24.666 -34 -33.999s-28.667 -14 -42 -14h-240c-13.333 0 -27.333 -4.66699 -42 -14s-26 -20.666 -34 -33.999l-249 -432c-4.66699 -8.66699 -7 -16.667 -7 -24c0 -16 9 -24 27 -24h672c13.333 0 27.5 4.66699 42.5 14s26.167 20.666 33.5 33.999l55 96
c5.33301 8.66699 8 16.667 8 24c0 16 -9.33301 24 -28 24h-240c-13.333 0 -27.333 -4.66699 -42 -14s-26 -20.666 -34 -33.999l-27 -48c-8 -13.333 -19.333 -24.666 -34 -33.999s-28.667 -14 -42 -14v0c-18.667 0 -28 8 -28 24c0 7.33301 2.66699 15.333 8 24l55 96
c8 13.333 19.333 24.666 34 33.999s28.667 14 42 14zM558 431.999c7.33301 13.333 18.5 24.666 33.5 33.999s28.833 14 41.5 14v0c18.667 0 28 -8 28 -24c0 -7.33301 -2.33301 -15.333 -7 -24l-56 -96c-7.33301 -13.333 -18.5 -24.666 -33.5 -33.999s-28.833 -14 -41.5 -14
v0c-18.667 0 -28 8 -28 24c0 7.33301 2.33301 15.333 7 24z" />
    <glyph glyph-name="ecircumflex" unicode="&#xea;" 
d="M495 240l336 -0.000976562c13.333 0 27.333 4.66699 42 14s26 20.666 34 33.999l110 192c10 17.333 15 35.333 15 54c0 10.667 -1.66699 19 -5 25l-133 226c-4 6 -9 9 -15 9c-10.667 0 -21 -8.66699 -31 -26l-111 -192c-10 -17.333 -20.667 -26 -32 -26
c-6 0 -10.667 3 -14 9l-133 226c-4 6 -9 9 -15 9c-10.667 0 -21 -8.66699 -31 -26l-111 -192c-8 -13.333 -19.333 -24.666 -34 -33.999s-28.667 -14 -42 -14v0c-13.333 0 -27.333 -4.66699 -42 -14s-26 -20.666 -34 -33.999l-249 -432c-4.66699 -8.66699 -7 -16.667 -7 -24
c0 -16 9 -24 27 -24h672c13.333 0 27.5 4.66699 42.5 14s26.167 20.666 33.5 33.999l55 96c5.33301 8.66699 8 16.667 8 24c0 16 -9.33301 24 -28 24h-240c-13.333 0 -27.333 -4.66699 -42 -14s-26 -20.666 -34 -33.999l-27 -48c-8 -13.333 -19.333 -24.666 -34 -33.999
s-28.667 -14 -42 -14v0c-18.667 0 -28 8 -28 24c0 7.33301 2.66699 15.333 8 24l55 96c8 13.333 19.333 24.666 34 33.999s28.667 14 42 14v0zM598 335.999c-7.33301 -13.333 -18.5 -24.666 -33.5 -33.999s-28.833 -14 -41.5 -14v0c-18.667 0 -28 8 -28 24
c0 7.33301 2.33301 15.333 7 24l56 96c7.33301 13.333 18.5 24.666 33.5 33.999s28.833 14 41.5 14v0c18.667 0 28 -8 28 -24c0 -7.33301 -2.33301 -15.333 -7 -24z" />
    <glyph glyph-name="edieresis" unicode="&#xeb;" 
d="M661 528h-336c-13.333 0 -27.333 -4.66699 -42 -14s-26 -20.666 -34 -33.999l-249 -432c-4.66699 -8.66699 -7 -16.667 -7 -24c0 -16 9 -24 27 -24h672c13.333 0 27.5 4.66699 42.5 14s26.167 20.666 33.5 33.999l55 96c5.33301 8.66699 8 16.667 8 24
c0 16 -9.33301 24 -28 24h-240c-13.333 0 -27.333 -4.66699 -42 -14s-26 -20.666 -34 -33.999l-27 -48c-8 -13.333 -19.333 -24.666 -34 -33.999s-28.667 -14 -42 -14v0c-18.667 0 -28 8 -28 24c0 7.33301 2.66699 15.333 8 24l55 96c8 13.333 19.333 24.666 34 33.999
s28.667 14 42 14v0h336c13.333 0 27.333 4.66699 42 14s26 20.666 34 33.999l110 192c5.33301 8.66699 8 16.667 8 24c0 16 -9.33301 24 -28 24h-336zM598 336c-7.33301 -13.333 -18.5 -24.666 -33.5 -33.999s-28.833 -14 -41.5 -14v0c-18.667 0 -28 8 -28 24
c0 7.33301 2.33301 15.333 7 24l56 96c7.33301 13.333 18.5 24.666 33.5 33.999s28.833 14 41.5 14v0c18.667 0 28 -8 28 -24c0 -7.33301 -2.33301 -15.333 -7 -24zM868 720c-13.333 0 -27.333 -4.66699 -42 -14s-26 -20.666 -34 -33.999l-27 -48
c-5.33301 -8.66699 -8 -16.667 -8 -24c0 -16 9.33301 -24 28 -24h240c13.333 0 27.333 4.66699 42 14s26 20.666 34 33.999l27 48c5.33301 8.66699 8 16.667 8 24c0 16 -9.33301 24 -28 24h-240zM696 672c5.33301 8.66699 8 16.667 8 24c0 16 -9.33301 24 -28 24h-240
c-13.333 0 -27.333 -4.66699 -42 -14s-26 -20.666 -34 -33.999l-27 -48c-5.33301 -8.66699 -8 -16.667 -8 -24c0 -16 9.33301 -24 28 -24h240c13.333 0 27.333 4.66699 42 14s26 20.666 34 33.999z" />
    <glyph glyph-name="igrave" unicode="&#xec;" 
d="M490 833c-4 6 -9 9 -15 9c-11.333 0 -22 -8.66699 -32 -26l-110 -192c-5.33301 -8.66699 -8 -16.667 -8 -24c0 -16 9.33301 -24 28 -24h240c22 0 33 6.66699 33 20c0 4 -1.33301 7.66699 -4 11zM0 48c-4.66699 -8.66699 -7 -16.667 -7 -24c0 -16 9 -24 27 -24h240
c13.333 0 27.5 4.66699 42.5 14s26.167 20.666 33.5 33.999l249 432c5.33301 8.66699 8 16.667 8 24c0 16 -9.33301 24 -28 24h-240c-13.333 0 -27.333 -4.66699 -42 -14s-26 -20.666 -34 -33.999z" />
    <glyph glyph-name="iacute" unicode="&#xed;" 
d="M490 833c-4 6 -9 9 -15 9c-11.333 0 -22 -8.66699 -32 -26l-110 -192c-5.33301 -8.66699 -8 -16.667 -8 -24c0 -16 9.33301 -24 28 -24h240c22 0 33 6.66699 33 20c0 4 -1.33301 7.66699 -4 11zM0 48c-4.66699 -8.66699 -7 -16.667 -7 -24c0 -16 9 -24 27 -24h240
c13.333 0 27.5 4.66699 42.5 14s26.167 20.666 33.5 33.999l249 432c5.33301 8.66699 8 16.667 8 24c0 16 -9.33301 24 -28 24h-240c-13.333 0 -27.333 -4.66699 -42 -14s-26 -20.666 -34 -33.999z" />
    <glyph glyph-name="icircumflex" unicode="&#xee;" 
d="M562 938c-22 0 -33 -6.66699 -33 -20c0 -4 1 -7.66699 3 -11l133 -226c3.33301 -6 8.33301 -9 15 -9c10.667 0 21 8.66699 31 26l111 192c4.66699 8.66699 7 16.667 7 24c0 16 -9 24 -27 24h-240zM333 624c-5.33301 -8.66699 -8 -16.667 -8 -24c0 -16 9.33301 -24 28 -24
h240c22 0 33 6.66699 33 20c0 4 -1.33301 7.66699 -4 11l-132 226c-4 6 -9 9 -15 9c-11.333 0 -22 -8.66699 -32 -26zM0 48c-4.66699 -8.66699 -7 -16.667 -7 -24c0 -16 9 -24 27 -24h240c13.333 0 27.5 4.66699 42.5 14s26.167 20.666 33.5 33.999l249 432
c5.33301 8.66699 8 16.667 8 24c0 16 -9.33301 24 -28 24h-240c-13.333 0 -27.333 -4.66699 -42 -14s-26 -20.666 -34 -33.999z" />
    <glyph glyph-name="idieresis" unicode="&#xef;" 
d="M562 938c-22 0 -33 -6.66699 -33 -20c0 -4 1 -7.66699 3 -11l133 -226c3.33301 -6 8.33301 -9 15 -9c10.667 0 21 8.66699 31 26l111 192c4.66699 8.66699 7 16.667 7 24c0 16 -9 24 -27 24h-240zM333 624c-5.33301 -8.66699 -8 -16.667 -8 -24c0 -16 9.33301 -24 28 -24
h240c22 0 33 6.66699 33 20c0 4 -1.33301 7.66699 -4 11l-132 226c-4 6 -9 9 -15 9c-11.333 0 -22 -8.66699 -32 -26zM0 48c-4.66699 -8.66699 -7 -16.667 -7 -24c0 -16 9 -24 27 -24h240c13.333 0 27.5 4.66699 42.5 14s26.167 20.666 33.5 33.999l249 432
c5.33301 8.66699 8 16.667 8 24c0 16 -9.33301 24 -28 24h-240c-13.333 0 -27.333 -4.66699 -42 -14s-26 -20.666 -34 -33.999z" />
    <glyph glyph-name="eth" unicode="&#xf0;" 
d="M946 869c-4 6 -9 8.99707 -15 8.99707c-10.667 0 -21 -8.66699 -31 -26l-49 -84c-7.33301 -13.333 -18.5 -24.666 -33.5 -33.999s-28.833 -14 -41.5 -14v0c-13.333 0 -27.5 -4.66699 -42.5 -14s-26.167 -20.666 -33.5 -33.999v0c-5.33301 -8.66699 -8 -16.667 -8 -24
c0 -16 9.33301 -24 28 -24v0c18.667 0 28 -8 28 -24c0 -7.33301 -2.66699 -15.333 -8 -24v0c-7.33301 -13.333 -18.5 -24.666 -33.5 -33.999s-28.833 -14 -41.5 -14v0h-336c-13.333 0 -27.5 -4.66699 -42.5 -14s-26.167 -20.666 -33.5 -33.999l-249 -432
c-5.33301 -8.66699 -8 -16.667 -8 -24c0 -16 9.33301 -24 28 -24h672c13.333 0 27.333 4.66699 42 14s26 20.666 34 33.999l301 522c8 14 12 29.333 12 46c0 11.333 -2 20.333 -6 27zM463 95.9971c-7.33301 -13.333 -18.5 -24.666 -33.5 -33.999s-28.833 -14 -41.5 -14v0
c-18.667 0 -28 8 -28 24c0 7.33301 2.33301 15.333 7 24l194 336c8 13.333 19.333 24.666 34 33.999s28.667 14 42 14v0c18.667 0 28 -8 28 -24c0 -7.33301 -2.66699 -15.333 -8 -24z" />
    <glyph glyph-name="ntilde" unicode="&#xf1;" 
d="M661 528l-336 0.00195312c-13.333 0 -27.333 -4.66699 -42 -14s-26 -20.666 -34 -33.999l-249 -432c-4.66699 -8.66699 -7 -16.667 -7 -24c0 -16 9 -24 27 -24h240c13.333 0 27.5 4.66699 42.5 14s26.167 20.666 33.5 33.999l222 384
c7.33301 13.333 18.5 24.666 33.5 33.999s28.833 14 41.5 14v0c18.667 0 28 -8 28 -24c0 -7.33301 -2.33301 -15.333 -7 -24l-222 -384c-4.66699 -8.66699 -7 -16.667 -7 -24c0 -16 9 -24 27 -24h240c13.333 0 27.5 4.66699 42.5 14s26.167 20.666 33.5 33.999l249 432
c5.33301 8.66699 8 16.667 8 24c0 16 -9.33301 24 -28 24h-336zM923 816.002c-12.667 0 -26.5 -4.66699 -41.5 -14s-26.167 -20.666 -33.5 -33.999v0c-8 -13.333 -19.333 -24.666 -34 -33.999s-28.667 -14 -42 -14v0h-336c-13.333 0 -27.333 -4.66699 -42 -14
s-26 -20.666 -34 -33.999l-27 -48c-5.33301 -8.66699 -8 -16.667 -8 -24c0 -16 9.33301 -24 28 -24h240c13.333 0 27.333 4.66699 42 14s26 20.666 34 33.999v0c7.33301 13.333 18.333 24.666 33 33.999s28.667 14 42 14v0h336c13.333 0 27.5 4.66699 42.5 14
s26.167 20.666 33.5 33.999l28 48c4.66699 8.66699 7 16.667 7 24c0 16 -9.33301 24 -28 24h-240z" />
    <glyph glyph-name="ograve" unicode="&#xf2;" 
d="M997 528c-32 0 -54 10.332 -66 30.999l-133 226c-4 6 -9 9 -15 9c-10.667 0 -21 -8.66699 -31 -26l-111 -192c-8 -13.333 -19.333 -24.666 -34 -33.999s-28.667 -14 -42 -14h-240c-13.333 0 -27.333 -4.66699 -42 -14s-26 -20.666 -34 -33.999l-249 -432
c-4.66699 -8.66699 -7 -16.667 -7 -24c0 -16 9 -24 27 -24h672c13.333 0 27.5 4.66699 42.5 14s26.167 20.666 33.5 33.999l249 432c5.33301 8.66699 8 16.667 8 24c0 16 -9.33301 24 -28 24zM460 95.999c-8 -13.333 -19.333 -24.666 -34 -33.999s-28.667 -14 -42 -14v0
c-18.667 0 -28 8 -28 24c0 7.33301 2.66699 15.333 8 24l194 336c7.33301 13.333 18.5 24.666 33.5 33.999s28.833 14 41.5 14v0c18.667 0 28 -8 28 -24c0 -7.33301 -2.33301 -15.333 -7 -24z" />
    <glyph glyph-name="oacute" unicode="&#xf3;" 
d="M997 528c-32 0 -54 10.332 -66 30.999l-133 226c-4 6 -9 9 -15 9c-10.667 0 -21 -8.66699 -31 -26l-111 -192c-8 -13.333 -19.333 -24.666 -34 -33.999s-28.667 -14 -42 -14h-240c-13.333 0 -27.333 -4.66699 -42 -14s-26 -20.666 -34 -33.999l-249 -432
c-4.66699 -8.66699 -7 -16.667 -7 -24c0 -16 9 -24 27 -24h672c13.333 0 27.5 4.66699 42.5 14s26.167 20.666 33.5 33.999l249 432c5.33301 8.66699 8 16.667 8 24c0 16 -9.33301 24 -28 24zM460 95.999c-8 -13.333 -19.333 -24.666 -34 -33.999s-28.667 -14 -42 -14v0
c-18.667 0 -28 8 -28 24c0 7.33301 2.66699 15.333 8 24l194 336c7.33301 13.333 18.5 24.666 33.5 33.999s28.833 14 41.5 14v0c18.667 0 28 -8 28 -24c0 -7.33301 -2.33301 -15.333 -7 -24z" />
    <glyph glyph-name="ocircumflex" unicode="&#xf4;" 
d="M904 785c-3.33301 6 -8 9.00098 -14 9.00098c-11.333 0 -22 -8.66699 -32 -26l-111 -192c-10 -17.333 -20.667 -26 -32 -26c-6 0 -10.667 3 -14 9l-133 226c-3.33301 6 -8 9 -14 9c-11.333 0 -22 -8.66699 -32 -26l-111 -192c-13.333 -24 -38.5 -40 -75.5 -48
s-62.167 -24 -75.5 -48l-250 -432c-4.66699 -8.66699 -7 -16.667 -7 -24c0 -16 9.33301 -24 28 -24h672c12.667 0 26.5 4.66699 41.5 14s26.167 20.666 33.5 33.999l250 432c10 17.333 15 35.333 15 54c0 10.667 -2 19 -6 25zM470 96.001
c-7.33301 -13.333 -18.5 -24.666 -33.5 -33.999s-29.167 -14 -42.5 -14c-18 0 -27 8 -27 24c0 7.33301 2.33301 15.333 7 24l194 336c7.33301 13.333 18.5 24.666 33.5 33.999s29.167 14 42.5 14c18 0 27 -8 27 -24c0 -7.33301 -2.33301 -15.333 -7 -24z" />
    <glyph glyph-name="otilde" unicode="&#xf5;" 
d="M661 528h-336c-13.333 0 -27.333 -4.66699 -42 -14s-26 -20.666 -34 -33.999l-249 -432c-4.66699 -8.66699 -7 -16.667 -7 -24c0 -16 9 -24 27 -24h672c13.333 0 27.5 4.66699 42.5 14s26.167 20.666 33.5 33.999l249 432c5.33301 8.66699 8 16.667 8 24
c0 16 -9.33301 24 -28 24h-336zM460 96c-8 -13.333 -19.333 -24.666 -34 -33.999s-28.667 -14 -42 -14v0c-18.667 0 -28 8 -28 24c0 7.33301 2.66699 15.333 8 24l194 336c7.33301 13.333 18.5 24.666 33.5 33.999s28.833 14 41.5 14v0c18.667 0 28 -8 28 -24
c0 -7.33301 -2.33301 -15.333 -7 -24zM923 816c-12.667 0 -26.5 -4.66699 -41.5 -14s-26.167 -20.666 -33.5 -33.999v0c-8 -13.333 -19.333 -24.666 -34 -33.999s-28.667 -14 -42 -14v0h-336c-13.333 0 -27.333 -4.66699 -42 -14s-26 -20.666 -34 -33.999l-27 -48
c-5.33301 -8.66699 -8 -16.667 -8 -24c0 -16 9.33301 -24 28 -24h240c13.333 0 27.333 4.66699 42 14s26 20.666 34 33.999v0c7.33301 13.333 18.333 24.666 33 33.999s28.667 14 42 14v0h336c13.333 0 27.5 4.66699 42.5 14s26.167 20.666 33.5 33.999l28 48
c4.66699 8.66699 7 16.667 7 24c0 16 -9.33301 24 -28 24h-240z" />
    <glyph glyph-name="odieresis" unicode="&#xf6;" 
d="M661 528h-336c-13.333 0 -27.333 -4.66699 -42 -14s-26 -20.666 -34 -33.999l-249 -432c-4.66699 -8.66699 -7 -16.667 -7 -24c0 -16 9 -24 27 -24h672c13.333 0 27.5 4.66699 42.5 14s26.167 20.666 33.5 33.999l249 432c5.33301 8.66699 8 16.667 8 24
c0 16 -9.33301 24 -28 24h-336zM460 96c-8 -13.333 -19.333 -24.666 -34 -33.999s-28.667 -14 -42 -14v0c-18.667 0 -28 8 -28 24c0 7.33301 2.66699 15.333 8 24l194 336c7.33301 13.333 18.5 24.666 33.5 33.999s28.833 14 41.5 14v0c18.667 0 28 -8 28 -24
c0 -7.33301 -2.33301 -15.333 -7 -24zM868 720c-13.333 0 -27.333 -4.66699 -42 -14s-26 -20.666 -34 -33.999l-27 -48c-5.33301 -8.66699 -8 -16.667 -8 -24c0 -16 9.33301 -24 28 -24h240c13.333 0 27.333 4.66699 42 14s26 20.666 34 33.999l27 48
c5.33301 8.66699 8 16.667 8 24c0 16 -9.33301 24 -28 24h-240zM696 672c5.33301 8.66699 8 16.667 8 24c0 16 -9.33301 24 -28 24h-240c-13.333 0 -27.333 -4.66699 -42 -14s-26 -20.666 -34 -33.999l-27 -48c-5.33301 -8.66699 -8 -16.667 -8 -24
c0 -16 9.33301 -24 28 -24h240c13.333 0 27.333 4.66699 42 14s26 20.666 34 33.999z" />
    <glyph glyph-name="divide" unicode="&#xf7;" 
d="M131 384c-13.333 0 -27.333 -4.66699 -42 -14s-26 -20.666 -34 -33.999l-55 -96c-4.66699 -8.66699 -7 -16.667 -7 -24c0 -16 9 -24 27 -24h672c13.333 0 27.5 4.66699 42.5 14s26.167 20.666 33.5 33.999l55 96c5.33301 8.66699 8 16.667 8 24c0 16 -9.33301 24 -28 24
h-672zM481 408c46.667 0 95.834 16.333 147.501 49s90.834 72.334 117.501 119.001c17.333 30 26 58 26 84c0 25.333 -8.5 45.666 -25.5 60.999s-40.833 23 -71.5 23c-46.667 0 -95.834 -16.333 -147.501 -49s-90.834 -72.334 -117.501 -119.001
c-17.333 -30 -26 -58 -26 -84c0 -25.333 8.5 -45.666 25.5 -60.999s40.833 -23 71.5 -23zM342 168c-46 0 -94.835 -16.333 -146.502 -49s-91.167 -72.334 -118.5 -119.001c-17.333 -30 -26 -58 -26 -84c0 -25.333 8.66699 -45.666 26 -60.999s41 -23 71 -23
c46.667 0 95.834 16.333 147.501 49s90.834 72.334 117.501 119.001c17.333 30 26 58 26 84c0 25.333 -8.5 45.666 -25.5 60.999s-40.833 23 -71.5 23z" />
    <glyph glyph-name="oslash" unicode="&#xf8;" horiz-adv-x="805" 
d="M323 528c-13.333 0 -27.5 -4.66699 -42.5 -14s-26.167 -20.666 -33.5 -33.999l-250 -432c-4.66699 -8.66699 -7 -16.667 -7 -24c0 -16 9.33301 -24 28 -24h672c12.667 0 26.5 4.66699 41.5 14s26.167 20.666 33.5 33.999l250 432c4.66699 8.66699 7 16.667 7 24
c0 16 -9 24 -27 24h-672zM457 96c-7.33301 -13.333 -18.5 -24.666 -33.5 -33.999s-29.167 -14 -42.5 -14v0c-18 0 -27 8 -27 24c0 7.33301 2.33301 15.333 7 24l56 96c7.33301 13.333 18.333 24.666 33 33.999s28.667 14 42 14v0c18.667 0 28 -8 28 -24
c0 -7.33301 -2.33301 -15.333 -7 -24zM596 336c-8 -13.333 -19.333 -24.666 -34 -33.999s-28.667 -14 -42 -14v0c-18.667 0 -28 8 -28 24c0 7.33301 2.66699 15.333 8 24l55 96c8 13.333 19.333 24.666 34 33.999s28.667 14 42 14v0c18 0 27 -8 27 -24
c0 -7.33301 -2.33301 -15.333 -7 -24z" />
    <glyph glyph-name="ugrave" unicode="&#xf9;" 
d="M757 528c-13.333 0 -27.333 -4.66895 -42 -14.002s-26 -20.666 -34 -33.999l-221 -384c-8 -13.333 -19.333 -24.666 -34 -33.999s-28.667 -14 -42 -14v0c-18.667 0 -28 8 -28 24c0 7.33301 2.66699 15.333 8 24l221 384c5.33301 8.66699 8 16.667 8 24
c0 16 -9.33301 24 -28 24h-240c-13.333 0 -27.333 -4.66699 -42 -14s-26 -20.666 -34 -33.999l-249 -432c-4.66699 -8.66699 -7 -16.667 -7 -24c0 -16 9 -24 27 -24h672c13.333 0 27.5 4.66699 42.5 14s26.167 20.666 33.5 33.999l249 432c5.33301 8.66699 8 16.667 8 24
c0 16 -9.33301 24 -28 24h-240zM826 832.998c-4 6 -9 9 -15 9c-11.333 0 -22 -8.66699 -32 -26l-110 -192c-5.33301 -8.66699 -8 -16.667 -8 -24c0 -16 9.33301 -24 28 -24h240c22 0 33 6.66699 33 20c0 4 -1.33301 7.66699 -4 11z" />
    <glyph glyph-name="uacute" unicode="&#xfa;" 
d="M757 528c-13.333 0 -27.333 -4.66895 -42 -14.002s-26 -20.666 -34 -33.999l-221 -384c-8 -13.333 -19.333 -24.666 -34 -33.999s-28.667 -14 -42 -14v0c-18.667 0 -28 8 -28 24c0 7.33301 2.66699 15.333 8 24l221 384c5.33301 8.66699 8 16.667 8 24
c0 16 -9.33301 24 -28 24h-240c-13.333 0 -27.333 -4.66699 -42 -14s-26 -20.666 -34 -33.999l-249 -432c-4.66699 -8.66699 -7 -16.667 -7 -24c0 -16 9 -24 27 -24h672c13.333 0 27.5 4.66699 42.5 14s26.167 20.666 33.5 33.999l249 432c5.33301 8.66699 8 16.667 8 24
c0 16 -9.33301 24 -28 24h-240zM826 832.998c-4 6 -9 9 -15 9c-11.333 0 -22 -8.66699 -32 -26l-110 -192c-5.33301 -8.66699 -8 -16.667 -8 -24c0 -16 9.33301 -24 28 -24h240c22 0 33 6.66699 33 20c0 4 -1.33301 7.66699 -4 11z" />
    <glyph glyph-name="ucircumflex" unicode="&#xfb;" 
d="M460 96c-8 -13.333 -19.333 -24.668 -34 -34.001s-28.667 -14 -42 -14c-18.667 0 -28 8 -28 24c0 7.33301 2.66699 15.333 8 24l221 384c5.33301 8.66699 8 16.667 8 24c0 16 -9.33301 24 -28 24h-240c-13.333 0 -27.333 -4.66699 -42 -14s-26 -20.666 -34 -33.999
l-249 -432c-4.66699 -8.66699 -7 -16.667 -7 -24c0 -16 9 -24 27 -24h672c13.333 0 27.5 4.66699 42.5 14s26.167 20.666 33.5 33.999l249 432c5.33301 8.66699 8 16.667 8 24c0 16 -9.33301 24 -28 24h-240c-13.333 0 -27.333 -4.66699 -42 -14s-26 -20.666 -34 -33.999z
M922 832.998c-4 6 -9 9 -15 9c-11.333 0 -22 -8.66699 -32 -26l-110 -192c-5.33301 -8.66699 -8 -16.667 -8 -24c0 -16 9.33301 -24 28 -24h240c22 0 33 6.66699 33 20c0 4 -1.33301 7.66699 -4 11zM586 832.998c-4 6 -9 9 -15 9c-11.333 0 -22 -8.66699 -32 -26l-110 -192
c-5.33301 -8.66699 -8 -16.667 -8 -24c0 -16 9.33301 -24 28 -24h240c22 0 33 6.66699 33 20c0 4 -1.33301 7.66699 -4 11z" />
    <glyph glyph-name="udieresis" unicode="&#xfc;" 
d="M460 96c-8 -13.333 -19.333 -24.668 -34 -34.001s-28.667 -14 -42 -14v0c-18.667 0 -28 8 -28 24c0 7.33301 2.66699 15.333 8 24l221 384c5.33301 8.66699 8 16.667 8 24c0 16 -9.33301 24 -28 24h-240c-13.333 0 -27.333 -4.66699 -42 -14s-26 -20.666 -34 -33.999
l-249 -432c-4.66699 -8.66699 -7 -16.667 -7 -24c0 -16 9 -24 27 -24h672c13.333 0 27.5 4.66699 42.5 14s26.167 20.666 33.5 33.999l249 432c5.33301 8.66699 8 16.667 8 24c0 16 -9.33301 24 -28 24h-240c-13.333 0 -27.333 -4.66699 -42 -14s-26 -20.666 -34 -33.999z
M868 719.998c-13.333 0 -27.333 -4.66699 -42 -14s-26 -20.666 -34 -33.999l-27 -48c-5.33301 -8.66699 -8 -16.667 -8 -24c0 -16 9.33301 -24 28 -24h240c13.333 0 27.333 4.66699 42 14s26 20.666 34 33.999l27 48c5.33301 8.66699 8 16.667 8 24c0 16 -9.33301 24 -28 24
h-240zM696 671.998c5.33301 8.66699 8 16.667 8 24c0 16 -9.33301 24 -28 24h-240c-13.333 0 -27.333 -4.66699 -42 -14s-26 -20.666 -34 -33.999l-27 -48c-5.33301 -8.66699 -8 -16.667 -8 -24c0 -16 9.33301 -24 28 -24h240c13.333 0 27.333 4.66699 42 14
s26 20.666 34 33.999z" />
    <glyph glyph-name="thorn" unicode="&#xfe;" 
d="M719 528c-20 0 -30 7.66895 -30 23.002c0 6 2 12.333 6 19c8 14 12 29.333 12 46c0 11.333 -2 20.333 -6 27l-133 226c-3.33301 6 -8 9 -14 9c-11.333 0 -22 -8.66699 -32 -26l-516 -894c-8 -14 -12 -29.333 -12 -46c0 -11.333 2 -20.333 6 -27l133 -226
c3.33301 -6 8 -9 14 -9c11.333 0 22 8.66699 32 26l159 276c8 13.333 19.333 24.666 34 33.999s28.667 14 42 14h335c13.333 0 27.5 4.66699 42.5 14s26.167 20.666 33.5 33.999l250 432c4.66699 8.66699 7 16.667 7 24c0 16 -9.33301 24 -28 24h-335zM442 48.002
c-18.667 0 -27.999 8 -27.999 24c0 7.33301 2.66699 15.333 8 24l194 336c7.33301 13.333 18.333 24.666 33 33.999s28.667 14 42 14c18 0 27 -8 27 -24c0 -7.33301 -2.33301 -15.333 -7 -24l-194 -336c-8 -13.333 -19.333 -24.666 -34 -33.999s-28.334 -14 -41.001 -14z
" />
    <glyph glyph-name="Lslash" unicode="&#x141;" 
d="M519 869c-3.33301 6 -8 9.00098 -14 9.00098c-11.333 0 -22 -8.66699 -32 -26l-48 -84c-14 -24 -39.333 -40 -76 -48s-62 -24 -76 -48v0c-4.66699 -8.66699 -7 -16.667 -7 -24c0 -13.333 9.16699 -21.333 27.5 -24s27.5 -10.667 27.5 -24
c0 -7.33301 -2.33301 -15.333 -7 -24v0l-305 -528c-5.33301 -8.66699 -8 -16.667 -8 -24c0 -16 9.33301 -24 28 -24h240c13.333 0 27.333 4.66699 42 14s26 20.666 34 33.999l301 522c8 14 12 29.333 12 46c0 11.333 -2 20.333 -6 27z" />
    <glyph glyph-name="lslash" unicode="&#x142;" 
d="M519 869c-3.33301 6 -8 9.00098 -14 9.00098c-11.333 0 -22 -8.66699 -32 -26l-48 -84c-14 -24 -39.333 -40 -76 -48s-62 -24 -76 -48v0c-4.66699 -8.66699 -7 -16.667 -7 -24c0 -13.333 9.16699 -21.333 27.5 -24s27.5 -10.667 27.5 -24
c0 -7.33301 -2.33301 -15.333 -7 -24v0l-305 -528c-5.33301 -8.66699 -8 -16.667 -8 -24c0 -16 9.33301 -24 28 -24h240c13.333 0 27.333 4.66699 42 14s26 20.666 34 33.999l301 522c8 14 12 29.333 12 46c0 11.333 -2 20.333 -6 27z" />
    <glyph glyph-name="OE" unicode="&#x152;" 
d="M927 240h336c13.333 0 27.333 4.66699 42 14s26 20.666 34 33.999l110 192c5.33301 8.66699 8 16.667 8 24c0 16 -9.33301 24 -28 24h-1104c-13.333 0 -27.333 -4.66699 -42 -14s-26 -20.666 -34 -33.999l-55 -96c-4.66699 -8.66699 -7 -16.667 -7 -24
c0 -16 9 -24 27 -24h240c13.333 0 27.5 4.66699 42.5 14s26.167 20.666 33.5 33.999l28 48c7.33301 13.333 18.5 24.666 33.5 33.999s28.833 14 41.5 14v0c18.667 0 28 -8 28 -24c0 -7.33301 -2.33301 -15.333 -7 -24l-56 -96c-7.33301 -13.333 -18.5 -24.666 -33.5 -33.999
s-28.833 -14 -41.5 -14v0h-336c-13.333 0 -27.5 -4.66699 -42.5 -14s-26.167 -20.666 -33.5 -33.999l-111 -192c-4.66699 -8.66699 -7 -16.667 -7 -24c0 -16 9 -24 27 -24h1104c13.333 0 27.5 4.66699 42.5 14s26.167 20.666 33.5 33.999l55 96
c5.33301 8.66699 8 16.667 8 24c0 16 -9.33301 24 -28 24h-240c-13.333 0 -27.333 -4.66699 -42 -14s-26 -20.666 -34 -33.999l-27 -48c-8 -13.333 -19.333 -24.666 -34 -33.999s-28.667 -14 -42 -14c-18.667 0 -28 8 -28 24c0 7.33301 2.66699 15.333 8 24l55 96
c8 13.333 19.333 24.666 34 33.999s28.667 14 42 14zM460 96c-8 -13.333 -19.333 -24.666 -34 -33.999s-28.667 -14 -42 -14v0c-18.667 0 -28 8 -28 24c0 7.33301 2.66699 15.333 8 24l55 96c8 13.333 19.333 24.666 34 33.999s28.667 14 42 14v0c18.667 0 28 -8 28 -24
c0 -7.33301 -2.66699 -15.333 -8 -24zM990 432c7.33301 13.333 18.5 24.666 33.5 33.999s28.833 14 41.5 14c18.667 0 28 -8 28 -24c0 -7.33301 -2.33301 -15.333 -7 -24l-56 -96c-7.33301 -13.333 -18.5 -24.666 -33.5 -33.999s-28.833 -14 -41.5 -14
c-18.667 0 -28 8 -28 24c0 7.33301 2.33301 15.333 7 24z" />
    <glyph glyph-name="oe" unicode="&#x153;" 
d="M927 240h336c13.333 0 27.333 4.66699 42 14s26 20.666 34 33.999l110 192c5.33301 8.66699 8 16.667 8 24c0 16 -9.33301 24 -28 24h-1104c-13.333 0 -27.333 -4.66699 -42 -14s-26 -20.666 -34 -33.999l-55 -96c-4.66699 -8.66699 -7 -16.667 -7 -24
c0 -16 9 -24 27 -24h240c13.333 0 27.5 4.66699 42.5 14s26.167 20.666 33.5 33.999l28 48c7.33301 13.333 18.5 24.666 33.5 33.999s28.833 14 41.5 14v0c18.667 0 28 -8 28 -24c0 -7.33301 -2.33301 -15.333 -7 -24l-56 -96c-7.33301 -13.333 -18.5 -24.666 -33.5 -33.999
s-28.833 -14 -41.5 -14v0h-336c-13.333 0 -27.5 -4.66699 -42.5 -14s-26.167 -20.666 -33.5 -33.999l-111 -192c-4.66699 -8.66699 -7 -16.667 -7 -24c0 -16 9 -24 27 -24h1104c13.333 0 27.5 4.66699 42.5 14s26.167 20.666 33.5 33.999l55 96
c5.33301 8.66699 8 16.667 8 24c0 16 -9.33301 24 -28 24h-240c-13.333 0 -27.333 -4.66699 -42 -14s-26 -20.666 -34 -33.999l-27 -48c-8 -13.333 -19.333 -24.666 -34 -33.999s-28.667 -14 -42 -14c-18.667 0 -28 8 -28 24c0 7.33301 2.66699 15.333 8 24l55 96
c8 13.333 19.333 24.666 34 33.999s28.667 14 42 14zM460 96c-8 -13.333 -19.333 -24.666 -34 -33.999s-28.667 -14 -42 -14v0c-18.667 0 -28 8 -28 24c0 7.33301 2.66699 15.333 8 24l55 96c8 13.333 19.333 24.666 34 33.999s28.667 14 42 14v0c18.667 0 28 -8 28 -24
c0 -7.33301 -2.66699 -15.333 -8 -24zM990 432c7.33301 13.333 18.5 24.666 33.5 33.999s28.833 14 41.5 14c18.667 0 28 -8 28 -24c0 -7.33301 -2.33301 -15.333 -7 -24l-56 -96c-7.33301 -13.333 -18.5 -24.666 -33.5 -33.999s-28.833 -14 -41.5 -14
c-18.667 0 -28 8 -28 24c0 7.33301 2.33301 15.333 7 24z" />
    <glyph glyph-name="quoteleft" unicode="&#x2018;" 
d="M456 768c5.33301 8.66699 8 16.666 8 23.999c0 16 -9.33301 24 -28 24h-240c-13.333 0 -27.333 -4.66699 -42 -14s-26 -20.666 -34 -33.999l-111 -192c-10 -17.333 -15 -35.333 -15 -54c0 -10.667 2 -19 6 -25l133 -226c3.33301 -6 8 -9 14 -9c11.333 0 22 8.66699 32 26
z" />
    <glyph glyph-name="quoteright" unicode="&#x2019;" 
d="M323 785c-3.33301 6 -8 9.00098 -14 9.00098c-11.333 0 -22 -8.66699 -32 -26l-277 -480c-4.66699 -8.66699 -7 -16.667 -7 -24c0 -16 9 -24 27 -24h240c13.333 0 27.5 4.66699 42.5 14s26.167 20.666 33.5 33.999l111 192c10 17.333 15 35.333 15 54
c0 10.667 -2 19 -6 25z" />
    <glyph glyph-name="quotesinglbase" unicode="&#x201a;" 
d="M456 240c5.33301 8.66699 8 16.666 8 23.999c0 16 -9.33301 24 -28 24h-240c-13.333 0 -27.333 -4.66699 -42 -14s-26 -20.666 -34 -33.999l-111 -192c-10 -17.333 -15 -35.333 -15 -54c0 -10.667 2 -19 6 -25l133 -226c3.33301 -6 8 -9 14 -9c11.333 0 22 8.66699 32 26
z" />
    <glyph glyph-name="quotedblleft" unicode="&#x201c;" 
d="M1194 768c4.66699 8.66699 7 16.666 7 23.999c0 16 -9 24 -27 24h-240c-13.333 0 -27.5 -4.66699 -42.5 -14s-26.167 -20.666 -33.5 -33.999l-111 -192c-10 -17.333 -15 -35.333 -15 -54c0 -10.667 2 -19 6 -25l133 -226c3.33301 -6 8 -9 14 -9
c11.333 0 22 8.66699 32 26zM762 767.999c4.66699 8.66699 7 16.666 7 23.999c0 16 -9 24 -27 24h-240c-13.333 0 -27.5 -4.66699 -42.5 -14s-26.167 -20.666 -33.5 -33.999l-111 -192c-10 -17.333 -15 -35.333 -15 -54c0 -10.667 2 -19 6 -25l133 -226
c3.33301 -6 8 -9 14 -9c11.333 0 22 8.66699 32 26z" />
    <glyph glyph-name="quotedblright" unicode="&#x201d;" 
d="M157 288c-4.66699 -8.66699 -7 -16.666 -7 -23.999c0 -16 9.33301 -24 28 -24h240c12.667 0 26.5 4.66699 41.5 14s26.167 20.666 33.5 33.999l111 192c10 17.333 15 35.333 15 54c0 10.667 -1.66699 19 -5 25l-133 226c-4 6 -9 9 -15 9c-10.667 0 -21 -8.66699 -31 -26z
M913 785.001c-4 6 -9 9.00098 -15 9.00098c-10.667 0 -21 -8.66699 -31 -26l-278 -480c-4.66699 -8.66699 -7 -16.667 -7 -24c0 -16 9.33301 -24 28 -24h240c12.667 0 26.5 4.66699 41.5 14s26.167 20.666 33.5 33.999l111 192c10 17.333 15 35.333 15 54
c0 10.667 -1.66699 19 -5 25z" />
    <glyph glyph-name="quotedblbase" unicode="&#x201e;" 
d="M456 240c5.33301 8.66699 8 16.666 8 23.999c0 16 -9.33301 24 -28 24h-240c-13.333 0 -27.333 -4.66699 -42 -14s-26 -20.666 -34 -33.999l-111 -192c-10 -17.333 -15 -35.333 -15 -54c0 -10.667 2 -19 6 -25l133 -226c3.33301 -6 8 -9 14 -9c11.333 0 22 8.66699 32 26
zM888 239.999c5.33301 8.66699 8 16.666 8 23.999c0 16 -9.33301 24 -28 24h-240c-13.333 0 -27.333 -4.66699 -42 -14s-26 -20.666 -34 -33.999l-111 -192c-10 -17.333 -15 -35.333 -15 -54c0 -10.667 2 -19 6 -25l133 -226c3.33301 -6 8 -9 14 -9
c11.333 0 22 8.66699 32 26z" />
    <glyph glyph-name="dagger" unicode="&#x2020;" 
d="M922 480c4.66699 8.66699 7 16.665 7 23.998c0 16 -9.33301 24 -28 24h-120c-18 0 -27 8 -27 24c0 7.33301 2.33301 15.333 7 24l55 96c5.33301 8.66699 8 16.667 8 24c0 16 -9.33301 24 -28 24h-240c-13.333 0 -27.333 -4.66699 -42 -14s-26 -20.666 -34 -33.999
l-55 -96c-7.33301 -13.333 -18.5 -24.666 -33.5 -33.999s-29.167 -14 -42.5 -14h-120c-13.333 0 -27.333 -4.66699 -42 -14s-25.667 -20.666 -33 -33.999l-111 -192c-5.33301 -8.66699 -8 -16.667 -8 -24c0 -16 9.33301 -24 28 -24h120c24 0 36 -5.66699 36 -17
c0 -2.66699 -0.666992 -5 -2 -7l-208 -360c-10 -17.333 -15 -35.333 -15 -54c0 -10.667 2 -19 6 -25l133 -226c3.33301 -6 8 -9 14 -9c11.333 0 22 8.66699 32 26l374 648c9.33301 16 30 24 62 24h120c13.333 0 27.333 4.66699 42 14s26 20.666 34 33.999z" />
    <glyph glyph-name="bullet" unicode="&#x2022;" 
d="M260 144c13.333 0 27.5 4.66699 42.5 14s26.167 20.666 33.5 33.999l111 192c4.66699 8.66699 7 16.667 7 24c0 16 -9 24 -27 24h-240c-13.333 0 -27.5 -4.66699 -42.5 -14s-26.167 -20.666 -33.5 -33.999l-111 -192c-4.66699 -8.66699 -7 -16.667 -7 -24
c0 -16 9 -24 27 -24h240z" />
    <glyph glyph-name="ellipsis" unicode="&#x2026;" 
d="M0 48c-4.66699 -8.66699 -7 -16.667 -7 -24c0 -16 9 -24 27 -24h240c13.333 0 27.5 4.66699 42.5 14s26.167 20.666 33.5 33.999l55 96c5.33301 8.66699 8 16.667 8 24c0 16 -9.33301 24 -28 24h-240c-13.333 0 -27.333 -4.66699 -42 -14s-26 -20.666 -34 -33.999z
M432 48c-4.66699 -8.66699 -7 -16.667 -7 -24c0 -16 9 -24 27 -24h240c13.333 0 27.5 4.66699 42.5 14s26.167 20.666 33.5 33.999l55 96c5.33301 8.66699 8 16.667 8 24c0 16 -9.33301 24 -28 24h-240c-13.333 0 -27.333 -4.66699 -42 -14s-26 -20.666 -34 -33.999z
M995 192c-13.333 0 -27.333 -4.66699 -42 -14s-26 -20.666 -34 -33.999l-55 -96c-4.66699 -8.66699 -7 -16.667 -7 -24c0 -16 9 -24 27 -24h240c13.333 0 27.5 4.66699 42.5 14s26.167 20.666 33.5 33.999l55 96c5.33301 8.66699 8 16.667 8 24c0 16 -9.33301 24 -28 24
h-240z" />
    <glyph glyph-name="perthousand" unicode="&#x2030;" 
d="M291 744c-46.667 0 -95.834 -16.333 -147.501 -49s-90.834 -72.334 -117.501 -119.001c-17.333 -30 -26 -58 -26 -84c0 -25.333 8.5 -45.666 25.5 -60.999s40.833 -23 71.5 -23c46.667 0 95.834 16.333 147.501 49s90.834 72.334 117.501 119.001c17.333 30 26 58 26 84
c0 25.333 -8.5 45.666 -25.5 60.999s-40.833 23 -71.5 23zM726 168c-46 0 -94.835 -16.333 -146.502 -49s-91.167 -72.334 -118.5 -119.001c-17.333 -30 -26 -58 -26 -84c0 -25.333 8.66699 -45.666 26 -60.999s41 -23 71 -23c46.667 0 95.834 16.333 147.501 49
s90.834 72.334 117.501 119.001c17.333 30 26 58 26 84c0 25.333 -8.5 45.666 -25.5 60.999s-40.833 23 -71.5 23zM1110 168c-46 0 -94.835 -16.333 -146.502 -49s-91.167 -72.334 -118.5 -119.001c-17.333 -30 -26 -58 -26 -84c0 -25.333 8.66699 -45.666 26 -60.999
s41 -23 71 -23c46.667 0 95.834 16.333 147.501 49s90.834 72.334 117.501 119.001c17.333 30 26 58 26 84c0 25.333 -8.5 45.666 -25.5 60.999s-40.833 23 -71.5 23zM742.996 570c9.33301 17.333 14 35.333 14 54c0 10.667 -1.66699 19 -5 25l-133 226
c-3.33301 6 -8 9 -14 9c-11.333 0 -22 -8.66699 -32 -26l-513 -888c-10 -16.667 -15 -34.667 -15 -54c0 -10 2 -18.333 6 -25l133 -225c3.33301 -6.66699 8 -10 14 -10c11.333 0 22 8.66699 32 26z" />
    <glyph glyph-name=".null" horiz-adv-x="0" 
 />
    <glyph glyph-name="nonmarkingreturn" horiz-adv-x="485" 
 />
    </font>
</defs>
</svg>
